<svg width="20" height="14" viewBox="0 0 20 14" fill="none" xmlns="http://www.w3.org/2000/svg">
<path fill-rule="evenodd" clip-rule="evenodd" d="M4.69804 0.00170248C4.7626 -0.00288462 4.82649 0.00179799 4.88976 0.0157475C5.21422 0.280659 5.57026 0.496017 5.95788 0.661818C8.03607 1.49486 10.1632 1.6634 12.3392 1.16744C13.1387 0.9448 13.8508 0.560905 14.4755 0.0157475C15.3039 0.0967844 16.13 0.1951 16.9541 0.310693C16.9723 0.32942 16.9723 0.348145 16.9541 0.366873C16.2831 1.51856 15.6121 2.67026 14.9411 3.82195C16.1515 5.46443 16.5121 7.29028 16.0229 9.2995C15.458 11.2178 14.294 12.6083 12.5309 13.4709C10.5018 14.3169 8.53907 14.1484 6.64258 12.9653C4.5381 11.4176 3.62973 9.31551 3.91749 6.65904C4.08105 5.67746 4.44167 4.78324 4.99931 3.97644C4.32959 2.7666 3.66317 1.55406 3 0.338783C3.00572 0.322322 3.01487 0.308277 3.02739 0.296648C3.59201 0.221999 4.14892 0.123683 4.69804 0.00170248Z" fill="#131527"/>
<path fill-rule="evenodd" clip-rule="evenodd" d="M5.13637 0.929065C5.2081 0.921528 5.27657 0.930891 5.34178 0.957155C6.30331 2.57537 7.01539 4.30759 7.47803 6.15381C7.52834 6.38879 7.57854 6.62289 7.62866 6.85606C7.55028 7.12885 7.42703 7.38166 7.25893 7.61449C6.58929 5.26712 5.58052 3.08548 4.23257 1.06952C4.53622 1.017 4.83749 0.970186 5.13637 0.929065Z" fill="#C4FB01"/>
<path fill-rule="evenodd" clip-rule="evenodd" d="M14.6947 0.92865C15.0614 0.964383 15.4266 1.0112 15.7903 1.0691C14.4289 3.07523 13.4201 5.25687 12.7639 7.61408C12.5963 7.38205 12.473 7.12924 12.3942 6.85565C12.8389 4.74741 13.6057 2.77172 14.6947 0.92865Z" fill="#C4FB01"/>
<path fill-rule="evenodd" clip-rule="evenodd" d="M7.68344 2.02547C7.73863 2.06546 7.80253 2.08419 7.87516 2.08165C8.22517 2.17838 8.58121 2.24392 8.94328 2.27828C8.94632 2.29562 8.95544 2.30966 8.97067 2.32041C9.07984 2.33442 9.18939 2.33911 9.29932 2.33446C9.68231 2.36347 10.0657 2.36815 10.4496 2.3485C10.956 2.30797 11.4582 2.23774 11.9559 2.13783C12.0649 2.13102 12.1653 2.10293 12.2572 2.05356C12.9409 1.84348 13.5982 1.57662 14.2291 1.25299C13.5548 2.51022 13.0025 3.82579 12.5722 5.19964C12.5267 5.35812 12.4856 5.51728 12.4489 5.67717C12.4099 5.73377 12.3917 5.79931 12.3941 5.8738C12.329 5.96299 12.3016 6.06599 12.312 6.18279C12.2813 6.33414 12.2448 6.48395 12.2024 6.63223C11.4857 5.27414 10.7553 3.92581 10.0114 2.58727C9.92973 2.67949 9.86127 2.78247 9.806 2.89626C9.14612 4.14699 8.47969 5.39231 7.80669 6.63223C7.62103 5.75203 7.37454 4.89059 7.06722 4.04795C6.69907 3.09137 6.27456 2.15971 5.79369 1.25299C6.16808 1.44488 6.55151 1.62278 6.94397 1.7867C7.18479 1.8862 7.43128 1.9658 7.68344 2.02547Z" fill="#C5FD00"/>
<path fill-rule="evenodd" clip-rule="evenodd" d="M7.68367 2.0247C7.7563 2.02216 7.8202 2.04089 7.87538 2.08088C7.80275 2.08343 7.73886 2.0647 7.68367 2.0247Z" fill="#44541F"/>
<path fill-rule="evenodd" clip-rule="evenodd" d="M12.2574 2.05182C12.1655 2.10119 12.0651 2.12928 11.9561 2.13609C12.048 2.08672 12.1484 2.05863 12.2574 2.05182Z" fill="#729018"/>
<path fill-rule="evenodd" clip-rule="evenodd" d="M8.94312 2.27838C9.06617 2.29175 9.18487 2.31047 9.29916 2.33456C9.18922 2.33921 9.07967 2.33453 8.9705 2.32052C8.95528 2.30977 8.94616 2.29572 8.94312 2.27838Z" fill="#8CB214"/>
<path fill-rule="evenodd" clip-rule="evenodd" d="M11.2438 10.0868C11.1891 10.1886 11.1617 10.301 11.1617 10.4239C11.1154 11.0442 11.1793 11.6528 11.3534 12.2497C13.0349 11.6628 14.1076 10.4924 14.5715 8.73847C14.8568 7.41198 14.6423 6.1807 13.9278 5.04463C14.0707 4.7189 14.2168 4.39586 14.3661 4.07553C14.8402 4.66418 15.178 5.32899 15.3794 6.06992C15.3817 6.19174 15.4091 6.3041 15.4616 6.407C15.5964 6.99529 15.633 7.59453 15.5711 8.20476C15.5308 8.32889 15.5126 8.45999 15.5163 8.59802C15.0493 10.9172 13.7164 12.4481 11.5177 13.1907C10.8822 13.3763 10.234 13.4465 9.57319 13.4014C9.40689 13.3511 9.23344 13.323 9.05282 13.3171C7.19538 12.9334 5.83969 11.8754 4.98574 10.143C4.52055 9.14353 4.34253 8.09484 4.45167 6.99689C4.49037 6.92051 4.50864 6.83624 4.50645 6.74408C4.64229 5.78708 4.99376 4.92564 5.56088 4.1598C5.58827 4.13171 5.61565 4.10362 5.64304 4.07553C5.80121 4.39769 5.95184 4.72542 6.09494 5.05868C5.35909 6.24953 5.15825 7.53231 5.49241 8.90701C5.49318 9.00297 5.52056 9.08724 5.57457 9.15982C5.95915 10.2988 6.65297 11.1836 7.65604 11.8143C7.97478 12.0059 8.31256 12.151 8.66939 12.2497C8.70952 12.0999 8.74602 11.9501 8.77894 11.8003C8.79872 11.7885 8.81241 11.7698 8.82003 11.7441C8.88677 11.3671 8.90046 10.9925 8.86111 10.6205C8.77248 9.90202 8.54883 9.22786 8.19011 8.59802C7.96536 8.30069 7.75081 7.99636 7.54649 7.68509C7.56232 7.63422 7.57602 7.58271 7.58757 7.5306C8.38765 6.03003 9.19559 4.5319 10.0114 3.03619C10.8491 4.57662 11.6799 6.12158 12.5037 7.67105C12.2169 8.02605 11.9567 8.40058 11.7231 8.79465C11.5009 9.20246 11.3411 9.63317 11.2438 10.0868Z" fill="#C4FB01"/>
<path fill-rule="evenodd" clip-rule="evenodd" d="M12.4492 5.67593C12.4516 5.75043 12.4334 5.81596 12.3944 5.87256C12.3919 5.79807 12.4102 5.73254 12.4492 5.67593Z" fill="#44541F"/>
<path fill-rule="evenodd" clip-rule="evenodd" d="M12.3941 5.87103C12.3825 5.98134 12.3551 6.08432 12.312 6.18002C12.3016 6.06322 12.3289 5.96022 12.3941 5.87103Z" fill="#86A61A"/>
<path fill-rule="evenodd" clip-rule="evenodd" d="M9.79238 6.01416C10.5798 5.98517 11.1413 6.33163 11.4767 7.05349C11.7164 7.80692 11.5475 8.44833 10.9701 8.97766C10.3881 9.36657 9.78553 9.40401 9.16246 9.09002C8.50206 8.60316 8.26926 7.9524 8.46407 7.13776C8.7067 6.50933 9.14945 6.13481 9.79238 6.01416Z" fill="#171927"/>
<path fill-rule="evenodd" clip-rule="evenodd" d="M15.3796 6.06927C15.4235 6.1743 15.4509 6.28666 15.4618 6.40636C15.4093 6.30346 15.3819 6.1911 15.3796 6.06927Z" fill="#68831A"/>
<path fill-rule="evenodd" clip-rule="evenodd" d="M9.76516 6.20981C9.9024 6.20515 10.0393 6.20984 10.176 6.22386C10.2456 6.22779 10.3095 6.2465 10.3677 6.28004C10.2392 6.34268 10.1068 6.39417 9.97057 6.43453C9.85113 6.39434 9.737 6.34282 9.62822 6.28004C9.67409 6.25237 9.71975 6.22894 9.76516 6.20981Z" fill="#BFF004"/>
<path fill-rule="evenodd" clip-rule="evenodd" d="M9.38169 6.32123C9.53602 6.38395 9.68665 6.45887 9.83359 6.54595C9.85185 6.67704 9.85185 6.80811 9.83359 6.93921C9.65373 7.08997 9.46659 7.23042 9.27214 7.36056C9.17171 7.32312 9.0713 7.28564 8.97087 7.2482C8.92407 7.07264 8.90122 6.89474 8.9024 6.71449C9.04361 6.55519 9.20337 6.42409 9.38169 6.32123Z" fill="#C3F902"/>
<path fill-rule="evenodd" clip-rule="evenodd" d="M10.4497 6.34984C10.5705 6.3415 10.6801 6.37425 10.7784 6.44816C10.8916 6.53611 10.9966 6.63442 11.0934 6.7431C11.0797 6.9115 11.0569 7.08004 11.0249 7.24872C10.9479 7.25788 10.8749 7.28128 10.8058 7.31895C10.751 7.33768 10.6962 7.33768 10.6415 7.31895C10.4701 7.19597 10.3012 7.06956 10.1348 6.93973C10.1165 6.80864 10.1165 6.67757 10.1348 6.54647C10.2484 6.4908 10.3533 6.42524 10.4497 6.34984Z" fill="#C3F901"/>
<path fill-rule="evenodd" clip-rule="evenodd" d="M4.50663 6.74411C4.50882 6.83627 4.49055 6.92054 4.45185 6.99692C4.44966 6.90476 4.46793 6.82049 4.50663 6.74411Z" fill="#51651D"/>
<path fill-rule="evenodd" clip-rule="evenodd" d="M8.72442 6.96951C8.7586 6.99294 8.77687 7.03038 8.7792 7.08187C8.79903 7.17533 8.80357 7.26898 8.79289 7.36277C8.72899 7.42831 8.66507 7.49387 8.60118 7.5594C8.59444 7.35286 8.63552 7.15623 8.72442 6.96951Z" fill="#BBEC05"/>
<path fill-rule="evenodd" clip-rule="evenodd" d="M10.3673 8.23269C10.1094 8.24125 9.85379 8.2319 9.60045 8.20459C9.54398 7.97465 9.47093 7.74993 9.38135 7.53043C9.57388 7.37066 9.77472 7.22083 9.98388 7.08099C10.1969 7.21998 10.3977 7.37448 10.5864 7.54448C10.4995 7.76973 10.4265 7.99912 10.3673 8.23269Z" fill="#C4FB01"/>
<path fill-rule="evenodd" clip-rule="evenodd" d="M11.2163 6.99686C11.2425 7.00958 11.2654 7.02829 11.2848 7.05304C11.3778 7.21922 11.4143 7.39711 11.3943 7.58675C11.3213 7.51183 11.2483 7.43694 11.1752 7.36203C11.1552 7.23607 11.1689 7.11433 11.2163 6.99686Z" fill="#AEDC0D"/>
<path fill-rule="evenodd" clip-rule="evenodd" d="M8.83394 7.50198C8.98227 7.50741 9.11464 7.55423 9.23106 7.64243C9.29597 7.85154 9.35532 8.06221 9.40908 8.27446C9.36189 8.37101 9.30712 8.46463 9.24476 8.55536C9.10464 8.57528 8.9677 8.56123 8.83394 8.51322C8.67635 8.28584 8.59873 8.03303 8.60114 7.75479C8.68435 7.6742 8.76194 7.58993 8.83394 7.50198Z" fill="#C3F901"/>
<path fill-rule="evenodd" clip-rule="evenodd" d="M11.0249 7.50264C11.0625 7.49823 11.0991 7.50292 11.1345 7.51669C11.2121 7.59626 11.2897 7.67587 11.3673 7.75545C11.3808 7.8877 11.3717 8.0188 11.3399 8.14871C11.2818 8.28191 11.2133 8.40832 11.1345 8.52793C11.0086 8.56706 10.8808 8.57641 10.751 8.55602C10.64 8.46234 10.5807 8.34529 10.573 8.20489C10.652 8.01492 10.7068 7.81829 10.7373 7.615C10.8364 7.57935 10.9323 7.54191 11.0249 7.50264Z" fill="#C3F901"/>
<path fill-rule="evenodd" clip-rule="evenodd" d="M8.61491 10.4241C8.62099 10.8179 8.61184 11.2112 8.58752 11.6038C8.58141 11.7339 8.54945 11.8556 8.49166 11.969C8.14625 11.8248 7.82674 11.6375 7.53309 11.4072C7.6846 10.2216 7.60701 9.05117 7.30029 7.89596C7.30487 7.87723 7.30941 7.85852 7.31399 7.83978C8.01481 8.5563 8.44844 9.41774 8.61491 10.4241Z" fill="#C4FA01"/>
<path fill-rule="evenodd" clip-rule="evenodd" d="M12.4489 9.52518C12.4106 9.77221 12.3923 10.025 12.3942 10.2836C12.3886 10.4869 12.4069 10.6835 12.4489 10.8735C12.4674 11.0617 12.4674 11.249 12.4489 11.4353C12.1586 11.6444 11.8481 11.8222 11.5177 11.969C11.2946 11.1188 11.3448 10.2855 11.6684 9.469C11.9065 8.85527 12.2489 8.3122 12.6954 7.83978C12.6816 8.08374 12.6405 8.3272 12.5722 8.57012C12.5176 8.88684 12.4765 9.20521 12.4489 9.52518Z" fill="#C4FB01"/>
<path fill-rule="evenodd" clip-rule="evenodd" d="M9.60063 8.20523C9.85397 8.23253 10.1096 8.24189 10.3675 8.23332C10.2446 8.25203 10.1168 8.26138 9.98406 8.26141C9.84572 8.26121 9.71793 8.24251 9.60063 8.20523Z" fill="#495A1B"/>
<path fill-rule="evenodd" clip-rule="evenodd" d="M15.5713 8.20523C15.5751 8.34327 15.5569 8.47436 15.5166 8.59849C15.5128 8.46046 15.531 8.32936 15.5713 8.20523Z" fill="#45541F"/>
<path fill-rule="evenodd" clip-rule="evenodd" d="M9.62824 8.42942C9.86577 8.42476 10.1031 8.42942 10.3403 8.44347C10.4148 8.53563 10.4787 8.63394 10.532 8.73841C10.494 8.84462 10.4483 8.9476 10.3951 9.0474C10.2572 9.11468 10.1111 9.14277 9.95689 9.13167C9.83633 9.13209 9.71766 9.11805 9.60085 9.08954C9.53884 8.98108 9.48407 8.86872 9.43652 8.75246C9.49023 8.63743 9.55415 8.52976 9.62824 8.42942Z" fill="#C0F503"/>
<path fill-rule="evenodd" clip-rule="evenodd" d="M9.02562 8.71002C9.10965 8.71134 9.19181 8.72539 9.27211 8.75216C9.28928 8.81797 9.31667 8.87884 9.35427 8.93474C9.31894 8.96025 9.28243 8.95556 9.24472 8.9207C9.15672 8.86311 9.08371 8.79289 9.02562 8.71002Z" fill="#B0E009"/>
<path fill-rule="evenodd" clip-rule="evenodd" d="M10.751 8.7107C10.8246 8.70609 10.8977 8.71078 10.9701 8.72474C10.872 8.8207 10.7624 8.90028 10.6415 8.96351C10.6382 8.86665 10.6747 8.78238 10.751 8.7107Z" fill="#AEDC0B"/>
<path fill-rule="evenodd" clip-rule="evenodd" d="M5.49266 8.90521C5.53571 8.98148 5.5631 9.06575 5.57482 9.15802C5.52082 9.08544 5.49343 9.00117 5.49266 8.90521Z" fill="#6E8B1A"/>
<path fill-rule="evenodd" clip-rule="evenodd" d="M11.2438 10.086C11.2299 10.205 11.2025 10.3173 11.1616 10.423C11.1617 10.3002 11.1891 10.1878 11.2438 10.086Z" fill="#749319"/>
<path fill-rule="evenodd" clip-rule="evenodd" d="M12.4491 9.52542C12.418 9.975 12.418 10.4244 12.4491 10.8737C12.407 10.6837 12.3887 10.4871 12.3943 10.2839C12.3925 10.0253 12.4107 9.77244 12.4491 9.52542Z" fill="#637D1B"/>
<path fill-rule="evenodd" clip-rule="evenodd" d="M8.61481 10.4228C8.64658 10.7644 8.65115 11.1108 8.6285 11.4621C8.62308 11.515 8.60938 11.5618 8.58742 11.6026C8.61174 11.2099 8.62089 10.8167 8.61481 10.4228Z" fill="#96BE12"/>
<path fill-rule="evenodd" clip-rule="evenodd" d="M8.86122 10.6192C8.90057 10.9912 8.88688 11.3657 8.82013 11.7428C8.81252 11.7685 8.79883 11.7872 8.77905 11.799C8.84448 11.4088 8.87187 11.0155 8.86122 10.6192Z" fill="#84A716"/>
<path fill-rule="evenodd" clip-rule="evenodd" d="M9.05269 13.3164C9.23331 13.3222 9.40676 13.3503 9.57306 13.4007C9.39284 13.3929 9.2194 13.3648 9.05269 13.3164Z" fill="#586D1D"/>
</svg>
