<svg width="20" height="14" viewBox="0 0 20 14" fill="none" xmlns="http://www.w3.org/2000/svg">
<g clip-path="url(#clip0_676_2110)">
<g clip-path="url(#clip1_676_2110)">
<path d="M20 0.0221252H0V13.9779H20V0.0221252Z" fill="#D20515"/>
<path d="M6.20001 9.48501C6.11001 9.24645 6.02001 8.99794 5.93001 8.74944C5.91001 8.70968 5.90001 8.65998 5.89001 8.62022C5.88001 8.5407 5.85001 8.48106 5.75001 8.47112C5.72001 8.47112 5.69001 8.42142 5.68001 8.38166C5.61001 8.0934 5.52001 7.79521 5.47001 7.50695C5.41001 7.15905 5.39001 6.8012 5.35001 6.4533C5.34001 6.32408 5.35001 6.20481 5.35001 6.07559C5.34001 6.07559 5.31001 6.09547 5.26001 6.11535C5.26001 6.06565 5.24001 6.006 5.25001 5.96624C5.28001 5.67798 5.31001 5.38973 5.35001 5.10147C5.41001 4.69393 5.50001 4.28639 5.64001 3.88879C5.69001 3.75957 5.75001 3.66017 5.89001 3.63035C5.96001 3.61047 6.02001 3.58064 6.08001 3.54088C5.87001 3.521 5.66001 3.51106 5.45001 3.49118C5.32001 3.49118 5.20001 3.47131 5.07001 3.46137C5.04001 3.46137 4.99001 3.46136 4.97001 3.49118C4.62001 3.78939 4.27001 4.09752 3.91001 4.38578C3.81001 4.4653 3.76001 4.55476 3.72001 4.67404C3.70001 4.72374 3.67001 4.77345 3.63001 4.81321C3.47001 4.95237 3.30001 5.06171 3.08001 5.07165C3.02001 5.07165 2.95001 5.07165 2.89001 5.06171C2.86001 5.06171 2.82001 5.02195 2.81001 4.99213C2.81001 4.97225 2.84001 4.93249 2.86001 4.91261C2.92001 4.86291 2.99001 4.82315 3.05001 4.77345C3.09001 4.74363 3.12001 4.71381 3.16001 4.68399C3.16001 4.68399 3.15001 4.67405 3.14001 4.66411C3.10001 4.68399 3.06001 4.70386 3.02001 4.7138C2.97001 4.73368 2.91001 4.74363 2.86001 4.75357C2.81001 4.75357 2.77001 4.75357 2.76001 4.70387C2.75001 4.65417 2.77001 4.62435 2.82001 4.60447C2.87001 4.58459 2.92001 4.57465 2.96001 4.54483C3.04001 4.49513 3.12001 4.43548 3.18001 4.3659C3.27001 4.2665 3.36001 4.17704 3.51001 4.15716C3.53001 4.15716 3.56001 4.12735 3.58001 4.10747C3.92001 3.69993 4.26001 3.29238 4.59001 2.8749C4.70001 2.73574 4.83001 2.65623 5.01001 2.68605C5.02001 2.68605 5.03001 2.67611 5.03001 2.66617C5.07001 2.53695 5.07001 2.53694 5.21001 2.527C5.60001 2.50712 5.98001 2.48724 6.37001 2.4773C6.64001 2.4773 6.91001 2.49718 7.17001 2.56676C7.18001 2.56676 7.20001 2.56676 7.21001 2.56676C7.23001 2.44748 7.24001 2.3282 7.27001 2.21886C7.39001 1.75168 7.82001 1.51312 8.29001 1.66222C8.52001 1.7318 8.71001 1.86102 8.85001 2.05982C8.94001 2.18904 8.97001 2.3282 8.90001 2.4773C8.83001 2.61646 8.83001 2.76557 8.85001 2.92461C8.85001 2.97431 8.86001 3.024 8.86001 3.0737C8.86001 3.10352 8.84001 3.14329 8.82001 3.15323C8.72001 3.21287 8.67001 3.30233 8.62001 3.40173C8.60001 3.44149 8.58001 3.49118 8.56001 3.54088C8.49001 3.69992 8.49001 3.69993 8.31001 3.68999C8.22001 3.68999 8.11001 3.65023 8.04001 3.68999C7.97001 3.72975 7.95001 3.83909 7.91001 3.91861C7.70001 4.38579 7.52001 4.86291 7.42001 5.35991C7.42001 5.37979 7.42001 5.40961 7.41001 5.42949C7.41001 5.43943 7.41001 5.44937 7.41001 5.46925C7.57001 5.48913 7.73001 5.50901 7.89001 5.52889C8.37001 5.59847 8.86001 5.6581 9.34001 5.72768C9.37001 5.72768 9.40001 5.76744 9.41001 5.79726C9.43001 5.84696 9.45001 5.86684 9.50001 5.87678C9.89001 5.93642 10.27 6.03582 10.64 6.19486C10.68 6.21474 10.72 6.21474 10.77 6.22468C10.95 6.24456 11.13 6.26445 11.3 6.28433C11.31 6.28433 11.33 6.28433 11.33 6.28433C11.39 6.21475 11.46 6.26445 11.52 6.28433C11.92 6.44337 12.31 6.6024 12.71 6.77138C13.4 7.05964 14.12 7.1988 14.87 7.20874C14.95 7.20874 15.04 7.20874 15.12 7.22862C15.17 7.2485 15.22 7.29821 15.26 7.33797C15.27 7.33797 15.27 7.37772 15.26 7.38766C15.21 7.4473 15.16 7.53677 15.09 7.56659C15.02 7.59641 14.95 7.5964 14.89 7.66598C14.88 7.68586 14.83 7.66598 14.79 7.66598C14.78 7.66598 14.76 7.66598 14.75 7.66598C14.55 7.75544 14.35 7.8449 14.15 7.9443C14.14 7.9443 14.12 7.96419 14.12 7.98407C14.1 8.05365 14.04 8.08346 13.97 8.05364C13.93 8.03376 13.91 8.05364 13.89 8.08346C13.87 8.15304 13.81 8.18287 13.74 8.15305C13.72 8.15305 13.7 8.15305 13.68 8.15305C13.53 8.18287 13.42 8.11328 13.39 7.96418C13.38 7.8946 13.37 7.82502 13.36 7.76538C13.36 7.6958 13.32 7.65605 13.24 7.64611C12.79 7.55664 12.35 7.56659 11.89 7.56659C11.67 7.56659 11.45 7.5467 11.23 7.51688C11.13 7.50694 11.03 7.44731 10.95 7.39761C10.8 7.2982 10.65 7.25845 10.47 7.25845C10.08 7.25845 9.69001 7.23856 9.29001 7.22862C9.24001 7.22862 9.21001 7.22862 9.20001 7.28826C9.20001 7.33796 9.16001 7.33797 9.11001 7.33797C8.60001 7.33797 8.08001 7.33797 7.57001 7.33797C7.40001 7.33797 7.22001 7.33796 7.04001 7.3479C7.12001 7.38766 7.20001 7.42742 7.28001 7.46718C7.31001 7.48706 7.33001 7.51689 7.34001 7.54671C7.37001 7.80515 7.40001 8.06359 7.43001 8.32203C7.44001 8.40155 7.46001 8.49101 7.34001 8.48107C7.36001 8.73951 7.37001 8.99794 7.39001 9.25638C7.39001 9.41542 7.40001 9.56453 7.40001 9.72357C7.40001 9.92237 7.32001 10.0715 7.16001 10.1709C7.01001 10.2603 6.86001 10.3498 6.71001 10.4392C6.71001 10.4591 6.72001 10.479 6.73001 10.5188C6.55001 10.5983 6.38001 10.6778 6.20001 10.7474C5.72001 10.9263 5.23001 11.1052 4.74001 11.2941C4.36001 11.4432 3.99001 11.6122 3.67001 11.8706C3.50001 12.0098 3.35001 12.1688 3.25001 12.3577C3.20001 12.4372 3.15001 12.467 3.07001 12.4471C2.99001 12.4272 2.95001 12.3775 2.95001 12.2781C2.95001 12.2086 2.97001 12.139 2.91001 12.0793C2.89001 12.0595 2.90001 11.9899 2.91001 11.97C2.97001 11.9004 2.98001 11.8408 2.96001 11.7513C2.95001 11.7215 2.98001 11.6619 3.00001 11.632C3.02001 11.6022 3.06001 11.5724 3.09001 11.5426C3.17001 11.4332 3.26001 11.3338 3.34001 11.2245C3.37001 11.1847 3.40001 11.135 3.38001 11.0655C3.38001 11.0356 3.42001 10.9859 3.44001 10.9462C3.46001 10.9164 3.48001 10.8865 3.48001 10.8468C3.48001 10.7673 3.50001 10.7275 3.57001 10.7076C3.59001 10.7076 3.60001 10.6977 3.61001 10.6877C3.70001 10.6182 3.80001 10.6281 3.90001 10.6877C3.98001 10.7275 4.07001 10.7673 4.16001 10.7871C4.35001 10.8269 4.50001 10.7474 4.64001 10.6281C4.89001 10.3995 5.13001 10.1808 5.39001 9.96213C5.50001 9.86273 5.63001 9.77327 5.76001 9.70369C5.89001 9.63411 6.03001 9.57447 6.17001 9.51483L6.20001 9.48501Z" fill="white"/>
<path d="M16.32 6.9503C15.82 6.9503 15.41 6.5527 15.42 6.0557C15.42 5.5587 15.82 5.1611 16.31 5.1611C16.82 5.1611 17.23 5.5587 17.23 6.0557C17.23 6.5527 16.83 6.96024 16.32 6.96024V6.9503Z" fill="white"/>
</g>
</g>
<defs>
<clipPath id="clip0_676_2110">
<rect width="20" height="14" fill="white"/>
</clipPath>
<clipPath id="clip1_676_2110">
<rect width="20" height="14" fill="white"/>
</clipPath>
</defs>
</svg>
