<svg width="20" height="14" viewBox="0 0 20 14" fill="none" xmlns="http://www.w3.org/2000/svg">
<path d="M11.4372 0.0219751C11.0562 0.164813 10.6969 0.340614 10.3703 0.593328C10.3377 0.626291 10.2941 0.648266 10.2615 0.681229C10.2615 0.681229 10.2506 0.703204 10.2288 0.725179C10.3159 0.758142 10.403 0.780117 10.4901 0.802092C10.9255 0.955918 11.361 1.12073 11.7964 1.27456C11.8944 1.30752 11.9924 1.3295 12.0903 1.35147C12.7653 1.48332 13.4076 1.69209 14.0281 1.98875C14.0499 1.99974 14.0825 2.01072 14.1478 2.0327C14.1805 1.79097 14.2131 1.54925 14.2458 1.31851C14.2785 1.34048 14.3111 1.37345 14.3329 1.40641C14.6813 1.769 14.9425 2.18653 15.1711 2.63702C15.2038 2.70294 15.2582 2.76887 15.3126 2.8238C15.8352 3.27429 16.2489 3.81269 16.5537 4.42799C16.5754 4.47194 16.5863 4.5049 16.619 4.57083C16.3359 4.37305 16.0529 4.26318 15.7154 4.20824C15.9876 5.53773 15.9658 6.87822 16.1291 8.2187C16.4666 8.07586 16.7496 7.8671 17 7.57043C16.9782 7.66932 16.9565 7.7792 16.9347 7.87808C16.7823 8.46043 16.5428 8.99882 16.1944 9.48227C16.1182 9.58116 16.0856 9.69103 16.0638 9.8119C16.0094 10.2184 15.9223 10.625 15.7372 10.9986C15.7154 11.0425 15.6937 11.0865 15.6719 11.1194C15.5086 10.9546 15.3453 10.8008 15.182 10.647C15.1276 10.592 15.084 10.592 15.0187 10.647C14.4962 11.0095 13.9301 11.2732 13.3096 11.4381C13.2769 11.4381 13.2334 11.493 13.2334 11.526C13.2007 11.9105 13.179 12.2951 13.1572 12.6797C13.1572 12.6906 13.1572 12.7016 13.1681 12.7236C13.7342 12.6137 14.2676 12.4159 14.7683 12.1193C14.605 12.4269 13.3749 13.229 12.602 13.5257C11.7855 13.8443 10.9473 14.0201 10.0764 13.9982C10.4248 13.8993 10.7622 13.7454 11.0997 13.5257C11.0562 13.5037 11.0453 13.4927 11.0235 13.4817C10.7296 13.284 10.4357 13.0862 10.1417 12.8774C10.1091 12.8555 10.0655 12.8335 10.022 12.8335C9.55388 12.8335 9.08577 12.8445 8.60678 12.8555C8.5959 12.8555 8.58501 12.8555 8.55235 12.8555C8.55235 13.2071 8.61767 13.5477 8.77008 13.8883C8.37817 13.7894 8.0407 13.6136 7.74678 13.3609C7.53994 13.1851 7.35488 12.9763 7.14804 12.7895C7.1045 12.7456 7.05007 12.7126 6.99564 12.7016C6.42956 12.5918 5.88525 12.4379 5.38449 12.1413C5.21031 12.0314 5.04702 11.9105 4.88372 11.7677C5.38449 11.8446 5.8417 11.7567 6.30981 11.5809C6.28804 11.5369 6.26626 11.493 6.25538 11.46C6.01588 10.9546 5.77639 10.4492 5.53689 9.95473C5.51512 9.91078 5.48246 9.85585 5.43892 9.82288C5.06879 9.5482 4.68777 9.28449 4.30676 9.0098C4.29587 9.0098 4.2741 8.98783 4.25233 8.97684C4.02372 9.35042 3.87131 9.74597 3.76245 10.1855C3.62093 9.87782 3.53384 9.57017 3.50118 9.26252C3.46853 8.94388 3.45764 8.61425 3.43587 8.29561C3.43587 8.22969 3.40321 8.16376 3.37055 8.09784C3.26169 7.88907 3.14194 7.68031 3.02219 7.47154C2.97865 7.38364 3.00042 7.32871 3.07662 7.28476C3.22903 7.19686 3.38144 7.10895 3.53384 7.03204C3.61004 6.99908 3.65359 6.95513 3.67536 6.87822C3.82777 6.37279 4.0346 5.88934 4.30676 5.42786C4.32853 5.39489 4.33942 5.33996 4.32853 5.31798C4.17612 5.03231 4.02372 4.75762 3.87131 4.46095C3.57739 4.81255 3.32701 5.19712 3.10928 5.60366C3.40321 3.90059 4.2741 2.53813 5.58044 1.4174C5.36271 1.82394 5.14499 2.21949 4.93815 2.61504C4.93815 2.61504 4.95993 2.63702 4.97081 2.648C5.09056 2.62603 5.21031 2.60405 5.33006 2.58208C5.52601 2.54912 5.73284 2.5601 5.90702 2.4722C6.07031 2.3843 6.17917 2.19751 6.33158 2.06566C6.63639 1.80196 6.95209 1.53826 7.2569 1.28555C7.37665 1.18666 7.38754 1.18666 7.28956 1.04382C7.1807 0.889993 7.06095 0.736167 6.93032 0.549378C7.12627 0.516416 7.31133 0.472465 7.48551 0.461478C7.8883 0.45049 8.29109 0.45049 8.69387 0.439503C8.72653 0.439503 8.77008 0.439503 8.80273 0.428515C9.42324 0.197776 10.0655 0.0549378 10.7296 0.0109876C10.7405 0.0109876 10.7622 0.0109876 10.7731 0C10.9908 0 11.2086 0 11.4263 0L11.4372 0.0219751ZM11.263 12.8994C11.3392 12.8994 11.4045 12.8994 11.4807 12.8994C12.0686 12.8774 11.8944 12.9653 12.3081 12.5368C13.0157 11.7897 13.5818 10.9436 14.1152 10.0646C14.1696 9.97671 14.1261 9.94375 14.0716 9.88881C13.6035 9.51523 13.1681 9.10869 12.7762 8.6582C12.7326 8.61425 12.6673 8.5703 12.602 8.54833C11.8291 8.35055 11.0453 8.15277 10.2724 7.955C10.0982 7.91105 10.0655 7.92203 9.97844 8.07586C9.63008 8.68018 9.29261 9.27351 8.95514 9.87782C8.93337 9.91078 8.92248 9.94375 8.9116 9.9877C8.80273 10.614 8.70476 11.2403 8.5959 11.8666C8.57413 11.9984 8.61767 12.0753 8.72653 12.1303C9.00957 12.2731 9.28173 12.4269 9.56476 12.5588C9.81515 12.6797 10.0546 12.8335 10.3486 12.8445C10.6643 12.8664 10.98 12.8884 11.2957 12.9104L11.263 12.8994ZM4.40473 5.40588C4.43739 5.68057 4.48094 6.14205 4.53537 6.59254C4.55714 6.75735 4.56803 6.75735 4.72043 6.73538C5.15588 6.66945 5.59132 6.61451 6.02677 6.55958C6.1574 6.5376 6.28804 6.55958 6.40778 6.50464C6.98475 6.28489 7.55083 6.03217 8.13868 5.81242C8.34552 5.73551 8.42172 5.61465 8.43261 5.3949C8.45438 4.72465 8.54147 4.05441 8.69387 3.39516C8.70476 3.34022 8.69387 3.26331 8.65033 3.21936C8.37818 2.81282 8.08425 2.41726 7.8121 2.01072C7.74678 1.92282 7.67058 1.87887 7.5726 1.91184C7.40931 1.96677 7.24602 2.01072 7.08272 2.06566C6.58196 2.24146 6.07031 2.39529 5.65664 2.74689C5.34094 3.01059 5.03613 3.28528 4.73132 3.54898C4.666 3.60392 4.62246 3.69182 4.60068 3.76874C4.48094 4.2412 4.41562 4.72465 4.40473 5.3949V5.40588ZM13.9301 8.59228C14.2458 8.58129 14.518 8.55931 14.7901 8.54833C14.8881 8.54833 14.9534 8.50438 14.9969 8.41648C15.2909 7.73525 15.5739 7.05402 15.8678 6.37279C15.9005 6.28489 15.9005 6.21896 15.857 6.13106C15.5304 5.49378 15.1494 4.87848 14.7575 4.28515C14.6704 4.1533 14.5724 4.09836 14.4309 4.13132C14.3982 4.13132 14.3764 4.13132 14.3438 4.13132C13.8104 4.23021 13.2661 4.31811 12.7326 4.417C12.6564 4.42799 12.5693 4.48293 12.5149 4.53786C12.0359 5.14218 11.5678 5.75748 11.0888 6.37279C11.0126 6.48266 11.0126 6.57056 11.0997 6.66945C11.6331 7.24081 12.1666 7.82315 12.7109 8.3945C12.7435 8.42746 12.7871 8.44944 12.8306 8.44944C13.2116 8.49339 13.6035 8.52635 13.941 8.5703L13.9301 8.59228ZM9.97844 5.12021C10.0438 5.10922 10.0764 5.09823 10.1091 5.08724C10.8929 4.8565 11.6767 4.62577 12.4496 4.38404C12.4931 4.37305 12.5258 4.35108 12.5585 4.31811C12.9395 3.93355 13.2878 3.52701 13.5926 3.07652C13.6471 2.98862 13.6471 2.92269 13.5709 2.84578C13.0701 2.31838 12.5367 1.83492 11.9379 1.4174C11.8835 1.38443 11.8073 1.35147 11.742 1.35147C11.0344 1.39542 10.3268 1.43937 9.61919 1.48332C9.55388 1.48332 9.46679 1.54925 9.43413 1.60418C9.12932 2.09862 8.96603 2.65899 8.83539 3.21936C8.83539 3.25232 8.83539 3.29627 8.85717 3.32923C9.18375 3.8896 9.52122 4.44996 9.8478 4.99934C9.88046 5.04329 9.93489 5.07626 9.97844 5.10922V5.12021ZM8.79185 9.85585C8.79185 9.85585 8.78096 9.77893 8.77008 9.74597C8.66121 9.04277 8.56324 8.33956 8.46526 7.62537C8.43261 7.40562 8.43261 7.39463 8.22577 7.31772C7.63792 7.10896 7.05007 6.8892 6.46221 6.66945C6.3969 6.64748 6.35335 6.64748 6.29892 6.69143C5.79816 7.08698 5.34094 7.52648 4.92727 8.02092C4.89461 8.06487 4.86195 8.16376 4.88372 8.20771C5.0579 8.68018 5.23208 9.15264 5.41714 9.62511C5.4498 9.724 5.51512 9.82288 5.59132 9.88881C6.0812 10.2953 6.58196 10.6909 7.07184 11.0865C7.14804 11.1524 7.23513 11.1524 7.31133 11.0865C7.82298 10.7568 8.29109 10.3723 8.72653 9.93276C8.7483 9.91078 8.77008 9.86683 8.78096 9.84486L8.79185 9.85585Z" fill="#01016F"/>
</svg>
