<svg width="20" height="14" viewBox="0 0 20 14" fill="none" xmlns="http://www.w3.org/2000/svg">
<g clip-path="url(#clip0_676_2303)">
<path d="M9.78425 2.67604L9.49667 1.35186L9.78425 0.0276832C9.79323 -0.00922772 9.84715 -0.00922772 9.85614 0.0276832L10.1437 1.35186L9.85614 2.67604C9.84715 2.71295 9.79323 2.71295 9.78425 2.67604Z" fill="#D8B97D"/>
<path d="M9.14201 2.7289L8.66122 1.4647L8.75109 0.112839C8.75558 0.0713138 8.80951 0.0667 8.82299 0.103611L9.30377 1.36781L9.2184 2.71967C9.20941 2.75658 9.15549 2.76581 9.14201 2.7289Z" fill="#D8B97D"/>
<path d="M8.5124 2.88782L7.84739 1.7159L7.73505 0.364034C7.73056 0.322509 7.78448 0.308667 7.80245 0.340964L8.46298 1.51289L8.5798 2.86475C8.5843 2.90627 8.53038 2.92011 8.5124 2.88782Z" fill="#D8B97D"/>
<path d="M7.91521 3.14003L7.08394 2.08807L6.76941 0.768508C6.76042 0.731597 6.80985 0.703913 6.83231 0.73621L7.65909 1.79279L7.97362 3.10774C7.9871 3.14465 7.93768 3.17233 7.91521 3.14003Z" fill="#D8B97D"/>
<path d="M7.36209 3.48677L6.38703 2.57322L5.87928 1.31825C5.8658 1.28134 5.91073 1.24905 5.93769 1.27673L6.91275 2.19027L7.4205 3.44063C7.43398 3.47754 7.38905 3.50984 7.36209 3.48677Z" fill="#D8B97D"/>
<path d="M6.86798 3.91098L5.76711 3.16353L5.07962 2.00545C5.06165 1.96854 5.0976 1.93163 5.13355 1.9547L6.23442 2.70214L6.9219 3.86022C6.93987 3.89252 6.89943 3.93405 6.86798 3.91098Z" fill="#D8B97D"/>
<path d="M6.44143 4.41062L5.24171 3.84312L4.39247 2.805C4.37 2.7727 4.40145 2.73118 4.4374 2.74502L5.63712 3.31252L6.48637 4.35064C6.50883 4.38294 6.47738 4.42908 6.44143 4.41062Z" fill="#D8B97D"/>
<path d="M6.09514 4.97178L4.82352 4.59806L3.83049 3.70758C3.80353 3.6799 3.826 3.63376 3.86644 3.64298L5.13357 4.01671L6.1266 4.90718C6.15805 4.93025 6.13109 4.98101 6.09514 4.97178Z" fill="#D8B97D"/>
<path d="M5.83489 5.5758L4.52283 5.40509L3.40848 4.68071C3.37702 4.65764 3.395 4.60689 3.43094 4.6115L4.73851 4.78221L5.85286 5.50659C5.8933 5.52966 5.87533 5.58041 5.83489 5.5758Z" fill="#D8B97D"/>
<path d="M5.66872 6.21924L4.34767 6.25615L3.13896 5.71172C3.10301 5.69326 3.112 5.64251 3.15244 5.63789L4.47348 5.60098L5.6822 6.14081C5.71814 6.16387 5.70916 6.21924 5.66872 6.21924Z" fill="#D8B97D"/>
<path d="M5.60111 6.87792L4.30253 7.12246L3.02642 6.77642C2.99048 6.76719 2.99048 6.71183 3.03092 6.7026L4.325 6.46268L5.60111 6.80872C5.64155 6.81794 5.63706 6.87331 5.60111 6.87792Z" fill="#D8B97D"/>
<path d="M5.62805 7.54241L4.3789 7.98995L3.06684 7.84692C3.0264 7.84231 3.02191 7.78694 3.05785 7.7731L4.307 7.33017L5.61906 7.46859C5.6595 7.4732 5.664 7.52857 5.62805 7.54241Z" fill="#D8B97D"/>
<path d="M5.7581 8.1929L4.58983 8.82961L3.26879 8.89421C3.22835 8.89421 3.21487 8.84346 3.25081 8.82039L4.41909 8.18829L5.73564 8.11908C5.77608 8.11908 5.78956 8.17445 5.7581 8.1929Z" fill="#D8B97D"/>
<path d="M5.98285 8.8165L4.92691 9.62854L3.63283 9.90075C3.59688 9.90998 3.57441 9.85923 3.60137 9.83155L4.6618 9.02412L5.95589 8.7519C5.99184 8.74267 6.00981 8.79343 5.98285 8.8165Z" fill="#D8B97D"/>
<path d="M6.29272 9.39842L5.36709 10.3673L4.12693 10.8379C4.09098 10.8518 4.05953 10.8056 4.08649 10.7734L5.01212 9.80905L6.24779 9.33844C6.29272 9.3246 6.31968 9.37074 6.29272 9.39842Z" fill="#D8B97D"/>
<path d="M6.69269 9.92259L5.92432 11.0253L4.76953 11.6851C4.73359 11.7035 4.69764 11.662 4.72011 11.6297L5.49296 10.5316L6.64326 9.87184C6.67921 9.84416 6.71066 9.88568 6.69269 9.92259Z" fill="#D8B97D"/>
<path d="M7.16043 10.3756L6.56282 11.5844L5.52036 12.4149C5.48891 12.438 5.44847 12.4057 5.46644 12.3688L6.06406 11.1599L7.10651 10.3248C7.13797 10.3064 7.17841 10.3433 7.16043 10.3756Z" fill="#D8B97D"/>
<path d="M7.69047 10.7523L7.28158 12.0396L6.37392 13.0269C6.34696 13.0546 6.30203 13.0269 6.31101 12.99L6.7244 11.7027L7.62757 10.7154C7.65902 10.6877 7.70395 10.7154 7.69047 10.7523Z" fill="#D8B97D"/>
<path d="M8.27439 11.0452L8.05871 12.3832L7.30832 13.4998C7.28585 13.5321 7.23642 13.5136 7.24092 13.4721L7.4566 12.1341L8.20249 11.0175C8.22946 10.9852 8.27888 11.0037 8.27439 11.0452Z" fill="#D8B97D"/>
<path d="M8.89018 11.2385L8.8767 12.595L8.30155 13.8176C8.28358 13.8546 8.22966 13.8407 8.22966 13.7992L8.24314 12.4427L8.8138 11.22C8.84076 11.1877 8.89018 11.2016 8.89018 11.2385Z" fill="#D8B97D"/>
<path d="M9.53289 11.3356L9.72161 12.6782L9.33518 13.9747C9.3217 14.0116 9.26778 14.007 9.26329 13.9701L9.07457 12.6275L9.4565 11.331C9.46998 11.2941 9.5239 11.2941 9.53289 11.3356Z" fill="#D8B97D"/>
<path d="M10.8175 11.2233L11.3927 12.446L11.4062 13.8025C11.4062 13.844 11.3523 13.8532 11.3343 13.8209L10.7636 12.5983L10.7501 11.2418C10.7456 11.2003 10.7996 11.1864 10.8175 11.2233Z" fill="#D8B97D"/>
<path d="M11.4288 11.0164L12.1792 12.133L12.3949 13.471C12.3994 13.5125 12.3499 13.531 12.3275 13.4987L11.5816 12.3822L11.3659 11.0441C11.3569 11.0072 11.4063 10.9842 11.4288 11.0164Z" fill="#D8B97D"/>
<path d="M12.0086 10.7153L12.9162 11.7026L13.3251 12.9899C13.3386 13.0268 13.2892 13.0545 13.2622 13.0268L12.3591 12.0441L11.9457 10.7568C11.9322 10.7153 11.9816 10.6876 12.0086 10.7153Z" fill="#D8B97D"/>
<path d="M12.5339 10.33L13.5764 11.1605L14.174 12.3693C14.192 12.4062 14.1515 12.4385 14.1201 12.4155L13.0776 11.585L12.48 10.3761C12.4575 10.3438 12.5025 10.3069 12.5339 10.33Z" fill="#D8B97D"/>
<path d="M12.9924 9.86738L14.1472 10.5272L14.9155 11.6299C14.938 11.6622 14.9021 11.7037 14.8661 11.6852L13.7158 11.0208L12.9474 9.92274C12.925 9.89045 12.9609 9.84892 12.9924 9.86738Z" fill="#D8B97D"/>
<path d="M13.3837 9.33843L14.6239 9.80904L15.5495 10.778C15.5765 10.8056 15.545 10.8518 15.5091 10.8379L14.2734 10.3673L13.3478 9.40303C13.3163 9.37073 13.3478 9.32459 13.3837 9.33843Z" fill="#D8B97D"/>
<path d="M13.6846 8.7519L14.9787 9.02412L16.0347 9.83616C16.0661 9.85923 16.0436 9.90998 16.0032 9.90537L14.7091 9.63315L13.6577 8.8165C13.6262 8.79343 13.6487 8.74267 13.6846 8.7519Z" fill="#D8B97D"/>
<path d="M13.8998 8.12491L15.2164 8.1895L16.3847 8.82622C16.4206 8.84467 16.4026 8.90004 16.3667 8.89542L15.0501 8.82622L13.8819 8.19412C13.8459 8.17566 13.8594 8.12491 13.8998 8.12491Z" fill="#D8B97D"/>
<path d="M14.0174 7.4732L15.3294 7.33017L16.5786 7.77771C16.6145 7.79156 16.61 7.84692 16.5696 7.85154L15.2575 7.98995L14.0084 7.54702C13.9724 7.52857 13.9814 7.47781 14.0174 7.4732Z" fill="#D8B97D"/>
<path d="M14.035 6.80872L15.3112 6.46268L16.6097 6.70721C16.6457 6.71644 16.6502 6.77181 16.6142 6.78103L15.3381 7.12707L14.0395 6.88254C14.0036 6.87331 13.9991 6.81794 14.035 6.80872Z" fill="#D8B97D"/>
<path d="M13.9589 6.14832L15.1676 5.60388L16.4886 5.64079C16.5291 5.64079 16.5381 5.69616 16.5021 5.71461L15.2889 6.25905L13.9679 6.22214C13.9319 6.21753 13.9229 6.16677 13.9589 6.14832Z" fill="#D8B97D"/>
<path d="M13.7788 5.51239L14.8932 4.78801L16.2052 4.6173C16.2457 4.61269 16.2636 4.66344 16.2277 4.68651L15.1133 5.41088L13.8058 5.5816C13.7653 5.58621 13.7474 5.53084 13.7788 5.51239Z" fill="#D8B97D"/>
<path d="M13.5095 4.90718L14.5025 4.01671L15.7741 3.64298C15.8101 3.63376 15.837 3.6799 15.8101 3.70758L14.817 4.59805L13.5499 4.97178C13.5095 4.98101 13.4825 4.93487 13.5095 4.90718Z" fill="#D8B97D"/>
<path d="M13.1539 4.35354L14.0032 3.31542L15.2029 2.74792C15.2388 2.73407 15.2703 2.7756 15.2478 2.8079L14.3986 3.84602L13.1989 4.41352C13.1629 4.42736 13.1315 4.38122 13.1539 4.35354Z" fill="#D8B97D"/>
<path d="M12.7228 3.85975L13.4103 2.70167L14.5111 1.95422C14.5426 1.93115 14.583 1.97268 14.565 2.00497L13.8776 3.16305L12.7722 3.9105C12.7407 3.93357 12.7003 3.89666 12.7228 3.85975Z" fill="#D8B97D"/>
<path d="M12.2195 3.44063L12.7228 2.19027L13.6978 1.27673C13.7293 1.24905 13.7697 1.28134 13.7562 1.31825L13.2485 2.56861L12.2779 3.48677C12.251 3.50984 12.206 3.48216 12.2195 3.44063Z" fill="#D8B97D"/>
<path d="M11.6628 3.10774L11.9774 1.79279L12.8086 0.73621C12.8356 0.703913 12.8805 0.731597 12.8716 0.768508L12.557 2.08346L11.7257 3.14003C11.7033 3.17233 11.6539 3.14465 11.6628 3.10774Z" fill="#D8B97D"/>
<path d="M11.0602 2.86475L11.1725 1.51289L11.8375 0.340964C11.8555 0.308667 11.9094 0.322509 11.9049 0.364034L11.7881 1.7159L11.1276 2.88782C11.1096 2.92473 11.0557 2.90627 11.0602 2.86475Z" fill="#D8B97D"/>
<path d="M10.4315 2.72107L10.3416 1.36921L10.8224 0.10501C10.8359 0.0680991 10.8898 0.0773267 10.8943 0.114238L10.9797 1.4661L10.4989 2.7303C10.4854 2.76721 10.4315 2.75798 10.4315 2.72107Z" fill="#D8B97D"/>
<path d="M14.9738 12.281V12.2441H15.2299V12.281H15.1221V12.5763H15.0771V12.281H14.9738Z" fill="#D8B97D"/>
<path d="M15.4145 12.5763L15.3111 12.2995V12.5763H15.2707V12.2441H15.3291L15.4325 12.5209L15.5313 12.2441H15.5897V12.5763H15.5493V12.2995L15.4504 12.5763H15.4145Z" fill="#D8B97D"/>
</g>
<defs>
<clipPath id="clip0_676_2303">
<rect width="20" height="14" fill="white"/>
</clipPath>
</defs>
</svg>
