<svg width="20" height="14" viewBox="0 0 20 14" fill="none" xmlns="http://www.w3.org/2000/svg">
<g clip-path="url(#clip0_676_2356)">
<path d="M4.0905 13.2714C4.08737 13.3279 4.10008 13.3845 4.12663 13.4344C4.13988 13.4519 4.1572 13.4659 4.17741 13.4745C4.19849 13.4834 4.22216 13.4865 4.2448 13.4833L4.25163 13.4823H4.31706L4.37077 13.4481C4.38672 13.4324 4.39918 13.4136 4.40691 13.3925C4.41895 13.3566 4.42389 13.3189 4.42155 13.2811V13.1454C4.4216 13.1343 4.42416 13.1234 4.42839 13.1132L4.44695 13.0858L4.47429 13.0673L4.50652 13.0604H4.89421L4.92644 13.0673L4.95378 13.0858L4.97234 13.1132C4.97657 13.1234 4.97912 13.1343 4.97917 13.1454V13.3134C4.97795 13.5058 4.90398 13.6907 4.77214 13.8309L4.77116 13.8319C4.70642 13.8986 4.63003 13.9532 4.54558 13.9921H4.5446C4.45801 14.0307 4.36403 14.0498 4.26921 14.0487C4.1844 14.0476 4.09972 14.0351 4.01823 14.0116V14.0106C3.93096 13.9869 3.84945 13.9455 3.77995 13.8876L3.77898 13.8866C3.70533 13.8209 3.64701 13.74 3.60808 13.6493L3.6071 13.6483C3.55927 13.5332 3.53676 13.4086 3.54167 13.2841V11.9579C3.54234 11.8584 3.5618 11.7594 3.59831 11.6669C3.63097 11.5787 3.68191 11.4986 3.74675 11.4305C3.81197 11.3621 3.89016 11.3073 3.97722 11.2704L3.9782 11.2694C4.1621 11.1958 4.36752 11.1959 4.55144 11.2694L4.55339 11.2704C4.63936 11.3081 4.71682 11.3629 4.78093 11.4315L4.86882 11.5468C4.89407 11.5878 4.91547 11.6313 4.9323 11.6766H4.93132C4.96896 11.7751 4.98854 11.8798 4.98796 11.9852V12.1434C4.98786 12.1659 4.97846 12.1871 4.96257 12.203C4.94667 12.2189 4.92546 12.2283 4.903 12.2284H4.50652C4.48405 12.2283 4.46284 12.2189 4.44695 12.203C4.43106 12.1871 4.42165 12.1659 4.42155 12.1434V12.0096C4.42317 11.9514 4.40481 11.8942 4.3698 11.8475L4.36882 11.8466C4.35601 11.8281 4.33907 11.8127 4.31902 11.8026C4.29885 11.7925 4.27612 11.7872 4.25359 11.788L4.24577 11.7889V11.788C4.2227 11.7855 4.19937 11.7897 4.17839 11.7997C4.15882 11.809 4.14203 11.8231 4.12956 11.8407C4.10083 11.9045 4.08711 11.974 4.0905 12.0438V13.2714Z" fill="#05589C" stroke="white" stroke-width="0.1"/>
<path d="M5.64098 11.2607C5.81378 11.1949 6.00526 11.1949 6.17809 11.2607L6.30797 11.3242C6.34906 11.3495 6.38761 11.3792 6.4232 11.4121L6.47594 11.4668C6.52479 11.5238 6.56386 11.5887 6.59312 11.6582H6.5941C6.63863 11.7645 6.66098 11.8789 6.65953 11.9941V13.2676L6.6566 13.3564C6.64949 13.445 6.62788 13.5321 6.59312 13.6143C6.55406 13.7069 6.49619 13.7902 6.4232 13.8594V13.8604C6.35213 13.926 6.26874 13.9769 6.17809 14.0107L6.17613 14.0117C6.08892 14.0403 5.99732 14.0515 5.90562 14.0479V14.0498C5.81568 14.0498 5.72634 14.0331 5.64195 14.002C5.55132 13.9681 5.46791 13.9172 5.39684 13.8516L5.39586 13.8506C5.32296 13.7814 5.26495 13.6981 5.22594 13.6055C5.17967 13.4961 5.1574 13.3775 5.16051 13.2588V11.9941L5.16344 11.9082C5.17115 11.8223 5.19248 11.738 5.22594 11.6582C5.265 11.5655 5.32282 11.4813 5.39586 11.4121H5.39684C5.46773 11.3466 5.55058 11.2956 5.64098 11.2617V11.2607ZM5.71812 13.2734C5.7158 13.3016 5.71925 13.3299 5.72887 13.3564C5.73815 13.382 5.75309 13.4052 5.77184 13.4248C5.81041 13.4576 5.85892 13.4765 5.90953 13.4766C5.9601 13.4766 6.00863 13.4574 6.04723 13.4248C6.06612 13.4051 6.08184 13.3821 6.09117 13.3564C6.10076 13.3299 6.10424 13.3015 6.10191 13.2734V11.9902C6.10374 11.9621 6.09979 11.9338 6.09019 11.9072C6.08069 11.8811 6.06529 11.8572 6.04625 11.8369C6.00796 11.8037 5.95823 11.7865 5.90758 11.7891L5.85582 11.792V11.7842C5.84557 11.7864 5.8353 11.7889 5.82555 11.793C5.80103 11.8032 5.77886 11.8191 5.76109 11.8389C5.74343 11.8585 5.73059 11.8819 5.72301 11.9072C5.71545 11.9327 5.71303 11.9601 5.71715 11.9863L5.71812 11.9941V13.2734Z" fill="#05589C" stroke="white" stroke-width="0.1"/>
<path d="M7.28606 11.24V11.2409C7.2954 11.2408 7.30461 11.2411 7.3134 11.2439L7.33879 11.2566L7.35832 11.278C7.36252 11.2844 7.3657 11.2913 7.36809 11.2986L7.81731 12.487V11.3249C7.81731 11.3139 7.81898 11.3029 7.82317 11.2927L7.84172 11.2644L7.86906 11.2458L7.90227 11.24H8.28899L8.32121 11.2458L8.34953 11.2644L8.36809 11.2927L8.37395 11.3249V13.9372H8.37297C8.37377 13.9441 8.37581 13.9508 8.37492 13.9577C8.37339 13.9693 8.36919 13.981 8.3632 13.9909C8.35723 14.0008 8.34913 14.0096 8.33977 14.0163C8.33041 14.023 8.31975 14.0275 8.30852 14.03L8.29778 14.032V14.031H7.93742V14.03C7.91855 14.0303 7.8998 14.0257 7.88469 14.0144C7.86931 14.0028 7.85827 13.9861 7.85344 13.9675V13.9665L7.39836 12.781V13.9372C7.39836 13.9598 7.38894 13.9818 7.37297 13.9978C7.35701 14.0137 7.33495 14.0222 7.31242 14.0222H6.91692C6.90589 14.0222 6.8949 14.0205 6.88469 14.0163C6.87435 14.012 6.86428 14.0057 6.85637 13.9978C6.84848 13.9899 6.84209 13.9798 6.83781 13.9695C6.83367 13.9593 6.83195 13.9482 6.83195 13.9372V11.3249C6.83196 11.3139 6.83365 11.3029 6.83781 11.2927L6.85637 11.2644L6.88469 11.2458L6.91692 11.24H7.28606Z" fill="#05589C" stroke="white" stroke-width="0.1"/>
<path d="M10.5047 11.2315C10.516 11.2315 10.5276 11.2331 10.5379 11.2374L10.5652 11.256L10.5838 11.2843C10.5879 11.2944 10.5906 11.3053 10.5906 11.3165V13.9288H10.5896C10.5912 13.9357 10.5957 13.9422 10.5955 13.9493C10.595 13.9653 10.5897 13.9809 10.5808 13.9942C10.5719 14.0075 10.5593 14.018 10.5447 14.0245C10.5321 14.0302 10.5184 14.0303 10.5047 14.0294V14.0313H10.118C10.1069 14.0313 10.0959 14.0297 10.0857 14.0255C10.0754 14.0212 10.0653 14.0148 10.0574 14.0069C10.0495 13.999 10.0441 13.9889 10.0398 13.9786C10.0356 13.9683 10.033 13.9575 10.033 13.9464V12.8185L9.78787 13.5831L9.78201 13.5997L9.741 13.627L9.7283 13.6358H9.48709L9.4744 13.627L9.43338 13.5997L9.4285 13.5831L9.19217 12.8253V13.9376C9.19217 13.9486 9.18951 13.9596 9.18533 13.9698C9.18105 13.9802 9.17469 13.9902 9.16678 13.9981C9.15893 14.006 9.14967 14.0124 9.13943 14.0167C9.1291 14.021 9.11742 14.0226 9.10623 14.0226H8.71951C8.69693 14.0225 8.67493 14.0141 8.65897 13.9981C8.64302 13.9822 8.63455 13.9602 8.63455 13.9376V11.3253C8.63457 11.3027 8.643 11.2807 8.65897 11.2647L8.68729 11.2462C8.69739 11.2421 8.70839 11.2403 8.71951 11.2403H9.08865V11.2413C9.098 11.2411 9.10721 11.2414 9.116 11.2442L9.14139 11.2569L9.16092 11.2784C9.16511 11.2847 9.1683 11.2916 9.17068 11.2989L9.61209 12.4884L10.0447 11.2911C10.05 11.2741 10.0607 11.2589 10.075 11.2481L10.1004 11.2354C10.1089 11.2328 10.1177 11.2324 10.1267 11.2325V11.2315H10.5047Z" fill="#05589C" stroke="white" stroke-width="0.1"/>
<path d="M12.1062 11.24L12.1385 11.2458L12.1668 11.2644L12.1853 11.2927L12.1912 11.3249V11.7029C12.1912 11.7253 12.1827 11.7474 12.1668 11.7634C12.1508 11.7794 12.1288 11.7888 12.1062 11.7888H11.4002V12.3484H12.0008C12.0118 12.3484 12.0228 12.35 12.033 12.3542L12.0613 12.3728L12.0789 12.4011L12.0857 12.4333V12.8112C12.0857 12.8224 12.0832 12.8341 12.0789 12.8445C12.0747 12.8545 12.069 12.8641 12.0613 12.8718C12.0534 12.8797 12.0433 12.8861 12.033 12.8904C12.0228 12.8945 12.0118 12.8962 12.0008 12.8962H11.4002V13.4568H12.1062C12.1173 13.4568 12.1282 13.4584 12.1385 13.4626L12.1668 13.4812L12.1853 13.5085L12.1912 13.5417V13.9372H12.1893C12.1906 13.9476 12.1928 13.9582 12.1902 13.9685C12.1865 13.9833 12.1786 13.9967 12.1678 14.0075C12.1569 14.0184 12.1436 14.0262 12.1287 14.03C12.1185 14.0325 12.1078 14.0303 12.0975 14.029V14.031H10.9275C10.905 14.031 10.883 14.0225 10.867 14.0066C10.851 13.9906 10.8426 13.9686 10.8426 13.946V11.3249C10.8426 11.3023 10.851 11.2803 10.867 11.2644L10.8953 11.2458C10.9054 11.2417 10.9164 11.24 10.9275 11.24H12.1062Z" fill="#05589C" stroke="white" stroke-width="0.1"/>
<path d="M13.0026 11.24V11.2409C13.1237 11.238 13.2441 11.2594 13.3561 11.3054H13.3571C13.4277 11.3362 13.4929 11.3787 13.5495 11.4304L13.6032 11.4861L13.6052 11.487C13.7154 11.6226 13.7803 11.7893 13.7917 11.9636C13.8084 12.1978 13.7626 12.4423 13.5807 12.6081C13.6189 12.6395 13.6517 12.6767 13.6794 12.7175L13.7165 12.781L13.7175 12.7829L13.7643 12.9177C13.8005 13.0529 13.8058 13.1947 13.7819 13.3337L13.7829 13.3347C13.7679 13.5027 13.7032 13.6631 13.5964 13.7937L13.5944 13.7946C13.4589 13.9494 13.2405 14.032 12.9675 14.032H12.4313C12.4203 14.0319 12.4093 14.0293 12.3991 14.0251C12.3888 14.0208 12.3787 14.0145 12.3708 14.0066C12.363 13.9987 12.3565 13.9894 12.3522 13.9792C12.348 13.9689 12.3464 13.9572 12.3464 13.946V11.3249C12.3464 11.3139 12.348 11.3029 12.3522 11.2927L12.3708 11.2654L12.3991 11.2468L12.4313 11.24H13.0026ZM12.904 12.8786V13.4568H12.9958C13.0485 13.4587 13.1012 13.4476 13.1491 13.4255C13.2187 13.3877 13.2622 13.3016 13.2692 13.1989C13.2763 13.0952 13.2443 12.9924 13.1872 12.9353L13.1638 12.9118C13.1313 12.8906 13.0907 12.8806 13.0417 12.8777C12.9956 12.8749 12.9525 12.8778 12.904 12.8786ZM12.985 11.7888H12.8952L12.904 12.3571H13.0026C13.1213 12.3571 13.1793 12.331 13.2087 12.2898C13.2471 12.2239 13.2667 12.1483 13.2653 12.072C13.2639 11.9968 13.2416 11.9238 13.2018 11.8601C13.1747 11.8337 13.1429 11.8129 13.1071 11.8005C13.0702 11.7878 13.0306 11.7831 12.9919 11.7878L12.985 11.7888Z" fill="#05589C" stroke="white" stroke-width="0.1"/>
<path d="M14.4366 11.2607C14.6094 11.1949 14.8008 11.1949 14.9737 11.2607L15.1035 11.3242C15.1446 11.3495 15.1832 11.3792 15.2188 11.4121L15.2715 11.4668C15.3204 11.5238 15.3594 11.5887 15.3887 11.6582H15.3897C15.4342 11.7645 15.4566 11.8789 15.4551 11.9941V13.2676L15.4522 13.3564C15.4451 13.445 15.4235 13.5321 15.3887 13.6143C15.3496 13.7069 15.2918 13.7902 15.2188 13.8594V13.8604C15.1477 13.926 15.0643 13.9769 14.9737 14.0107L14.9717 14.0117C14.8845 14.0403 14.7929 14.0515 14.7012 14.0479V14.0498C14.6113 14.0498 14.5219 14.0331 14.4375 14.002C14.3469 13.9681 14.2635 13.9172 14.1924 13.8516L14.1914 13.8506C14.1185 13.7814 14.0605 13.6981 14.0215 13.6055C13.9752 13.4961 13.953 13.3775 13.9561 13.2588V11.9941L13.959 11.9082C13.9667 11.8223 13.9881 11.738 14.0215 11.6582C14.0606 11.5655 14.1184 11.4813 14.1914 11.4121H14.1924C14.2633 11.3466 14.3462 11.2956 14.4366 11.2617V11.2607ZM14.5137 13.2734C14.5114 13.3016 14.5148 13.3299 14.5244 13.3564C14.5337 13.382 14.5487 13.4052 14.5674 13.4248C14.606 13.4576 14.6545 13.4765 14.7051 13.4766C14.7557 13.4766 14.8042 13.4574 14.8428 13.4248C14.8617 13.4051 14.8774 13.3821 14.8867 13.3564C14.8963 13.3299 14.8998 13.3015 14.8975 13.2734V11.9902C14.8993 11.9621 14.8954 11.9338 14.8858 11.9072C14.8763 11.8811 14.8609 11.8572 14.8418 11.8369C14.8035 11.8037 14.7538 11.7865 14.7032 11.7891L14.6514 11.792V11.7842C14.6411 11.7864 14.6309 11.7889 14.6211 11.793C14.5966 11.8032 14.5744 11.8191 14.5567 11.8389C14.539 11.8585 14.5262 11.8819 14.5186 11.9072C14.511 11.9327 14.5086 11.9601 14.5127 11.9863L14.5137 11.9941V13.2734Z" fill="#05589C" stroke="white" stroke-width="0.1"/>
<path d="M16.1694 11.24L16.2026 11.2458L16.2299 11.2644L16.2485 11.2927L16.2553 11.3249V13.4568H16.9613C16.9725 13.4568 16.9834 13.4585 16.9936 13.4626L17.0219 13.4812L17.0405 13.5085C17.0447 13.5188 17.0463 13.5304 17.0463 13.5417V13.9372H17.0453C17.0463 13.9461 17.0472 13.9548 17.0453 13.9636C17.0426 13.9765 17.037 13.9894 17.0287 13.9997C17.0206 14.0098 17.0102 14.0177 16.9985 14.0232C16.9869 14.0285 16.974 14.0302 16.9613 14.03V14.031H15.7826C15.7716 14.031 15.7606 14.0293 15.7504 14.0251C15.7401 14.0208 15.73 14.0145 15.7221 14.0066C15.7142 13.9987 15.7078 13.9886 15.7035 13.9782C15.6994 13.9681 15.6977 13.957 15.6977 13.946V11.3249C15.6977 11.3139 15.6994 11.3029 15.7035 11.2927L15.7221 11.2644L15.7504 11.2458L15.7826 11.24H16.1694Z" fill="#05589C" stroke="white" stroke-width="0.1"/>
<path d="M18.1494 12.3482C18.1817 12.3484 18.2079 12.3744 18.2079 12.4068V12.8628C18.2079 12.8952 18.1817 12.9222 18.1494 12.9224H17.2958C17.2634 12.9224 17.2372 12.8953 17.2372 12.8628V12.4068C17.2372 12.3743 17.2634 12.3482 17.2958 12.3482H18.1494Z" fill="#05589C" stroke="white" stroke-width="0.1"/>
<path d="M2.8623 12.3482C2.89463 12.3484 2.92089 12.3744 2.9209 12.4068V12.8628C2.9209 12.8952 2.89463 12.9222 2.8623 12.9224H2.00879C1.97632 12.9224 1.9502 12.8953 1.9502 12.8628V12.4068C1.9502 12.3743 1.97632 12.3482 2.00879 12.3482H2.8623Z" fill="#05589C" stroke="white" stroke-width="0.1"/>
<path d="M10.0826 1.47742C10.6224 1.47682 11.1609 1.53786 11.6862 1.66199C12.1953 1.78214 12.6877 1.9669 13.15 2.21179H13.149C13.1897 2.23251 13.2244 2.26328 13.2506 2.30066C13.2766 2.33788 13.2938 2.38059 13.2994 2.42566C13.317 2.56618 13.3345 2.70883 13.3434 2.86023C13.3521 3.00918 13.3609 3.15143 13.361 3.29382C13.3616 4.40139 13.0715 5.49005 12.5192 6.45007C12.0368 7.2869 11.367 7.99856 10.5651 8.53015L10.2135 8.74695C10.1725 8.77057 10.126 8.78308 10.0787 8.78308C10.0314 8.78308 9.98495 8.77056 9.94397 8.74695C8.98872 8.19816 8.19589 7.40532 7.64709 6.45007C7.09478 5.49005 6.80466 4.40139 6.8053 3.29382C6.80531 3.15148 6.8141 3.00068 6.82288 2.86023C6.83177 2.71789 6.84931 2.57543 6.86682 2.42664V2.42566C6.87242 2.38059 6.88963 2.33789 6.91565 2.30066C6.94166 2.2635 6.97589 2.2325 7.01624 2.21179C7.47838 1.96687 7.97006 1.78205 8.47913 1.66199C9.00441 1.53773 9.54287 1.47678 10.0826 1.47742Z" fill="url(#paint0_linear_676_2356)" stroke="white" stroke-width="0.1"/>
<path d="M10.0831 9.25C10.151 9.25001 10.2173 9.27177 10.2716 9.3125L11.1427 9.97266L11.2296 10.0391L11.1222 10.0615C10.4339 10.2042 9.72358 10.2041 9.03528 10.0615L8.92688 10.0391L9.01477 9.97266L9.88586 9.3125L9.89954 9.30273H9.91028C9.96154 9.2688 10.0214 9.25 10.0831 9.25ZM13.2081 6.16699L14.0431 8.22559L14.0548 8.25293L14.0363 8.27539C13.5628 8.8634 12.9651 9.33963 12.2863 9.66992L12.2589 9.68359L12.2335 9.66504L11.0734 8.77637L11.0206 8.73633L11.0734 8.69727C11.8034 8.14334 12.4153 7.44868 12.8722 6.6543L12.8859 6.62891H12.8937C12.9824 6.48038 13.0568 6.32514 13.1144 6.16895L13.1593 6.04785L13.2081 6.16699ZM7.02356 6.15625C7.10275 6.32342 7.18107 6.48846 7.27649 6.65332V6.6543C7.73324 7.44882 8.34507 8.14352 9.07532 8.69727L9.12805 8.7373L9.07532 8.77734L7.9054 9.65625L7.88098 9.6748L7.85364 9.66113C7.17478 9.33084 6.57708 8.85464 6.10364 8.2666L6.08508 8.24414L6.09583 8.2168L6.93176 6.1582L6.97473 6.05273L7.02356 6.15625ZM5.03918 5.00684L6.16516 5.58789H6.16614C6.21211 5.6126 6.24763 5.65383 6.26477 5.70312C6.27333 5.72777 6.27647 5.75367 6.27551 5.7793L6.25891 5.85449L5.60754 7.33203L5.59485 7.3623H5.51379L5.50012 7.33398C5.14704 6.62509 4.96425 5.84371 4.96692 5.05176V4.96973L5.03918 5.00684ZM15.1906 5.05176C15.1932 5.84369 15.0104 6.62511 14.6573 7.33398L14.6437 7.3623H14.5626L14.5499 7.33203L13.8986 5.85449C13.8779 5.80661 13.8756 5.7524 13.8927 5.70312C13.9098 5.65383 13.9454 5.6126 13.9913 5.58789L15.1173 4.99805L15.1906 4.95996V5.05176ZM5.74036 2.41602L6.35559 2.44238L6.41028 2.44434L6.40344 2.49805C6.3933 2.57922 6.38586 2.54799 6.37708 2.71484C6.36827 2.8821 6.35951 3.03879 6.3595 3.19531C6.36002 3.79977 6.43982 4.40235 6.59583 4.98633L6.63293 5.12598L6.51672 5.03906L5.11829 3.9834L5.0929 3.96387L5.09973 3.93262C5.21756 3.40675 5.41906 2.90307 5.69543 2.44043L5.71008 2.41406L5.74036 2.41602ZM14.462 2.44043C14.7375 2.9003 14.939 3.40108 15.0577 3.92383L15.0646 3.95508L15.0392 3.97461L13.6398 5.03027L13.5245 5.11719L13.5616 4.97754C13.7169 4.39638 13.7967 3.79685 13.798 3.19531C13.798 3.0388 13.7892 2.8821 13.7804 2.71484L13.7745 2.60059C13.7706 2.5672 13.7668 2.5335 13.7628 2.49805L13.757 2.44434L13.8107 2.44238L14.4171 2.41602L14.4474 2.41406L14.462 2.44043ZM8.31165 0.347656L8.11731 1.24512L8.11145 1.27441L8.08215 1.28223C7.82422 1.35174 7.57044 1.43698 7.32239 1.53613L7.30969 1.54102V1.53906L6.39465 1.65332L6.25793 1.6709L6.35266 1.56934C6.87884 1.00601 7.52541 0.568355 8.24426 0.290039L8.33118 0.256836L8.31165 0.347656ZM11.922 0.291016C12.6344 0.571668 13.275 1.00824 13.796 1.56934L13.8898 1.66992L13.7531 1.65332L12.839 1.53906V1.52344L12.8351 1.53613C12.587 1.43696 12.3333 1.35172 12.0753 1.28223L12.046 1.27441L12.0392 1.24414L11.8546 0.347656L11.8361 0.256836L11.922 0.291016ZM9.26575 0.0146484C9.73697 -0.0613045 10.2164 -0.0706783 10.6896 -0.0136719L10.8917 0.0146484L10.92 0.0195312L10.9298 0.046875L11.3087 1.03125L11.3116 1.04004V1.11621L11.254 1.10742C10.4751 0.987939 9.68238 0.987953 8.90344 1.10742L8.81848 1.12109L8.84875 1.04102L9.22668 0.046875L9.23743 0.0195312L9.26575 0.0146484Z" fill="url(#paint1_linear_676_2356)" stroke="white" stroke-width="0.1"/>
<mask id="path-13-outside-1_676_2356" maskUnits="userSpaceOnUse" x="7.07695" y="1.11542" width="6" height="8" fill="black">
<rect fill="white" x="7.07695" y="1.11542" width="6" height="8"/>
<path d="M11.8598 4.44627C11.8641 4.45111 11.8665 4.45737 11.8665 4.46386C11.8665 4.47035 11.8641 4.47662 11.8598 4.48145L11.7982 4.56062H11.763C11.6369 4.41483 11.4809 4.29785 11.3057 4.21758C11.1203 4.13477 10.9194 4.09278 10.7164 4.09444H10.6988C10.4152 4.09778 10.1393 4.18668 9.90716 4.34952C9.69348 4.49021 9.52779 4.69273 9.43219 4.93003L9.40581 4.94763L9.38822 4.93003L9.35303 4.78051C9.35172 4.76811 9.35483 4.75564 9.36183 4.74532C9.39978 4.67414 9.44393 4.60645 9.49376 4.54302C9.5823 4.42173 9.68911 4.31491 9.81041 4.22638C10.0686 4.04626 10.3752 3.94817 10.69 3.94492H10.7076C10.9321 3.94488 11.154 3.99287 11.3584 4.08565C11.5487 4.16988 11.7194 4.29268 11.8598 4.44627ZM11.9214 4.15601C11.5871 3.85899 11.1547 3.69609 10.7076 3.69864H10.6812C10.3698 3.70202 10.0643 3.78369 9.79282 3.93612C9.54104 4.07732 9.3292 4.28008 9.17712 4.52543C9.17511 4.53112 9.17511 4.53733 9.17712 4.54302V4.57821L9.25628 4.62218H9.29146C9.4307 4.3986 9.62438 4.214 9.85439 4.08565C10.1042 3.94477 10.3856 3.86914 10.6724 3.86576H10.6988C10.9189 3.86377 11.1372 3.90551 11.341 3.98855C11.5448 4.0716 11.7301 4.19429 11.8862 4.34952H11.9126C11.918 4.34762 11.9226 4.34402 11.9258 4.33926C11.9289 4.3345 11.9305 4.32884 11.9302 4.32313V4.1912C11.9326 4.18565 11.9338 4.17966 11.9338 4.17361C11.9338 4.16755 11.9326 4.16156 11.9302 4.15601H11.9214ZM11.9214 3.83937C11.5675 3.59379 11.1471 3.46186 10.7164 3.46116H10.69C10.3218 3.46536 9.96106 3.5654 9.64329 3.75141C9.35055 3.92337 9.10795 4.169 8.93964 4.46386C8.93732 4.46787 8.9361 4.47242 8.9361 4.47706C8.9361 4.48169 8.93732 4.48624 8.93964 4.49025L8.96602 4.50784H9.06278L9.09796 4.49025C9.25341 4.23997 9.46783 4.03159 9.72245 3.88335C10.016 3.71033 10.3493 3.61639 10.69 3.61068H10.7164C11.1449 3.60875 11.5621 3.74783 11.9038 4.00649H11.9302C11.9356 4.00459 11.9402 4.00099 11.9434 3.99623C11.9465 3.99147 11.9481 3.98581 11.9478 3.9801V3.87455C11.9468 3.86689 11.9439 3.8596 11.9393 3.85343C11.9346 3.84725 11.9285 3.8424 11.9214 3.83937ZM10.7164 3.22367H10.6812C10.2706 3.22746 9.86781 3.33648 9.51136 3.54032C9.19563 3.72187 8.92973 3.97871 8.73734 4.28795C8.73234 4.29419 8.72962 4.30194 8.72962 4.30994C8.72962 4.31793 8.73234 4.32569 8.73734 4.33193L8.79011 4.40229H8.83409C9.01603 4.09843 9.27362 3.84691 9.58172 3.67225C9.91651 3.47996 10.2951 3.37698 10.6812 3.3732H10.7076C11.1261 3.36785 11.5377 3.48064 11.895 3.69864H11.9302L12.0005 3.63707C12.0043 3.63393 12.0071 3.62979 12.0087 3.62513C12.0102 3.62047 12.0105 3.61546 12.0093 3.61068V3.59309C11.6255 3.34958 11.1797 3.22136 10.7252 3.22367H10.7164ZM12.0709 3.34681C11.6624 3.10901 11.1978 2.98452 10.7252 2.98619H10.69C10.2503 2.98961 9.81832 3.10139 9.43219 3.31163C9.08682 3.50047 8.79136 3.76881 8.57022 4.09444C8.56636 4.10113 8.56433 4.10871 8.56433 4.11643C8.56433 4.12415 8.56636 4.13174 8.57022 4.13842L8.63179 4.20879H8.67577C8.88437 3.88971 9.16833 3.6269 9.50256 3.44356C9.86441 3.24627 10.2691 3.14058 10.6812 3.13572H10.7164C11.1713 3.13349 11.6182 3.25511 12.0093 3.48754H12.0357L12.0533 3.46995L12.0797 3.3732C12.0808 3.36842 12.0806 3.36341 12.0791 3.35875C12.0775 3.35409 12.0747 3.34995 12.0709 3.34681ZM10.6724 2.89823H10.6988C10.7011 2.89422 10.7023 2.88967 10.7023 2.88504C10.7023 2.88041 10.7011 2.87586 10.6988 2.87185L10.6636 2.79268C10.6599 2.78424 10.6537 2.77715 10.6458 2.77242C10.638 2.76768 10.6288 2.76554 10.6196 2.7663C10.1911 2.78153 9.77095 2.88957 9.38822 3.08294C9.01564 3.27137 8.69081 3.54207 8.43828 3.87455C8.43301 3.88042 8.42941 3.8876 8.42786 3.89534C8.42631 3.90307 8.42687 3.91109 8.42949 3.91853L8.47347 4.00649L8.49106 4.02408H8.51744C8.7636 3.681 9.08678 3.40043 9.46103 3.2049C9.83529 3.00937 10.2502 2.90434 10.6724 2.89823ZM11.2881 2.95101C11.5457 3.00312 11.7945 3.09199 12.0269 3.21488H12.0533C12.0571 3.21173 12.0599 3.2076 12.0615 3.20294C12.063 3.19827 12.0632 3.19327 12.0621 3.18849L12.0357 3.07415C12.0335 3.06808 12.03 3.06258 12.0255 3.05802C12.0209 3.05346 12.0154 3.04995 12.0093 3.04776C11.8211 2.95636 11.6235 2.88558 11.42 2.83666H11.3848L11.2793 2.90703C11.2755 2.91017 11.2727 2.91431 11.2711 2.91897C11.2696 2.92363 11.2694 2.92863 11.2705 2.93342L11.2881 2.95101ZM9.31785 2.99499C9.51941 2.89241 9.73183 2.81275 9.95114 2.7575C10.1727 2.70054 10.3998 2.6681 10.6284 2.66075L10.6548 2.64316C10.6571 2.63915 10.6583 2.6346 10.6583 2.62996C10.6583 2.62533 10.6571 2.62078 10.6548 2.61677L10.602 2.52881C10.5971 2.52199 10.5904 2.51671 10.5826 2.51359C10.5748 2.51047 10.5663 2.50965 10.558 2.51122C10.3413 2.5221 10.1262 2.55451 9.91596 2.60798C9.68424 2.66754 9.45999 2.75311 9.24749 2.86305C8.84317 3.07197 8.49135 3.36966 8.21839 3.73382C8.21608 3.73783 8.21486 3.74238 8.21486 3.74701C8.21486 3.75165 8.21608 3.7562 8.21839 3.76021L8.23598 3.7778L8.32394 3.81298H8.35912C8.61408 3.47259 8.94157 3.19318 9.31785 2.99499ZM8.98362 2.90703C9.32352 2.6967 9.69917 2.55061 10.0919 2.47604L10.1095 2.45845C10.1106 2.45367 10.1104 2.44866 10.1088 2.444C10.1073 2.43934 10.1044 2.4352 10.1007 2.43206L10.0127 2.3529H9.97753C9.59792 2.43448 9.23502 2.58023 8.90445 2.78389C8.59355 2.97353 8.31698 3.21441 8.08646 3.49634C8.08257 3.50124 8.07978 3.50691 8.07826 3.51298C8.07675 3.51905 8.07654 3.52537 8.07766 3.53152L8.09525 3.65466L8.11284 3.67225H8.13923C8.36963 3.36355 8.65608 3.10097 8.98362 2.89823V2.90703ZM8.15682 3.24126H8.18321C8.60356 2.80456 9.13136 2.48606 9.71366 2.31772L9.73125 2.30013C9.73238 2.29535 9.73216 2.29034 9.73061 2.28568C9.72905 2.28102 9.72623 2.27688 9.72245 2.27374L9.66088 2.20337C9.65501 2.1981 9.64784 2.1945 9.6401 2.19295C9.63236 2.1914 9.62435 2.19196 9.6169 2.19458C9.05762 2.36335 8.54758 2.66516 8.13043 3.07415C8.12655 3.07905 8.12376 3.08472 8.12224 3.09079C8.12072 3.09686 8.12052 3.10318 8.12164 3.10933L8.13923 3.22367L8.15682 3.24126ZM8.23598 2.66075V2.67834L8.31514 2.73991H8.35033C8.62589 2.52212 8.9309 2.34444 9.25628 2.21217C9.26168 2.21027 9.26631 2.20667 9.26948 2.20191C9.27266 2.19715 9.2742 2.19149 9.27387 2.18578C9.2742 2.18007 9.27266 2.17441 9.26948 2.16965C9.26631 2.16489 9.26168 2.16129 9.25628 2.1594L9.12435 2.11542H9.08916C8.78615 2.25424 8.50234 2.43162 8.24478 2.64316L8.23598 2.66075ZM8.17441 2.5552H8.2008C8.33253 2.45276 8.4706 2.35875 8.6142 2.27374C8.61797 2.2706 8.6208 2.26646 8.62235 2.2618C8.62391 2.25714 8.62413 2.25213 8.62299 2.24735L8.6054 2.22976L8.49106 2.19458H8.45587L8.15682 2.40567C8.15 2.41056 8.14472 2.4173 8.1416 2.42509C8.13848 2.43289 8.13766 2.44141 8.13923 2.44965L8.15682 2.54641L8.17441 2.5552ZM10.8307 5.1939C10.7953 5.16658 10.7522 5.15118 10.7076 5.14993C10.6814 5.14874 10.6553 5.15286 10.6308 5.16205C10.6063 5.17124 10.5839 5.18531 10.565 5.2034C10.5461 5.22148 10.5311 5.24322 10.5208 5.26729C10.5105 5.29136 10.5052 5.31726 10.5053 5.34343C10.5095 5.39332 10.5313 5.44008 10.5668 5.47536L10.8747 5.75683H10.9099L10.9978 5.70405V5.68646C10.999 5.68168 10.9987 5.67668 10.9972 5.67201C10.9956 5.66735 10.9928 5.66322 10.989 5.66007C10.8659 5.55453 10.6636 5.36982 10.6636 5.36982L10.646 5.33463C10.6481 5.32221 10.6546 5.31095 10.6642 5.30288C10.6739 5.29482 10.6862 5.29048 10.6988 5.29066H10.734L11.0154 5.53693H11.0418L11.0594 5.51934L11.0946 5.42259C11.0957 5.41781 11.0955 5.41281 11.0939 5.40814C11.0924 5.40348 11.0896 5.39935 11.0858 5.3962L10.8307 5.1939ZM11.0242 5.02679C10.9366 4.94949 10.8244 4.90584 10.7076 4.90365H10.69C10.5686 4.90444 10.4522 4.95164 10.3645 5.03558C10.3227 5.07518 10.2894 5.12292 10.2667 5.17586C10.244 5.22881 10.2324 5.28583 10.2326 5.34343C10.2351 5.43695 10.2692 5.52688 10.3294 5.5985C10.4899 5.79334 10.6871 5.95472 10.9099 6.07347H10.9363C10.94 6.07033 10.9429 6.06619 10.9444 6.06153C10.946 6.05687 10.9462 6.05187 10.9451 6.04708L10.9099 5.91515V5.89756C10.7333 5.79649 10.5755 5.66554 10.4437 5.51055C10.405 5.4633 10.3834 5.40446 10.3821 5.34343C10.3819 5.30544 10.3896 5.26783 10.4047 5.23299C10.4199 5.19815 10.4421 5.16686 10.4701 5.14113C10.5297 5.08523 10.6082 5.05383 10.69 5.05317H10.7076C10.7891 5.05467 10.8674 5.08596 10.9275 5.14113L11.1737 5.36102H11.2089L11.2881 5.29945V5.28186C11.2875 5.27508 11.2844 5.26878 11.2793 5.26427L11.0242 5.02679ZM11.1913 4.84208C11.149 4.80362 11.1017 4.77107 11.0506 4.74532C10.944 4.69264 10.8265 4.66553 10.7076 4.66616H10.6988C10.5092 4.66649 10.3269 4.7388 10.1886 4.86846C10.1232 4.93066 10.0714 5.00579 10.0366 5.08907C10.0018 5.17235 9.98465 5.26197 9.98632 5.35223C9.98947 5.49318 10.0389 5.62918 10.1271 5.73924C10.2661 5.91672 10.4323 6.07109 10.6196 6.19661H10.646L10.7515 6.15263L10.7691 6.13504C10.7703 6.13026 10.7701 6.12526 10.7685 6.12059C10.7669 6.11593 10.7641 6.1118 10.7603 6.10865C10.5653 5.98659 10.3927 5.83187 10.2502 5.65128C10.183 5.56596 10.1459 5.46082 10.1446 5.35223C10.144 5.28092 10.1586 5.21031 10.1874 5.14509C10.2162 5.07987 10.2586 5.02154 10.3118 4.97401C10.422 4.87239 10.5664 4.81588 10.7164 4.81569H10.7252C10.8196 4.81504 10.9129 4.8361 10.9978 4.87726L11.1034 4.95642L11.3672 5.2027H11.3936C11.3978 5.20144 11.4016 5.19918 11.4046 5.19611C11.4077 5.19304 11.41 5.18926 11.4112 5.18511V5.05317C11.4123 5.04702 11.4121 5.0407 11.4106 5.03463C11.4091 5.02857 11.4063 5.02289 11.4024 5.01799L11.1913 4.84208ZM10.7076 4.42868H10.69C10.4351 4.42989 10.1901 4.52727 10.0039 4.70135C9.9144 4.78436 9.84314 4.88511 9.79468 4.99716C9.74622 5.10922 9.72163 5.23014 9.72245 5.35223C9.72625 5.54064 9.79106 5.72273 9.90716 5.87117C10.0583 6.06813 10.2394 6.24025 10.4437 6.38132H10.4701L10.4877 6.36373L10.5141 6.26698C10.5152 6.26219 10.515 6.25719 10.5134 6.25253C10.5119 6.24787 10.509 6.24373 10.5053 6.24059C10.3222 6.11294 10.1592 5.9588 10.0215 5.78321C9.92635 5.65951 9.87388 5.50828 9.87198 5.35223C9.87107 5.24975 9.89175 5.14823 9.93266 5.05428C9.97358 4.96032 10.0338 4.87603 10.1095 4.80689C10.2676 4.66085 10.4747 4.57927 10.69 4.57821H10.7076C10.8241 4.57769 10.9395 4.60081 11.0468 4.64617C11.1542 4.69152 11.2512 4.75817 11.3321 4.84208H11.376L11.4288 4.76292C11.4307 4.75681 11.4308 4.7503 11.4293 4.7441C11.4277 4.73791 11.4245 4.73225 11.42 4.72773C11.2309 4.5385 10.9751 4.43111 10.7076 4.42868ZM10.7076 4.1912H10.69C10.3655 4.19344 10.0541 4.31926 9.8192 4.54302C9.70608 4.64863 9.61634 4.77676 9.55574 4.91916C9.49514 5.06157 9.46504 5.21508 9.46738 5.36982C9.46926 5.60883 9.54961 5.8406 9.69606 6.02949C9.90918 6.29718 10.172 6.52118 10.4701 6.68917H10.5053L10.5756 6.6188C10.5794 6.61566 10.5822 6.61152 10.5838 6.60686C10.5853 6.6022 10.5856 6.5972 10.5844 6.59242V6.57482C10.2937 6.40702 10.0395 6.18272 9.8368 5.91515C9.70871 5.7518 9.63765 5.55099 9.6345 5.34343C9.63331 5.20978 9.66009 5.07735 9.7131 4.95466C9.76612 4.83197 9.8442 4.72172 9.94234 4.63098C10.1493 4.43526 10.4227 4.32525 10.7076 4.32313C10.9939 4.32238 11.2701 4.4291 11.4816 4.62218H11.5168L11.6047 4.56941V4.55182C11.6059 4.54704 11.6056 4.54204 11.6041 4.53737C11.6025 4.53271 11.5997 4.52858 11.5959 4.52543C11.3547 4.30146 11.0367 4.17867 10.7076 4.1824V4.1912ZM10.3733 6.92665H10.4085L10.4525 6.84749C10.4558 6.84161 10.4567 6.83469 10.4551 6.82815C10.4535 6.82161 10.4494 6.81594 10.4437 6.81231C10.1147 6.62262 9.82745 6.3683 9.59931 6.06468H9.57293L9.55533 6.08227L9.52895 6.19661C9.52783 6.20276 9.52803 6.20908 9.52955 6.21515C9.53107 6.22122 9.53386 6.22689 9.53774 6.23179C9.7715 6.5125 10.0547 6.74801 10.3733 6.92665ZM10.5317 7.27848H10.5405V7.14654C10.5408 7.14083 10.5392 7.13517 10.5361 7.13041C10.5329 7.12565 10.5283 7.12205 10.5229 7.12016C10.2094 6.96662 9.92393 6.76146 9.67847 6.51325H9.65209C9.64669 6.51515 9.64206 6.51875 9.63888 6.52351C9.63571 6.52827 9.63417 6.53393 9.6345 6.53964V6.67158C9.6345 6.6784 9.63608 6.68514 9.63914 6.69124C9.64219 6.69735 9.64662 6.70266 9.65209 6.70676C9.90674 6.94483 10.1977 7.14079 10.5141 7.28727L10.5317 7.27848ZM9.88957 7.0322L9.87198 7.04979L9.85439 7.14654C9.85282 7.15479 9.85364 7.16331 9.85676 7.1711C9.85987 7.1789 9.86516 7.18563 9.87198 7.19052C10.0417 7.30821 10.2212 7.4112 10.4085 7.49837H10.4349V7.37523C10.4352 7.36952 10.4337 7.36386 10.4305 7.3591C10.4273 7.35434 10.4227 7.35074 10.4173 7.34884C10.2418 7.26062 10.074 7.15764 9.91596 7.04099L9.88957 7.0322ZM10.6724 7.86779H10.69C10.6923 7.86378 10.6935 7.85923 10.6935 7.8546C10.6935 7.84996 10.6923 7.84541 10.69 7.8414L10.6108 7.70947H10.5932C10.3463 7.61156 10.1104 7.48773 9.88957 7.34005H9.86318C9.85941 7.34319 9.85658 7.34733 9.85503 7.35199C9.85347 7.35665 9.85325 7.36165 9.85439 7.36643V7.48078C9.85439 7.48761 9.85598 7.49434 9.85903 7.50045C9.86208 7.50655 9.86652 7.51186 9.87198 7.51596C10.1181 7.67071 10.3806 7.79756 10.6548 7.89418L10.6724 7.86779ZM10.0743 7.70947H10.0479C10.0441 7.71261 10.0413 7.71674 10.0397 7.72141C10.0382 7.72607 10.038 7.73107 10.0391 7.73585L10.0831 7.85899L10.1095 7.88538C10.2885 7.97462 10.4737 8.05104 10.6636 8.11407H10.6988L10.8219 8.0525C10.8255 8.05009 10.8285 8.04682 10.8306 8.04299C10.8326 8.03915 10.8337 8.03486 10.8337 8.03051C10.8337 8.02615 10.8326 8.02187 10.8306 8.01803C10.8285 8.01419 10.8255 8.01093 10.8219 8.00852C10.5607 7.93721 10.3073 7.83997 10.0655 7.71826L10.0743 7.70947Z"/>
</mask>
<path d="M11.8598 4.44627C11.8641 4.45111 11.8665 4.45737 11.8665 4.46386C11.8665 4.47035 11.8641 4.47662 11.8598 4.48145L11.7982 4.56062H11.763C11.6369 4.41483 11.4809 4.29785 11.3057 4.21758C11.1203 4.13477 10.9194 4.09278 10.7164 4.09444H10.6988C10.4152 4.09778 10.1393 4.18668 9.90716 4.34952C9.69348 4.49021 9.52779 4.69273 9.43219 4.93003L9.40581 4.94763L9.38822 4.93003L9.35303 4.78051C9.35172 4.76811 9.35483 4.75564 9.36183 4.74532C9.39978 4.67414 9.44393 4.60645 9.49376 4.54302C9.5823 4.42173 9.68911 4.31491 9.81041 4.22638C10.0686 4.04626 10.3752 3.94817 10.69 3.94492H10.7076C10.9321 3.94488 11.154 3.99287 11.3584 4.08565C11.5487 4.16988 11.7194 4.29268 11.8598 4.44627ZM11.9214 4.15601C11.5871 3.85899 11.1547 3.69609 10.7076 3.69864H10.6812C10.3698 3.70202 10.0643 3.78369 9.79282 3.93612C9.54104 4.07732 9.3292 4.28008 9.17712 4.52543C9.17511 4.53112 9.17511 4.53733 9.17712 4.54302V4.57821L9.25628 4.62218H9.29146C9.4307 4.3986 9.62438 4.214 9.85439 4.08565C10.1042 3.94477 10.3856 3.86914 10.6724 3.86576H10.6988C10.9189 3.86377 11.1372 3.90551 11.341 3.98855C11.5448 4.0716 11.7301 4.19429 11.8862 4.34952H11.9126C11.918 4.34762 11.9226 4.34402 11.9258 4.33926C11.9289 4.3345 11.9305 4.32884 11.9302 4.32313V4.1912C11.9326 4.18565 11.9338 4.17966 11.9338 4.17361C11.9338 4.16755 11.9326 4.16156 11.9302 4.15601H11.9214ZM11.9214 3.83937C11.5675 3.59379 11.1471 3.46186 10.7164 3.46116H10.69C10.3218 3.46536 9.96106 3.5654 9.64329 3.75141C9.35055 3.92337 9.10795 4.169 8.93964 4.46386C8.93732 4.46787 8.9361 4.47242 8.9361 4.47706C8.9361 4.48169 8.93732 4.48624 8.93964 4.49025L8.96602 4.50784H9.06278L9.09796 4.49025C9.25341 4.23997 9.46783 4.03159 9.72245 3.88335C10.016 3.71033 10.3493 3.61639 10.69 3.61068H10.7164C11.1449 3.60875 11.5621 3.74783 11.9038 4.00649H11.9302C11.9356 4.00459 11.9402 4.00099 11.9434 3.99623C11.9465 3.99147 11.9481 3.98581 11.9478 3.9801V3.87455C11.9468 3.86689 11.9439 3.8596 11.9393 3.85343C11.9346 3.84725 11.9285 3.8424 11.9214 3.83937ZM10.7164 3.22367H10.6812C10.2706 3.22746 9.86781 3.33648 9.51136 3.54032C9.19563 3.72187 8.92973 3.97871 8.73734 4.28795C8.73234 4.29419 8.72962 4.30194 8.72962 4.30994C8.72962 4.31793 8.73234 4.32569 8.73734 4.33193L8.79011 4.40229H8.83409C9.01603 4.09843 9.27362 3.84691 9.58172 3.67225C9.91651 3.47996 10.2951 3.37698 10.6812 3.3732H10.7076C11.1261 3.36785 11.5377 3.48064 11.895 3.69864H11.9302L12.0005 3.63707C12.0043 3.63393 12.0071 3.62979 12.0087 3.62513C12.0102 3.62047 12.0105 3.61546 12.0093 3.61068V3.59309C11.6255 3.34958 11.1797 3.22136 10.7252 3.22367H10.7164ZM12.0709 3.34681C11.6624 3.10901 11.1978 2.98452 10.7252 2.98619H10.69C10.2503 2.98961 9.81832 3.10139 9.43219 3.31163C9.08682 3.50047 8.79136 3.76881 8.57022 4.09444C8.56636 4.10113 8.56433 4.10871 8.56433 4.11643C8.56433 4.12415 8.56636 4.13174 8.57022 4.13842L8.63179 4.20879H8.67577C8.88437 3.88971 9.16833 3.6269 9.50256 3.44356C9.86441 3.24627 10.2691 3.14058 10.6812 3.13572H10.7164C11.1713 3.13349 11.6182 3.25511 12.0093 3.48754H12.0357L12.0533 3.46995L12.0797 3.3732C12.0808 3.36842 12.0806 3.36341 12.0791 3.35875C12.0775 3.35409 12.0747 3.34995 12.0709 3.34681ZM10.6724 2.89823H10.6988C10.7011 2.89422 10.7023 2.88967 10.7023 2.88504C10.7023 2.88041 10.7011 2.87586 10.6988 2.87185L10.6636 2.79268C10.6599 2.78424 10.6537 2.77715 10.6458 2.77242C10.638 2.76768 10.6288 2.76554 10.6196 2.7663C10.1911 2.78153 9.77095 2.88957 9.38822 3.08294C9.01564 3.27137 8.69081 3.54207 8.43828 3.87455C8.43301 3.88042 8.42941 3.8876 8.42786 3.89534C8.42631 3.90307 8.42687 3.91109 8.42949 3.91853L8.47347 4.00649L8.49106 4.02408H8.51744C8.7636 3.681 9.08678 3.40043 9.46103 3.2049C9.83529 3.00937 10.2502 2.90434 10.6724 2.89823ZM11.2881 2.95101C11.5457 3.00312 11.7945 3.09199 12.0269 3.21488H12.0533C12.0571 3.21173 12.0599 3.2076 12.0615 3.20294C12.063 3.19827 12.0632 3.19327 12.0621 3.18849L12.0357 3.07415C12.0335 3.06808 12.03 3.06258 12.0255 3.05802C12.0209 3.05346 12.0154 3.04995 12.0093 3.04776C11.8211 2.95636 11.6235 2.88558 11.42 2.83666H11.3848L11.2793 2.90703C11.2755 2.91017 11.2727 2.91431 11.2711 2.91897C11.2696 2.92363 11.2694 2.92863 11.2705 2.93342L11.2881 2.95101ZM9.31785 2.99499C9.51941 2.89241 9.73183 2.81275 9.95114 2.7575C10.1727 2.70054 10.3998 2.6681 10.6284 2.66075L10.6548 2.64316C10.6571 2.63915 10.6583 2.6346 10.6583 2.62996C10.6583 2.62533 10.6571 2.62078 10.6548 2.61677L10.602 2.52881C10.5971 2.52199 10.5904 2.51671 10.5826 2.51359C10.5748 2.51047 10.5663 2.50965 10.558 2.51122C10.3413 2.5221 10.1262 2.55451 9.91596 2.60798C9.68424 2.66754 9.45999 2.75311 9.24749 2.86305C8.84317 3.07197 8.49135 3.36966 8.21839 3.73382C8.21608 3.73783 8.21486 3.74238 8.21486 3.74701C8.21486 3.75165 8.21608 3.7562 8.21839 3.76021L8.23598 3.7778L8.32394 3.81298H8.35912C8.61408 3.47259 8.94157 3.19318 9.31785 2.99499ZM8.98362 2.90703C9.32352 2.6967 9.69917 2.55061 10.0919 2.47604L10.1095 2.45845C10.1106 2.45367 10.1104 2.44866 10.1088 2.444C10.1073 2.43934 10.1044 2.4352 10.1007 2.43206L10.0127 2.3529H9.97753C9.59792 2.43448 9.23502 2.58023 8.90445 2.78389C8.59355 2.97353 8.31698 3.21441 8.08646 3.49634C8.08257 3.50124 8.07978 3.50691 8.07826 3.51298C8.07675 3.51905 8.07654 3.52537 8.07766 3.53152L8.09525 3.65466L8.11284 3.67225H8.13923C8.36963 3.36355 8.65608 3.10097 8.98362 2.89823V2.90703ZM8.15682 3.24126H8.18321C8.60356 2.80456 9.13136 2.48606 9.71366 2.31772L9.73125 2.30013C9.73238 2.29535 9.73216 2.29034 9.73061 2.28568C9.72905 2.28102 9.72623 2.27688 9.72245 2.27374L9.66088 2.20337C9.65501 2.1981 9.64784 2.1945 9.6401 2.19295C9.63236 2.1914 9.62435 2.19196 9.6169 2.19458C9.05762 2.36335 8.54758 2.66516 8.13043 3.07415C8.12655 3.07905 8.12376 3.08472 8.12224 3.09079C8.12072 3.09686 8.12052 3.10318 8.12164 3.10933L8.13923 3.22367L8.15682 3.24126ZM8.23598 2.66075V2.67834L8.31514 2.73991H8.35033C8.62589 2.52212 8.9309 2.34444 9.25628 2.21217C9.26168 2.21027 9.26631 2.20667 9.26948 2.20191C9.27266 2.19715 9.2742 2.19149 9.27387 2.18578C9.2742 2.18007 9.27266 2.17441 9.26948 2.16965C9.26631 2.16489 9.26168 2.16129 9.25628 2.1594L9.12435 2.11542H9.08916C8.78615 2.25424 8.50234 2.43162 8.24478 2.64316L8.23598 2.66075ZM8.17441 2.5552H8.2008C8.33253 2.45276 8.4706 2.35875 8.6142 2.27374C8.61797 2.2706 8.6208 2.26646 8.62235 2.2618C8.62391 2.25714 8.62413 2.25213 8.62299 2.24735L8.6054 2.22976L8.49106 2.19458H8.45587L8.15682 2.40567C8.15 2.41056 8.14472 2.4173 8.1416 2.42509C8.13848 2.43289 8.13766 2.44141 8.13923 2.44965L8.15682 2.54641L8.17441 2.5552ZM10.8307 5.1939C10.7953 5.16658 10.7522 5.15118 10.7076 5.14993C10.6814 5.14874 10.6553 5.15286 10.6308 5.16205C10.6063 5.17124 10.5839 5.18531 10.565 5.2034C10.5461 5.22148 10.5311 5.24322 10.5208 5.26729C10.5105 5.29136 10.5052 5.31726 10.5053 5.34343C10.5095 5.39332 10.5313 5.44008 10.5668 5.47536L10.8747 5.75683H10.9099L10.9978 5.70405V5.68646C10.999 5.68168 10.9987 5.67668 10.9972 5.67201C10.9956 5.66735 10.9928 5.66322 10.989 5.66007C10.8659 5.55453 10.6636 5.36982 10.6636 5.36982L10.646 5.33463C10.6481 5.32221 10.6546 5.31095 10.6642 5.30288C10.6739 5.29482 10.6862 5.29048 10.6988 5.29066H10.734L11.0154 5.53693H11.0418L11.0594 5.51934L11.0946 5.42259C11.0957 5.41781 11.0955 5.41281 11.0939 5.40814C11.0924 5.40348 11.0896 5.39935 11.0858 5.3962L10.8307 5.1939ZM11.0242 5.02679C10.9366 4.94949 10.8244 4.90584 10.7076 4.90365H10.69C10.5686 4.90444 10.4522 4.95164 10.3645 5.03558C10.3227 5.07518 10.2894 5.12292 10.2667 5.17586C10.244 5.22881 10.2324 5.28583 10.2326 5.34343C10.2351 5.43695 10.2692 5.52688 10.3294 5.5985C10.4899 5.79334 10.6871 5.95472 10.9099 6.07347H10.9363C10.94 6.07033 10.9429 6.06619 10.9444 6.06153C10.946 6.05687 10.9462 6.05187 10.9451 6.04708L10.9099 5.91515V5.89756C10.7333 5.79649 10.5755 5.66554 10.4437 5.51055C10.405 5.4633 10.3834 5.40446 10.3821 5.34343C10.3819 5.30544 10.3896 5.26783 10.4047 5.23299C10.4199 5.19815 10.4421 5.16686 10.4701 5.14113C10.5297 5.08523 10.6082 5.05383 10.69 5.05317H10.7076C10.7891 5.05467 10.8674 5.08596 10.9275 5.14113L11.1737 5.36102H11.2089L11.2881 5.29945V5.28186C11.2875 5.27508 11.2844 5.26878 11.2793 5.26427L11.0242 5.02679ZM11.1913 4.84208C11.149 4.80362 11.1017 4.77107 11.0506 4.74532C10.944 4.69264 10.8265 4.66553 10.7076 4.66616H10.6988C10.5092 4.66649 10.3269 4.7388 10.1886 4.86846C10.1232 4.93066 10.0714 5.00579 10.0366 5.08907C10.0018 5.17235 9.98465 5.26197 9.98632 5.35223C9.98947 5.49318 10.0389 5.62918 10.1271 5.73924C10.2661 5.91672 10.4323 6.07109 10.6196 6.19661H10.646L10.7515 6.15263L10.7691 6.13504C10.7703 6.13026 10.7701 6.12526 10.7685 6.12059C10.7669 6.11593 10.7641 6.1118 10.7603 6.10865C10.5653 5.98659 10.3927 5.83187 10.2502 5.65128C10.183 5.56596 10.1459 5.46082 10.1446 5.35223C10.144 5.28092 10.1586 5.21031 10.1874 5.14509C10.2162 5.07987 10.2586 5.02154 10.3118 4.97401C10.422 4.87239 10.5664 4.81588 10.7164 4.81569H10.7252C10.8196 4.81504 10.9129 4.8361 10.9978 4.87726L11.1034 4.95642L11.3672 5.2027H11.3936C11.3978 5.20144 11.4016 5.19918 11.4046 5.19611C11.4077 5.19304 11.41 5.18926 11.4112 5.18511V5.05317C11.4123 5.04702 11.4121 5.0407 11.4106 5.03463C11.4091 5.02857 11.4063 5.02289 11.4024 5.01799L11.1913 4.84208ZM10.7076 4.42868H10.69C10.4351 4.42989 10.1901 4.52727 10.0039 4.70135C9.9144 4.78436 9.84314 4.88511 9.79468 4.99716C9.74622 5.10922 9.72163 5.23014 9.72245 5.35223C9.72625 5.54064 9.79106 5.72273 9.90716 5.87117C10.0583 6.06813 10.2394 6.24025 10.4437 6.38132H10.4701L10.4877 6.36373L10.5141 6.26698C10.5152 6.26219 10.515 6.25719 10.5134 6.25253C10.5119 6.24787 10.509 6.24373 10.5053 6.24059C10.3222 6.11294 10.1592 5.9588 10.0215 5.78321C9.92635 5.65951 9.87388 5.50828 9.87198 5.35223C9.87107 5.24975 9.89175 5.14823 9.93266 5.05428C9.97358 4.96032 10.0338 4.87603 10.1095 4.80689C10.2676 4.66085 10.4747 4.57927 10.69 4.57821H10.7076C10.8241 4.57769 10.9395 4.60081 11.0468 4.64617C11.1542 4.69152 11.2512 4.75817 11.3321 4.84208H11.376L11.4288 4.76292C11.4307 4.75681 11.4308 4.7503 11.4293 4.7441C11.4277 4.73791 11.4245 4.73225 11.42 4.72773C11.2309 4.5385 10.9751 4.43111 10.7076 4.42868ZM10.7076 4.1912H10.69C10.3655 4.19344 10.0541 4.31926 9.8192 4.54302C9.70608 4.64863 9.61634 4.77676 9.55574 4.91916C9.49514 5.06157 9.46504 5.21508 9.46738 5.36982C9.46926 5.60883 9.54961 5.8406 9.69606 6.02949C9.90918 6.29718 10.172 6.52118 10.4701 6.68917H10.5053L10.5756 6.6188C10.5794 6.61566 10.5822 6.61152 10.5838 6.60686C10.5853 6.6022 10.5856 6.5972 10.5844 6.59242V6.57482C10.2937 6.40702 10.0395 6.18272 9.8368 5.91515C9.70871 5.7518 9.63765 5.55099 9.6345 5.34343C9.63331 5.20978 9.66009 5.07735 9.7131 4.95466C9.76612 4.83197 9.8442 4.72172 9.94234 4.63098C10.1493 4.43526 10.4227 4.32525 10.7076 4.32313C10.9939 4.32238 11.2701 4.4291 11.4816 4.62218H11.5168L11.6047 4.56941V4.55182C11.6059 4.54704 11.6056 4.54204 11.6041 4.53737C11.6025 4.53271 11.5997 4.52858 11.5959 4.52543C11.3547 4.30146 11.0367 4.17867 10.7076 4.1824V4.1912ZM10.3733 6.92665H10.4085L10.4525 6.84749C10.4558 6.84161 10.4567 6.83469 10.4551 6.82815C10.4535 6.82161 10.4494 6.81594 10.4437 6.81231C10.1147 6.62262 9.82745 6.3683 9.59931 6.06468H9.57293L9.55533 6.08227L9.52895 6.19661C9.52783 6.20276 9.52803 6.20908 9.52955 6.21515C9.53107 6.22122 9.53386 6.22689 9.53774 6.23179C9.7715 6.5125 10.0547 6.74801 10.3733 6.92665ZM10.5317 7.27848H10.5405V7.14654C10.5408 7.14083 10.5392 7.13517 10.5361 7.13041C10.5329 7.12565 10.5283 7.12205 10.5229 7.12016C10.2094 6.96662 9.92393 6.76146 9.67847 6.51325H9.65209C9.64669 6.51515 9.64206 6.51875 9.63888 6.52351C9.63571 6.52827 9.63417 6.53393 9.6345 6.53964V6.67158C9.6345 6.6784 9.63608 6.68514 9.63914 6.69124C9.64219 6.69735 9.64662 6.70266 9.65209 6.70676C9.90674 6.94483 10.1977 7.14079 10.5141 7.28727L10.5317 7.27848ZM9.88957 7.0322L9.87198 7.04979L9.85439 7.14654C9.85282 7.15479 9.85364 7.16331 9.85676 7.1711C9.85987 7.1789 9.86516 7.18563 9.87198 7.19052C10.0417 7.30821 10.2212 7.4112 10.4085 7.49837H10.4349V7.37523C10.4352 7.36952 10.4337 7.36386 10.4305 7.3591C10.4273 7.35434 10.4227 7.35074 10.4173 7.34884C10.2418 7.26062 10.074 7.15764 9.91596 7.04099L9.88957 7.0322ZM10.6724 7.86779H10.69C10.6923 7.86378 10.6935 7.85923 10.6935 7.8546C10.6935 7.84996 10.6923 7.84541 10.69 7.8414L10.6108 7.70947H10.5932C10.3463 7.61156 10.1104 7.48773 9.88957 7.34005H9.86318C9.85941 7.34319 9.85658 7.34733 9.85503 7.35199C9.85347 7.35665 9.85325 7.36165 9.85439 7.36643V7.48078C9.85439 7.48761 9.85598 7.49434 9.85903 7.50045C9.86208 7.50655 9.86652 7.51186 9.87198 7.51596C10.1181 7.67071 10.3806 7.79756 10.6548 7.89418L10.6724 7.86779ZM10.0743 7.70947H10.0479C10.0441 7.71261 10.0413 7.71674 10.0397 7.72141C10.0382 7.72607 10.038 7.73107 10.0391 7.73585L10.0831 7.85899L10.1095 7.88538C10.2885 7.97462 10.4737 8.05104 10.6636 8.11407H10.6988L10.8219 8.0525C10.8255 8.05009 10.8285 8.04682 10.8306 8.04299C10.8326 8.03915 10.8337 8.03486 10.8337 8.03051C10.8337 8.02615 10.8326 8.02187 10.8306 8.01803C10.8285 8.01419 10.8255 8.01093 10.8219 8.00852C10.5607 7.93721 10.3073 7.83997 10.0655 7.71826L10.0743 7.70947Z" fill="white"/>
<path d="M11.8598 4.44627C11.8641 4.45111 11.8665 4.45737 11.8665 4.46386C11.8665 4.47035 11.8641 4.47662 11.8598 4.48145L11.7982 4.56062H11.763C11.6369 4.41483 11.4809 4.29785 11.3057 4.21758C11.1203 4.13477 10.9194 4.09278 10.7164 4.09444H10.6988C10.4152 4.09778 10.1393 4.18668 9.90716 4.34952C9.69348 4.49021 9.52779 4.69273 9.43219 4.93003L9.40581 4.94763L9.38822 4.93003L9.35303 4.78051C9.35172 4.76811 9.35483 4.75564 9.36183 4.74532C9.39978 4.67414 9.44393 4.60645 9.49376 4.54302C9.5823 4.42173 9.68911 4.31491 9.81041 4.22638C10.0686 4.04626 10.3752 3.94817 10.69 3.94492H10.7076C10.9321 3.94488 11.154 3.99287 11.3584 4.08565C11.5487 4.16988 11.7194 4.29268 11.8598 4.44627ZM11.9214 4.15601C11.5871 3.85899 11.1547 3.69609 10.7076 3.69864H10.6812C10.3698 3.70202 10.0643 3.78369 9.79282 3.93612C9.54104 4.07732 9.3292 4.28008 9.17712 4.52543C9.17511 4.53112 9.17511 4.53733 9.17712 4.54302V4.57821L9.25628 4.62218H9.29146C9.4307 4.3986 9.62438 4.214 9.85439 4.08565C10.1042 3.94477 10.3856 3.86914 10.6724 3.86576H10.6988C10.9189 3.86377 11.1372 3.90551 11.341 3.98855C11.5448 4.0716 11.7301 4.19429 11.8862 4.34952H11.9126C11.918 4.34762 11.9226 4.34402 11.9258 4.33926C11.9289 4.3345 11.9305 4.32884 11.9302 4.32313V4.1912C11.9326 4.18565 11.9338 4.17966 11.9338 4.17361C11.9338 4.16755 11.9326 4.16156 11.9302 4.15601H11.9214ZM11.9214 3.83937C11.5675 3.59379 11.1471 3.46186 10.7164 3.46116H10.69C10.3218 3.46536 9.96106 3.5654 9.64329 3.75141C9.35055 3.92337 9.10795 4.169 8.93964 4.46386C8.93732 4.46787 8.9361 4.47242 8.9361 4.47706C8.9361 4.48169 8.93732 4.48624 8.93964 4.49025L8.96602 4.50784H9.06278L9.09796 4.49025C9.25341 4.23997 9.46783 4.03159 9.72245 3.88335C10.016 3.71033 10.3493 3.61639 10.69 3.61068H10.7164C11.1449 3.60875 11.5621 3.74783 11.9038 4.00649H11.9302C11.9356 4.00459 11.9402 4.00099 11.9434 3.99623C11.9465 3.99147 11.9481 3.98581 11.9478 3.9801V3.87455C11.9468 3.86689 11.9439 3.8596 11.9393 3.85343C11.9346 3.84725 11.9285 3.8424 11.9214 3.83937ZM10.7164 3.22367H10.6812C10.2706 3.22746 9.86781 3.33648 9.51136 3.54032C9.19563 3.72187 8.92973 3.97871 8.73734 4.28795C8.73234 4.29419 8.72962 4.30194 8.72962 4.30994C8.72962 4.31793 8.73234 4.32569 8.73734 4.33193L8.79011 4.40229H8.83409C9.01603 4.09843 9.27362 3.84691 9.58172 3.67225C9.91651 3.47996 10.2951 3.37698 10.6812 3.3732H10.7076C11.1261 3.36785 11.5377 3.48064 11.895 3.69864H11.9302L12.0005 3.63707C12.0043 3.63393 12.0071 3.62979 12.0087 3.62513C12.0102 3.62047 12.0105 3.61546 12.0093 3.61068V3.59309C11.6255 3.34958 11.1797 3.22136 10.7252 3.22367H10.7164ZM12.0709 3.34681C11.6624 3.10901 11.1978 2.98452 10.7252 2.98619H10.69C10.2503 2.98961 9.81832 3.10139 9.43219 3.31163C9.08682 3.50047 8.79136 3.76881 8.57022 4.09444C8.56636 4.10113 8.56433 4.10871 8.56433 4.11643C8.56433 4.12415 8.56636 4.13174 8.57022 4.13842L8.63179 4.20879H8.67577C8.88437 3.88971 9.16833 3.6269 9.50256 3.44356C9.86441 3.24627 10.2691 3.14058 10.6812 3.13572H10.7164C11.1713 3.13349 11.6182 3.25511 12.0093 3.48754H12.0357L12.0533 3.46995L12.0797 3.3732C12.0808 3.36842 12.0806 3.36341 12.0791 3.35875C12.0775 3.35409 12.0747 3.34995 12.0709 3.34681ZM10.6724 2.89823H10.6988C10.7011 2.89422 10.7023 2.88967 10.7023 2.88504C10.7023 2.88041 10.7011 2.87586 10.6988 2.87185L10.6636 2.79268C10.6599 2.78424 10.6537 2.77715 10.6458 2.77242C10.638 2.76768 10.6288 2.76554 10.6196 2.7663C10.1911 2.78153 9.77095 2.88957 9.38822 3.08294C9.01564 3.27137 8.69081 3.54207 8.43828 3.87455C8.43301 3.88042 8.42941 3.8876 8.42786 3.89534C8.42631 3.90307 8.42687 3.91109 8.42949 3.91853L8.47347 4.00649L8.49106 4.02408H8.51744C8.7636 3.681 9.08678 3.40043 9.46103 3.2049C9.83529 3.00937 10.2502 2.90434 10.6724 2.89823ZM11.2881 2.95101C11.5457 3.00312 11.7945 3.09199 12.0269 3.21488H12.0533C12.0571 3.21173 12.0599 3.2076 12.0615 3.20294C12.063 3.19827 12.0632 3.19327 12.0621 3.18849L12.0357 3.07415C12.0335 3.06808 12.03 3.06258 12.0255 3.05802C12.0209 3.05346 12.0154 3.04995 12.0093 3.04776C11.8211 2.95636 11.6235 2.88558 11.42 2.83666H11.3848L11.2793 2.90703C11.2755 2.91017 11.2727 2.91431 11.2711 2.91897C11.2696 2.92363 11.2694 2.92863 11.2705 2.93342L11.2881 2.95101ZM9.31785 2.99499C9.51941 2.89241 9.73183 2.81275 9.95114 2.7575C10.1727 2.70054 10.3998 2.6681 10.6284 2.66075L10.6548 2.64316C10.6571 2.63915 10.6583 2.6346 10.6583 2.62996C10.6583 2.62533 10.6571 2.62078 10.6548 2.61677L10.602 2.52881C10.5971 2.52199 10.5904 2.51671 10.5826 2.51359C10.5748 2.51047 10.5663 2.50965 10.558 2.51122C10.3413 2.5221 10.1262 2.55451 9.91596 2.60798C9.68424 2.66754 9.45999 2.75311 9.24749 2.86305C8.84317 3.07197 8.49135 3.36966 8.21839 3.73382C8.21608 3.73783 8.21486 3.74238 8.21486 3.74701C8.21486 3.75165 8.21608 3.7562 8.21839 3.76021L8.23598 3.7778L8.32394 3.81298H8.35912C8.61408 3.47259 8.94157 3.19318 9.31785 2.99499ZM8.98362 2.90703C9.32352 2.6967 9.69917 2.55061 10.0919 2.47604L10.1095 2.45845C10.1106 2.45367 10.1104 2.44866 10.1088 2.444C10.1073 2.43934 10.1044 2.4352 10.1007 2.43206L10.0127 2.3529H9.97753C9.59792 2.43448 9.23502 2.58023 8.90445 2.78389C8.59355 2.97353 8.31698 3.21441 8.08646 3.49634C8.08257 3.50124 8.07978 3.50691 8.07826 3.51298C8.07675 3.51905 8.07654 3.52537 8.07766 3.53152L8.09525 3.65466L8.11284 3.67225H8.13923C8.36963 3.36355 8.65608 3.10097 8.98362 2.89823V2.90703ZM8.15682 3.24126H8.18321C8.60356 2.80456 9.13136 2.48606 9.71366 2.31772L9.73125 2.30013C9.73238 2.29535 9.73216 2.29034 9.73061 2.28568C9.72905 2.28102 9.72623 2.27688 9.72245 2.27374L9.66088 2.20337C9.65501 2.1981 9.64784 2.1945 9.6401 2.19295C9.63236 2.1914 9.62435 2.19196 9.6169 2.19458C9.05762 2.36335 8.54758 2.66516 8.13043 3.07415C8.12655 3.07905 8.12376 3.08472 8.12224 3.09079C8.12072 3.09686 8.12052 3.10318 8.12164 3.10933L8.13923 3.22367L8.15682 3.24126ZM8.23598 2.66075V2.67834L8.31514 2.73991H8.35033C8.62589 2.52212 8.9309 2.34444 9.25628 2.21217C9.26168 2.21027 9.26631 2.20667 9.26948 2.20191C9.27266 2.19715 9.2742 2.19149 9.27387 2.18578C9.2742 2.18007 9.27266 2.17441 9.26948 2.16965C9.26631 2.16489 9.26168 2.16129 9.25628 2.1594L9.12435 2.11542H9.08916C8.78615 2.25424 8.50234 2.43162 8.24478 2.64316L8.23598 2.66075ZM8.17441 2.5552H8.2008C8.33253 2.45276 8.4706 2.35875 8.6142 2.27374C8.61797 2.2706 8.6208 2.26646 8.62235 2.2618C8.62391 2.25714 8.62413 2.25213 8.62299 2.24735L8.6054 2.22976L8.49106 2.19458H8.45587L8.15682 2.40567C8.15 2.41056 8.14472 2.4173 8.1416 2.42509C8.13848 2.43289 8.13766 2.44141 8.13923 2.44965L8.15682 2.54641L8.17441 2.5552ZM10.8307 5.1939C10.7953 5.16658 10.7522 5.15118 10.7076 5.14993C10.6814 5.14874 10.6553 5.15286 10.6308 5.16205C10.6063 5.17124 10.5839 5.18531 10.565 5.2034C10.5461 5.22148 10.5311 5.24322 10.5208 5.26729C10.5105 5.29136 10.5052 5.31726 10.5053 5.34343C10.5095 5.39332 10.5313 5.44008 10.5668 5.47536L10.8747 5.75683H10.9099L10.9978 5.70405V5.68646C10.999 5.68168 10.9987 5.67668 10.9972 5.67201C10.9956 5.66735 10.9928 5.66322 10.989 5.66007C10.8659 5.55453 10.6636 5.36982 10.6636 5.36982L10.646 5.33463C10.6481 5.32221 10.6546 5.31095 10.6642 5.30288C10.6739 5.29482 10.6862 5.29048 10.6988 5.29066H10.734L11.0154 5.53693H11.0418L11.0594 5.51934L11.0946 5.42259C11.0957 5.41781 11.0955 5.41281 11.0939 5.40814C11.0924 5.40348 11.0896 5.39935 11.0858 5.3962L10.8307 5.1939ZM11.0242 5.02679C10.9366 4.94949 10.8244 4.90584 10.7076 4.90365H10.69C10.5686 4.90444 10.4522 4.95164 10.3645 5.03558C10.3227 5.07518 10.2894 5.12292 10.2667 5.17586C10.244 5.22881 10.2324 5.28583 10.2326 5.34343C10.2351 5.43695 10.2692 5.52688 10.3294 5.5985C10.4899 5.79334 10.6871 5.95472 10.9099 6.07347H10.9363C10.94 6.07033 10.9429 6.06619 10.9444 6.06153C10.946 6.05687 10.9462 6.05187 10.9451 6.04708L10.9099 5.91515V5.89756C10.7333 5.79649 10.5755 5.66554 10.4437 5.51055C10.405 5.4633 10.3834 5.40446 10.3821 5.34343C10.3819 5.30544 10.3896 5.26783 10.4047 5.23299C10.4199 5.19815 10.4421 5.16686 10.4701 5.14113C10.5297 5.08523 10.6082 5.05383 10.69 5.05317H10.7076C10.7891 5.05467 10.8674 5.08596 10.9275 5.14113L11.1737 5.36102H11.2089L11.2881 5.29945V5.28186C11.2875 5.27508 11.2844 5.26878 11.2793 5.26427L11.0242 5.02679ZM11.1913 4.84208C11.149 4.80362 11.1017 4.77107 11.0506 4.74532C10.944 4.69264 10.8265 4.66553 10.7076 4.66616H10.6988C10.5092 4.66649 10.3269 4.7388 10.1886 4.86846C10.1232 4.93066 10.0714 5.00579 10.0366 5.08907C10.0018 5.17235 9.98465 5.26197 9.98632 5.35223C9.98947 5.49318 10.0389 5.62918 10.1271 5.73924C10.2661 5.91672 10.4323 6.07109 10.6196 6.19661H10.646L10.7515 6.15263L10.7691 6.13504C10.7703 6.13026 10.7701 6.12526 10.7685 6.12059C10.7669 6.11593 10.7641 6.1118 10.7603 6.10865C10.5653 5.98659 10.3927 5.83187 10.2502 5.65128C10.183 5.56596 10.1459 5.46082 10.1446 5.35223C10.144 5.28092 10.1586 5.21031 10.1874 5.14509C10.2162 5.07987 10.2586 5.02154 10.3118 4.97401C10.422 4.87239 10.5664 4.81588 10.7164 4.81569H10.7252C10.8196 4.81504 10.9129 4.8361 10.9978 4.87726L11.1034 4.95642L11.3672 5.2027H11.3936C11.3978 5.20144 11.4016 5.19918 11.4046 5.19611C11.4077 5.19304 11.41 5.18926 11.4112 5.18511V5.05317C11.4123 5.04702 11.4121 5.0407 11.4106 5.03463C11.4091 5.02857 11.4063 5.02289 11.4024 5.01799L11.1913 4.84208ZM10.7076 4.42868H10.69C10.4351 4.42989 10.1901 4.52727 10.0039 4.70135C9.9144 4.78436 9.84314 4.88511 9.79468 4.99716C9.74622 5.10922 9.72163 5.23014 9.72245 5.35223C9.72625 5.54064 9.79106 5.72273 9.90716 5.87117C10.0583 6.06813 10.2394 6.24025 10.4437 6.38132H10.4701L10.4877 6.36373L10.5141 6.26698C10.5152 6.26219 10.515 6.25719 10.5134 6.25253C10.5119 6.24787 10.509 6.24373 10.5053 6.24059C10.3222 6.11294 10.1592 5.9588 10.0215 5.78321C9.92635 5.65951 9.87388 5.50828 9.87198 5.35223C9.87107 5.24975 9.89175 5.14823 9.93266 5.05428C9.97358 4.96032 10.0338 4.87603 10.1095 4.80689C10.2676 4.66085 10.4747 4.57927 10.69 4.57821H10.7076C10.8241 4.57769 10.9395 4.60081 11.0468 4.64617C11.1542 4.69152 11.2512 4.75817 11.3321 4.84208H11.376L11.4288 4.76292C11.4307 4.75681 11.4308 4.7503 11.4293 4.7441C11.4277 4.73791 11.4245 4.73225 11.42 4.72773C11.2309 4.5385 10.9751 4.43111 10.7076 4.42868ZM10.7076 4.1912H10.69C10.3655 4.19344 10.0541 4.31926 9.8192 4.54302C9.70608 4.64863 9.61634 4.77676 9.55574 4.91916C9.49514 5.06157 9.46504 5.21508 9.46738 5.36982C9.46926 5.60883 9.54961 5.8406 9.69606 6.02949C9.90918 6.29718 10.172 6.52118 10.4701 6.68917H10.5053L10.5756 6.6188C10.5794 6.61566 10.5822 6.61152 10.5838 6.60686C10.5853 6.6022 10.5856 6.5972 10.5844 6.59242V6.57482C10.2937 6.40702 10.0395 6.18272 9.8368 5.91515C9.70871 5.7518 9.63765 5.55099 9.6345 5.34343C9.63331 5.20978 9.66009 5.07735 9.7131 4.95466C9.76612 4.83197 9.8442 4.72172 9.94234 4.63098C10.1493 4.43526 10.4227 4.32525 10.7076 4.32313C10.9939 4.32238 11.2701 4.4291 11.4816 4.62218H11.5168L11.6047 4.56941V4.55182C11.6059 4.54704 11.6056 4.54204 11.6041 4.53737C11.6025 4.53271 11.5997 4.52858 11.5959 4.52543C11.3547 4.30146 11.0367 4.17867 10.7076 4.1824V4.1912ZM10.3733 6.92665H10.4085L10.4525 6.84749C10.4558 6.84161 10.4567 6.83469 10.4551 6.82815C10.4535 6.82161 10.4494 6.81594 10.4437 6.81231C10.1147 6.62262 9.82745 6.3683 9.59931 6.06468H9.57293L9.55533 6.08227L9.52895 6.19661C9.52783 6.20276 9.52803 6.20908 9.52955 6.21515C9.53107 6.22122 9.53386 6.22689 9.53774 6.23179C9.7715 6.5125 10.0547 6.74801 10.3733 6.92665ZM10.5317 7.27848H10.5405V7.14654C10.5408 7.14083 10.5392 7.13517 10.5361 7.13041C10.5329 7.12565 10.5283 7.12205 10.5229 7.12016C10.2094 6.96662 9.92393 6.76146 9.67847 6.51325H9.65209C9.64669 6.51515 9.64206 6.51875 9.63888 6.52351C9.63571 6.52827 9.63417 6.53393 9.6345 6.53964V6.67158C9.6345 6.6784 9.63608 6.68514 9.63914 6.69124C9.64219 6.69735 9.64662 6.70266 9.65209 6.70676C9.90674 6.94483 10.1977 7.14079 10.5141 7.28727L10.5317 7.27848ZM9.88957 7.0322L9.87198 7.04979L9.85439 7.14654C9.85282 7.15479 9.85364 7.16331 9.85676 7.1711C9.85987 7.1789 9.86516 7.18563 9.87198 7.19052C10.0417 7.30821 10.2212 7.4112 10.4085 7.49837H10.4349V7.37523C10.4352 7.36952 10.4337 7.36386 10.4305 7.3591C10.4273 7.35434 10.4227 7.35074 10.4173 7.34884C10.2418 7.26062 10.074 7.15764 9.91596 7.04099L9.88957 7.0322ZM10.6724 7.86779H10.69C10.6923 7.86378 10.6935 7.85923 10.6935 7.8546C10.6935 7.84996 10.6923 7.84541 10.69 7.8414L10.6108 7.70947H10.5932C10.3463 7.61156 10.1104 7.48773 9.88957 7.34005H9.86318C9.85941 7.34319 9.85658 7.34733 9.85503 7.35199C9.85347 7.35665 9.85325 7.36165 9.85439 7.36643V7.48078C9.85439 7.48761 9.85598 7.49434 9.85903 7.50045C9.86208 7.50655 9.86652 7.51186 9.87198 7.51596C10.1181 7.67071 10.3806 7.79756 10.6548 7.89418L10.6724 7.86779ZM10.0743 7.70947H10.0479C10.0441 7.71261 10.0413 7.71674 10.0397 7.72141C10.0382 7.72607 10.038 7.73107 10.0391 7.73585L10.0831 7.85899L10.1095 7.88538C10.2885 7.97462 10.4737 8.05104 10.6636 8.11407H10.6988L10.8219 8.0525C10.8255 8.05009 10.8285 8.04682 10.8306 8.04299C10.8326 8.03915 10.8337 8.03486 10.8337 8.03051C10.8337 8.02615 10.8326 8.02187 10.8306 8.01803C10.8285 8.01419 10.8255 8.01093 10.8219 8.00852C10.5607 7.93721 10.3073 7.83997 10.0655 7.71826L10.0743 7.70947Z" stroke="white" stroke-width="0.2" mask="url(#path-13-outside-1_676_2356)"/>
<path d="M11.5139 5.83917V6.28156H11.3352V6.05206L11.3098 6.06378L11.2863 6.03644C11.2612 6.00787 11.2471 5.97101 11.2473 5.93292V5.89972L11.2776 5.88702L11.383 5.84308L11.3928 5.83917H11.5139Z" fill="white" stroke="white" stroke-width="0.1"/>
<path d="M11.6406 5.83075C11.6995 5.83088 11.7476 5.85526 11.7793 5.89813C11.8097 5.93914 11.8223 5.99255 11.8223 6.04755C11.8223 6.12728 11.799 6.19179 11.7481 6.23505C11.6988 6.27686 11.6318 6.29071 11.5606 6.29071H11.5303L11.5156 6.26337C11.5052 6.24196 11.5005 6.21783 11.502 6.19403H11.5029C11.5023 6.18435 11.5018 6.17438 11.5029 6.16473L11.5078 6.12079H11.5108C11.4955 6.10508 11.4831 6.08667 11.4756 6.0661C11.4683 6.04611 11.4665 6.02479 11.4678 6.0036V6.00165L11.4668 5.99969H11.4678C11.4688 5.95533 11.4862 5.91303 11.5176 5.88153C11.5501 5.84906 11.5947 5.83075 11.6406 5.83075ZM11.6387 5.99579L11.6426 5.99481C11.6414 5.99326 11.641 5.99208 11.6406 5.99188H11.6377L11.6387 5.99579Z" fill="white" stroke="white" stroke-width="0.1"/>
<path d="M12.0154 5.83917V6.28156H11.8367V6.05206L11.8113 6.06378L11.7878 6.03644C11.7626 6.00787 11.7486 5.97101 11.7488 5.93292V5.89972L11.7791 5.88702L11.8845 5.84308L11.8943 5.83917H12.0154Z" fill="white" stroke="white" stroke-width="0.1"/>
<path d="M12.2628 5.84479C12.282 5.87484 12.291 5.91081 12.2882 5.94635L12.2843 5.99225H12.2784C12.2793 5.99299 12.2805 5.99344 12.2814 5.9942C12.2999 6.0101 12.3146 6.03095 12.3234 6.05377C12.3307 6.07313 12.3324 6.09374 12.3312 6.11432H12.3322C12.3343 6.1391 12.3303 6.16432 12.3214 6.18756C12.3125 6.21083 12.2986 6.23208 12.2804 6.24908C12.2621 6.26614 12.2399 6.27889 12.2159 6.28619C12.1921 6.29346 12.1664 6.29502 12.1417 6.29108V6.2901C12.1198 6.29034 12.0978 6.28822 12.0773 6.28033C12.0531 6.27099 12.0315 6.25622 12.0138 6.23737C11.9961 6.21845 11.9825 6.19568 11.9747 6.17096C11.9677 6.14832 11.9664 6.12418 11.9689 6.10065C11.9685 6.03223 11.9929 5.96638 12.0382 5.9151C12.0837 5.86367 12.1468 5.83025 12.215 5.82233L12.2452 5.81842L12.2628 5.84479Z" fill="white" stroke="white" stroke-width="0.1"/>
</g>
<defs>
<linearGradient id="paint0_linear_676_2356" x1="11.4843" y1="1.30988" x2="7.90355" y2="7.51171" gradientUnits="userSpaceOnUse">
<stop stop-color="#8CBAE4"/>
<stop offset="0.11" stop-color="#6DACDF"/>
<stop offset="0.54" stop-color="#005CA4"/>
<stop offset="1" stop-color="#005CA4"/>
</linearGradient>
<linearGradient id="paint1_linear_676_2356" x1="12.6057" y1="0.678388" x2="7.54639" y2="9.44064" gradientUnits="userSpaceOnUse">
<stop offset="0.05" stop-color="#8CBAE4"/>
<stop offset="0.54" stop-color="#005CA4"/>
<stop offset="1" stop-color="#005CA4"/>
</linearGradient>
<clipPath id="clip0_676_2356">
<rect width="20" height="14" fill="white"/>
</clipPath>
</defs>
</svg>
