<svg width="11" height="14" viewBox="0 0 11 14" fill="none" xmlns="http://www.w3.org/2000/svg">
<path d="M5.40893 0L3.40602 1.2662L4.85573 4.63353H5.96246L7.41217 1.2662L5.40893 0Z" fill="url(#paint0_linear_674_1835)"/>
<path d="M10.8182 3.41895L8.06373 1.67789C8.06373 1.67789 6.146 6.13347 5.93738 6.61699C5.72844 7.10083 5.74002 7.73249 5.9332 8.14707C6.10035 8.50586 6.54427 9.45142 6.65131 9.681C6.75835 9.91058 6.78503 10.2412 6.70499 10.5252C6.62334 10.8141 5.72812 13.9997 5.72812 13.9997C5.72812 13.9997 8.59829 11.3009 8.95734 10.9619C9.31383 10.6256 9.39322 10.035 9.20421 9.58673C9.12642 9.40205 9.09685 9.32894 8.9027 8.8669C8.70855 8.40486 8.66644 7.83541 8.90431 7.34708C9.1396 6.8642 10.8185 3.41895 10.8185 3.41895H10.8182Z" fill="url(#paint1_linear_674_1835)"/>
<path d="M0 3.41927L2.75445 1.67821C2.75445 1.67821 4.67218 6.13379 4.8808 6.61731C5.08974 7.10115 5.07817 7.73281 4.88498 8.14739C4.71783 8.50619 4.27391 9.45175 4.16687 9.68132C4.06015 9.9109 4.03315 10.2415 4.11319 10.5256C4.19484 10.8145 5.09006 14 5.09006 14C5.09006 14 2.21989 11.3012 1.86084 10.9623C1.50436 10.6259 1.42496 10.0353 1.61397 9.58705C1.69176 9.40237 1.72133 9.32926 1.91548 8.86722C2.10963 8.40518 2.15174 7.83573 1.91387 7.3474C1.6789 6.86452 0 3.41927 0 3.41927Z" fill="url(#paint2_linear_674_1835)"/>
<defs>
<linearGradient id="paint0_linear_674_1835" x1="5.40893" y1="4.6688" x2="5.40893" y2="0.192703" gradientUnits="userSpaceOnUse">
<stop stop-color="#F79B1D"/>
<stop offset="0.36" stop-color="#FAB311"/>
<stop offset="0.74" stop-color="#FDC608"/>
<stop offset="1" stop-color="#FFCD05"/>
</linearGradient>
<linearGradient id="paint1_linear_674_1835" x1="8.27299" y1="1.49865" x2="8.27299" y2="14.0074" gradientUnits="userSpaceOnUse">
<stop stop-color="#F16043"/>
<stop offset="0.97" stop-color="#CA2026"/>
<stop offset="0.98" stop-color="#CA2026"/>
</linearGradient>
<linearGradient id="paint2_linear_674_1835" x1="2.54519" y1="1.49897" x2="2.54519" y2="14.0074" gradientUnits="userSpaceOnUse">
<stop offset="0.14" stop-color="#54B94C"/>
<stop offset="1" stop-color="#158040"/>
</linearGradient>
</defs>
</svg>
