<svg width="20" height="14" viewBox="0 0 20 14" fill="none" xmlns="http://www.w3.org/2000/svg">
<g clip-path="url(#clip0_676_2489)">
<path fill-rule="evenodd" clip-rule="evenodd" d="M7.0639 9.99583V4.17395H10.0961C10.0867 8.63923 8.96402 10.2979 7.0639 9.99615V9.99583Z" fill="url(#paint0_linear_676_2489)"/>
<path fill-rule="evenodd" clip-rule="evenodd" d="M13.894 8.16083C13.894 9.94785 13.7195 11.07 12.8695 11.7205C11.7676 12.5637 9.8123 12.7022 8.45431 12.3573C7.72736 12.1725 7.0639 11.7819 7.0639 11.1154V11.054C8.84871 11.4282 10.4316 11.2022 11.8043 10.3512C12.5744 9.87372 13.3752 9.21142 13.894 8.16083Z" fill="url(#paint1_linear_676_2489)"/>
<path fill-rule="evenodd" clip-rule="evenodd" d="M13.9144 4.17397H10.9571C10.9166 8.64153 9.61913 10.7267 7.06392 10.4295C5.42751 10.2013 4.68752 8.99586 4.68952 6.98089V3.7037H5.65078C6.43322 3.7037 6.80321 3.62891 7.30055 2.94473H4V6.299C4 8.3659 4.61933 10.3645 7.06392 10.7662C9.07232 10.9955 10.6255 10.4299 11.7539 9.56541C12.4979 8.99554 12.9942 8.24474 13.3254 7.47957C13.7673 6.45902 13.914 5.27649 13.914 4.17429L13.9144 4.17397Z" fill="url(#paint2_linear_676_2489)"/>
<path fill-rule="evenodd" clip-rule="evenodd" d="M9.01282 2.98491C9.99713 2.497 10.9815 2.497 11.9658 2.98491C12.2535 2.56036 12.541 2.13613 12.8288 1.71159C12.2786 1.94052 12.0045 1.57508 11.8073 1.04276C11.2856 1.38599 10.8351 1.26875 10.4895 0.47876C10.2448 1.12212 9.8474 1.4046 9.17726 1.04374C8.97839 1.65966 8.64616 1.90492 8.1535 1.70342C8.43994 2.13058 8.72638 2.55742 9.01282 2.98458V2.98491Z" fill="url(#paint3_linear_676_2489)"/>
<path fill-rule="evenodd" clip-rule="evenodd" d="M10.4895 0.376216C10.6001 0.376216 10.69 0.291633 10.69 0.188108C10.69 0.0845833 10.5998 0 10.4895 0C10.3792 0 10.2889 0.0845833 10.2889 0.188108C10.2889 0.291633 10.3792 0.376216 10.4895 0.376216Z" fill="url(#paint4_linear_676_2489)"/>
<path fill-rule="evenodd" clip-rule="evenodd" d="M11.9691 0.594371C12.037 0.620497 12.06 0.719776 12.0213 0.816443C11.9825 0.913109 11.8959 0.97026 11.8281 0.944134C11.7602 0.918008 11.7372 0.818729 11.7759 0.722062C11.8147 0.625396 11.9013 0.568245 11.9691 0.594371Z" fill="url(#paint5_linear_676_2489)"/>
<path fill-rule="evenodd" clip-rule="evenodd" d="M9.00947 0.594371C8.94162 0.620497 8.91856 0.719776 8.95733 0.816443C8.99644 0.913109 9.08267 0.97026 9.15052 0.944134C9.21837 0.918008 9.24143 0.818729 9.20266 0.722062C9.16355 0.625396 9.07732 0.568245 9.00947 0.594371Z" fill="url(#paint6_linear_676_2489)"/>
<path fill-rule="evenodd" clip-rule="evenodd" d="M12.9932 1.36672C13.0407 1.38501 13.057 1.45457 13.0296 1.5225C13.0022 1.5901 12.9417 1.63027 12.8943 1.61198C12.8468 1.59369 12.8304 1.52413 12.8578 1.4562C12.8852 1.3886 12.9457 1.34843 12.9932 1.36672Z" fill="url(#paint7_linear_676_2489)"/>
<path fill-rule="evenodd" clip-rule="evenodd" d="M7.98539 1.36672C7.93792 1.38501 7.92155 1.45457 7.94895 1.5225C7.97636 1.5901 8.03686 1.63027 8.08432 1.61198C8.13178 1.59369 8.14816 1.52413 8.12075 1.4562C8.09334 1.3886 8.03285 1.34843 7.98539 1.36672Z" fill="url(#paint8_linear_676_2489)"/>
<path fill-rule="evenodd" clip-rule="evenodd" d="M7.0639 13.9357C7.75409 13.7831 8.49007 13.6652 9.25546 13.6009C10.2765 13.515 11.3147 13.5304 12.3327 13.6408C12.9584 13.7087 13.5591 13.8102 14.1276 13.9357C14.1964 13.9507 14.1951 14.0065 14.1266 13.9997C12.9528 13.8818 11.7766 13.7926 10.5957 13.7942C9.41489 13.7926 8.23873 13.8818 7.0649 13.9997C6.99605 14.0065 6.99504 13.951 7.0639 13.9357Z" fill="url(#paint9_linear_676_2489)"/>
<path d="M9.48542 13.1431V13.3106H9.38348V12.8883H9.57366C9.60876 12.8883 9.63683 12.8922 9.65822 12.9004C9.67928 12.9082 9.69699 12.9229 9.71103 12.9442C9.72507 12.9654 9.73175 12.9889 9.73175 13.015C9.73175 13.066 9.70669 13.1022 9.65689 13.1241L9.73677 13.3106H9.62513L9.55862 13.1431H9.48609H9.48542ZM9.48542 12.9631V13.0709H9.54759C9.56765 13.0709 9.58269 13.0696 9.59171 13.0666C9.60074 13.0637 9.60909 13.0578 9.61611 13.048C9.62313 13.0386 9.62681 13.0274 9.62681 13.015C9.62681 13.0033 9.62313 12.9928 9.61611 12.9834C9.60876 12.9742 9.60107 12.9683 9.59271 12.9664C9.58436 12.9641 9.56831 12.9631 9.54525 12.9631H9.48542ZM10.4256 12.9716H10.2234V13.0663H10.3835V13.1453H10.2234V13.3106H10.1181V12.8883H10.4256V12.9719V12.9716ZM11.0948 12.9687H10.8885V13.0552H11.0506V13.1346H10.8885V13.2267H11.0948V13.3103H10.7856V12.888H11.0948V12.9683V12.9687ZM11.7712 12.9716H11.569V13.0663H11.7291V13.1453H11.569V13.3106H11.4638V12.8883H11.7712V12.9719V12.9716Z" fill="#A61932"/>
<path fill-rule="evenodd" clip-rule="evenodd" d="M17 2.94442V5.89863C17 7.99917 15.9899 9.892 14.2964 10.7493C15.6691 9.41128 16.2777 7.63144 16.2777 5.76767V3.70306H14.9424C14.3686 3.70306 14.0143 3.4075 13.6774 2.94409H17V2.94442Z" fill="url(#paint10_linear_676_2489)"/>
</g>
<defs>
<linearGradient id="paint0_linear_676_2489" x1="8.57999" y1="3.88591" x2="8.57999" y2="10.0595" gradientUnits="userSpaceOnUse">
<stop stop-color="#E20E18"/>
<stop offset="1" stop-color="#B51926"/>
</linearGradient>
<linearGradient id="paint1_linear_676_2489" x1="10.4791" y1="8.81725" x2="10.4791" y2="13.0307" gradientUnits="userSpaceOnUse">
<stop offset="0.3" stop-color="#BB1A1E"/>
<stop offset="0.97" stop-color="#9E1836"/>
</linearGradient>
<linearGradient id="paint2_linear_676_2489" x1="8.95701" y1="5.1759" x2="8.95701" y2="13.7975" gradientUnits="userSpaceOnUse">
<stop offset="0.2" stop-color="#F8CB6B"/>
<stop offset="1" stop-color="#C98339"/>
</linearGradient>
<linearGradient id="paint3_linear_676_2489" x1="9.12278" y1="1.73183" x2="13.798" y2="1.73183" gradientUnits="userSpaceOnUse">
<stop stop-color="#F1C363"/>
<stop offset="0.78" stop-color="#CD883F"/>
</linearGradient>
<linearGradient id="paint4_linear_676_2489" x1="10.3645" y1="0.188108" x2="10.7656" y2="0.188108" gradientUnits="userSpaceOnUse">
<stop stop-color="#F1C363"/>
<stop offset="0.78" stop-color="#CD883F"/>
</linearGradient>
<linearGradient id="paint5_linear_676_2489" x1="11.8043" y1="0.769089" x2="12.0871" y2="0.769089" gradientUnits="userSpaceOnUse">
<stop stop-color="#F1C363"/>
<stop offset="0.78" stop-color="#CD883F"/>
</linearGradient>
<linearGradient id="paint6_linear_676_2489" x1="9.00479" y1="0.769089" x2="9.28789" y2="0.769089" gradientUnits="userSpaceOnUse">
<stop stop-color="#F1C363"/>
<stop offset="0.78" stop-color="#CD883F"/>
</linearGradient>
<linearGradient id="paint7_linear_676_2489" x1="12.8729" y1="1.48919" x2="13.0711" y2="1.48919" gradientUnits="userSpaceOnUse">
<stop stop-color="#F1C363"/>
<stop offset="0.78" stop-color="#CD883F"/>
</linearGradient>
<linearGradient id="paint8_linear_676_2489" x1="7.97369" y1="1.48919" x2="8.17189" y2="1.48919" gradientUnits="userSpaceOnUse">
<stop stop-color="#F1C363"/>
<stop offset="0.78" stop-color="#CD883F"/>
</linearGradient>
<linearGradient id="paint9_linear_676_2489" x1="10.5957" y1="13.5457" x2="10.5957" y2="14" gradientUnits="userSpaceOnUse">
<stop offset="0.2" stop-color="#F8CB6B"/>
<stop offset="1" stop-color="#C98339"/>
</linearGradient>
<linearGradient id="paint10_linear_676_2489" x1="15.3388" y1="2.9712" x2="15.3388" y2="11.519" gradientUnits="userSpaceOnUse">
<stop offset="0.26" stop-color="#E30E18"/>
<stop offset="0.55" stop-color="#D3111D"/>
<stop offset="1" stop-color="#B41928"/>
</linearGradient>
<clipPath id="clip0_676_2489">
<rect width="20" height="14" fill="white"/>
</clipPath>
</defs>
</svg>
