<svg width="20" height="14" viewBox="0 0 20 14" fill="none" xmlns="http://www.w3.org/2000/svg">
<g clip-path="url(#clip0_676_2615)">
<path d="M12.5602 8.89075H18.3481V14H12.5602V8.89075Z" fill="#5CBEFF"/>
<path d="M1.01193 5.34384H6.7998V14H1.01193V5.34384Z" fill="#D94556"/>
<path d="M6.76926 0H12.5571V13.9531H6.76926V0Z" fill="#07CC66"/>
<path d="M17.3951 10.8331C17.4562 10.9269 17.5173 11.0677 17.5173 11.2601C17.5173 11.4008 17.4868 11.5932 17.3951 11.687C17.334 11.7808 17.2424 11.8747 17.1172 11.8747C16.9003 11.8747 16.7171 11.5885 16.7171 11.2601C16.7171 11.1193 16.7476 10.9269 16.8393 10.8331C16.9003 10.7393 16.992 10.6454 17.1172 10.6454C17.2424 10.6454 17.334 10.7393 17.3951 10.8331Z" fill="#079CFF"/>
<path d="M11.6347 1.98457C11.6958 2.07841 11.7569 2.21916 11.7569 2.41152C11.7569 2.60388 11.7264 2.74463 11.6347 2.83846C11.5737 2.93229 11.482 3.02613 11.3568 3.02613C11.1399 3.02613 10.9567 2.74463 10.9567 2.41152C10.9567 2.27077 10.9872 2.07841 11.0789 1.98457C11.1399 1.89074 11.2316 1.79691 11.3568 1.79691C11.482 1.79691 11.5401 1.84382 11.6347 1.98457Z" fill="#19AB5C"/>
<path d="M5.84687 7.28621C5.90795 7.38004 5.96904 7.52079 5.96904 7.71315C5.96904 7.90551 5.93849 8.04626 5.84687 8.1401C5.78578 8.23393 5.69415 8.32776 5.56893 8.32776C5.35207 8.32776 5.16881 8.04626 5.16881 7.71315C5.16881 7.5724 5.19936 7.38004 5.29098 7.28621C5.35207 7.19237 5.4437 7.09854 5.56893 7.09854C5.69415 7.09854 5.78578 7.19237 5.84687 7.28621Z" fill="#CD2738"/>
<path d="M16.4086 11.2601C16.4086 10.9269 16.2253 10.6454 16.0085 10.6454H12.5602V11.8278H16.039C16.2223 11.8278 16.4086 11.5932 16.4086 11.2601Z" fill="#079CFF"/>
<path d="M10.6207 2.36461C10.6207 2.0315 10.4375 1.75 10.2206 1.75H6.77232V2.93231H10.2512C10.4344 2.97922 10.6207 2.69772 10.6207 2.36461Z" fill="#19AB5C"/>
<path d="M4.86033 7.70845C4.86033 7.37534 4.67707 7.09384 4.46022 7.09384H1.01193V8.27615H4.49076C4.67402 8.27615 4.86033 8.04156 4.86033 7.70845Z" fill="#CD2738"/>
</g>
<defs>
<clipPath id="clip0_676_2615">
<rect width="17.36" height="14" fill="white" transform="translate(0.999999)"/>
</clipPath>
</defs>
</svg>
