<svg width="20" height="14" viewBox="0 0 20 14" fill="none" xmlns="http://www.w3.org/2000/svg">
<g clip-path="url(#clip0_672_1628)">
<path d="M9.8805 0C9.8805 0.387732 9.8805 0.775464 9.8805 1.1632C9.8805 3.08145 9.87044 4.9997 9.8805 6.91795C9.8805 7.73423 9.8302 8.5199 9.629 9.31577C9.38757 10.2953 9.18637 11.285 8.97512 12.2748H8.21058C8.31117 11.9891 8.40171 11.7238 8.49225 11.4585C8.77392 10.6728 9.0556 9.88716 9.31715 9.1015C9.35739 8.98926 9.35739 8.84641 9.31715 8.73417C8.60291 6.24452 7.8786 3.76508 7.16436 1.27543C7.16436 1.25503 7.1543 1.23462 7.14424 1.1836C7.58687 0.989737 8.0295 0.806074 8.46207 0.612208C8.91476 0.408139 9.36745 0.214273 9.8302 0.0102035C9.84026 0.0102035 9.86038 0.0102035 9.87044 0.0102035L9.8805 0Z" fill="white"/>
<path d="M10.313 0C10.5243 0.102035 10.7255 0.204069 10.9367 0.295901C11.5403 0.561191 12.1539 0.816278 12.7575 1.08157C12.8179 1.11218 12.8883 1.14279 12.9587 1.1734C12.7374 1.93866 12.5161 2.70392 12.3048 3.45898C11.8019 5.20377 11.2888 6.93836 10.7959 8.68315C10.7556 8.8158 10.7657 8.98926 10.8059 9.1117C11.1379 10.0912 11.49 11.0708 11.832 12.0401C11.8522 12.1013 11.8723 12.1727 11.9025 12.2748C11.661 12.2748 11.4498 12.285 11.2284 12.2748C11.1782 12.2748 11.1178 12.1625 11.0977 12.0911C10.8261 10.8871 10.5645 9.6933 10.303 8.48929C10.2527 8.27501 10.2325 8.05054 10.2325 7.82606C10.2325 5.3058 10.2325 2.77534 10.2325 0.255087C10.2325 0.173459 10.2325 0.0816278 10.2225 0C10.2527 0 10.2828 0 10.303 0H10.313Z" fill="white"/>
<path d="M13.0795 13.1829C12.9688 12.8666 12.8481 12.5605 12.7576 12.2544C12.7374 12.2034 12.8179 12.0912 12.8783 12.0503C13.7837 11.4177 14.4375 10.5912 14.8198 9.54028C15.5542 7.5404 14.9305 5.20381 13.2807 3.85695C13.1197 3.73451 13.0694 3.62227 13.1398 3.42841C13.2304 3.16311 13.3008 2.89782 13.3913 2.59172C15.0713 3.76512 16.037 5.34666 16.1779 7.37715C16.369 10.1219 14.8299 12.2136 13.0795 13.1829Z" fill="#FD6F02"/>
<path d="M6.80227 2.61266C6.90287 2.95957 7.00347 3.27588 7.08395 3.60239C7.09401 3.65341 7.02359 3.75544 6.97329 3.80646C6.00755 4.60233 5.39391 5.62268 5.15247 6.8675C4.7702 8.82657 5.62528 10.8979 7.28514 12.0203C7.43604 12.1223 7.47628 12.2141 7.40586 12.3876C7.2952 12.6427 7.21472 12.908 7.10407 13.2039C5.28325 12.0713 4.21692 10.4693 4.02578 8.3368C3.79441 5.76553 5.15247 3.65341 6.81233 2.62286L6.80227 2.61266Z" fill="#FD6F02"/>
<path d="M12.5161 14H7.59687C7.72765 13.6225 7.84836 13.2653 7.97914 12.9082C7.9892 12.8776 8.06968 12.847 8.11998 12.847C9.40763 12.847 10.7053 12.847 11.993 12.847C12.0433 12.847 12.1238 12.8878 12.1338 12.9286C12.2646 13.2755 12.3853 13.6327 12.5161 14Z" fill="white"/>
<path d="M10.0816 9.13255C10.3129 10.1835 10.5443 11.2243 10.7757 12.2854H9.33714C9.56852 11.2243 9.79989 10.1733 10.0313 9.12234C10.0514 9.12234 10.0614 9.12234 10.0816 9.12234V9.13255Z" fill="white"/>
</g>
<defs>
<clipPath id="clip0_672_1628">
<rect width="20" height="14" fill="white"/>
</clipPath>
</defs>
</svg>
