<svg width="20" height="14" viewBox="0 0 20 14" fill="none" xmlns="http://www.w3.org/2000/svg">
<g clip-path="url(#clip0_676_2092)">
<path d="M17.935 0.0306723C17.6363 0.453049 17.3375 0.875425 17.049 1.2978C14.7723 4.56349 12.4956 7.82918 10.2189 11.0949C10.1983 11.1258 10.1777 11.1567 10.1468 11.1979H13.7319C13.7319 11.1979 13.7319 11.2082 13.7319 11.2185C11.8981 12.1457 10.0747 13.0728 8.23066 14C8.21005 13.9794 8.18945 13.9588 8.17915 13.9382C7.78768 13.4231 7.3859 12.8977 6.99443 12.3826C6.47934 11.7027 6.45874 10.8785 6.94292 10.178C8.37488 8.11764 9.80684 6.06757 11.2388 4.00719C12.1454 2.70916 13.0519 1.41112 13.9585 0.102785C13.9791 0.0718798 13.9894 0.0512761 14.01 0.0203705C15.3183 0.0203705 16.6164 0.0203705 17.9247 0.0203705L17.935 0.0306723Z" fill="#FF4B44"/>
<path d="M10.8681 0.0309056C9.59066 1.82343 8.31323 3.61596 7.02549 5.40848C6.73704 5.82055 6.43829 6.23263 6.14984 6.6344C6.12923 6.66531 6.10863 6.69621 6.07772 6.73742H9.12707V6.75802C7.57149 7.54097 6.01591 8.33421 4.46033 9.11715C4.3058 8.91111 4.15128 8.70508 3.99675 8.49904C3.79071 8.22089 3.57437 7.94274 3.36833 7.66459C2.88415 7.00527 2.87384 6.13991 3.35803 5.47029C4.62516 3.69837 5.89229 1.92645 7.15942 0.144226C7.19032 0.0927168 7.22123 0.0515093 7.25214 0C8.45745 0 9.65247 0 10.8578 0L10.8681 0.0309056Z" fill="#FF4B44"/>
</g>
<defs>
<clipPath id="clip0_676_2092">
<rect width="20" height="14" fill="white"/>
</clipPath>
</defs>
</svg>
