<svg width="20" height="14" viewBox="0 0 20 14" fill="none" xmlns="http://www.w3.org/2000/svg">
<path d="M8.94113 0.221217V1.53038H10.0814V0.200101L9.54292 0.178986L8.94113 0.221217Z" fill="url(#paint0_linear_676_2408)"/>
<path d="M9.58506 11.3179C9.58506 11.3179 9.58506 11.3602 9.58506 11.3707H9.56394L9.52171 11.3285L9.47948 11.3707H9.35279L9.46892 11.2757L9.51115 11.2229H9.55338C9.5745 11.2757 9.60617 11.2968 9.59562 11.3179H9.58506ZM8.67709 13.989L8.72988 13.9151H8.78267V13.8201L8.85657 13.6301V13.5139H8.87769L9.04661 13.4611C9.24721 13.3661 9.3739 13.1655 9.36334 12.9333V12.5004L9.40558 12.4582H9.45836M9.46892 12.4582H9.44781C9.25777 12.4159 9.10996 12.2681 9.05717 12.0886V12.0464H8.86713C8.83546 11.9514 8.83546 11.8564 8.86713 11.7613H9.05717V11.6874H9.07829C9.13107 11.5502 9.22609 11.4446 9.36334 11.3918C9.36334 11.3918 9.36334 11.3707 9.38446 11.3496L9.42669 11.3074L9.47948 11.2546V11.2018H9.5006C9.5006 11.2018 9.52171 11.149 9.52171 11.0856H9.5006L9.45836 11.1384C9.45836 11.1384 9.45836 11.1807 9.43725 11.1596C9.41613 11.1384 9.43725 11.1173 9.43725 11.0856L9.47948 11.0117L9.53227 10.9695H9.55338C9.55338 10.9695 9.5745 10.9273 9.59562 10.9273C9.60617 10.9273 9.61673 10.9484 9.61673 10.9695H9.74342L9.61673 11.0117V11.054C9.61673 11.054 9.59562 11.1068 9.59562 11.1279V11.1701L9.63785 11.2651V11.339H9.65896C9.83844 11.3707 9.98625 11.4974 10.0496 11.6769H10.0707V11.7508H10.2608C10.2924 11.8458 10.2924 11.9408 10.2608 12.0358H10.0707C10.0179 12.2259 9.87012 12.3631 9.68008 12.4054H9.65896M9.63785 12.4159H9.69064L9.73287 12.4582V12.8699C9.72231 13.0916 9.849 13.3028 10.0496 13.3978L10.2185 13.4506H10.2396V13.5245L10.3135 13.7145V13.8096H10.3558L10.4086 13.8835H10.8203C10.0496 11.4552 10.2608 1.76315 10.2608 0L9.55338 0.0527888L8.84601 0.105578C8.86713 1.86872 9.04661 11.5713 8.28645 13.989L9.6484 12.4159H9.63785Z" fill="url(#paint1_linear_676_2408)"/>
<path d="M8.98336 4.87837V4.70944C8.98336 4.59331 8.96225 4.4455 8.96225 4.25546C8.96225 4.06542 8.94113 3.84371 8.94113 3.62199V1.05646C8.94113 1.17259 8.96225 1.3204 8.96225 1.51044C8.96225 1.70048 8.98336 1.92219 8.98336 2.14391V4.87837Z" fill="url(#paint2_linear_676_2408)"/>
<path d="M8.43436 13.8625L8.48715 13.5986L8.53993 13.3029L8.59272 12.9334C8.61384 12.8067 8.63495 12.6378 8.64551 12.4794L8.6983 11.9727C8.71942 11.8037 8.74053 11.6137 8.74053 11.4342C8.74053 11.2547 8.76165 11.0647 8.78276 10.8747C8.80388 10.6846 8.83555 10.1251 8.83555 9.76609L8.88834 8.81589L8.93057 7.87625V8.81589C8.93057 9.10095 8.90946 9.42824 8.88834 9.76609C8.86723 10.1039 8.84611 10.4946 8.83555 10.8747L8.79332 11.4342C8.77221 11.6243 8.75109 11.8037 8.74053 11.9727C8.71942 12.1416 8.6983 12.3105 8.68774 12.4794C8.67718 12.6484 8.64551 12.7962 8.63495 12.9334C8.6244 13.0707 8.59272 13.1974 8.56105 13.3029L8.50826 13.5986L8.45547 13.7886L8.43436 13.8625Z" fill="url(#paint3_linear_676_2408)"/>
<path d="M10.1446 7.8663L10.1868 8.80594L10.2396 9.75614C10.2607 10.1151 10.2818 10.4846 10.2924 10.8647C10.3029 11.2448 10.3135 11.2342 10.3346 11.4243C10.3557 11.6143 10.3768 11.7938 10.3768 11.9627L10.4296 12.4695C10.4508 12.6384 10.4719 12.7862 10.4824 12.9235L10.5352 13.293L10.588 13.5886L10.6408 13.8526V13.7998L10.588 13.6097L10.5352 13.3141C10.5141 13.198 10.4824 13.0713 10.4613 12.9446C10.4402 12.8179 10.4191 12.649 10.4085 12.4906C10.398 12.3322 10.3663 12.1528 10.3557 11.9838C10.3452 11.8149 10.3135 11.6249 10.3029 11.4454L10.2607 10.8858C10.2396 10.5163 10.2185 10.1362 10.2079 9.77726C10.1974 9.41829 10.1868 9.10156 10.1657 8.82706C10.1446 8.55256 10.1657 8.29917 10.1657 8.15136L10.1446 7.8663Z" fill="url(#paint4_linear_676_2408)"/>
<path d="M10.1237 0.855103V3.61068C10.1237 3.85351 10.1026 4.06466 10.1026 4.24414C10.1026 4.42363 10.0815 4.58199 10.0815 4.69813V2.13259C10.0815 1.88976 10.1026 1.67861 10.1026 1.49913C10.1026 1.31964 10.1237 1.16128 10.1237 1.04514V0.855103Z" fill="url(#paint5_linear_676_2408)"/>
<path d="M6.26984 13.9894H7.54732C8.18079 11.899 8.49752 9.73463 8.48696 7.54918C8.50808 5.17368 8.128 2.8193 7.3784 0.570496H7.35728C7.07222 0.718304 6.79772 0.897786 6.55489 1.09838C7.34673 3.04101 7.74792 5.12089 7.73736 7.22188C7.75848 9.55515 7.25171 11.8673 6.25928 13.9789L6.28039 14L6.26984 13.9894Z" fill="url(#paint6_linear_676_2408)"/>
<path d="M7.29399 0.738281C7.03005 0.801628 6.77666 0.928321 6.56551 1.09724L6.60774 1.21338C7.37846 3.12433 7.75854 5.16198 7.74798 7.22075C7.76909 9.50122 7.29399 11.7711 6.3438 13.8405H7.45236C8.06471 11.8134 8.36033 9.70182 8.34977 7.59027C8.32865 5.09864 7.98025 2.70202 7.30455 0.738281H7.29399Z" fill="url(#paint7_linear_676_2408)"/>
<path d="M7.53682 13.9894L7.42069 13.8416L7.53682 13.451L7.65296 13.0603C7.7163 12.7858 7.77965 12.5219 7.843 12.2579L7.88523 12.0573L7.92746 11.8567L8.00136 11.445C8.04359 11.1599 8.09638 10.9065 8.12806 10.6215C8.15973 10.3364 8.25475 9.51292 8.27587 8.97448C8.29698 8.43603 8.3181 7.86591 8.3181 7.30635V6.46173C8.29698 6.17667 8.27587 5.90217 8.26531 5.63822C8.25475 5.37428 8.21252 5.09978 8.1914 4.81472L8.13861 4.40297L8.06471 3.99121L8.01192 3.57946L7.93802 3.16771L7.86411 2.75595L7.76909 2.3442L7.67407 1.93245L7.55794 1.56293L7.4418 1.17229L7.31511 0.760538L7.4418 1.15118L7.5685 1.54181L7.68463 1.93245L7.80077 2.3442L7.89579 2.75595L7.99081 3.16771L8.06471 3.57946L8.13861 3.99121L8.1914 4.40297L8.24419 4.81472C8.28642 5.09978 8.29698 5.35316 8.3181 5.63822C8.33921 5.92328 8.36033 6.19778 8.37089 6.46173V7.28523C8.37089 7.83424 8.36033 8.3938 8.32865 8.95336C8.28642 9.51292 8.23363 10.0619 8.15973 10.6004C8.08583 11.1388 8.08583 11.1388 8.03304 11.4239L7.95913 11.8356L7.9169 12.0362L7.86411 12.2368L7.76909 12.6486L7.67407 13.0392L7.55794 13.4298L7.4418 13.8205L7.53682 13.9894Z" fill="url(#paint8_linear_676_2408)"/>
<path d="M4.02112 13.9888H5.44641C6.63944 12.2257 7.37848 9.87128 7.37848 7.29518C7.3996 5.31033 6.94562 3.35714 6.04821 1.58344H6.02709C5.86872 1.75236 5.73147 1.92128 5.59422 2.11132C5.59422 2.11132 5.59422 2.12188 5.59422 2.13244C6.4494 3.63164 6.89283 5.33144 6.88227 7.05236C6.88227 9.86072 5.91095 12.7641 4 13.9782L4.02112 13.9994V13.9888Z" fill="url(#paint9_linear_676_2408)"/>
<path d="M5.98469 1.80594C5.83688 1.8904 5.71019 2.00654 5.59405 2.12267L5.64684 2.21769C6.4809 3.69578 6.90321 5.3639 6.90321 7.0637C6.90321 9.75593 6.00581 12.5643 4.2321 13.8418H5.37234C6.53369 12.142 7.21995 9.87207 7.21995 7.36988C7.21995 5.31112 6.78708 3.36849 5.98469 1.8165V1.80594Z" fill="url(#paint10_linear_676_2408)"/>
<path d="M5.98482 1.80594C6.10095 2.02765 6.22764 2.27048 6.32266 2.51331L6.39657 2.70335L6.47047 2.89339L6.54438 3.08343L6.59717 3.27347C6.69219 3.5163 6.74497 3.78024 6.81888 4.02307L6.9139 4.39259L6.9878 4.78323L7.06171 5.17386C7.08282 5.30056 7.10394 5.43781 7.1145 5.5645C7.12505 5.69119 7.16729 6.09239 7.1884 6.34578C7.20952 6.59916 7.23063 6.87366 7.23063 7.12705V7.90832C7.20952 8.43621 7.14617 8.9641 7.06171 9.48143C6.97725 9.99876 6.86111 10.5161 6.70274 11.0123C6.55493 11.5085 6.3649 11.9942 6.14318 12.4693C5.92147 12.9444 5.65753 13.3984 5.36191 13.8312C5.65753 13.3984 5.91091 12.9444 6.13262 12.4693C6.34378 11.9942 6.53382 11.5085 6.67107 11.0123C6.81888 10.5055 6.94557 9.99876 7.03003 9.48143C7.07227 9.21749 7.09338 8.95354 7.12505 8.70016C7.14617 8.43621 7.16729 8.17227 7.17784 7.91888C7.1884 7.6655 7.19896 7.39099 7.19896 7.13761C7.19896 6.88422 7.17784 6.60972 7.15673 6.35633C7.13561 6.10295 7.1145 5.82845 7.08282 5.57506C7.05115 5.32167 7.04059 5.31112 7.03003 5.18442L6.97725 4.79379L6.90334 4.40315L6.80832 4.03363C6.75553 3.76968 6.68163 3.52685 6.58661 3.28403L6.53382 3.09399L6.45992 2.90395L6.38601 2.71391L6.31211 2.52387C6.21709 2.28104 6.11151 2.05932 5.99537 1.8165L5.98482 1.80594Z" fill="url(#paint11_linear_676_2408)"/>
<path d="M8.43436 13.8618C9.06782 11.4441 8.99392 3.78974 8.96224 0.875798V0.221217L9.54292 0.178986L10.1447 0.221217V0.875798C10.1025 3.78974 10.0286 11.4441 10.6726 13.8618L10.3031 13.8196V13.7774L10.2292 13.5873V13.5134H10.2081L10.0391 13.4606C9.83854 13.3656 9.71185 13.165 9.7224 12.9328V12.4999L9.68017 12.4577H9.62738M9.61683 12.4577H9.63794C9.82798 12.4154 9.97579 12.2676 10.0286 12.0881V12.0459H10.2186C10.2503 11.9509 10.2503 11.8559 10.2186 11.7608H10.0286V11.6869H10.0075C9.94412 11.518 9.79631 11.3808 9.61683 11.3491H9.59571V11.2752L9.55348 11.1802V11.1379C9.55348 11.1379 9.55348 11.0852 9.57459 11.064V11.0852L9.70129 11.0429H9.57459C9.57459 11.0429 9.5746 11.0112 9.55348 11.0007C9.53236 11.0007 9.51125 11.0218 9.51125 11.0429H9.49013L9.43734 11.0852L9.39511 11.1591C9.39511 11.1591 9.374 11.233 9.39511 11.233C9.41623 11.233 9.41623 11.233 9.41623 11.2118L9.45846 11.1591H9.47957C9.47957 11.2118 9.50069 11.233 9.45846 11.2752H9.43734V11.328L9.38456 11.3808L9.34232 11.423L9.32121 11.4652C9.19452 11.518 9.08894 11.6342 9.03615 11.7608H9.01503V11.8348H8.82499C8.79332 11.9298 8.79332 12.0248 8.82499 12.1198H9.01503V12.0248C9.06782 12.2148 9.21563 12.3521 9.40567 12.3943H9.42679M9.4479 12.4154H9.39511L9.35288 12.4577V12.8694C9.36344 13.0911 9.23675 13.3023 9.03615 13.3973L8.86722 13.4501H8.84611V13.524L8.77221 13.714V13.7563L9.4479 12.426V12.4154ZM9.54292 11.2541H9.52181L9.47957 11.3069L9.36344 11.4019H9.49013L9.53236 11.3597L9.57459 11.4019H9.59571C9.59571 11.4019 9.59571 11.3597 9.59571 11.3491C9.59571 11.2963 9.55348 11.2752 9.54292 11.2541Z" fill="url(#paint12_linear_676_2408)"/>
<path d="M12.8156 13.9894H11.5276C10.8941 11.899 10.5774 9.73463 10.5879 7.54918C10.5774 5.17368 10.9575 2.8193 11.7071 0.570496H11.7282C12.0132 0.718304 12.2877 0.897786 12.5306 1.09838C11.7387 3.04101 11.3375 5.12089 11.3481 7.22188C11.327 9.55515 11.8337 11.8673 12.8262 13.9789L12.8051 14L12.8156 13.9894Z" fill="url(#paint13_linear_676_2408)"/>
<path d="M11.7916 0.738281C12.0556 0.801628 12.309 0.928321 12.5201 1.09724L12.4779 1.21338C11.7072 3.12433 11.3271 5.16198 11.3377 7.22075C11.3165 9.50122 11.7916 11.7711 12.7418 13.8405H11.6544C11.042 11.8134 10.7464 9.70182 10.757 7.59027C10.757 5.09864 11.116 2.70202 11.7811 0.738281H11.7916Z" fill="url(#paint14_linear_676_2408)"/>
<path d="M11.5488 13.9894L11.665 13.8416L11.5488 13.451L11.4327 13.0603C11.3694 12.7858 11.306 12.5219 11.2427 12.2579L11.2004 12.0362L11.1582 11.8356L11.0843 11.4239C11.0421 11.1388 10.9893 10.8854 10.9576 10.6004C10.9259 10.3153 10.8309 9.49181 10.8098 8.95336C10.7887 8.41491 10.7676 7.8448 10.7676 7.28523V6.46173C10.7887 6.17667 10.8098 5.90217 10.8203 5.63822C10.8309 5.37428 10.8731 5.09978 10.8943 4.81472L10.947 4.40297L11.0209 3.99121L11.0737 3.57946L11.1476 3.16771L11.2215 2.75595L11.3166 2.3442L11.4116 1.93245L11.5277 1.56293L11.6439 1.17229L11.7705 0.760538L11.6439 1.15118L11.5172 1.54181L11.401 1.95356L11.2849 2.36532L11.211 2.75595L11.116 3.16771L11.0421 3.57946L10.9682 3.99121L10.9154 4.40297L10.8626 4.81472C10.8203 5.09978 10.8098 5.35316 10.7887 5.63822C10.7676 5.92328 10.7464 6.19778 10.7359 6.46173V7.28523C10.7359 7.83424 10.7464 8.3938 10.7781 8.95336C10.8203 9.51292 10.8731 10.0619 10.947 10.6004C11.0209 11.1388 11.0209 11.1388 11.0737 11.4239L11.1476 11.8356L11.1899 12.0362L11.2321 12.2368L11.3271 12.6486L11.4433 13.0392L11.5594 13.4298L11.6755 13.8205L11.5594 13.9894H11.5488Z" fill="url(#paint15_linear_676_2408)"/>
<path d="M15.0643 13.9888H13.639C12.446 12.2257 11.707 9.87128 11.707 7.29518C11.6859 5.31033 12.1398 3.35714 13.0373 1.58344H13.0584C13.2167 1.75236 13.354 1.92128 13.4912 2.11132C13.4912 2.11132 13.4912 2.12188 13.4912 2.13244C12.6361 3.63164 12.1926 5.33144 12.2032 7.05236C12.2032 9.86072 13.1745 12.7641 15.0855 13.9782L15.0643 13.9994V13.9888Z" fill="url(#paint16_linear_676_2408)"/>
<path d="M13.1009 1.80594C13.2487 1.8904 13.3754 2.00654 13.4916 2.12267L13.4388 2.21769C12.6047 3.69578 12.1824 5.3639 12.1824 7.0637C12.1824 9.75593 13.0798 12.5643 14.8535 13.8418H13.7133C12.5519 12.142 11.8657 9.87207 11.8657 7.36988C11.8657 5.31112 12.2985 3.36849 13.1009 1.8165V1.80594Z" fill="url(#paint17_linear_676_2408)"/>
<path d="M13.1006 1.80594C12.9845 2.02765 12.8578 2.27048 12.7628 2.51331L12.6889 2.70335L12.615 2.89339L12.5411 3.08343L12.4883 3.27347C12.3933 3.5163 12.3405 3.78024 12.2666 4.02307L12.1715 4.39259L12.0976 4.78323L12.0237 5.17386C12.0026 5.30056 11.9815 5.43781 11.9709 5.5645C11.9604 5.69119 11.9182 6.09239 11.897 6.34578C11.8759 6.59916 11.8548 6.87366 11.8548 7.12705V7.90832C11.8759 8.43621 11.9393 8.9641 12.0237 9.48143C12.1082 9.99876 12.2243 10.5161 12.3827 11.0123C12.5305 11.5085 12.7205 11.9942 12.9423 12.4693C13.164 12.9444 13.4279 13.3984 13.7235 13.8312C13.4279 13.3984 13.1745 12.9444 12.9528 12.4693C12.7417 11.9942 12.5516 11.5085 12.4144 11.0123C12.2666 10.5055 12.1399 9.99876 12.0554 9.48143C12.0132 9.21749 11.9921 8.95354 11.9604 8.70016C11.9393 8.43621 11.9182 8.17227 11.9076 7.91888C11.897 7.6655 11.8865 7.39099 11.8865 7.13761C11.8865 6.88422 11.9076 6.60972 11.9287 6.35633C11.9498 6.10295 11.9709 5.82845 12.0026 5.57506C12.0343 5.32167 12.0449 5.31112 12.0554 5.18442L12.1082 4.79379L12.1821 4.40315L12.2771 4.03363C12.3299 3.76968 12.4038 3.52685 12.4988 3.28403L12.5516 3.09399L12.6255 2.90395L12.6994 2.71391L12.7733 2.52387C12.8684 2.28104 12.9739 2.05932 13.0901 1.8165L13.1006 1.80594Z" fill="url(#paint18_linear_676_2408)"/>
<path d="M9.46889 12.4587H9.42665L9.29996 12.4059L9.18383 12.332L9.08881 12.2159L9.04657 12.1631V12.0364V11.9942H8.85654C8.85654 11.9942 8.84598 11.9308 8.83542 11.8992C8.83542 11.8675 8.83542 11.8358 8.83542 11.8042H9.02546V11.7302H9.04657C9.09936 11.593 9.19438 11.4874 9.33163 11.4346C9.33163 11.4346 9.33163 11.4241 9.33163 11.4135C9.33163 11.4135 9.33163 11.4241 9.33163 11.4346C9.20494 11.4874 9.09936 11.6036 9.04657 11.7302H9.02546V11.8042H8.80375C8.80375 11.8042 8.80375 11.8781 8.80375 11.9203C8.80375 11.9625 8.80375 11.9942 8.82486 12.0364V12.0787H9.0149V12.1948L9.05713 12.2687L9.15215 12.3848L9.26829 12.4798L9.39498 12.5326C9.39498 12.5326 9.39498 12.5432 9.39498 12.5538H9.35275V12.8705C9.35275 12.9549 9.35275 13.0289 9.33163 13.1133C9.32108 13.1978 9.2894 13.2717 9.23661 13.335C9.18383 13.3984 9.12048 13.4512 9.04657 13.4828L8.93044 13.5251H8.85654C8.85654 13.5251 8.85654 13.5356 8.85654 13.5462V13.599H8.83542V13.884H8.76152L8.71928 13.9368L8.76152 13.8946L8.8143 13.8524H8.77207V13.7573V13.5356H8.82486L8.941 13.4934C9.02546 13.4617 9.08881 13.4089 9.14159 13.3456C9.19438 13.2822 9.23661 13.2083 9.25773 13.1239C9.26829 13.0394 9.27885 12.9655 9.27885 12.881V12.5221H9.37387L9.44777 12.4693L9.46889 12.4587Z" fill="url(#paint19_linear_676_2408)"/>
<path d="M10.3663 13.9467H10.2924V13.5138C10.2924 13.5138 10.2924 13.5033 10.2924 13.4927H10.2185L10.1023 13.4505L9.98619 13.3977L9.89117 13.3027C9.83839 13.2393 9.80671 13.1549 9.79615 13.081C9.7856 12.9965 9.77504 12.9226 9.77504 12.8381V12.4792L9.84894 12.4369L9.96508 12.3419L10.0601 12.2258L10.1023 12.1519V12.0357H10.2924V11.9935C10.2924 11.9935 10.2924 11.9196 10.2924 11.8774C10.2924 11.8351 10.2924 11.8035 10.2713 11.7612V11.719H10.0812V11.6451H10.0601L10.0073 11.529L9.91229 11.4339C9.83839 11.3812 9.75392 11.3389 9.66946 11.3178C9.75392 11.3284 9.83839 11.3706 9.91229 11.4339L10.0073 11.529L10.0601 11.6451H10.0812V11.719H10.2713C10.2713 11.719 10.2713 11.7929 10.2713 11.8351C10.2713 11.8774 10.2713 11.909 10.2713 11.9513H10.0812V11.9935V12.0674L10.039 12.1202L9.94396 12.2363L9.82783 12.3102L9.70113 12.363H9.68002V12.4053H9.75392V12.722C9.75392 12.8065 9.75392 12.8804 9.77504 12.9648C9.79615 13.0493 9.83839 13.1232 9.89117 13.1865L9.98619 13.2816L10.1023 13.3343L10.2185 13.3766H10.2713V13.4188C10.2713 13.4188 10.2713 13.4399 10.2713 13.461V13.7567H10.2924L10.3452 13.7989L10.3874 13.8411L10.3663 13.9361V13.9467Z" fill="url(#paint20_linear_676_2408)"/>
<defs>
<linearGradient id="paint0_linear_676_2408" x1="9.97157" y1="0.806117" x2="9.97157" y2="-0.541054" gradientUnits="userSpaceOnUse">
<stop stop-color="#4F361C"/>
<stop offset="0.14" stop-color="#5B3A1F"/>
<stop offset="0.41" stop-color="#6E4123"/>
<stop offset="0.6" stop-color="#754324"/>
<stop offset="1" stop-color="#4F361C"/>
</linearGradient>
<linearGradient id="paint1_linear_676_2408" x1="10.0179" y1="13.2796" x2="10.0179" y2="-0.67992" gradientUnits="userSpaceOnUse">
<stop stop-color="#E4AC52"/>
<stop offset="0.04" stop-color="#4F361C"/>
<stop offset="0.09" stop-color="#614726"/>
<stop offset="0.44" stop-color="#4F361C"/>
<stop offset="0.67" stop-color="#E4AC52"/>
<stop offset="0.83" stop-color="#745124"/>
<stop offset="0.93" stop-color="#4F361C"/>
<stop offset="1" stop-color="#E4AC52"/>
</linearGradient>
<linearGradient id="paint2_linear_676_2408" x1="9.43735" y1="4.17522" x2="9.43735" y2="0.133709" gradientUnits="userSpaceOnUse">
<stop offset="0.25" stop-color="#A57531"/>
<stop offset="0.79" stop-color="#FDE489"/>
<stop offset="1" stop-color="#745124"/>
</linearGradient>
<linearGradient id="paint3_linear_676_2408" x1="9.15862" y1="13.1404" x2="9.15862" y2="7.14777" gradientUnits="userSpaceOnUse">
<stop offset="0.1" stop-color="#4F361C"/>
<stop offset="0.29" stop-color="#FDE489"/>
<stop offset="0.5" stop-color="#A57531"/>
<stop offset="0.67" stop-color="#E4AC52"/>
<stop offset="0.84" stop-color="#745124"/>
</linearGradient>
<linearGradient id="paint4_linear_676_2408" x1="10.8541" y1="13.141" x2="10.8541" y2="7.14837" gradientUnits="userSpaceOnUse">
<stop offset="0.1" stop-color="#4F361C"/>
<stop offset="0.31" stop-color="#A57531"/>
<stop offset="0.61" stop-color="#FDE489"/>
<stop offset="0.81" stop-color="#E4AC52"/>
<stop offset="0.97" stop-color="#745124"/>
</linearGradient>
<linearGradient id="paint5_linear_676_2408" x1="10.5756" y1="4.17446" x2="10.5756" y2="0.132952" gradientUnits="userSpaceOnUse">
<stop offset="0.12" stop-color="#A57531"/>
<stop offset="0.49" stop-color="#FDE489"/>
<stop offset="0.97" stop-color="#745124"/>
</linearGradient>
<linearGradient id="paint6_linear_676_2408" x1="7.8345" y1="13.2799" x2="7.8345" y2="-0.145321" gradientUnits="userSpaceOnUse">
<stop stop-color="#745124"/>
<stop offset="0.25" stop-color="#745124"/>
<stop offset="0.5" stop-color="#E4AC52"/>
<stop offset="0.75" stop-color="#745124"/>
<stop offset="1" stop-color="#E4AC52"/>
</linearGradient>
<linearGradient id="paint7_linear_676_2408" x1="7.81132" y1="13.1394" x2="7.81132" y2="0.0161307" gradientUnits="userSpaceOnUse">
<stop offset="0.13" stop-color="#4F361C"/>
<stop offset="0.67" stop-color="#E4AC52"/>
<stop offset="0.9" stop-color="#4F361C"/>
</linearGradient>
<linearGradient id="paint8_linear_676_2408" x1="8.29909" y1="13.3032" x2="8.29909" y2="-0.168545" gradientUnits="userSpaceOnUse">
<stop stop-color="#FDE489"/>
<stop offset="0.11" stop-color="#FAE187"/>
<stop offset="0.2" stop-color="#F0D781"/>
<stop offset="0.28" stop-color="#DFC676"/>
<stop offset="0.36" stop-color="#C7AE67"/>
<stop offset="0.43" stop-color="#A88F54"/>
<stop offset="0.5" stop-color="#836A3C"/>
<stop offset="0.57" stop-color="#573E21"/>
<stop offset="0.58" stop-color="#4F361C"/>
<stop offset="0.61" stop-color="#5B4223"/>
<stop offset="0.65" stop-color="#7A6137"/>
<stop offset="0.71" stop-color="#AC9356"/>
<stop offset="0.78" stop-color="#F1D881"/>
<stop offset="0.79" stop-color="#FDE489"/>
<stop offset="0.93" stop-color="#876E3F"/>
<stop offset="1" stop-color="#4F361C"/>
</linearGradient>
<linearGradient id="paint9_linear_676_2408" x1="6.16223" y1="13.2793" x2="6.16223" y2="0.852838" gradientUnits="userSpaceOnUse">
<stop stop-color="#4F361C"/>
<stop offset="0.25" stop-color="#745124"/>
<stop offset="0.58" stop-color="#E4AC52"/>
<stop offset="0.88" stop-color="#745124"/>
<stop offset="1" stop-color="#E4AC52"/>
</linearGradient>
<linearGradient id="paint10_linear_676_2408" x1="6.18529" y1="13.1408" x2="6.18529" y2="1.0859" gradientUnits="userSpaceOnUse">
<stop offset="0.25" stop-color="#4B331A"/>
<stop offset="0.5" stop-color="#A57531"/>
<stop offset="0.75" stop-color="#4F361C"/>
</linearGradient>
<linearGradient id="paint11_linear_676_2408" x1="6.76609" y1="13.3033" x2="6.76609" y2="1.0859" gradientUnits="userSpaceOnUse">
<stop stop-color="#4F361C"/>
<stop offset="0.07" stop-color="#765D34"/>
<stop offset="0.18" stop-color="#A68D52"/>
<stop offset="0.27" stop-color="#CCB36A"/>
<stop offset="0.36" stop-color="#E7CE7B"/>
<stop offset="0.44" stop-color="#F7DE85"/>
<stop offset="0.5" stop-color="#FDE489"/>
<stop offset="0.6" stop-color="#FAE187"/>
<stop offset="0.67" stop-color="#F0D781"/>
<stop offset="0.74" stop-color="#DFC676"/>
<stop offset="0.81" stop-color="#C7AE67"/>
<stop offset="0.87" stop-color="#A88F54"/>
<stop offset="0.93" stop-color="#836A3C"/>
<stop offset="0.99" stop-color="#573E21"/>
<stop offset="1" stop-color="#4F361C"/>
</linearGradient>
<linearGradient id="paint12_linear_676_2408" x1="10.018" y1="-0.541054" x2="10.018" y2="13.1397" gradientUnits="userSpaceOnUse">
<stop offset="0.06" stop-color="#4F361C"/>
<stop offset="0.22" stop-color="#A57531"/>
<stop offset="0.25" stop-color="#AD7D36"/>
<stop offset="0.29" stop-color="#C39545"/>
<stop offset="0.35" stop-color="#E7BA5C"/>
<stop offset="0.38" stop-color="#FBCF69"/>
<stop offset="0.53" stop-color="#FBCF69"/>
<stop offset="0.74" stop-color="#E4AC52"/>
<stop offset="0.75" stop-color="#D29E4B"/>
<stop offset="0.78" stop-color="#A3793B"/>
<stop offset="0.81" stop-color="#7F5C2D"/>
<stop offset="0.83" stop-color="#644724"/>
<stop offset="0.86" stop-color="#553A1E"/>
<stop offset="0.88" stop-color="#4F361C"/>
<stop offset="1" stop-color="#734122"/>
</linearGradient>
<linearGradient id="paint13_linear_676_2408" x1="10.4401" y1="770.622" x2="10.4401" y2="770.622" gradientUnits="userSpaceOnUse">
<stop stop-color="#745124"/>
<stop offset="0.25" stop-color="#745124"/>
<stop offset="0.5" stop-color="#E4AC52"/>
<stop offset="0.75" stop-color="#745124"/>
<stop offset="1" stop-color="#E4AC52"/>
</linearGradient>
<linearGradient id="paint14_linear_676_2408" x1="10.4867" y1="770.621" x2="10.4867" y2="770.621" gradientUnits="userSpaceOnUse">
<stop offset="0.13" stop-color="#4F361C"/>
<stop offset="0.67" stop-color="#E4AC52"/>
<stop offset="0.9" stop-color="#4F361C"/>
</linearGradient>
<linearGradient id="paint15_linear_676_2408" x1="9.99895" y1="770.622" x2="9.99895" y2="770.622" gradientUnits="userSpaceOnUse">
<stop stop-color="#FDE489"/>
<stop offset="0.11" stop-color="#FAE187"/>
<stop offset="0.2" stop-color="#F0D781"/>
<stop offset="0.28" stop-color="#DFC676"/>
<stop offset="0.36" stop-color="#C7AE67"/>
<stop offset="0.43" stop-color="#A88F54"/>
<stop offset="0.5" stop-color="#836A3C"/>
<stop offset="0.57" stop-color="#573E21"/>
<stop offset="0.58" stop-color="#4F361C"/>
<stop offset="0.61" stop-color="#5B4223"/>
<stop offset="0.65" stop-color="#7A6137"/>
<stop offset="0.71" stop-color="#AC9356"/>
<stop offset="0.78" stop-color="#F1D881"/>
<stop offset="0.79" stop-color="#FDE489"/>
<stop offset="0.93" stop-color="#876E3F"/>
<stop offset="1" stop-color="#4F361C"/>
</linearGradient>
<linearGradient id="paint16_linear_676_2408" x1="12.1356" y1="770.621" x2="12.1356" y2="770.621" gradientUnits="userSpaceOnUse">
<stop stop-color="#4F361C"/>
<stop offset="0.25" stop-color="#745124"/>
<stop offset="0.58" stop-color="#E4AC52"/>
<stop offset="0.88" stop-color="#745124"/>
<stop offset="1" stop-color="#E4AC52"/>
</linearGradient>
<linearGradient id="paint17_linear_676_2408" x1="12.0895" y1="770.622" x2="12.0895" y2="770.622" gradientUnits="userSpaceOnUse">
<stop offset="0.25" stop-color="#4B331A"/>
<stop offset="0.5" stop-color="#A57531"/>
<stop offset="0.75" stop-color="#4F361C"/>
</linearGradient>
<linearGradient id="paint18_linear_676_2408" x1="11.5085" y1="770.622" x2="11.5085" y2="770.622" gradientUnits="userSpaceOnUse">
<stop stop-color="#4F361C"/>
<stop offset="0.07" stop-color="#765D34"/>
<stop offset="0.18" stop-color="#A68D52"/>
<stop offset="0.27" stop-color="#CCB36A"/>
<stop offset="0.36" stop-color="#E7CE7B"/>
<stop offset="0.44" stop-color="#F7DE85"/>
<stop offset="0.5" stop-color="#FDE489"/>
<stop offset="0.6" stop-color="#FAE187"/>
<stop offset="0.67" stop-color="#F0D781"/>
<stop offset="0.74" stop-color="#DFC676"/>
<stop offset="0.81" stop-color="#C7AE67"/>
<stop offset="0.87" stop-color="#A88F54"/>
<stop offset="0.93" stop-color="#836A3C"/>
<stop offset="0.99" stop-color="#573E21"/>
<stop offset="1" stop-color="#4F361C"/>
</linearGradient>
<linearGradient id="paint19_linear_676_2408" x1="9.13526" y1="11.9562" x2="9.92498" y2="11.9562" gradientUnits="userSpaceOnUse">
<stop stop-color="#4F361C"/>
<stop offset="0.29" stop-color="#FDE489"/>
<stop offset="0.5" stop-color="#A57531"/>
<stop offset="0.67" stop-color="#E4AC52"/>
<stop offset="0.84" stop-color="#745124"/>
</linearGradient>
<linearGradient id="paint20_linear_676_2408" x1="10.4824" y1="13.3027" x2="10.4824" y2="10.5851" gradientUnits="userSpaceOnUse">
<stop stop-color="#E4AC52"/>
<stop offset="0.16" stop-color="#745124"/>
<stop offset="0.5" stop-color="#A57531"/>
<stop offset="0.71" stop-color="#FDE489"/>
<stop offset="0.9" stop-color="#4F361C"/>
</linearGradient>
</defs>
</svg>
