<svg width="20" height="14" viewBox="0 0 20 14" fill="none" xmlns="http://www.w3.org/2000/svg">
<g clip-path="url(#clip0_676_2466)">
<path d="M14.3941 1.0166C13.2387 4.35082 11.923 7.63629 10.3463 10.7969L11.1597 13.0176L11.1773 13.0664L11.1275 13.082L8.06404 14.0479L7.93318 14.0889L8.0074 13.9727C8.73241 12.8397 9.37224 11.6519 9.89021 10.4102C10.4522 9.07268 10.8765 7.67463 11.1715 6.25195L11.2779 5.70996C11.5121 4.44294 11.6484 3.15854 11.7281 1.86914L11.7301 1.83594L11.7623 1.8252L14.3306 0.953125L14.4273 0.919922L14.3941 1.0166Z" fill="#002C6D" stroke="white" stroke-width="0.1"/>
<path d="M6.65234 3.5936C6.73601 4.62262 7.07286 5.70457 7.51367 6.79086C7.9545 7.87718 8.49703 8.96395 8.98926 10.0057L8.9082 10.0623C7.52853 8.60491 5.74668 6.36901 4.95312 4.19028L4.93555 4.1434L4.9834 4.12582L6.58496 3.55063L6.64648 3.52817L6.65234 3.5936Z" fill="#00AFCC" stroke="white" stroke-width="0.1"/>
<path d="M8.86418 2.86224C8.72069 5.12204 8.70198 6.32276 9.01359 8.83588L8.91887 8.86517C8.08246 7.24301 7.52892 5.63218 7.01457 3.47455L7.00383 3.42963L7.04679 3.41498L8.79875 2.81244L8.86906 2.78802L8.86418 2.86224Z" fill="#2C6A15" stroke="white" stroke-width="0.1"/>
<path d="M10.8867 2.19669C10.2947 4.14365 9.59789 6.21812 9.34961 7.19571L9.25098 7.18399L9.20117 2.72598L9.2002 2.68887L9.23438 2.67715L10.8232 2.13516L10.915 2.10294L10.8867 2.19669Z" fill="#FCC900" stroke="white" stroke-width="0.1"/>
</g>
<defs>
<clipPath id="clip0_676_2466">
<rect width="20" height="14" fill="white"/>
</clipPath>
</defs>
</svg>
