<svg width="20" height="14" viewBox="0 0 20 14" fill="none" xmlns="http://www.w3.org/2000/svg">
<path d="M12.2476 0.939152L14.9938 0C13.7565 3.59667 12.3482 7.14026 10.6591 10.5479L11.5359 12.9604L8.26114 14C9.03776 12.7775 9.72289 11.4958 10.278 10.1552C10.8804 8.71121 11.3352 7.20209 11.6511 5.66656C11.973 4.11037 12.1502 2.52783 12.2476 0.939152Z" fill="white"/>
<path d="M4.99994 3.41647L6.71265 2.79636C6.89277 5.02877 8.16549 7.4797 9.21673 9.72098C7.74322 8.15297 5.84448 5.75224 4.99994 3.41647Z" fill="white"/>
<path d="M7.20567 2.65189L9.07783 2.00224C8.92427 4.43841 8.9036 5.73475 9.23729 8.44554C8.3455 6.70331 7.75492 4.97289 7.20567 2.65189Z" fill="white"/>
<path d="M9.5463 1.85753L11.2442 1.27285C10.6123 3.36648 9.86521 5.6048 9.59945 6.65899L9.5463 1.85753Z" fill="white"/>
</svg>
