<svg width="20" height="14" viewBox="0 0 20 14" fill="none" xmlns="http://www.w3.org/2000/svg">
<g clip-path="url(#clip0_671_1442)">
<path d="M12.6511 1.76791C12.4133 1.82994 12.1755 1.89197 11.9377 1.954C11.886 1.96434 11.8343 1.98502 11.7826 1.99536C11.7515 1.99536 11.7412 2.02637 11.7309 2.04705C11.6688 2.26416 11.6171 2.47093 11.5551 2.67771C11.4724 2.95685 11.4 3.23599 11.3173 3.51514C11.2656 3.71157 11.2035 3.90801 11.1518 4.0941C11.0691 4.37324 10.9968 4.65239 10.914 4.93153C10.8623 5.12796 10.8003 5.3244 10.7486 5.51049C10.6659 5.78964 10.5935 6.06878 10.5108 6.34792C10.4591 6.52368 10.4074 6.70978 10.3557 6.88553C10.273 7.16468 10.2006 7.43348 10.1282 7.71262C10.0972 7.82635 10.0662 7.92973 10.0352 8.04346C10.0352 8.0538 10.0352 8.06414 10.0352 8.07448C10.0455 8.07448 10.0559 8.07448 10.0662 8.07448C10.8313 8.07448 11.5964 8.07448 12.3719 8.07448C12.4546 8.07448 12.5373 8.08482 12.6201 8.09515C12.5167 8.46734 12.4133 8.8292 12.3099 9.21173H12.2582C12.01 9.21173 11.7722 9.21173 11.5241 9.21173C10.8727 9.21173 10.2213 9.21173 9.5699 9.21173C9.21836 9.21173 8.85647 9.21173 8.50493 9.21173C8.44289 9.21173 8.44289 9.21173 8.45323 9.14969C8.50493 8.9636 8.55663 8.76717 8.60832 8.58107C8.69104 8.29159 8.77376 8.00211 8.85647 7.71262C8.90817 7.52653 8.95987 7.35077 9.01157 7.16468C9.09428 6.88553 9.16666 6.60639 9.24938 6.32725C9.31141 6.11014 9.37345 5.89302 9.43549 5.67591C9.5182 5.39677 9.59058 5.11763 9.6733 4.83848C9.73533 4.63171 9.79737 4.42494 9.84907 4.21816C9.93178 3.93902 10.0042 3.65988 10.0869 3.38073C10.1489 3.15328 10.2213 2.92583 10.2833 2.70872C10.304 2.63635 10.3247 2.55364 10.3557 2.48127C9.98348 2.48127 9.6216 2.47093 9.24938 2.4606C9.28039 2.37789 9.31141 2.29518 9.34243 2.21247C9.44583 1.92299 9.55956 1.6335 9.66296 1.34402C9.68363 1.30267 9.70431 1.27165 9.75601 1.25098C9.99382 1.18894 10.2213 1.11657 10.4591 1.05454C10.6762 0.992509 10.883 0.940816 11.1001 0.878784C11.2966 0.827091 11.5034 0.765059 11.6998 0.713366C11.9066 0.651334 12.1238 0.599641 12.3409 0.537609C12.7545 0.423884 13.1681 0.310159 13.5816 0.206773C13.8091 0.144741 14.0366 0.0827091 14.264 0.0206773C14.2951 0.0206773 14.3261 0.0103386 14.3674 0C14.3674 0.0516932 14.3571 0.0930478 14.3468 0.134402C14.2744 0.392868 14.2123 0.640996 14.14 0.899462C14.0779 1.13725 14.0159 1.3647 13.9435 1.60249C13.8401 1.99536 13.7264 2.37789 13.6127 2.77076C13.5196 3.11193 13.4265 3.4531 13.3335 3.78394C13.2611 4.06308 13.1784 4.34223 13.0957 4.62137C13.013 4.91085 12.9406 5.20034 12.8579 5.47948C12.7855 5.73794 12.7131 5.98607 12.6407 6.2342C12.5684 6.51334 12.4856 6.78215 12.4133 7.06129C12.3823 7.17501 12.3823 7.17501 12.2685 7.17501C11.917 7.17501 11.5654 7.17501 11.2139 7.17501C11.1622 7.17501 11.1518 7.17501 11.1725 7.11298C11.2449 6.84418 11.3173 6.57537 11.3897 6.30657C11.4517 6.08946 11.5137 5.87235 11.5654 5.6449C11.6171 5.43812 11.6792 5.24169 11.7309 5.03492C11.7929 4.80747 11.8549 4.56968 11.9273 4.34223C11.979 4.14579 12.041 3.94936 12.0927 3.75293C12.1548 3.52548 12.2168 3.29803 12.2789 3.07058C12.3409 2.83279 12.4133 2.595 12.4753 2.35721C12.527 2.16078 12.5787 1.96434 12.6407 1.76791C12.6407 1.74723 12.6511 1.71621 12.6614 1.69554C12.6614 1.69554 12.6614 1.69554 12.6511 1.6852V1.76791Z" fill="white"/>
<path d="M11.4624 13.5106C11.39 13.6243 11.328 13.738 11.2556 13.8518C11.2142 13.9241 11.1625 13.9551 11.0798 13.9551C10.9351 13.9551 10.7903 13.9758 10.6559 13.9551C10.4181 13.9241 10.2527 13.8001 10.1699 13.5726C10.1389 13.4899 10.1286 13.3969 10.1286 13.3038C10.1286 12.8489 10.1286 12.3837 10.1286 11.9288C10.1286 11.5359 10.1286 11.143 10.1286 10.7502C10.1286 10.5951 10.1286 10.4297 10.1286 10.2746C10.1596 10.2746 10.1906 10.2642 10.2113 10.2642C10.3664 10.2642 10.5215 10.2642 10.6766 10.2642H10.7179C10.7179 10.3366 10.7283 10.3986 10.7283 10.4607C10.7283 10.8846 10.7283 11.2981 10.7283 11.722C10.7283 12.0528 10.7283 12.394 10.7283 12.7248C10.7283 12.8489 10.7283 12.9833 10.7283 13.1074C10.7283 13.1694 10.7386 13.2211 10.7386 13.2831C10.7386 13.3555 10.7903 13.3762 10.8523 13.3969C10.9454 13.4279 11.0385 13.4279 11.1315 13.4175C11.2349 13.4072 11.3383 13.3969 11.4314 13.3555C11.4417 13.3555 11.452 13.3348 11.4624 13.3245C11.4624 12.9523 11.4624 12.5801 11.4624 12.2182C11.4624 11.5979 11.4624 10.9776 11.4624 10.347C11.4624 10.3056 11.4831 10.2849 11.5244 10.2849C11.6795 10.2849 11.8449 10.2849 12 10.2849H12.0517V13.9448H11.4417V13.5209L11.4624 13.5106Z" fill="white"/>
<path d="M9.19807 12.3768C9.03264 12.3768 8.86721 12.3768 8.71211 12.3768C8.69144 12.3768 8.66042 12.3768 8.63974 12.3768C8.59838 12.3768 8.59838 12.3458 8.60872 12.3251C8.65008 12.1907 8.70178 12.0563 8.75347 11.9219C8.75347 11.9219 8.77415 11.9116 8.77415 11.9013C8.77415 11.9013 8.77415 11.9013 8.78449 11.9013C9.074 11.9013 9.3635 11.9013 9.65301 11.9013C9.73573 11.9013 9.73573 11.9013 9.73573 11.984C9.73573 11.984 9.73573 12.0046 9.73573 12.015C9.73573 12.2528 9.73573 12.4906 9.73573 12.718C9.73573 12.8731 9.73573 13.0178 9.71505 13.1729C9.70471 13.3383 9.66335 13.5037 9.5703 13.6485C9.44622 13.8242 9.27045 13.9483 9.05332 13.9793C8.90857 14 8.75347 14 8.59838 14C8.42261 14 8.26751 13.9586 8.11242 13.8656C8.01937 13.8036 7.94699 13.7312 7.89529 13.6381C7.81258 13.4934 7.77122 13.3383 7.7402 13.1832C7.72986 13.1109 7.71952 13.0385 7.71952 12.9661C7.71952 12.8524 7.71952 12.7387 7.71952 12.625C7.71952 12.3148 7.71952 12.0046 7.71952 11.6945C7.71952 11.6014 7.71952 11.498 7.71952 11.405C7.72986 11.2189 7.7402 11.0431 7.80224 10.8674C7.84359 10.733 7.90563 10.5986 8.00903 10.4952C8.1331 10.3711 8.28819 10.2988 8.46397 10.2781C8.526 10.2781 8.59838 10.2574 8.66042 10.2574C8.81551 10.2574 8.9706 10.2574 9.1257 10.3091C9.38418 10.3918 9.55996 10.5676 9.63233 10.8364C9.65301 10.9294 9.66335 11.0225 9.68403 11.1155C9.68403 11.1982 9.69437 11.2706 9.70471 11.3533C9.5186 11.4464 9.32215 11.5291 9.13603 11.6221C9.10502 11.5808 9.11536 11.5291 9.11536 11.4877C9.11536 11.436 9.11536 11.3843 9.11536 11.3326C9.11536 11.2809 9.11536 11.2292 9.10502 11.1775C9.09468 11.1052 9.08434 11.0225 9.04298 10.9604C8.99128 10.8777 8.91891 10.826 8.80517 10.826C8.73279 10.826 8.65008 10.826 8.5777 10.826C8.46397 10.826 8.41227 10.8984 8.38125 10.9915C8.36057 11.0845 8.33989 11.1775 8.33989 11.2603C8.33989 11.4567 8.33989 11.6428 8.32955 11.8392C8.32955 12.139 8.31921 12.4285 8.32955 12.7283C8.32955 12.8938 8.35023 13.0488 8.37091 13.2143C8.37091 13.2866 8.40193 13.3487 8.46397 13.4004C8.49498 13.4314 8.53634 13.4624 8.5777 13.4624C8.70178 13.4624 8.81551 13.4624 8.93958 13.4624C9.05332 13.4624 9.10502 13.3797 9.13603 13.2763C9.15671 13.1936 9.17739 13.1109 9.17739 13.0282C9.18773 12.8214 9.19807 12.6146 9.20841 12.3975L9.19807 12.3768Z" fill="white"/>
<path d="M13.892 10.2642C13.9333 10.4193 13.9644 10.5744 14.0057 10.7191C14.0161 10.7708 14.0057 10.7915 13.954 10.7915C13.8506 10.7915 13.7472 10.7915 13.6438 10.7915C13.4681 10.7915 13.2923 10.7915 13.1269 10.7915C13.1165 10.7915 13.0958 10.7915 13.0752 10.7915V11.7427H13.8196C13.7782 11.9184 13.7472 12.0942 13.7059 12.2596H13.0752V13.3969H14.0677C14.0264 13.5726 13.985 13.7484 13.9437 13.9138H12.4858V13.8621C12.4858 12.7145 12.4858 11.5773 12.4858 10.4297C12.4858 10.378 12.4858 10.3263 12.4858 10.2849C12.4858 10.2849 12.4961 10.2642 12.5065 10.2642C12.5065 10.2642 12.5272 10.2642 12.5375 10.2642C12.9821 10.2642 13.4164 10.2642 13.861 10.2642C13.861 10.2642 13.8713 10.2642 13.8816 10.2642H13.892Z" fill="white"/>
<path d="M5.58935 13.4072H6.53025C6.48889 13.5829 6.44753 13.7587 6.40618 13.9241H5C5 13.9241 5 13.8931 5 13.8724C5 12.7662 5 11.66 5 10.5537C5 10.471 5 10.3883 5 10.2953C5 10.2849 5.02068 10.2642 5.03102 10.2642C5.21713 10.2642 5.3929 10.2642 5.57901 10.2642V13.4072H5.58935Z" fill="white"/>
<path d="M15.4017 10.9263H14.9364C14.9468 10.8642 14.9571 10.8125 14.9675 10.7608C14.9881 10.6885 15.0088 10.6264 15.0295 10.5541C15.0398 10.5127 15.0605 10.492 15.1122 10.4817C15.4017 10.399 15.6912 10.3059 15.9911 10.2232V13.9348H15.4121V10.9263H15.4017Z" fill="white"/>
<path d="M7.3473 13.9241H6.75795V10.2642H7.3473V13.9241Z" fill="white"/>
</g>
<defs>
<clipPath id="clip0_671_1442">
<rect width="20" height="14" fill="white"/>
</clipPath>
</defs>
</svg>
