<svg width="20" height="14" viewBox="0 0 20 14" fill="none" xmlns="http://www.w3.org/2000/svg">
<g clip-path="url(#clip0_676_2100)">
<path d="M11.8313 2.57849C11.619 2.63387 11.4067 2.68926 11.1943 2.74465C11.1482 2.75388 11.102 2.77234 11.0559 2.78157C11.0282 2.78157 11.0189 2.80926 11.0097 2.82772C10.9543 3.02157 10.9082 3.20619 10.8528 3.39081C10.7789 3.64004 10.7143 3.88928 10.6404 4.13851C10.5943 4.3139 10.5389 4.48929 10.4927 4.65545C10.4189 4.90468 10.3542 5.15392 10.2804 5.40315C10.2342 5.57854 10.1788 5.75393 10.1327 5.92008C10.0588 6.16932 9.99421 6.41855 9.92036 6.66779C9.8742 6.82471 9.82804 6.99087 9.78188 7.1478C9.70803 7.39703 9.64341 7.63704 9.57878 7.88627C9.55109 7.98781 9.52339 8.08012 9.4957 8.18166C9.4957 8.19089 9.4957 8.20012 9.4957 8.20935C9.50493 8.20935 9.51416 8.20935 9.52339 8.20935C10.2065 8.20935 10.8897 8.20935 11.5821 8.20935C11.6559 8.20935 11.7298 8.21858 11.8036 8.22782C11.7113 8.56013 11.619 8.88321 11.5267 9.22476H11.4805C11.259 9.22476 11.0466 9.22476 10.8251 9.22476C10.2435 9.22476 9.66187 9.22476 9.08027 9.22476C8.76639 9.22476 8.44328 9.22476 8.1294 9.22476C8.07401 9.22476 8.07401 9.22476 8.08324 9.16937C8.1294 9.00321 8.17556 8.82783 8.22172 8.66167C8.29557 8.4032 8.36943 8.14474 8.44328 7.88627C8.48944 7.72011 8.5356 7.56319 8.58176 7.39703C8.65561 7.1478 8.72023 6.89856 8.79409 6.64933C8.84948 6.45548 8.90487 6.26163 8.96026 6.06778C9.03411 5.81854 9.09873 5.56931 9.17259 5.32007C9.22798 5.13545 9.28337 4.95084 9.32953 4.76622C9.40338 4.51698 9.468 4.26775 9.54186 4.01851C9.59725 3.81543 9.66187 3.61235 9.71726 3.4185C9.73572 3.35389 9.75419 3.28004 9.78188 3.21542C9.44954 3.21542 9.12643 3.20619 8.79409 3.19696C8.82178 3.12311 8.84948 3.04927 8.87717 2.97542C8.96949 2.71695 9.07104 2.45849 9.16335 2.20002C9.18182 2.1631 9.20028 2.1354 9.24644 2.11694C9.45877 2.06156 9.66187 1.99694 9.8742 1.94155C10.0681 1.88617 10.2527 1.84001 10.4466 1.78463C10.622 1.73847 10.8066 1.68309 10.982 1.63693C11.1666 1.58155 11.3605 1.53539 11.5544 1.48001C11.9236 1.37847 12.2929 1.27693 12.6622 1.18462C12.8653 1.12923 13.0684 1.07385 13.2715 1.01846C13.2992 1.01846 13.3269 1.00923 13.3638 1C13.3638 1.04615 13.3546 1.08308 13.3453 1.12C13.2807 1.35078 13.2253 1.57232 13.1607 1.80309C13.1053 2.0154 13.0499 2.21848 12.9853 2.43079C12.893 2.78157 12.7914 3.12311 12.6899 3.47389C12.6068 3.77851 12.5237 4.08313 12.4406 4.37852C12.376 4.62775 12.3021 4.87699 12.2283 5.12622C12.1544 5.38469 12.0898 5.64316 12.016 5.89239C11.9513 6.12316 11.8867 6.34471 11.8221 6.56625C11.7575 6.81548 11.6836 7.05549 11.619 7.30472C11.5913 7.40626 11.5913 7.40626 11.4897 7.40626C11.1759 7.40626 10.862 7.40626 10.5481 7.40626C10.502 7.40626 10.4927 7.40626 10.5112 7.35088C10.5758 7.11087 10.6404 6.87087 10.7051 6.63087C10.7604 6.43702 10.8158 6.24317 10.862 6.04009C10.9082 5.85547 10.9635 5.68008 11.0097 5.49546C11.0651 5.29238 11.1205 5.08007 11.1851 4.87699C11.2313 4.7016 11.2866 4.52621 11.3328 4.35083C11.3882 4.14775 11.4436 3.94467 11.499 3.74159C11.5544 3.52927 11.619 3.31696 11.6744 3.10465C11.7205 2.92926 11.7667 2.75388 11.8221 2.57849C11.8221 2.56003 11.8313 2.53233 11.8406 2.51387C11.8406 2.51387 11.8406 2.51387 11.8313 2.50464V2.57849Z" fill="#085EFF"/>
<path d="M10.77 13.063C10.7054 13.1646 10.65 13.2661 10.5853 13.3676C10.5484 13.4323 10.5023 13.4599 10.4284 13.4599C10.2992 13.4599 10.1699 13.4784 10.0499 13.4599C9.83757 13.4323 9.68987 13.3215 9.61601 13.1184C9.58832 13.0446 9.57909 12.9615 9.57909 12.8784C9.57909 12.4722 9.57909 12.0568 9.57909 11.6507C9.57909 11.2999 9.57909 10.9491 9.57909 10.5984C9.57909 10.4599 9.57909 10.3122 9.57909 10.1737C9.60678 10.1737 9.63448 10.1645 9.65294 10.1645C9.79142 10.1645 9.92989 10.1645 10.0684 10.1645H10.1053C10.1053 10.2291 10.1145 10.2845 10.1145 10.3399C10.1145 10.7184 10.1145 11.0876 10.1145 11.4661C10.1145 11.7615 10.1145 12.0661 10.1145 12.3615C10.1145 12.4722 10.1145 12.5922 10.1145 12.703C10.1145 12.7584 10.1238 12.8046 10.1238 12.8599C10.1238 12.9246 10.1699 12.943 10.2253 12.9615C10.3084 12.9892 10.3915 12.9892 10.4746 12.9799C10.5669 12.9707 10.6592 12.9615 10.7423 12.9246C10.7515 12.9246 10.7607 12.9061 10.77 12.8969C10.77 12.5645 10.77 12.2322 10.77 11.9091C10.77 11.3553 10.77 10.8014 10.77 10.2384C10.77 10.2014 10.7884 10.183 10.8254 10.183C10.9638 10.183 11.1115 10.183 11.25 10.183H11.2962V13.4507H10.7515V13.0722L10.77 13.063Z" fill="#085EFF"/>
<path d="M8.74828 12.0507C8.60057 12.0507 8.45287 12.0507 8.31439 12.0507C8.29593 12.0507 8.26823 12.0507 8.24977 12.0507C8.21284 12.0507 8.21284 12.023 8.22207 12.0046C8.259 11.8846 8.30516 11.7646 8.35132 11.6446C8.35132 11.6446 8.36978 11.6353 8.36978 11.6261C8.36978 11.6261 8.36978 11.6261 8.37901 11.6261C8.6375 11.6261 8.89599 11.6261 9.15448 11.6261C9.22833 11.6261 9.22833 11.6261 9.22833 11.7C9.22833 11.7 9.22833 11.7184 9.22833 11.7277C9.22833 11.94 9.22833 12.1523 9.22833 12.3554C9.22833 12.4938 9.22833 12.6231 9.20987 12.7615C9.20064 12.9092 9.16371 13.0569 9.08062 13.1861C8.96984 13.3431 8.8129 13.4538 8.61904 13.4815C8.48979 13.5 8.35132 13.5 8.21284 13.5C8.0559 13.5 7.91743 13.4631 7.77895 13.38C7.69587 13.3246 7.63124 13.26 7.58509 13.1769C7.51123 13.0477 7.4743 12.9092 7.44661 12.7708C7.43738 12.7061 7.42815 12.6415 7.42815 12.5769C7.42815 12.4754 7.42815 12.3738 7.42815 12.2723C7.42815 11.9954 7.42815 11.7184 7.42815 11.4415C7.42815 11.3584 7.42815 11.2661 7.42815 11.183C7.43738 11.0169 7.44661 10.86 7.502 10.703C7.53893 10.583 7.59432 10.463 7.68663 10.3707C7.79741 10.2599 7.93589 10.1953 8.09283 10.1769C8.14822 10.1769 8.21284 10.1584 8.26823 10.1584C8.40671 10.1584 8.54518 10.1584 8.68366 10.2046C8.91445 10.2784 9.07139 10.4353 9.13601 10.6753C9.15448 10.7584 9.16371 10.8415 9.18217 10.9246C9.18217 10.9984 9.19141 11.063 9.20064 11.1369C9.03447 11.22 8.85906 11.2938 8.69289 11.3769C8.6652 11.34 8.67443 11.2938 8.67443 11.2569C8.67443 11.2107 8.67443 11.1646 8.67443 11.1184C8.67443 11.0723 8.67443 11.0261 8.6652 10.98C8.65596 10.9153 8.64673 10.8415 8.60981 10.7861C8.56365 10.7123 8.49903 10.6661 8.39748 10.6661C8.33285 10.6661 8.259 10.6661 8.19438 10.6661C8.09283 10.6661 8.04667 10.7307 8.01898 10.8138C8.00051 10.8969 7.98205 10.98 7.98205 11.0538C7.98205 11.2292 7.98205 11.3953 7.97282 11.5707C7.97282 11.8384 7.96358 12.0969 7.97282 12.3646C7.97282 12.5123 7.99128 12.6508 8.00974 12.7984C8.00974 12.8631 8.03744 12.9184 8.09283 12.9646C8.12052 12.9923 8.15745 13.02 8.19438 13.02C8.30516 13.02 8.40671 13.02 8.51749 13.02C8.61904 13.02 8.6652 12.9461 8.69289 12.8538C8.71135 12.78 8.72982 12.7061 8.72982 12.6323C8.73905 12.4477 8.74828 12.2631 8.75751 12.0692L8.74828 12.0507Z" fill="#085EFF"/>
<path d="M12.9393 10.1645C12.9762 10.303 13.0039 10.4414 13.0408 10.5707C13.05 10.6168 13.0408 10.6353 12.9947 10.6353C12.9023 10.6353 12.81 10.6353 12.7177 10.6353C12.5608 10.6353 12.4038 10.6353 12.2561 10.6353C12.2469 10.6353 12.2284 10.6353 12.21 10.6353V11.4845H12.8746C12.8377 11.6415 12.81 11.7984 12.7731 11.9461H12.21V12.9615H13.0962C13.0593 13.1184 13.0224 13.2753 12.9854 13.423H11.6838V13.3769C11.6838 12.3522 11.6838 11.3368 11.6838 10.3122C11.6838 10.266 11.6838 10.2199 11.6838 10.183C11.6838 10.183 11.693 10.1645 11.7022 10.1645C11.7022 10.1645 11.7207 10.1645 11.7299 10.1645C12.1269 10.1645 12.5146 10.1645 12.9116 10.1645C12.9116 10.1645 12.9208 10.1645 12.93 10.1645H12.9393Z" fill="#085EFF"/>
<path d="M5.52621 12.9707H6.36629C6.32937 13.1276 6.29244 13.2846 6.25551 13.4323H5C5 13.4323 5 13.4046 5 13.3861C5 12.3984 5 11.4107 5 10.423C5 10.3491 5 10.2753 5 10.1922C5 10.183 5.01846 10.1645 5.0277 10.1645C5.19387 10.1645 5.3508 10.1645 5.51698 10.1645V12.9707H5.52621Z" fill="#085EFF"/>
<path d="M14.2873 10.7556H13.8718C13.8811 10.7002 13.8903 10.654 13.8995 10.6079C13.918 10.5433 13.9364 10.4879 13.9549 10.4233C13.9641 10.3863 13.9826 10.3679 14.0288 10.3587C14.2873 10.2848 14.5457 10.2017 14.8135 10.1279V13.4418H14.2965V10.7556H14.2873Z" fill="#085EFF"/>
<path d="M7.0958 13.4323H6.5696V10.1645H7.0958V13.4323Z" fill="#085EFF"/>
</g>
<defs>
<clipPath id="clip0_676_2100">
<rect width="20" height="14" fill="white"/>
</clipPath>
</defs>
</svg>
