<svg width="20" height="14" viewBox="0 0 20 14" fill="none" xmlns="http://www.w3.org/2000/svg">
<path fill-rule="evenodd" clip-rule="evenodd" d="M5.13418 7.00558C5.0019 7.00558 4.86962 6.95447 4.76849 6.8527C4.56837 6.65222 4.55855 6.32595 4.74588 6.1128C4.76081 6.09576 4.79324 6.06126 4.84231 6.02064C4.93875 5.94071 5.05524 5.9014 5.17088 5.9014C5.31938 5.9014 5.46702 5.96604 5.57028 6.09096C5.75377 6.31328 5.7303 6.6448 5.51694 6.83742C5.50841 6.84484 5.5003 6.8527 5.49134 6.861C5.39064 6.95753 5.2622 7.00558 5.13418 7.00558Z" fill="#010202"/>
<path fill-rule="evenodd" clip-rule="evenodd" d="M5.13338 6.47133C5.14576 6.45954 5.15813 6.44775 5.17008 6.43683C5.14576 6.45692 5.13338 6.47133 5.13338 6.47133Z" fill="#010202"/>
<path fill-rule="evenodd" clip-rule="evenodd" d="M10.4961 12.3144C9.81805 12.3144 9.26632 11.7496 9.26632 11.0556C9.26632 10.6127 9.49759 10.1973 9.87011 9.97151C9.93582 9.93177 10.0067 9.90818 10.0783 9.90032C10.1368 9.8597 10.2038 9.83043 10.2776 9.81646C10.3489 9.80292 10.4223 9.79593 10.4957 9.79593C11.1741 9.79593 11.7263 10.3611 11.7263 11.0556C11.7263 11.7501 11.1741 12.3144 10.4957 12.3144H10.4961Z" fill="#010202"/>
<path fill-rule="evenodd" clip-rule="evenodd" d="M10.1374 10.4323C9.92956 10.558 9.79002 10.79 9.79002 11.056C9.79002 11.4556 10.1066 11.7797 10.4971 11.7797C10.8875 11.7797 11.205 11.4556 11.205 11.056C11.205 10.6563 10.8884 10.3314 10.4971 10.3314C10.4553 10.3314 10.4143 10.3353 10.3742 10.3427C10.4403 10.3418 10.5278 10.3475 10.6268 10.3676C10.8448 10.4126 10.9639 10.569 10.9639 10.569C10.2393 10.3344 10.0435 10.8865 10.0435 10.8865C10.1199 10.614 10.311 10.4851 10.311 10.4851C9.91804 10.6969 9.9078 11.059 9.9078 11.059C9.8903 10.728 10.0328 10.5318 10.1378 10.4327L10.1374 10.4323ZM11.106 11.0359C11.1546 11.7042 10.247 11.933 9.96199 11.3962C10.3366 11.8597 11.0266 11.6557 11.106 11.0359Z" fill="#010202"/>
<path fill-rule="evenodd" clip-rule="evenodd" d="M12.1891 8.32502C12.0837 8.32502 11.9775 8.2927 11.8862 8.22587C11.867 8.21189 11.8277 8.18132 11.7829 8.13458C11.5922 7.93629 11.5819 7.62137 11.759 7.4104C11.8619 7.2881 12.0078 7.22433 12.1554 7.22433C12.2621 7.22433 12.3696 7.25753 12.4618 7.3261C12.5049 7.35799 12.5437 7.3938 12.5779 7.43268C12.7558 7.63578 12.7562 7.94327 12.5787 8.14638C12.4763 8.26387 12.3329 8.32502 12.1887 8.32502H12.1891Z" fill="#010202"/>
<path fill-rule="evenodd" clip-rule="evenodd" d="M12.1545 7.75975C12.1741 7.78028 12.1886 7.79076 12.1886 7.79076C12.1788 7.77984 12.1677 7.76936 12.1545 7.75975Z" fill="#010202"/>
<path fill-rule="evenodd" clip-rule="evenodd" d="M12.5162 12.332C12.4095 12.332 12.3062 12.3089 12.2008 12.2617C12.0477 12.1936 11.7822 12.0097 11.7089 11.541C11.7089 11.5397 11.7084 11.538 11.708 11.5367C11.6884 11.403 11.682 11.3471 11.6768 11.2978C11.6768 11.2978 11.6751 11.2807 11.6747 11.2772C11.6709 11.2357 11.6717 11.1942 11.6773 11.1536C11.6581 11.0331 11.6244 10.8243 11.5868 10.6098C11.551 10.4045 11.4814 10.2617 11.42 10.1355C11.4038 10.1023 11.3884 10.0704 11.3739 10.0381C11.2817 9.83279 11.2523 9.53491 11.2258 9.19509L11.2228 9.15971C11.2139 9.04484 11.2096 8.9553 11.2079 8.88629C11.2049 8.88367 11.2015 8.88061 11.1981 8.87755C11.1785 8.86139 11.1183 8.8282 11.0743 8.80417C11.0739 8.80417 11.0731 8.80374 11.0726 8.8033L11.0312 8.80112C10.9318 8.79588 10.8358 8.76181 10.7547 8.7024C10.7377 8.68974 10.584 8.57617 10.4484 8.43029C10.3797 8.35691 10.3336 8.29358 10.2964 8.24291C10.2593 8.19225 10.2324 8.15512 10.1765 8.0979L9.90302 7.81792C9.86888 7.82535 9.84243 7.83015 9.82109 7.83409C9.78397 7.84107 9.78354 7.84107 9.74215 7.85898C9.56336 7.93848 9.30819 8.02059 9.2796 8.02976C9.22882 8.04592 9.17591 8.05422 9.12385 8.05422C9.08843 8.05422 9.05301 8.05073 9.01845 8.0433C8.99242 8.05116 8.96895 8.05684 8.94762 8.06165C8.77992 8.16298 8.58705 8.26213 8.56059 8.27567C8.5128 8.30013 8.46245 8.31629 8.4121 8.32503C8.39972 8.33201 8.38905 8.33813 8.38351 8.34162L8.38137 8.34293C8.37198 8.34949 8.36174 8.35735 8.34852 8.36739C8.27939 8.42112 8.13516 8.53337 7.91199 8.53337C7.84116 8.53337 7.77032 8.52201 7.69565 8.49886C7.68768 8.49654 7.67303 8.49435 7.6517 8.49231C7.60647 8.48838 7.53819 8.48227 7.4456 8.46086C7.44432 8.46086 7.44304 8.46043 7.44176 8.45999C7.17378 8.39622 6.98774 8.20579 6.82388 8.03763L6.80383 8.0171C6.6835 7.89392 6.49062 7.65501 6.29732 7.41085C6.27556 7.40866 6.25337 7.40604 6.23076 7.40342C6.22948 7.40342 6.2282 7.40342 6.22649 7.40298C6.20302 7.39993 6.18553 7.39774 6.1723 7.39643C6.14328 7.40255 6.11384 7.40604 6.08397 7.40735C6.07117 7.40779 6.05837 7.40779 6.04556 7.40779C5.92523 7.40779 5.82325 7.38857 5.74089 7.37328C5.67902 7.36193 5.63038 7.35275 5.58216 7.35275C5.57832 7.35275 5.5749 7.35275 5.57106 7.35275C5.52242 7.35406 5.46012 7.36018 5.39995 7.36586C5.31632 7.37416 5.23012 7.38246 5.14563 7.38246C5.04024 7.38246 4.88321 7.3711 4.73471 7.27326C4.45565 7.08938 4.37457 6.71724 4.54184 6.38616C4.55678 6.3569 4.57384 6.32938 4.5939 6.30317C4.63614 6.2477 4.68137 6.19747 4.72789 6.15248C4.75392 6.10968 4.78635 6.06993 4.82518 6.03499C5.04792 5.83363 5.26639 5.72619 5.53053 5.69386C5.53181 5.6895 5.53266 5.68556 5.53394 5.6812C5.53778 5.59602 5.55826 5.46412 5.63848 5.3357C5.69225 5.24922 5.75924 5.19113 5.81301 5.14439C5.82154 5.13697 5.83306 5.12692 5.84202 5.11906C5.97943 4.90548 6.15139 4.84957 6.29135 4.80414L6.30244 4.80065C6.33743 4.78929 6.36304 4.77532 6.37328 4.7692C6.40357 4.74518 6.43558 4.72509 6.46886 4.70892C6.51836 4.66306 6.58237 4.61371 6.666 4.57745C6.68563 4.56479 6.72745 4.53421 6.76457 4.5067C6.8162 4.4687 6.88064 4.42196 6.96299 4.36431C7.17805 4.21318 7.42042 4.03672 7.42298 4.03497C7.46565 4.00396 7.51088 3.98038 7.55825 3.96422C7.60433 3.92622 7.65255 3.88953 7.70504 3.85458C7.84585 3.76111 7.96405 3.70171 8.05281 3.66458L8.13303 3.58596C8.19149 3.52875 8.26019 3.48769 8.33358 3.46366C8.36004 3.41431 8.3946 3.36845 8.43684 3.32826C8.51792 3.25139 8.66215 3.10463 8.71421 3.03387C8.87849 2.80937 9.00138 2.72376 9.24887 2.64863L9.25058 2.64689C9.31075 2.59273 9.36238 2.55167 9.40974 2.51847C9.40846 2.51454 9.40548 2.50188 9.40505 2.49969C9.36707 2.34332 9.38073 2.21229 9.39267 2.14721C9.38286 2.07864 9.37091 1.99652 9.36024 1.92533C9.32269 1.67418 9.41145 1.38459 9.59195 1.16882C9.78695 0.936019 10.0673 0.807606 10.3814 0.807606C10.3869 0.807606 10.3925 0.807606 10.3984 0.807606C10.6058 0.8111 11.2809 0.899767 11.3871 1.88776C11.4533 1.86592 11.5143 1.85064 11.5625 1.83841C11.5753 1.83535 11.5872 1.83229 11.5966 1.82967C11.6961 1.79648 11.8386 1.7742 11.9457 1.76503C11.9691 1.75542 11.9939 1.74799 12.0186 1.74232C12.1048 1.70038 12.188 1.65147 12.2627 1.59905C12.3446 1.54183 12.3916 1.50252 12.4415 1.46016C12.517 1.39639 12.6024 1.32388 12.7551 1.23434C12.9685 1.10942 13.1985 1.04696 13.3508 1.0059C13.3862 0.996295 13.4229 0.986249 13.4434 0.979697C13.5155 0.949996 13.7605 0.805422 13.9427 0.684871C13.9589 0.673951 13.976 0.664342 13.9926 0.655607C13.9999 0.628963 14.008 0.60232 14.0199 0.573055C14.022 0.567814 14.0242 0.562573 14.0263 0.557331C14.1117 0.362527 14.2601 0.283033 14.316 0.254643C14.3583 0.226252 14.4624 0.152436 14.4919 0.129287L14.4944 0.127103C14.5913 0.0449883 14.7154 0 14.8439 0C14.9723 0 15.0871 0.0467355 15.1759 0.0838618C15.1878 0.0891031 15.1993 0.0939077 15.2096 0.0978387C15.4763 0.186068 15.6397 0.445516 15.5992 0.71763C15.5911 0.771353 15.5757 0.822457 15.5544 0.869629C15.5633 1.00241 15.527 1.13694 15.4524 1.25137C15.4323 1.33786 15.3939 1.41779 15.3376 1.48724C15.2672 1.57372 15.175 1.63574 15.0722 1.66806C14.9787 1.72353 14.8831 1.74887 14.8115 1.76022C14.7231 1.8074 14.6374 1.83098 14.564 1.84146C14.5038 1.88471 14.4368 1.93188 14.3677 1.97905C14.3237 2.00919 14.2875 2.03321 14.2563 2.05418C14.136 2.13454 14.1313 2.1376 14.0195 2.25509C13.8236 2.46038 13.5044 2.79583 13.0858 2.93953C13.0022 3.00941 12.8793 3.10594 12.7577 3.17976C12.6369 3.25314 12.5653 3.30817 12.5563 3.31516C12.5495 3.32084 12.5422 3.32652 12.535 3.33176C12.4936 3.37587 12.4445 3.413 12.3895 3.44095C12.3152 3.47852 12.2606 3.50035 12.2256 3.51302C12.2107 3.52787 12.1953 3.54141 12.1804 3.55452C12.1757 3.56412 12.171 3.57373 12.1667 3.58247C12.1526 3.66458 12.13 3.78688 12.0976 3.92622C12.1087 3.96815 12.1147 4.01182 12.1155 4.05638C12.1164 4.1101 12.1125 4.35994 11.9802 4.75959C11.9858 4.78361 11.9896 4.80764 11.9918 4.8321C12.0165 4.90635 12.0255 4.98715 12.0161 5.06927C11.9977 5.22782 11.9576 5.38069 11.9047 5.52396C11.9128 5.58904 11.9094 5.6563 11.8928 5.72313C11.8603 5.85373 11.8121 5.9769 11.7579 6.08871C11.7942 6.1468 11.8198 6.21232 11.8317 6.28352C11.8377 6.31715 11.8565 6.43595 11.8565 6.54908V6.57223C12.0617 6.65129 12.2098 6.82381 12.2823 6.92471C12.3028 6.9531 12.3203 6.98324 12.3344 7.01381C12.4466 7.11951 12.4991 7.22652 12.5179 7.27108C12.5371 7.31737 12.5495 7.36542 12.5554 7.41303C12.6075 7.47593 12.6429 7.54843 12.6617 7.62443C12.7999 7.74105 12.9412 7.94197 12.9728 8.20447C12.992 8.36303 12.983 8.57967 12.9758 8.69935C12.9822 8.73429 12.9984 8.8247 13.0163 8.92079C13.0423 9.05794 13.0692 9.45934 13.0952 10.115C13.0961 10.1372 13.0974 10.1578 13.0991 10.177C13.1038 10.1809 13.1085 10.1848 13.1132 10.1892C13.1366 10.2102 13.1627 10.2351 13.1895 10.263C13.3636 10.2473 13.478 10.2285 13.5309 10.2075C13.6423 10.1639 13.7434 10.1429 13.8428 10.1429C13.9999 10.1429 14.2235 10.1962 14.3967 10.4491L14.3975 10.4504C14.4428 10.5102 14.4739 10.5771 14.491 10.6469C14.5021 10.6815 14.5098 10.7177 14.514 10.7548C14.5221 10.8291 14.5332 11.0885 14.3421 11.3183C14.3105 11.3563 14.0208 11.6939 13.5851 11.8809C13.4857 11.9237 13.4059 11.9538 13.3423 11.9783C13.2228 12.0237 13.187 12.0372 13.1114 12.0927C12.9433 12.2159 12.7551 12.3299 12.5162 12.3299V12.332ZM7.18147 6.03979C7.30991 6.08085 7.44645 6.13108 7.55996 6.18786C7.67816 6.24683 7.77544 6.32021 7.85439 6.39664C7.88298 6.36869 7.91157 6.33768 7.93247 6.31234C7.98283 6.24945 8.04598 6.20053 8.11681 6.16733C8.15351 6.12147 8.19831 6.08172 8.24952 6.04984C8.31865 5.89915 8.43855 5.75807 8.6135 5.66809C8.64038 5.60127 8.68434 5.52265 8.75773 5.44752C8.83411 5.36934 8.92713 5.3143 9.02869 5.28547C9.0799 5.16274 9.14689 5.07014 9.20023 5.00419C9.20236 4.98934 9.20449 4.97492 9.20705 4.96182C9.12726 5.01598 9.01888 5.06403 8.8802 5.06403C8.86697 5.06403 8.85161 5.06403 8.83624 5.06315C8.83112 5.06577 8.82643 5.06796 8.82216 5.07014C8.8179 5.0732 8.81363 5.07669 8.80894 5.08019C8.75986 5.116 8.68562 5.17016 8.52347 5.2763C8.36558 5.37982 8.20045 5.43966 8.04086 5.49731C7.9329 5.53662 7.83049 5.57331 7.73235 5.62311C7.56038 5.71002 7.41445 5.78515 7.32996 5.82883C7.32441 5.83887 7.31844 5.84892 7.31204 5.85984C7.27449 5.92361 7.23011 5.98389 7.18061 6.03979H7.18147Z" fill="#010202"/>
<path fill-rule="evenodd" clip-rule="evenodd" d="M13.3479 11.3205C13.6906 11.168 13.9841 10.7806 13.9841 10.7806C13.944 10.7299 13.9142 10.633 13.7204 10.709C13.5267 10.7863 13.1841 10.8016 13.0898 10.8112C12.9946 10.8217 12.9157 10.7758 12.8858 10.7256C12.8559 10.674 12.7667 10.5932 12.7667 10.5932C12.7667 10.5932 12.7172 10.6334 12.7518 10.6697C12.7864 10.7051 12.7966 10.7662 12.7966 10.7662C12.7518 10.9033 12.6374 10.9597 12.6374 10.9597C12.7326 10.8985 12.7625 10.7614 12.7625 10.7614C12.7074 10.685 12.5884 10.5116 12.5734 10.1407C12.5585 9.7699 12.5286 9.15361 12.5035 9.02694C12.4791 8.89897 12.4587 8.78278 12.4587 8.78278L12.1113 8.71595L12.4493 8.73692C12.4493 8.73692 12.4736 8.43642 12.454 8.2735C12.4343 8.11145 12.3144 8.02934 12.3144 8.02934C12.4441 8.22283 12.3891 8.39536 12.3891 8.39536C12.3695 8.21235 12.27 8.14639 12.27 8.14639C12.0819 7.91752 11.863 7.78037 11.863 7.78037C12.0072 7.90704 12.1762 8.12062 12.1762 8.12062C12.0123 7.96819 11.7738 7.77644 11.6731 7.69651C11.883 7.66026 12.0614 7.69083 12.1561 7.76115C12.1378 7.74237 12.1151 7.71486 12.0951 7.6786C12.0533 7.60348 11.5502 7.42964 11.2596 7.5004C11.2596 7.5004 11.5399 7.36499 11.9573 7.55368C11.9573 7.55368 11.8045 7.35364 10.995 7.35364C10.995 7.35364 11.4337 7.32132 11.7196 7.36499C12.0046 7.4078 12.0371 7.48424 12.0371 7.48424C12.0371 7.48424 11.9944 7.38116 11.8357 7.32699C11.6765 7.27283 10.7672 7.25667 10.7672 7.25667C10.7672 7.25667 11.1956 7.13743 11.4704 7.12127C11.7452 7.10511 11.8617 7.24619 11.8617 7.24619C11.8617 7.24619 11.7563 7.10031 11.6603 7.07279C11.5651 7.04615 10.3225 7.02431 10.3225 7.02431C10.3225 7.02431 10.7138 6.9815 10.9366 6.82426C10.9366 6.82426 10.55 6.89502 10.3601 6.88454L10.4177 6.83474C10.4177 6.83474 10.4924 6.82426 10.646 6.78626C10.646 6.78626 9.94746 6.85702 9.33428 6.37525C9.33428 6.37525 9.80452 6.70502 10.5239 6.75394C10.5239 6.75394 9.7994 6.27261 9.51393 6.07213C9.51393 6.07213 10.1903 6.48314 10.5022 6.56525C10.5022 6.56525 10.2487 6.41849 10.1378 6.28877C10.1378 6.28877 10.4386 6.47833 10.608 6.53293C10.7766 6.58622 11.0522 6.54909 11.1529 6.54909C11.2536 6.54909 11.3326 6.64038 11.3326 6.64038V6.55346C11.3326 6.47833 11.3159 6.38093 11.3159 6.38093C11.3159 6.38093 10.719 6.35909 10.3277 6.22937C10.3277 6.22937 10.7347 6.32109 10.9835 6.30449C10.9835 6.30449 11.2899 5.9804 11.385 5.59604C11.385 5.59604 11.1794 6.01753 10.8299 6.21757C10.8299 6.21757 11.4222 5.64932 11.496 5.01031C11.496 5.01031 11.2528 5.58992 10.7292 5.90397C10.7292 5.90397 11.3274 5.43879 11.47 4.88671C11.47 4.88671 11.2528 5.4008 10.7347 5.72008C10.7347 5.72008 11.1952 5.30907 11.3961 4.82643C11.5963 4.3451 11.5916 4.06949 11.5916 4.06949C11.5916 4.06949 11.4004 4.65871 10.9302 5.04875C10.9302 5.04875 11.3428 4.5731 11.4751 4.19921C11.6074 3.82533 11.665 3.40296 11.665 3.40296C11.665 3.40296 11.7123 3.33832 11.7554 3.2086C11.7554 3.2086 11.813 3.18195 11.8719 3.12168C11.9295 3.06271 12.0089 3.00244 12.0089 3.00244C12.0089 3.00244 12.0405 2.85087 12.0358 2.72683C12.0358 2.72683 12.0831 2.83471 12.046 3.01379C12.046 3.01379 12.0831 3.00244 12.157 2.96531C12.157 2.96531 12.2026 2.76789 12.1851 2.53639C12.2252 2.68228 12.2325 2.89892 12.2325 2.89892C12.2325 2.89892 12.3247 2.82467 12.4898 2.72421C12.6545 2.62418 12.8401 2.45515 12.8401 2.45515C12.7164 2.53421 12.4843 2.60278 12.4843 2.60278C12.8755 2.40842 13.03 2.19177 13.03 2.19177C12.9937 2.31276 12.8755 2.45035 12.8755 2.45035C13.1896 2.36081 13.4576 2.08127 13.6432 1.8869C13.8284 1.69122 13.8433 1.69734 14.0755 1.53879C14.3063 1.38067 14.5124 1.22299 14.5124 1.22299C14.4667 1.28021 14.4305 1.31734 14.4305 1.31734C14.4305 1.31734 14.5022 1.32782 14.5747 1.28589C14.6464 1.24396 14.7031 1.15922 14.7031 1.15922C14.6976 1.19635 14.7031 1.23828 14.7031 1.23828C14.7031 1.23828 14.7953 1.23348 14.8363 1.18587C14.8781 1.13826 14.9088 1.18019 14.934 1.14874C14.96 1.11729 14.9276 1.02688 14.9276 1.02688C14.9276 1.02688 14.8811 1.06139 14.8495 1.09546C14.8179 1.12996 14.7543 1.12297 14.7543 1.12297C14.7543 1.12297 14.8474 1.10681 14.8725 1.04872C14.8986 0.990628 14.9395 1.02775 14.9907 0.985823C15.0419 0.943892 15.0419 0.885801 15.0065 0.885801C14.9711 0.885801 14.8986 0.875318 14.8986 0.875318C14.8986 0.875318 14.9135 0.7801 14.8679 0.775295C14.8504 0.773548 14.8324 0.771364 14.8158 0.769617C14.7906 0.764813 14.7552 0.760882 14.7245 0.764813C14.7522 0.717204 14.8 0.712399 14.8354 0.680951C14.8858 0.635089 14.8849 0.632468 14.9724 0.669595C15.0385 0.697112 15.1316 0.638146 15.0479 0.611503C14.9848 0.591411 14.8533 0.521089 14.826 0.543802C14.7906 0.57525 14.6259 0.69056 14.5849 0.717204C14.544 0.743847 14.5179 0.743847 14.5022 0.7801C14.4872 0.817226 14.451 1.01771 14.3635 1.11205C14.276 1.20727 14.0289 1.31821 14.0289 1.31821L14.2244 1.13913C14.0959 1.22387 13.7354 1.45012 13.6069 1.49205C13.4785 1.53486 13.2212 1.58159 13.0147 1.70258C12.809 1.82357 12.7838 1.88777 12.5572 2.04501C12.3831 2.16688 12.221 2.24157 12.1557 2.26996C12.1527 2.25947 12.1518 2.25642 12.1518 2.25642C12.1518 2.25642 12.1045 2.29922 12.0409 2.29922C11.9773 2.29922 11.819 2.32106 11.7559 2.3429C11.6927 2.36474 11.4913 2.39706 11.385 2.4783C11.385 2.4783 11.5442 2.52678 11.6236 2.65083C11.6236 2.65083 11.4597 2.50494 11.3061 2.50494C11.1525 2.50494 11.0842 2.58618 11.0415 2.6137C10.9997 2.64035 10.899 2.59186 10.899 2.59186C10.899 2.59186 10.8999 2.61283 10.902 2.64515C10.9003 2.63641 10.899 2.63292 10.899 2.63292C10.899 2.63292 10.9148 2.90372 10.896 2.96182C10.8922 2.96837 10.8875 2.97536 10.882 2.98191C10.8521 3.00855 10.797 3.01816 10.797 3.01816C10.797 3.01816 10.8269 2.83777 10.8269 2.77487C10.8269 2.71198 10.841 2.54687 10.841 2.54687C10.815 2.63641 10.797 2.76832 10.7488 2.85218C10.7002 2.93692 10.5905 2.94653 10.5905 2.94653C10.5905 2.94653 10.6596 2.86354 10.6874 2.82641C10.7143 2.78929 10.7172 2.74648 10.7172 2.74648C10.7172 2.74648 10.6938 2.79409 10.5999 2.81986C10.547 2.83428 10.4954 2.83602 10.4612 2.83515C10.4518 2.83428 10.4437 2.83428 10.4369 2.8334C10.4258 2.83253 10.4194 2.83166 10.4194 2.83166H10.425C10.4109 2.82991 10.4045 2.82685 10.4045 2.82685C10.4501 2.82991 10.5099 2.80676 10.5099 2.80676C10.5295 2.81724 10.547 2.8203 10.547 2.8203C10.5658 2.80894 10.5705 2.79147 10.5705 2.79147C10.6042 2.78841 10.669 2.77356 10.6814 2.75915C10.6515 2.77138 10.5167 2.7526 10.4885 2.72377C10.5705 2.73338 10.6097 2.6932 10.6097 2.6932C10.6097 2.6932 10.5752 2.69494 10.5641 2.67223C10.5521 2.64821 10.5453 2.51019 10.5389 2.44161C10.5316 2.37391 10.5564 2.36911 10.5564 2.36911C10.6392 2.43025 10.7006 2.42065 10.7006 2.42065C10.6328 2.40448 10.5982 2.35469 10.5982 2.35469C10.5982 2.35469 10.6831 2.38134 10.7335 2.35775C10.7838 2.33373 10.7774 2.27563 10.7774 2.27563C10.7821 2.24244 10.809 2.23545 10.809 2.23545C10.7382 2.18566 10.6899 2.26297 10.6328 2.28524C10.5752 2.30621 10.5193 2.27651 10.5193 2.27651C10.5193 2.27651 10.4706 2.23632 10.5146 2.12495C10.5585 2.01357 10.6281 1.9332 10.6281 1.9332C10.4966 1.98168 10.3708 1.97819 10.3708 1.97819C10.6669 1.92839 10.7714 1.83056 10.7714 1.83056C10.7714 1.83056 10.8188 1.99173 10.8414 2.12538C10.8628 2.25904 10.8675 2.38396 10.8675 2.38396C10.8926 2.29616 10.8871 2.16862 10.8692 1.97207C10.8504 1.77639 10.7855 1.35403 10.3904 1.34748C9.99526 1.3418 9.85188 1.69079 9.8762 1.85021C9.89967 2.00964 9.9304 2.22322 9.9304 2.22322C10.0021 2.28524 9.99014 2.37085 9.99014 2.37085C9.98374 2.26603 9.9065 2.24768 9.9065 2.24768C9.9065 2.24768 9.89455 2.30315 9.91205 2.37653C9.93082 2.44991 9.96069 2.49271 10.0136 2.50538C10.0678 2.51761 10.0797 2.54819 10.0797 2.54819C10.0256 2.38221 10.0554 2.28481 10.0554 2.12582C10.0554 1.96683 10.1391 1.93626 10.1391 1.93626C10.1391 1.93626 10.0861 2.07646 10.1092 2.19963C10.1335 2.3215 10.1873 2.37697 10.1873 2.37697C10.2526 2.36474 10.2824 2.38265 10.2824 2.38265C10.1753 2.37129 10.1211 2.43812 10.1211 2.43812C10.1809 2.47524 10.2526 2.48791 10.2526 2.48791C10.1809 2.49927 10.1455 2.49927 10.1455 2.49927C10.154 2.58487 10.2146 2.67747 10.2146 2.67747L10.0896 2.6089C10.1484 2.82991 10.3392 2.93386 10.3392 2.93386C10.18 2.89106 10.0776 2.70193 10.0465 2.63641C10.0315 2.65258 10.014 2.67441 10.0072 2.69538C9.99526 2.73163 9.97093 2.75085 10.0072 2.80501C10.0221 2.82903 10.0349 2.86048 10.0546 2.89543C10.0136 2.8583 9.97435 2.81549 9.956 2.77225C9.956 2.77225 9.92698 2.86834 9.84505 2.89805C9.76313 2.92862 9.72771 2.9343 9.59372 3.05441C9.59372 3.05441 9.75118 3.0068 10.1787 3.09634C10.1787 3.09634 9.83951 3.05441 9.54636 3.12604C9.25364 3.19855 9.23614 3.21646 9.13074 3.3606C9.02535 3.50342 8.79066 3.72574 8.79066 3.72574C8.79066 3.72574 9.09533 3.52177 9.31252 3.50342C9.31252 3.50342 9.03687 3.61218 8.77401 3.83887C8.77401 3.83887 9.03132 3.66547 9.25918 3.59951C9.25918 3.59951 8.86149 3.80917 8.60333 4.03717L8.49239 3.97689L8.36949 4.09701C8.36949 4.09701 8.46934 4.09701 8.6332 4.24682C8.6332 4.24682 8.49793 4.14462 8.33408 4.13326C8.33408 4.13326 8.20564 4.16296 7.98844 4.30666C7.7721 4.4508 7.61934 4.66613 7.26261 4.92339C7.26261 4.92339 7.5963 4.58751 7.72474 4.47438C7.72474 4.47438 7.47895 4.65346 7.25621 4.80983C7.03347 4.96533 6.94599 5.04351 6.86961 5.07321C6.79408 5.10378 6.74117 5.22958 6.5483 5.33746C6.5483 5.33746 6.62383 5.2536 6.67119 5.21167C6.67119 5.21167 6.58926 5.27194 6.45954 5.31388C6.3311 5.35581 6.30763 5.36148 6.26667 5.43399C6.22571 5.50562 6.10367 5.58468 6.07764 5.62661C6.05161 5.66854 6.05417 5.72008 6.05417 5.72008C6.05417 5.72008 6.20309 5.55236 6.25643 5.48378C6.25643 5.48378 6.14847 5.64758 6.0627 5.7441C6.0627 5.7441 6.02814 5.83364 6.01875 5.91183C6.01022 5.99001 6.02515 5.99875 6.02515 5.99875C6.02515 5.99875 6.06228 5.84631 6.09215 5.79477C6.12116 5.7441 6.3055 5.55279 6.37633 5.48029C6.37633 5.48029 6.37079 5.51916 6.30934 5.5825C6.24789 5.64539 6.15359 5.75328 6.11817 5.81617C6.08276 5.87907 6.06868 5.97822 6.06612 6.01753C6.06228 6.05684 6.13055 5.99351 6.20309 5.89174C6.27648 5.78953 6.39127 5.6847 6.43778 5.65238C6.48429 5.61918 6.56921 5.68776 6.56921 5.68776C6.56921 5.68776 6.56067 5.72401 6.49368 5.769C6.42583 5.81399 6.41175 5.91882 6.43479 5.96075C6.45826 6.00268 6.46381 6.01491 6.49624 5.98171C6.52782 5.94939 6.61273 5.8319 6.66564 5.79564C6.71855 5.76026 6.80091 5.69475 6.86492 5.58599C6.92935 5.4781 6.9349 5.40647 7.18623 5.14528C7.18623 5.14528 7.09022 5.27107 7.01384 5.39686C7.01384 5.39686 7.22165 5.28898 7.50029 5.1479C7.77807 5.00769 8.04434 4.95921 8.24105 4.83036C8.43777 4.70151 8.49239 4.65696 8.54018 4.62333C8.58669 4.59101 8.7386 4.52811 8.7386 4.52811C8.7386 4.52811 8.83247 4.53379 8.87941 4.53379C8.92635 4.53379 8.96433 4.47089 9.0087 4.43158C9.05266 4.39271 9.34239 4.19222 9.44736 4.15335C9.55276 4.11404 9.61122 4.13806 9.78745 4.21057C9.78745 4.21057 9.62914 4.14767 9.52673 4.1717C9.52673 4.1717 9.62914 4.22236 9.69613 4.3997C9.69613 4.3997 9.63469 4.30055 9.53868 4.25556C9.53868 4.25556 9.60866 4.31845 9.6701 4.46259C9.73155 4.60673 9.94106 4.73165 10.3008 4.76397C10.3008 4.76397 10.0409 4.78581 9.81903 4.69452C9.81903 4.69452 9.95131 4.79192 10.1152 4.80808C10.279 4.82425 9.96709 4.88933 9.79769 4.77008C9.79769 4.77008 9.91418 4.91597 10.1685 4.87316C10.1685 4.87316 10.0465 4.92733 9.75587 4.94873C9.75587 4.94873 9.74008 4.97624 9.77166 5.02516C9.80324 5.07365 10.0622 5.20337 10.0622 5.20337C10.0622 5.20337 9.80878 5.13873 9.72984 5.02516C9.72984 5.02516 9.70851 5.08413 9.7132 5.17673C9.71875 5.26845 9.5502 5.34926 9.49131 5.54974C9.49131 5.54974 9.95131 5.33309 10.5171 5.35537C10.5171 5.35537 9.83524 5.39817 9.44395 5.77206C9.44395 5.77206 9.6556 5.66898 9.86127 5.6205C9.86127 5.6205 9.62914 5.72358 9.49131 5.85898C9.49131 5.85898 9.70851 6.00006 10.11 6.0813C10.11 6.0813 9.71875 6.02714 9.51308 5.92974C9.30612 5.83233 9.1956 5.76201 9.12648 5.83233C9.05863 5.90178 9.11623 5.9507 9.02663 6.01054C8.93616 6.0695 9.07399 6.0695 8.8888 6.13458C8.70361 6.20054 8.69891 6.37307 8.69891 6.37307C8.69891 6.37307 8.94683 6.2167 9.03132 6.12978C9.03132 6.12978 8.92038 6.34031 8.51884 6.51415C8.51884 6.51415 8.75097 6.45999 9.01553 6.25383C9.01553 6.25383 8.79834 6.52463 8.33365 6.66003C8.33365 6.66003 8.18558 6.84392 8.03197 6.93651C8.03197 6.93651 8.04221 6.95748 8.06098 6.99067C8.00338 7.03566 7.60355 7.34709 7.50583 7.53141C7.50583 7.53141 7.6522 7.23789 7.77509 7.14704L7.68121 7.09375C7.68121 7.09375 7.42391 7.08808 7.28907 7.30909C7.28907 7.30909 7.39446 7.07541 7.67012 7.05182C7.67012 7.05182 7.58179 6.80024 7.33003 6.67401C7.0787 6.54822 6.63876 6.45169 6.63876 6.45169C6.63876 6.45169 7.02536 6.56612 7.18367 6.69192C7.18367 6.69192 6.91996 6.5421 6.52782 6.44601C6.52782 6.44601 6.4924 6.36783 6.38145 6.34948C6.26966 6.33245 6.16981 6.37438 6.16981 6.37438C6.16981 6.37438 6.35713 6.24858 6.53891 6.3984C6.53891 6.3984 6.60334 6.40408 6.65626 6.42242C6.65626 6.42242 6.6618 6.34424 6.64431 6.27261C6.62767 6.2001 6.56238 6.03806 6.37505 6.07999C6.18773 6.12192 5.94194 6.22413 5.71365 6.22413C5.49945 6.22413 5.35735 6.27217 5.17003 6.44164C5.23787 6.3853 5.4013 6.28003 5.67269 6.2844C5.67269 6.2844 5.25067 6.31498 5.00489 6.63819C5.00489 6.63819 4.93491 6.77665 5.01684 6.82994C5.09877 6.8841 5.35052 6.82994 5.55535 6.82426C5.76017 6.81858 5.89543 6.88454 6.06484 6.87842C6.06484 6.87842 5.98291 6.6858 6.1058 6.53031C6.1058 6.53031 6.05289 6.80592 6.1233 6.86575C6.1233 6.86575 6.15871 6.86008 6.2927 6.87798C6.42797 6.89502 6.55086 6.88934 6.65028 7.01513C6.75013 7.14093 7.03688 7.50695 7.17087 7.64453C7.30613 7.78299 7.42903 7.91446 7.55747 7.94504C7.68591 7.97474 7.72687 7.95639 7.84421 7.99265C7.96156 8.0289 7.98503 7.9743 8.09 7.90311C8.1954 7.8306 8.40662 7.75242 8.5709 7.59125C8.5709 7.59125 8.50092 7.68865 8.32512 7.80308C8.32512 7.80308 8.62424 7.65065 8.77871 7.54364C8.79066 7.54669 8.8009 7.54757 8.80943 7.54757C8.88283 7.54757 9.05266 7.45628 9.05266 7.45628C9.05266 7.45628 8.74073 7.48293 8.5709 7.40168C8.5709 7.40168 9.04241 7.43968 9.56599 7.28812C9.56599 7.28812 9.25876 7.44449 9.07868 7.49865L9.12136 7.52529C9.12136 7.52529 9.37482 7.44405 9.53313 7.37373C9.69229 7.30428 9.68675 7.33093 9.89285 7.27633C10.0972 7.2226 10.2701 7.2178 10.5752 7.41653C10.582 7.42047 10.5858 7.42309 10.5858 7.42309C10.582 7.4209 10.579 7.41872 10.5752 7.41653C10.5363 7.39251 10.3938 7.31127 10.2632 7.32525C10.2632 7.32525 10.6916 7.75329 10.9238 7.85069C10.9238 7.85069 10.5436 7.69913 10.2001 7.37373C10.2001 7.37373 10.3955 7.57378 10.544 7.72577C10.6925 7.87777 10.7181 7.95377 10.8244 8.06734C10.9298 8.1809 11.0565 8.2735 11.0565 8.2735L11.2186 8.28223C11.3172 8.34251 11.4405 8.39754 11.5289 8.47179C11.6675 8.58929 11.7273 8.70067 11.7273 8.76182C11.7273 8.82297 11.7273 8.93434 11.7422 9.12303C11.7571 9.31085 11.7823 9.67687 11.8467 9.82013C11.9112 9.96209 12.0405 10.1805 12.1002 10.522C12.16 10.8623 12.209 11.1829 12.209 11.1829C12.3191 11.2593 12.4429 11.2039 12.4429 11.2039C12.3281 11.3047 12.1894 11.1829 12.1941 11.2344C12.1996 11.2851 12.2043 11.331 12.224 11.4633C12.2444 11.5948 12.2939 11.7276 12.4083 11.7778C12.5231 11.8293 12.6123 11.8084 12.806 11.6664C12.9997 11.5244 13.0987 11.5188 13.3816 11.3965C13.6658 11.2746 13.8839 11.0514 13.9432 10.9798C14.0029 10.9082 13.9935 10.8225 13.9935 10.8225C13.6795 11.2239 13.3471 11.3262 13.3471 11.3262L13.3479 11.3205ZM8.90416 4.40843L8.85765 4.34641C9.13885 4.10531 9.28692 4.07167 9.53868 4.04809C9.16232 4.14462 8.90416 4.40843 8.90416 4.40843ZM10.2999 2.30271C10.3588 2.30752 10.436 2.33504 10.3644 2.44773C10.3989 2.38963 10.3652 2.32193 10.2999 2.30271ZM10.0102 3.8725C10.0102 3.8725 10.6242 3.70478 10.8141 3.21733C10.8141 3.21733 10.64 3.38506 10.1796 3.23917C10.1796 3.23917 10.486 3.33177 10.7983 3.15793C10.5961 3.2265 10.4156 3.2169 10.2684 3.08455C10.3951 3.14352 10.5461 3.16929 10.5461 3.16929C10.7612 3.11949 10.9233 3.02253 10.9233 3.02253C10.9233 3.01772 10.9233 3.01292 10.9242 3.00811C10.9511 2.98409 10.9728 2.95002 10.9784 2.89848C10.9784 2.89848 11.132 3.23393 10.698 3.52002C10.698 3.52002 11.1367 3.38462 11.1538 3.01161C11.1538 3.01161 11.1853 3.23873 11.0633 3.4663C10.9413 3.69342 10.0106 3.87163 10.0106 3.87163L10.0102 3.8725Z" fill="#010202"/>
<path fill-rule="evenodd" clip-rule="evenodd" d="M10.5029 14C10.1909 14 9.89608 13.8777 9.67163 13.6554C7.818 11.8209 6.34458 9.67719 5.29274 7.28494C5.2138 7.10543 5.23769 6.89621 5.35461 6.74028C5.45446 6.60706 5.6085 6.53062 5.76937 6.53062C5.79711 6.53062 5.82442 6.53281 5.85215 6.53761C5.87093 6.54067 5.88971 6.54416 5.90891 6.54722C5.95371 6.55508 5.99638 6.56251 6.02881 6.56469C6.04119 6.56207 6.05356 6.55989 6.06594 6.5577L6.07234 6.55683C6.09197 6.55421 6.11159 6.55246 6.13165 6.55159C6.13848 6.55159 6.14488 6.55159 6.15213 6.55159C6.21827 6.55159 6.28142 6.56033 6.32324 6.56644L6.32836 6.56731H6.33391C6.345 6.56862 6.35653 6.56993 6.36847 6.57081C6.55068 6.59046 6.70984 6.70665 6.7875 6.87655C7.70663 8.89404 8.95561 10.718 10.5029 12.3027C10.8852 11.9104 11.2517 11.5012 11.5965 11.0823C11.6972 10.9596 11.8444 10.8919 11.9963 10.8919C12.045 10.8919 12.0936 10.8989 12.1419 10.9128C12.3403 10.9718 12.4862 11.1448 12.5144 11.3544L12.5156 11.3632C12.5174 11.3754 12.5186 11.3876 12.5208 11.4003C12.5212 11.4029 12.5216 11.406 12.522 11.4086C12.5306 11.4636 12.5438 11.4942 12.5498 11.5042C12.6573 11.5947 12.7256 11.7257 12.7384 11.8676C12.7516 12.0122 12.7068 12.1564 12.6142 12.2664C12.2101 12.7478 11.7791 13.2151 11.3337 13.6554C11.1101 13.8773 10.8148 13.9996 10.5029 13.9996V14Z" fill="#010202"/>
<path fill-rule="evenodd" clip-rule="evenodd" d="M12.0064 11.4909C12.0025 11.469 12 11.4472 11.997 11.4262C11.5703 11.9451 11.1167 12.4426 10.6379 12.9174C10.5632 12.9916 10.4442 12.9916 10.3695 12.9174C8.67503 11.2393 7.30103 9.26721 6.31448 7.10165C6.29698 7.0999 6.27906 7.09859 6.26498 7.09685C6.23042 7.09204 6.1822 7.08462 6.14678 7.08549L6.14038 7.08636C6.11905 7.09291 6.09643 7.09772 6.07339 7.09859C5.96799 7.10252 5.86942 7.08068 5.77042 7.06409C6.78855 9.38033 8.23552 11.4878 10.0362 13.2699C10.297 13.5284 10.7109 13.5284 10.9716 13.2699C11.4085 12.8379 11.825 12.3858 12.2189 11.9167C12.0938 11.8145 12.0315 11.6546 12.0064 11.4904V11.4909Z" fill="#010202"/>
<path fill-rule="evenodd" clip-rule="evenodd" d="M5.35645 6.58662C5.14651 6.58662 4.94852 6.45602 4.86873 6.24375C4.5248 5.33044 4.24274 4.38132 4.03067 3.42346C3.91503 2.89758 4.13222 2.37912 4.58411 2.10264C6.21798 1.10678 8.19194 0.552503 10.4518 0.454664C10.4689 0.453791 10.4859 0.453354 10.5034 0.453354C10.5209 0.453354 10.538 0.453354 10.5555 0.454664C11.545 0.498342 12.4863 0.628939 13.3526 0.842962C13.5813 0.899306 13.7447 1.10503 13.7524 1.3457C13.7601 1.58636 13.6094 1.80257 13.385 1.87376C13.3227 1.89342 13.2681 1.91526 13.2181 1.93928C13.2156 1.94059 13.2126 1.9419 13.21 1.94321C13.1972 1.94933 13.1797 1.95937 13.1678 1.96636C13.1661 1.96723 13.1644 1.96811 13.1631 1.96898C13.1076 2.0013 13.0569 2.03668 13.0035 2.07992C12.9788 2.10089 12.9532 2.12229 12.9288 2.14238C12.8354 2.21882 12.7198 2.25988 12.602 2.25988C12.5687 2.25988 12.535 2.25638 12.5017 2.24983C12.0071 2.15068 11.4823 2.08036 10.9429 2.04105C10.756 2.02751 10.5905 1.9122 10.5094 1.73923C10.4706 1.65712 10.4441 1.65319 10.3874 1.65232H10.3814C10.2832 1.65232 10.2393 1.69163 10.2145 1.72307C10.2047 1.73661 10.1962 1.75059 10.1911 1.76151C10.1121 1.93273 9.95126 2.04847 9.76735 2.06595C8.1753 2.21838 6.76673 2.64031 5.57536 3.32038C5.76225 4.11838 6.00292 4.90938 6.29095 5.67462C6.32252 5.75848 6.33319 5.84933 6.32124 5.93844C6.32124 5.94237 6.32039 5.94586 6.31996 5.94979C6.33959 6.23807 6.13221 6.49053 5.85058 6.51936C5.80194 6.52416 5.75799 6.52678 5.71574 6.52678C5.6176 6.52678 5.56981 6.54076 5.5425 6.55168C5.48191 6.57526 5.41961 6.58618 5.35816 6.58618L5.35645 6.58662Z" fill="#010202"/>
<path fill-rule="evenodd" clip-rule="evenodd" d="M5.71452 5.99079C5.7414 5.99079 5.76956 5.98904 5.7973 5.98598C5.79431 5.95148 5.79559 5.91653 5.80029 5.88203C5.80029 5.87635 5.80114 5.87155 5.80199 5.86587C5.47599 5.00017 5.21057 4.10739 5.00917 3.19496C4.99039 3.11022 5.02496 3.02723 5.09878 2.98225C6.51119 2.12135 8.09556 1.68719 9.71748 1.5317C9.74095 1.48103 9.77039 1.43342 9.8024 1.39149C9.94876 1.2028 10.1621 1.11195 10.3947 1.11588C10.6908 1.12069 10.8743 1.28186 10.9797 1.50593C11.5254 1.54611 12.0678 1.61643 12.6016 1.72345C12.6251 1.70423 12.649 1.68414 12.6724 1.66448C12.7471 1.60333 12.8214 1.55092 12.9054 1.50244C12.9344 1.4854 12.963 1.46924 12.9938 1.45483C13.0701 1.4177 13.1495 1.38713 13.2306 1.36136C12.3503 1.14384 11.4439 1.02766 10.5316 0.987472C10.5129 0.986598 10.4945 0.986598 10.4757 0.987472C8.50563 1.07221 6.5594 1.51947 4.85299 2.55988C4.59782 2.71625 4.47578 3.00714 4.54107 3.30372C4.74888 4.24192 5.02197 5.15916 5.35694 6.04975C5.46319 6.00869 5.57755 5.99079 5.71452 5.99079Z" fill="#010202"/>
<path fill-rule="evenodd" clip-rule="evenodd" d="M13.0627 11.1201C12.8921 11.1201 12.7325 11.0349 12.6348 10.8917C12.6305 10.8855 12.6194 10.8729 12.604 10.8572C12.4765 10.7956 12.3775 10.6829 12.3318 10.544C12.3177 10.5012 12.3083 10.4597 12.3032 10.4169C12.2866 10.2815 12.3207 10.1452 12.3992 10.0347C13.8453 8.00236 14.8656 5.74421 15.4335 3.32008C14.8861 3.00691 14.2891 2.74702 13.6559 2.54567C13.4818 2.4902 13.3486 2.3465 13.3043 2.16567C13.2599 1.98484 13.3107 1.79353 13.4383 1.66032L13.4455 1.65289C13.5018 1.59436 13.5714 1.52142 13.658 1.45503C13.7203 1.40655 13.7826 1.36549 13.8381 1.3288C13.8615 1.31351 13.8846 1.29822 13.9072 1.2825C13.9081 1.28206 13.9853 1.22921 13.9853 1.22921C14.0723 1.16981 14.173 1.13924 14.275 1.13924C14.3322 1.13924 14.3894 1.14885 14.4449 1.1685C15.1442 1.41484 15.8095 1.72845 16.4218 2.10146C16.875 2.37882 17.0922 2.89728 16.9765 3.42229C16.38 6.11765 15.2714 8.62696 13.6819 10.8812C13.594 11.0057 13.4583 11.0856 13.309 11.1004C13.271 11.1044 13.2334 11.1074 13.1972 11.1105C13.1694 11.1127 13.1425 11.1153 13.1174 11.1175C13.1007 11.1192 13.0841 11.1201 13.067 11.1201H13.0623H13.0627Z" fill="#010202"/>
<path fill-rule="evenodd" clip-rule="evenodd" d="M16.1543 2.55938C15.5543 2.19423 14.9245 1.90159 14.2742 1.67271C14.249 1.68975 14.2239 1.70722 14.1987 1.72425C14.124 1.77579 14.0421 1.82515 13.9712 1.88062C13.9136 1.9243 13.8603 1.98064 13.81 2.03306C14.5383 2.26499 15.2428 2.57554 15.9077 2.98174C15.981 3.02673 16.0156 3.10972 15.9973 3.19446C15.4242 5.78806 14.3361 8.21786 12.8208 10.348C12.8217 10.3559 12.8238 10.3633 12.8264 10.3721C12.8571 10.3808 12.887 10.397 12.913 10.4197C12.9612 10.4638 13.0231 10.5267 13.0619 10.5839H13.0666C13.1242 10.5782 13.1904 10.5734 13.2578 10.5669C14.7854 8.40044 15.8838 5.93438 16.4662 3.30365C16.5315 3.00708 16.4095 2.71618 16.1543 2.55981V2.55938Z" fill="#010202"/>
<path fill-rule="evenodd" clip-rule="evenodd" d="M12.672 10.1119C12.6254 10.1119 12.5781 10.1053 12.5316 10.0922C12.3165 10.0306 12.1629 9.83626 12.1501 9.60782V9.59822C12.1441 9.50475 12.139 9.4104 12.133 9.3178C12.1317 9.30121 12.1305 9.28417 12.1296 9.2667C12.1258 9.21123 12.1211 9.14222 12.1138 9.10596C12.1002 9.03652 12.0861 8.96052 12.072 8.88102C12.0545 8.81856 12.0481 8.75348 12.0537 8.68884C12.063 8.57528 12.0656 8.49229 12.0656 8.43158C11.9948 8.40581 11.9286 8.36388 11.8723 8.30666L11.8582 8.29224C11.7434 8.17519 11.6888 8.01096 11.7084 7.84847C11.6679 7.78689 11.641 7.71788 11.6282 7.64625C11.5753 7.59514 11.5339 7.53356 11.5058 7.46586C11.4913 7.46498 11.4264 7.46192 11.408 7.46105C11.2792 7.45494 11.1448 7.45101 11.015 7.44751H11.0112C10.8512 7.44314 10.7048 7.36409 10.6105 7.23786C10.5094 7.20816 10.4181 7.14701 10.3507 7.06227C10.2086 6.91944 10.1561 6.70236 10.2239 6.50407C10.2939 6.29965 10.4757 6.16163 10.6814 6.14722C10.6959 6.06685 10.7287 5.98998 10.7786 5.92271C10.7936 5.90262 10.8094 5.88122 10.82 5.86506C10.8213 5.86287 10.823 5.86069 10.8247 5.8585C10.8853 5.76984 10.9331 5.68248 10.966 5.6008C10.9489 5.49685 10.9617 5.38766 11.0065 5.28763C11.0419 5.20901 11.068 5.13345 11.085 5.06182C11.0808 5.04522 11.0773 5.02819 11.0744 5.01159C11.015 4.88055 11.0082 4.72724 11.0633 4.5866C11.1175 4.44858 11.1563 4.3158 11.1793 4.19263C11.1819 4.17909 11.184 4.16686 11.1857 4.15594C11.1495 4.05373 11.1439 3.94104 11.1729 3.83272C11.1921 3.76021 11.2109 3.67941 11.2318 3.57764C11.2459 3.50732 11.26 3.43743 11.2689 3.37366C11.2796 3.29766 11.3065 3.22472 11.347 3.16008C11.3492 3.15658 11.3581 3.13868 11.3688 3.10985C11.4085 2.99978 11.4823 2.90631 11.5792 2.84385C11.583 2.84123 11.5894 2.83599 11.5928 2.83249C11.6248 2.79973 11.6598 2.76741 11.7063 2.7281C11.7703 2.67394 11.8458 2.63638 11.9256 2.61803C11.9572 2.58921 11.9922 2.56475 12.0302 2.54465C12.1181 2.4787 12.2086 2.42192 12.2879 2.37387C12.3686 2.32408 12.4633 2.25245 12.5546 2.17164C12.6186 2.11486 12.695 2.07512 12.7769 2.05546C12.8234 2.04192 12.8712 2.02008 12.9224 1.98863C13.0039 1.93884 13.0965 1.91307 13.19 1.91307C13.2339 1.91307 13.2783 1.91875 13.3218 1.93054C14.1586 2.15374 14.9416 2.4704 15.6487 2.8718C15.8544 2.98842 15.9585 3.23127 15.903 3.46539C15.3607 5.7611 14.4189 7.91967 13.1038 9.88125C13.0048 10.0293 12.8422 10.1136 12.6728 10.1136L12.672 10.1119Z" fill="#010202"/>
<path fill-rule="evenodd" clip-rule="evenodd" d="M12.581 8.7602C12.5951 8.84013 12.61 8.92138 12.6258 9.00131C12.6424 9.08692 12.6471 9.19218 12.6539 9.27953C12.6603 9.37781 12.6659 9.47783 12.6714 9.57698C13.9354 7.69097 14.8634 5.58045 15.3934 3.33802C14.6949 2.94142 13.9533 2.65052 13.1886 2.44655C13.1011 2.49984 13.009 2.54264 12.91 2.57059C12.9053 2.57234 12.8997 2.57365 12.895 2.57453C12.7905 2.66712 12.6706 2.76059 12.5541 2.83179C12.4722 2.88158 12.3847 2.93662 12.3092 2.99689C12.2972 3.0065 12.284 3.01305 12.2699 3.01786C12.2588 3.04363 12.2392 3.06372 12.214 3.07682C12.1739 3.09691 12.1244 3.1205 12.0817 3.13404C12.0668 3.13797 12.0527 3.13972 12.0378 3.13884C12.0109 3.16156 11.9836 3.18558 11.9605 3.2096C11.9315 3.2393 11.8953 3.26988 11.8573 3.29434C11.8385 3.34588 11.8133 3.4031 11.7847 3.44896C11.7736 3.52802 11.7579 3.60838 11.7421 3.68657C11.7224 3.78178 11.7011 3.87831 11.6759 3.97266C11.7003 3.99537 11.716 4.029 11.7169 4.06526C11.7177 4.13601 11.7049 4.22162 11.6917 4.29107C11.661 4.45792 11.6098 4.62564 11.5475 4.78507C11.5859 4.81564 11.6042 4.86718 11.5914 4.91785L11.5897 4.9244C11.6132 4.95017 11.6252 4.98642 11.6213 5.02442C11.6017 5.19127 11.5505 5.3555 11.4805 5.51056C11.5065 5.54113 11.5168 5.58307 11.5065 5.625C11.4592 5.81762 11.3632 6.00237 11.2522 6.16486C11.2347 6.1915 11.2151 6.21814 11.1946 6.2461C11.2373 6.24916 11.2804 6.2509 11.3222 6.25265C11.3819 6.2544 11.4301 6.29851 11.4404 6.35835C11.4506 6.42037 11.4579 6.48895 11.4579 6.55184V6.63876C11.4579 6.69292 11.4263 6.73879 11.3777 6.758C11.3282 6.77722 11.2752 6.76281 11.2407 6.7235C11.2219 6.70253 11.1818 6.67371 11.1541 6.67371C11.1114 6.67371 11.0666 6.67764 11.0248 6.68026C10.9586 6.68419 10.8933 6.68681 10.8272 6.68594C10.7909 6.68506 10.7538 6.68419 10.7163 6.68026C10.732 6.69074 10.7453 6.70603 10.7547 6.72306C10.8089 6.7152 10.8626 6.7069 10.9151 6.69729C10.974 6.68681 11.0299 6.71826 11.0521 6.77373C11.0717 6.82221 11.0606 6.87593 11.0252 6.91219C11.1613 6.91612 11.2983 6.91961 11.434 6.9266C11.486 6.92966 11.5385 6.93141 11.5914 6.93534C11.623 6.93839 11.664 6.94101 11.6947 6.94975C11.7963 6.97858 11.9004 7.08428 11.9623 7.16989C11.9819 7.19566 11.9891 7.22711 11.9866 7.25768C12.0574 7.30048 12.1227 7.36163 12.1513 7.43501C12.1679 7.47432 12.1624 7.51713 12.1419 7.55032C12.1688 7.57041 12.1905 7.59225 12.2033 7.61497C12.2127 7.63287 12.2247 7.64947 12.2388 7.66432C12.2545 7.67786 12.2695 7.69097 12.2827 7.70625C12.3245 7.75386 12.3254 7.82549 12.2844 7.87398C12.2686 7.8932 12.2481 7.9063 12.2268 7.91329L12.2409 7.9277C12.2827 7.89538 12.3407 7.89232 12.3851 7.92377C12.4897 7.9954 12.5622 8.1308 12.578 8.25747C12.5955 8.4003 12.5865 8.58549 12.5742 8.73312C12.578 8.74186 12.5806 8.75016 12.5814 8.75977L12.581 8.7602Z" fill="#010202"/>
<path fill-rule="evenodd" clip-rule="evenodd" d="M11.2249 12.0017C11.1204 12.0017 11.0154 11.9698 10.9245 11.9043C10.7073 11.7475 10.6395 11.4492 10.7666 11.2103C10.7927 11.1614 10.8059 11.1094 10.8059 11.0557C10.8059 10.9224 10.7252 10.8084 10.6113 10.7617C10.5733 10.7984 10.5302 10.8285 10.4837 10.8521C10.4103 10.8901 10.3293 10.9098 10.2478 10.9098C10.2396 10.9098 10.2311 10.9098 10.223 10.9093C10.2 10.9539 10.1872 11.0041 10.1872 11.0557C10.1872 11.1037 10.1978 11.15 10.2183 11.1928C10.3348 11.433 10.2593 11.7244 10.0417 11.8742C9.95247 11.9353 9.85092 11.9655 9.75021 11.9655C9.60471 11.9655 9.46133 11.9034 9.3585 11.7851C8.42229 10.7023 7.60387 9.51514 6.92582 8.25677C6.81147 8.0445 6.85072 7.78024 7.02183 7.61252C7.12168 7.51425 7.25226 7.46358 7.38368 7.46358C7.47713 7.46358 7.57101 7.48891 7.65464 7.54133C7.65592 7.5422 7.6572 7.54307 7.65848 7.54351C7.68025 7.54831 7.70585 7.55137 7.75108 7.5553C7.7865 7.5588 7.81978 7.5636 7.85178 7.56928C7.8569 7.56579 7.86245 7.56185 7.86757 7.55792C7.86971 7.55661 7.87184 7.55487 7.87397 7.55356C7.93329 7.51425 7.99089 7.48367 8.0421 7.45659L8.06002 7.44698C8.11165 7.41946 8.16712 7.40112 8.22387 7.39238C8.29172 7.35657 8.35359 7.32163 8.41248 7.28756C8.41333 7.28712 8.41461 7.28625 8.41547 7.28581C8.45771 7.26179 8.49484 7.23907 8.52556 7.21855C8.5981 7.1705 8.68131 7.14167 8.76708 7.13468C8.77518 7.13163 8.78884 7.12638 8.80804 7.11765C8.87631 7.0862 8.94885 7.07091 9.02139 7.07091C9.06108 7.07091 9.10034 7.07528 9.13874 7.08445C9.21939 7.0565 9.30132 7.02593 9.37514 6.99317C9.43573 6.96652 9.50827 6.93595 9.59788 6.91629C9.62732 6.90974 9.65719 6.90363 9.68663 6.89795C9.7276 6.88965 9.76302 6.88266 9.79673 6.87393C9.79758 6.87393 9.79843 6.87349 9.79971 6.87305C9.85433 6.85951 9.92004 6.84422 9.99387 6.83636C9.99984 6.83549 10.0058 6.83505 10.0122 6.83462L10.0374 6.83287C10.0502 6.83199 10.063 6.83156 10.0758 6.83156C10.2098 6.83156 10.3395 6.88441 10.4372 6.98006C10.4888 7.03073 10.529 7.09057 10.5563 7.15609L10.8255 7.43169C10.9181 7.52648 10.9855 7.61558 11.047 7.69857C11.0713 7.73133 11.0931 7.75797 11.1144 7.78199C11.1396 7.80907 11.1703 7.8379 11.2019 7.86585H11.2074C11.2876 7.87022 11.3662 7.89337 11.4361 7.93312C11.4549 7.9436 11.4745 7.95452 11.4942 7.965C11.5782 8.01086 11.6828 8.06765 11.7801 8.14932C11.9188 8.26507 12.0899 8.45245 12.1206 8.687C12.1236 8.71015 12.1253 8.73374 12.1253 8.75732C12.1253 8.85647 12.1295 8.96392 12.1385 9.08447C12.1402 9.10413 12.1415 9.12509 12.1432 9.14737C12.1517 9.25875 12.1739 9.55314 12.2081 9.64355C12.2221 9.67412 12.2366 9.70382 12.2512 9.73396C12.2793 9.79205 12.3113 9.85757 12.3408 9.92833C12.3408 9.9292 12.3416 9.93008 12.3416 9.93095C12.4082 10.0926 12.4577 10.2594 12.4884 10.4271C12.5204 10.5783 12.488 10.7416 12.3886 10.8709C12.1368 11.1989 11.8761 11.5186 11.6137 11.8209C11.5112 11.9393 11.3674 12.0004 11.2228 12.0004L11.2249 12.0017Z" fill="#010202"/>
<path fill-rule="evenodd" clip-rule="evenodd" d="M11.9806 10.5411C11.9806 10.5411 11.9797 10.538 11.9797 10.5371C11.9554 10.4 11.9166 10.2681 11.8633 10.1397C11.824 10.0462 11.7775 9.95839 11.7357 9.8671C11.6563 9.69152 11.6358 9.32637 11.62 9.1272C11.6106 9.00228 11.6051 8.88042 11.6051 8.75812C11.5978 8.7009 11.4916 8.59695 11.4515 8.56375C11.3759 8.49998 11.2727 8.45106 11.1839 8.40083L11.0517 8.39428C11.0273 8.39253 11.0068 8.38554 10.9872 8.37157C10.9006 8.30867 10.8084 8.22743 10.7359 8.14925C10.6988 8.10819 10.6651 8.06626 10.6326 8.02258C10.5759 7.94527 10.5255 7.87975 10.4585 7.81074L10.1146 7.4587C10.0894 7.43293 10.0775 7.40061 10.0783 7.36697L10.0532 7.36872C10.0105 7.37353 9.96824 7.38313 9.92642 7.39362C9.85174 7.41284 9.78304 7.42419 9.70922 7.44035C9.66527 7.44996 9.62559 7.467 9.5842 7.48534C9.45021 7.54431 9.30001 7.59585 9.15962 7.64171C9.1242 7.65219 9.08879 7.64826 9.05721 7.6273L9.0235 7.60633C8.95267 7.63865 8.87159 7.66835 8.811 7.66835C8.7662 7.69805 8.71883 7.72644 8.67232 7.75309C8.57716 7.80856 8.4803 7.86097 8.38258 7.9112C8.35655 7.92343 8.32839 7.92736 8.30236 7.92169C8.25372 7.94746 8.20379 7.97322 8.16069 8.00162C8.1065 8.03874 8.05999 8.08635 7.99769 8.1095C7.93539 8.13221 7.87267 8.12784 7.81037 8.10775C7.7741 8.09727 7.74124 8.09159 7.70326 8.08766C7.64352 8.08198 7.59061 8.0763 7.53172 8.06189C7.48052 8.05053 7.43187 8.02739 7.38451 7.99812C8.04506 9.2246 8.83874 10.3755 9.75061 11.4299C9.69557 11.3163 9.66485 11.1897 9.66485 11.0551C9.66485 10.7529 9.82145 10.4755 10.0736 10.3218C10.1287 10.2886 10.1987 10.3026 10.2366 10.355C10.2413 10.3607 10.2452 10.3672 10.2477 10.3742L10.2516 10.3711H10.2533C10.2516 10.3646 10.2503 10.3589 10.2503 10.3519C10.2447 10.286 10.2887 10.227 10.3518 10.2165C10.3992 10.2078 10.4479 10.203 10.4961 10.203C10.9552 10.203 11.3282 10.5843 11.3282 11.0547C11.3282 11.2036 11.2898 11.3434 11.2249 11.4657C11.4856 11.1652 11.7374 10.8564 11.9793 10.5406L11.9806 10.5411Z" fill="#010202"/>
<path fill-rule="evenodd" clip-rule="evenodd" d="M7.81552 7.55486C7.72378 7.55486 7.63118 7.52997 7.54883 7.47974L7.51896 7.46139C7.41612 7.39893 7.33718 7.30197 7.29579 7.18709C7.2928 7.1801 7.28213 7.15958 7.26592 7.13599C7.26549 7.13512 7.26506 7.13468 7.26464 7.13381C7.23477 7.08969 7.19679 7.05519 7.15412 7.03378C7.10676 7.0102 7.04787 6.98661 6.96935 6.95997C6.9685 6.95997 6.96765 6.95953 6.96679 6.95909C6.86951 6.92546 6.7624 6.89401 6.657 6.86781C6.43682 6.81277 6.27638 6.61841 6.25974 6.38691C6.25974 6.38604 6.25974 6.3856 6.25974 6.38473C6.17696 6.29825 6.1249 6.18468 6.11295 6.06282C6.09929 5.92043 6.14154 5.77848 6.23115 5.66841L6.27467 5.61512C6.27766 5.61119 6.28107 5.6077 6.28406 5.60377L6.28705 5.60027C6.32716 5.55354 6.37538 5.49981 6.44024 5.45439C6.44194 5.45308 6.44408 5.45177 6.44578 5.45046C6.47949 5.42731 6.50638 5.39979 6.52515 5.36834C6.526 5.36703 6.52643 5.36616 6.52728 5.36485C6.53155 5.35742 6.53496 5.35131 6.53752 5.3465C6.53966 5.3417 6.54222 5.33689 6.54478 5.33209C6.55758 5.30763 6.5738 5.27705 6.59214 5.24517C6.65359 5.13728 6.75003 5.05561 6.8631 5.01324C7.03507 4.92501 7.18655 4.8477 7.32523 4.77738C7.46988 4.704 7.60814 4.65377 7.74213 4.60529L7.76986 4.59524C7.85862 4.56248 7.96103 4.52492 8.02631 4.48211C8.09373 4.438 8.15817 4.39563 8.21791 4.35283C8.23028 4.34409 8.24223 4.33536 8.25418 4.32662C8.27381 4.31221 8.29301 4.29823 8.31264 4.28425C8.36853 4.24407 8.42443 4.21874 8.45814 4.20345L8.46497 4.20039C8.49399 4.18685 8.52386 4.17331 8.56141 4.15759C8.62157 4.13182 8.68601 4.11828 8.75129 4.11697C8.75343 4.11522 8.75556 4.11303 8.75769 4.11129C8.7914 4.08202 8.82383 4.05931 8.84773 4.04228C8.84773 4.04228 8.8648 4.03005 8.86693 4.02874C8.90832 3.99991 8.96294 3.96191 9.0214 3.92435L9.02609 3.92129C9.06322 3.89727 9.11869 3.86058 9.17715 3.82825C9.25438 3.78545 9.34015 3.76361 9.42592 3.76361C9.48651 3.76361 9.54753 3.77453 9.60599 3.79637C9.71139 3.83612 9.80057 3.90906 9.86159 4.00297C9.94011 4.09382 9.99515 4.19908 10.0272 4.26984C10.1483 4.37117 10.22 4.52405 10.22 4.68478V4.69352C10.22 4.71929 10.2183 4.74506 10.2145 4.77039C10.2217 4.83241 10.2179 4.89618 10.2034 4.95777C10.1867 5.0294 10.1556 5.09579 10.1133 5.15344C10.1155 5.25609 10.0886 5.35786 10.0357 5.44521C10.0041 5.49763 9.96699 5.54174 9.92517 5.58891C9.92688 5.61075 9.9273 5.63259 9.92645 5.65443C9.92048 5.80119 9.85604 5.93878 9.74851 6.0353C9.74851 6.0353 9.74339 6.04011 9.74211 6.04098C9.64824 6.15804 9.51041 6.22749 9.36575 6.23535C9.35039 6.25413 9.33375 6.27204 9.31626 6.28864C9.2595 6.37905 9.17672 6.45024 9.07815 6.49218C9.03847 6.62932 8.94587 6.74595 8.81999 6.81365C8.75897 6.89969 8.67321 6.96739 8.5708 7.00452C8.56695 7.00583 8.56311 7.00714 8.55927 7.00845C8.51148 7.05999 8.44961 7.12114 8.3792 7.17879C8.34592 7.24781 8.29855 7.30939 8.23796 7.35918C8.21791 7.37535 8.14366 7.43649 8.14366 7.43649C8.04893 7.51424 7.93329 7.55355 7.81723 7.55355L7.81552 7.55486Z" fill="#010202"/>
<path fill-rule="evenodd" clip-rule="evenodd" d="M9.69748 4.68514C9.63774 4.63753 9.58953 4.57944 9.5588 4.50781C9.53832 4.45932 9.49736 4.38201 9.45895 4.34576C9.44402 4.33222 9.43292 4.31606 9.42652 4.29903C9.38172 4.32392 9.33435 4.35537 9.30064 4.37721C9.25413 4.40691 9.20847 4.43836 9.16367 4.46981C9.14148 4.48597 9.11246 4.50519 9.09198 4.52309C9.08345 4.52965 9.07619 4.53838 9.06851 4.54712C9.01645 4.60434 8.96397 4.65588 8.88119 4.65588C8.84193 4.65588 8.80097 4.65413 8.76214 4.65194C8.73525 4.6633 8.70922 4.67466 8.68277 4.68732C8.66229 4.69693 8.63071 4.71004 8.61193 4.72358C8.58121 4.74542 8.55049 4.76856 8.51891 4.79128C8.45106 4.83976 8.38023 4.8865 8.31025 4.93236C8.1976 5.00661 8.07001 5.05422 7.94499 5.10008C7.81356 5.14769 7.68341 5.19355 7.55754 5.25732C7.39539 5.33944 7.23324 5.42242 7.07237 5.50541C7.06298 5.51022 7.05359 5.51415 7.0442 5.5159C7.03098 5.53861 7.01903 5.56176 7.0058 5.58665C6.99556 5.60762 6.98446 5.62771 6.97209 5.6478C6.91235 5.74783 6.83128 5.83169 6.73655 5.89677C6.71862 5.909 6.69089 5.94263 6.67681 5.95879C6.66273 5.97583 6.64779 5.99417 6.63414 6.0112C6.69729 6.06362 6.74295 6.1418 6.76642 6.23527C6.77367 6.26978 6.77964 6.30952 6.7822 6.34883C6.9004 6.37854 7.02073 6.41392 7.13424 6.45279C7.21915 6.48162 7.30492 6.51394 7.38472 6.55368C7.5106 6.61658 7.61685 6.71311 7.69579 6.83017C7.73035 6.88083 7.76662 6.9446 7.78711 7.00182L7.81697 7.02017C7.8494 6.99352 7.88141 6.96775 7.91 6.94373C7.90445 6.89525 7.92664 6.84633 7.97059 6.82056C8.06489 6.76421 8.16986 6.65851 8.23899 6.57378C8.25563 6.55281 8.27526 6.53927 8.30129 6.53185C8.33287 6.52224 8.36444 6.51263 8.39645 6.50127C8.39815 6.45366 8.42632 6.41086 8.47197 6.39077C8.50739 6.37548 8.54281 6.35932 8.57737 6.34141C8.58206 6.29861 8.597 6.25274 8.61449 6.21649C8.66186 6.11559 8.74677 6.04571 8.85004 6.00946L8.87692 5.99985C8.88887 5.95792 8.91874 5.92559 8.9597 5.89764L8.96354 5.89458C8.97762 5.82776 8.98872 5.78757 9.03992 5.73516C9.06041 5.71419 9.08473 5.69803 9.11246 5.68668C9.18714 5.65523 9.26523 5.67314 9.33777 5.70196C9.34331 5.69148 9.35185 5.68187 9.35996 5.67314C9.37489 5.65872 9.38897 5.64649 9.40391 5.63295C9.37233 5.59976 9.35996 5.55302 9.37318 5.50716C9.40135 5.41282 9.44871 5.33551 9.51016 5.26125C9.52595 5.24203 9.57544 5.18962 9.59038 5.16472C9.58867 5.10445 9.59422 5.03238 9.61385 4.97604C9.61769 4.96468 9.62324 4.9542 9.62964 4.94459C9.63134 4.92187 9.63817 4.89873 9.65012 4.87863C9.66207 4.85854 9.677 4.84325 9.69492 4.83277C9.66804 4.78997 9.66889 4.73537 9.69663 4.69344V4.6847L9.69748 4.68514Z" fill="#010202"/>
<path fill-rule="evenodd" clip-rule="evenodd" d="M6.19457 5.84809C6.16512 5.84809 6.13568 5.84547 6.10624 5.84023C5.92105 5.80791 5.767 5.676 5.703 5.49517C5.47001 4.83651 5.26903 4.15251 5.10518 3.46283C5.04971 3.22872 5.15382 2.98543 5.3595 2.86881C6.60805 2.15992 8.08148 1.72139 9.73924 1.56546C9.75546 1.56415 9.77167 1.56328 9.78746 1.56328C10.0448 1.56328 10.2671 1.75677 10.3042 2.02233L10.3153 2.10314C10.3221 2.15293 10.3226 2.20316 10.3157 2.25208C10.3686 2.31629 10.4062 2.39316 10.425 2.47659C10.454 2.60631 10.4344 2.74215 10.3712 2.85746L10.3691 2.86357C10.349 2.91468 10.3213 2.96228 10.2871 3.00465C10.2372 3.09594 10.145 3.21431 9.98588 3.27502C9.98204 3.27633 9.96497 3.28244 9.96497 3.28244C9.95814 3.28507 9.95132 3.28725 9.94406 3.28987C9.93937 3.29205 9.9351 3.2938 9.93041 3.29555C9.92657 3.29729 9.91889 3.30254 9.90438 3.31346C9.83184 3.42047 9.72217 3.49821 9.59501 3.52879C9.5724 3.53403 9.51138 3.54888 9.47682 3.56155C9.46786 3.5729 9.45761 3.58732 9.45164 3.59605C9.44993 3.59824 9.44865 3.60042 9.44695 3.6026C9.40129 3.66419 9.35478 3.71617 9.31424 3.76159C9.31424 3.76159 9.29717 3.78081 9.29504 3.78299C9.25578 3.82536 9.21524 3.86773 9.17428 3.90922C9.16873 3.92888 9.1619 3.9481 9.15422 3.96688C9.12435 4.08612 9.05437 4.19182 8.95538 4.26564C8.943 4.27481 8.92977 4.28529 8.91697 4.29577C8.8295 4.36828 8.7241 4.40846 8.61657 4.41458C8.56067 4.46524 8.4941 4.50368 8.42242 4.52596C8.38487 4.53775 8.2991 4.58143 8.2065 4.64258C8.2001 4.64695 8.19327 4.65131 8.18687 4.65612C8.18431 4.6583 8.18133 4.66005 8.17877 4.66223C8.14719 4.68495 8.11433 4.71203 8.07806 4.74478C8.02046 4.79676 7.95261 4.83476 7.8805 4.85616C7.74822 4.95269 7.61423 5.04835 7.48067 5.14182C7.43501 5.17414 7.3885 5.20777 7.34199 5.24184C7.30785 5.26674 7.27372 5.29163 7.23958 5.31609C7.19008 5.35278 7.13247 5.39297 7.06719 5.42529C7.06463 5.42791 7.04329 5.45106 7.04329 5.45106C6.98142 5.51701 6.90461 5.56462 6.82098 5.59126C6.72113 5.64892 6.62341 5.68386 6.57989 5.69784C6.57989 5.69784 6.54916 5.70788 6.54447 5.70919C6.44846 5.7983 6.32301 5.84765 6.19371 5.84765L6.19457 5.84809Z" fill="#010202"/>
<path fill-rule="evenodd" clip-rule="evenodd" d="M8.91724 3.41691C8.9565 3.37323 8.99747 3.32824 9.03288 3.28064C9.06915 3.22997 9.10542 3.18061 9.15321 3.14043C9.23898 3.06967 9.36657 3.03648 9.47751 3.00983C9.48391 2.98887 9.49629 2.96965 9.51293 2.95436C9.58291 2.89234 9.65246 2.83512 9.73909 2.79974C9.76042 2.79013 9.78304 2.78271 9.80437 2.77484C9.81931 2.76917 9.83424 2.74427 9.83979 2.72898C9.84832 2.70234 9.86411 2.6805 9.88545 2.66521L9.89099 2.6508C9.89654 2.63158 9.90593 2.61367 9.91702 2.59664C9.85088 2.55645 9.81248 2.48526 9.792 2.40314C9.77792 2.3468 9.77237 2.27342 9.7856 2.2162C9.78858 2.20266 9.79285 2.19043 9.79968 2.17995C9.79584 2.15331 9.792 2.12579 9.78858 2.09871C8.33052 2.23586 6.90062 2.60712 5.61409 3.33742C5.77325 4.00875 5.96697 4.66872 6.19526 5.31428C6.255 5.24003 6.32114 5.22256 6.42355 5.18936C6.47945 5.17102 6.55114 5.13957 6.59978 5.1055C6.62112 5.09022 6.64459 5.08279 6.66891 5.08148C6.71628 5.03081 6.76108 4.97753 6.82722 4.95176C6.86264 4.93734 6.90744 4.90502 6.93817 4.88231C7.0218 4.82203 7.10416 4.76132 7.18779 4.70192C7.34439 4.59229 7.49972 4.48091 7.65461 4.36734C7.67893 4.35031 7.70752 4.34245 7.73569 4.34463C7.7822 4.3027 7.83084 4.26252 7.88119 4.22626C7.89527 4.21578 7.90936 4.20617 7.92301 4.19656C8.01603 4.13454 8.15685 4.05155 8.27334 4.0153C8.27718 4.0105 8.28059 4.00569 8.28529 4.00089L8.40818 3.88165C8.44744 3.84365 8.50334 3.83491 8.55155 3.86068L8.58996 3.88165C8.60959 3.86548 8.63007 3.84932 8.65055 3.83404C8.6514 3.80827 8.65908 3.7825 8.67487 3.76066C8.65994 3.7148 8.67189 3.66326 8.70858 3.62831C8.78027 3.56061 8.8511 3.48898 8.9181 3.41647L8.91724 3.41691Z" fill="#010202"/>
<path fill-rule="evenodd" clip-rule="evenodd" d="M10.4958 10.3312C10.454 10.3312 10.413 10.3351 10.3729 10.3425C10.439 10.3417 10.5265 10.3473 10.6255 10.3674C10.8436 10.4124 10.9626 10.5688 10.9626 10.5688C10.2381 10.3342 10.0422 10.8863 10.0422 10.8863C10.1186 10.6138 10.3097 10.4849 10.3097 10.4849C9.91674 10.6968 9.9065 11.0588 9.9065 11.0588C9.88901 10.7278 10.0315 10.5317 10.1365 10.4325C9.92869 10.5583 9.78916 10.7902 9.78916 11.0562C9.78916 11.4559 10.1058 11.78 10.4962 11.78C10.8867 11.78 11.2041 11.4559 11.2041 11.0562C11.2041 10.6566 10.8875 10.3316 10.4962 10.3316L10.4958 10.3312ZM10.0546 2.8915C10.0136 2.85437 9.97435 2.81156 9.956 2.76832C9.956 2.76832 9.92698 2.86441 9.84505 2.89412C9.76313 2.92469 9.72771 2.93037 9.59372 3.05048C9.59372 3.05048 9.75118 3.00287 10.1787 3.09241C10.1787 3.09241 9.83951 3.05048 9.54636 3.12211C9.25364 3.19462 9.23614 3.21253 9.13074 3.35667C9.02535 3.49949 8.79066 3.72181 8.79066 3.72181C8.79066 3.72181 9.09533 3.51784 9.31252 3.49949C9.31252 3.49949 9.03687 3.60825 8.77401 3.83494C8.77401 3.83494 9.03132 3.66154 9.25918 3.59558C9.25918 3.59558 8.86149 3.80524 8.60333 4.03324L8.49239 3.97296L8.36949 4.09308C8.36949 4.09308 8.46934 4.09308 8.6332 4.24289C8.6332 4.24289 8.49793 4.14069 8.33408 4.12933C8.33408 4.12933 8.20564 4.15903 7.98844 4.30273C7.7721 4.44687 7.61934 4.6622 7.26261 4.91946C7.26261 4.91946 7.5963 4.58358 7.72474 4.47045C7.72474 4.47045 7.47895 4.64953 7.25621 4.8059C7.03347 4.9614 6.94599 5.03958 6.86961 5.06928C6.79408 5.09985 6.74117 5.22565 6.5483 5.33353C6.5483 5.33353 6.62383 5.24967 6.67119 5.20774C6.67119 5.20774 6.58926 5.26802 6.45954 5.30995C6.3311 5.35188 6.30763 5.35756 6.26667 5.43006C6.22571 5.50169 6.10367 5.58075 6.07764 5.62268C6.05161 5.66461 6.05417 5.71615 6.05417 5.71615C6.05417 5.71615 6.20309 5.54843 6.25643 5.47985C6.25643 5.47985 6.14847 5.64365 6.0627 5.74017C6.0627 5.74017 6.02814 5.82971 6.01875 5.9079C6.01022 5.98608 6.02515 5.99482 6.02515 5.99482C6.02515 5.99482 6.06228 5.84238 6.09215 5.79084C6.12116 5.74017 6.3055 5.54886 6.37633 5.47636C6.37633 5.47636 6.37079 5.51567 6.30934 5.57857C6.24789 5.64146 6.15359 5.74935 6.11817 5.81224C6.08276 5.87514 6.06868 5.97429 6.06612 6.0136C6.06228 6.05291 6.13055 5.98958 6.20309 5.88781C6.27648 5.7856 6.39127 5.68077 6.43778 5.64845C6.48429 5.61526 6.56921 5.68383 6.56921 5.68383C6.56921 5.68383 6.56067 5.72008 6.49368 5.76507C6.42583 5.81006 6.41175 5.91489 6.43479 5.95682C6.45826 5.99875 6.46381 6.01098 6.49624 5.97778C6.52782 5.94546 6.61273 5.82797 6.66564 5.79171C6.71856 5.75634 6.80091 5.69082 6.86492 5.58206C6.92935 5.47418 6.9349 5.40254 7.18623 5.14135C7.18623 5.14135 7.09022 5.26714 7.01384 5.39293C7.01384 5.39293 7.22165 5.28505 7.50029 5.14397C7.77807 5.00376 8.04434 4.95528 8.24105 4.82643C8.43777 4.69758 8.49239 4.65303 8.54018 4.6194C8.58669 4.58708 8.7386 4.52418 8.7386 4.52418C8.7386 4.52418 8.83247 4.52986 8.87941 4.52986C8.92635 4.52986 8.96433 4.46696 9.0087 4.42765C9.05266 4.38878 9.34239 4.18829 9.44736 4.14942C9.55276 4.11011 9.61122 4.13413 9.78745 4.20664C9.78745 4.20664 9.62914 4.14374 9.52673 4.16733C9.52673 4.16733 9.62914 4.218 9.69613 4.39533C9.69613 4.39533 9.63469 4.29618 9.53868 4.25119C9.53868 4.25119 9.60866 4.31409 9.6701 4.45823C9.73155 4.60236 9.94106 4.72728 10.3008 4.7596C10.3008 4.7596 10.0409 4.78144 9.81903 4.69016C9.81903 4.69016 9.95131 4.78756 10.1152 4.80372C10.279 4.81988 9.96709 4.88496 9.79769 4.76572C9.79769 4.76572 9.91418 4.9116 10.1685 4.8688C10.1685 4.8688 10.0465 4.92296 9.75587 4.94436C9.75587 4.94436 9.74008 4.97188 9.77166 5.0208C9.80324 5.06928 10.0622 5.199 10.0622 5.199C10.0622 5.199 9.80878 5.13436 9.72984 5.0208C9.72984 5.0208 9.70851 5.07976 9.7132 5.17236C9.71875 5.26408 9.5502 5.34489 9.49131 5.54537C9.49131 5.54537 9.95131 5.32873 10.5171 5.351C10.5171 5.351 9.83524 5.39381 9.44395 5.76769C9.44395 5.76769 9.6556 5.66461 9.86127 5.61613C9.86127 5.61613 9.62914 5.71921 9.49131 5.85461C9.49131 5.85461 9.70851 5.99569 10.11 6.07693C10.11 6.07693 9.71875 6.02277 9.51308 5.92537C9.30612 5.82797 9.1956 5.75765 9.12648 5.82797C9.05863 5.89742 9.11624 5.94633 9.02663 6.00617C8.93616 6.06514 9.07399 6.06514 8.8888 6.13022C8.70361 6.19617 8.69891 6.3687 8.69891 6.3687C8.69891 6.3687 8.94683 6.21233 9.03132 6.12541C9.03132 6.12541 8.92038 6.33594 8.51884 6.50978C8.51884 6.50978 8.75097 6.45562 9.01553 6.24946C9.01553 6.24946 8.79834 6.52026 8.33365 6.65567C8.33365 6.65567 8.18558 6.83955 8.03197 6.93215C8.03197 6.93215 8.04221 6.95311 8.06098 6.98631C8.00338 7.0313 7.60355 7.34272 7.50583 7.52704C7.50583 7.52704 7.6522 7.23353 7.77509 7.14268L7.68121 7.08939C7.68121 7.08939 7.42391 7.08371 7.28907 7.30472C7.28907 7.30472 7.39446 7.07104 7.67012 7.04746C7.67012 7.04746 7.58179 6.79587 7.33003 6.66964C7.0787 6.54385 6.63876 6.44732 6.63876 6.44732C6.63876 6.44732 7.02536 6.56176 7.18367 6.68755C7.18367 6.68755 6.91996 6.53773 6.52782 6.44164C6.52782 6.44164 6.4924 6.36346 6.38145 6.34511C6.26966 6.32808 6.16981 6.37001 6.16981 6.37001C6.16981 6.37001 6.35713 6.24422 6.53891 6.39403C6.53891 6.39403 6.60334 6.39971 6.65626 6.41806C6.65626 6.41806 6.6618 6.33987 6.64431 6.26824C6.62767 6.19574 6.56238 6.03369 6.37505 6.07562C6.18773 6.11755 5.94194 6.21976 5.71365 6.21976C5.48536 6.21976 5.339 6.27392 5.13333 6.47134C5.13333 6.47134 5.30401 6.27392 5.67269 6.2796C5.67269 6.2796 5.25067 6.31017 5.00489 6.63339C5.00489 6.63339 4.93491 6.77185 5.01684 6.82514C5.09877 6.8793 5.35052 6.82514 5.55535 6.81946C5.76017 6.81378 5.89543 6.87973 6.06484 6.87362C6.06484 6.87362 5.98291 6.681 6.1058 6.5255C6.1058 6.5255 6.05289 6.80111 6.1233 6.86095C6.1233 6.86095 6.15871 6.85527 6.2927 6.87318C6.42797 6.89022 6.55086 6.88454 6.65028 7.01033C6.75013 7.13612 7.03688 7.50214 7.17087 7.63973C7.30613 7.77819 7.42903 7.90966 7.55747 7.94024C7.68591 7.96994 7.72687 7.95159 7.84421 7.98784C7.96156 8.0241 7.98503 7.9695 8.09 7.8983C8.1954 7.8258 8.40662 7.74762 8.5709 7.58644C8.5709 7.58644 8.50092 7.68385 8.32512 7.79828C8.32512 7.79828 8.62424 7.64585 8.77871 7.53883C8.79066 7.54189 8.8009 7.54277 8.80943 7.54277C8.88283 7.54277 9.05266 7.45148 9.05266 7.45148C9.05266 7.45148 8.74073 7.47812 8.5709 7.39688C8.5709 7.39688 9.04241 7.43488 9.56599 7.28332C9.56599 7.28332 9.25876 7.43969 9.07868 7.49385L9.12136 7.52049C9.12136 7.52049 9.37482 7.43925 9.53313 7.36893C9.69229 7.29948 9.68675 7.32612 9.89285 7.27153C10.0998 7.21736 10.2739 7.21256 10.5858 7.41828C10.5858 7.41828 10.4164 7.30385 10.2637 7.32001C10.2637 7.32001 10.6921 7.74805 10.9242 7.84545C10.9242 7.84545 10.544 7.69389 10.2005 7.36849C10.2005 7.36849 10.3959 7.56854 10.5444 7.72054C10.6929 7.87253 10.7185 7.94853 10.8248 8.0621C10.9302 8.17566 11.0569 8.26826 11.0569 8.26826L11.2191 8.27699C11.3176 8.33727 11.4409 8.3923 11.5293 8.46656C11.668 8.58405 11.7277 8.69543 11.7277 8.75658C11.7277 8.81773 11.7277 8.92911 11.7426 9.11779C11.7576 9.30561 11.7827 9.67163 11.8472 9.8149C11.9116 9.95685 12.0409 10.1752 12.1006 10.5168C12.1604 10.8571 12.2095 11.1776 12.2095 11.1776C12.3195 11.2541 12.4433 11.1986 12.4433 11.1986C12.3285 11.2995 12.1898 11.1776 12.1945 11.2292C12.2001 11.2799 12.2048 11.3257 12.2244 11.4581C12.2449 11.5895 12.2944 11.7223 12.4087 11.7725C12.5235 11.8241 12.6127 11.8031 12.8064 11.6612C13.0001 11.5192 13.0991 11.5135 13.382 11.3912C13.6662 11.2694 13.8843 11.0462 13.9436 10.9745C14.0033 10.9029 13.994 10.8173 13.994 10.8173C13.6799 11.2187 13.3475 11.3209 13.3475 11.3209C13.6901 11.1685 13.9837 10.7811 13.9837 10.7811C13.9436 10.7304 13.9137 10.6334 13.72 10.7094C13.5263 10.7867 13.1836 10.802 13.0893 10.8116C12.9942 10.8221 12.9152 10.7762 12.8854 10.726C12.8555 10.6745 12.7663 10.5937 12.7663 10.5937C12.7663 10.5937 12.7168 10.6339 12.7514 10.6701C12.7859 10.7055 12.7962 10.7666 12.7962 10.7666C12.7514 10.9038 12.637 10.9601 12.637 10.9601C12.7322 10.899 12.762 10.7618 12.762 10.7618C12.707 10.6854 12.5879 10.512 12.573 10.1412C12.5581 9.77034 12.5282 9.15405 12.503 9.02738C12.4787 8.8994 12.4582 8.78322 12.4582 8.78322L12.1109 8.71639L12.4488 8.73736C12.4488 8.73736 12.4732 8.43685 12.4535 8.27394C12.4339 8.11189 12.314 8.02978 12.314 8.02978C12.4433 8.22327 12.3887 8.3958 12.3887 8.3958C12.369 8.21279 12.2696 8.14683 12.2696 8.14683C12.0814 7.91796 11.8625 7.78081 11.8625 7.78081C12.0068 7.90748 12.1757 8.12106 12.1757 8.12106C12.0119 7.96863 11.7734 7.77688 11.6727 7.69695C11.9112 7.65589 12.1096 7.70088 12.1898 7.79217C12.1898 7.79217 12.1369 7.75417 12.0947 7.6786C12.0528 7.60348 11.5498 7.42964 11.2592 7.5004C11.2592 7.5004 11.5395 7.365 11.9568 7.55368C11.9568 7.55368 11.8041 7.35364 10.9946 7.35364C10.9946 7.35364 11.4333 7.32132 11.7192 7.365C12.0042 7.4078 12.0366 7.48424 12.0366 7.48424C12.0366 7.48424 11.994 7.38116 11.8352 7.327C11.6761 7.27284 10.7667 7.25668 10.7667 7.25668C10.7667 7.25668 11.1952 7.13743 11.47 7.12127C11.7448 7.10511 11.8613 7.24619 11.8613 7.24619C11.8613 7.24619 11.7559 7.10031 11.6599 7.07279C11.5647 7.04615 10.3221 7.02431 10.3221 7.02431C10.3221 7.02431 10.7134 6.9815 10.9362 6.82426C10.9362 6.82426 10.5496 6.89502 10.3597 6.88454L10.4173 6.83475C10.4173 6.83475 10.4919 6.82426 10.6456 6.78626C10.6456 6.78626 9.94704 6.85702 9.33386 6.37525C9.33386 6.37525 9.80409 6.70502 10.5235 6.75394C10.5235 6.75394 9.79897 6.27261 9.5135 6.07213C9.5135 6.07213 10.1898 6.48314 10.5018 6.56525C10.5018 6.56525 10.2483 6.41849 10.1374 6.28877C10.1374 6.28877 10.4382 6.47833 10.6076 6.53293C10.7761 6.58622 11.0518 6.54909 11.1525 6.54909C11.2532 6.54909 11.3321 6.64038 11.3321 6.64038V6.55346C11.3321 6.47833 11.3155 6.38093 11.3155 6.38093C11.3155 6.38093 10.7185 6.35909 10.3272 6.22937C10.3272 6.22937 10.7343 6.32109 10.9831 6.30449C10.9831 6.30449 11.2895 5.9804 11.3846 5.59604C11.3846 5.59604 11.1789 6.01753 10.8295 6.21757C10.8295 6.21757 11.4217 5.64932 11.4956 5.01032C11.4956 5.01032 11.2523 5.58992 10.7288 5.90397C10.7288 5.90397 11.327 5.4388 11.4695 4.88671C11.4695 4.88671 11.2523 5.4008 10.7343 5.72008C10.7343 5.72008 11.1947 5.30907 11.3957 4.82643C11.5958 4.3451 11.5911 4.06949 11.5911 4.06949C11.5911 4.06949 11.4 4.65871 10.9298 5.04875C10.9298 5.04875 11.3424 4.5731 11.4747 4.19921C11.6069 3.82533 11.6645 3.40296 11.6645 3.40296C11.6645 3.40296 11.7119 3.33832 11.755 3.2086C11.755 3.2086 11.8126 3.18195 11.8715 3.12168C11.9291 3.06271 12.0085 3.00244 12.0085 3.00244C12.0085 3.00244 12.04 2.85087 12.0354 2.72683C12.0354 2.72683 12.0827 2.83471 12.0456 3.01379C12.0456 3.01379 12.0827 3.00244 12.1565 2.96531C12.1565 2.96531 12.2022 2.76789 12.1847 2.53639C12.2248 2.68228 12.2321 2.89892 12.2321 2.89892C12.2321 2.89892 12.3242 2.82467 12.4894 2.72421C12.6541 2.62419 12.8397 2.45515 12.8397 2.45515C12.716 2.53421 12.4838 2.60278 12.4838 2.60278C12.8751 2.40842 13.0296 2.19177 13.0296 2.19177C12.9933 2.31276 12.8751 2.45035 12.8751 2.45035C13.1892 2.36081 13.4572 2.08127 13.6428 1.8869C13.828 1.69122 13.8429 1.69734 14.075 1.53879C14.3059 1.38067 14.512 1.223 14.512 1.223C14.4663 1.28021 14.43 1.31734 14.43 1.31734C14.43 1.31734 14.5017 1.32782 14.5743 1.28589C14.646 1.24396 14.7027 1.15923 14.7027 1.15923C14.6972 1.19635 14.7027 1.23828 14.7027 1.23828C14.7027 1.23828 14.7949 1.23348 14.8358 1.18587C14.8777 1.13826 14.9084 1.18019 14.9336 1.14874C14.9596 1.11729 14.9272 1.02688 14.9272 1.02688C14.9272 1.02688 14.8807 1.06139 14.8491 1.09546C14.8175 1.12996 14.7539 1.12297 14.7539 1.12297C14.7539 1.12297 14.8469 1.10681 14.8721 1.04872C14.8981 0.990628 14.9391 1.02775 14.9903 0.985824C15.0415 0.943893 15.0415 0.885801 15.0061 0.885801C14.9707 0.885801 14.8981 0.875318 14.8981 0.875318C14.8981 0.875318 14.9131 0.7801 14.8674 0.775295C14.8499 0.773548 14.832 0.771364 14.8154 0.769617C14.7902 0.764813 14.7548 0.760882 14.7241 0.764813C14.7518 0.717204 14.7996 0.712399 14.835 0.680951C14.8853 0.635089 14.8845 0.632468 14.972 0.669595C15.0381 0.697112 15.1311 0.638147 15.0475 0.611503C14.9843 0.591411 14.8529 0.521089 14.8256 0.543802C14.7902 0.57525 14.6255 0.69056 14.5845 0.717204C14.5436 0.743847 14.5175 0.743847 14.5017 0.7801C14.4868 0.817226 14.4505 1.01771 14.3631 1.11205C14.2756 1.20727 14.0285 1.31821 14.0285 1.31821L14.2239 1.13913C14.0955 1.22387 13.7349 1.45012 13.6065 1.49205C13.4781 1.53486 13.2208 1.58159 13.0142 1.70258C12.8086 1.82357 12.7834 1.88777 12.5568 2.04502C12.3827 2.16688 12.2205 2.24157 12.1553 2.26996C12.1523 2.25947 12.1514 2.25642 12.1514 2.25642C12.1514 2.25642 12.1041 2.29922 12.0405 2.29922C11.9769 2.29922 11.8186 2.32106 11.7554 2.3429C11.6923 2.36474 11.4909 2.39706 11.3846 2.4783C11.3846 2.4783 11.5438 2.52678 11.6232 2.65083C11.6232 2.65083 11.4593 2.50494 11.3057 2.50494C11.1521 2.50494 11.0838 2.58619 11.0411 2.6137C10.9993 2.64035 10.8986 2.59186 10.8986 2.59186C10.8986 2.59186 10.8995 2.61283 10.9016 2.64515C10.8999 2.63642 10.8986 2.63292 10.8986 2.63292C10.8986 2.63292 10.9144 2.90372 10.8956 2.96182C10.8918 2.96837 10.8871 2.97536 10.8815 2.98191C10.8517 3.00855 10.7966 3.01816 10.7966 3.01816C10.7966 3.01816 10.8265 2.83777 10.8265 2.77487C10.8265 2.71198 10.8406 2.54688 10.8406 2.54688C10.8145 2.63642 10.7966 2.76832 10.7484 2.85218C10.6998 2.93692 10.5901 2.94653 10.5901 2.94653C10.5901 2.94653 10.6592 2.86354 10.687 2.82641C10.7138 2.78929 10.7168 2.74648 10.7168 2.74648C10.7168 2.74648 10.6934 2.79409 10.5995 2.81986C10.5466 2.83428 10.4949 2.83602 10.4608 2.83515C10.4514 2.83428 10.4433 2.83428 10.4365 2.8334C10.4254 2.83253 10.419 2.83166 10.419 2.83166H10.4245C10.4104 2.82991 10.404 2.82685 10.404 2.82685C10.4497 2.82991 10.5094 2.80676 10.5094 2.80676C10.5291 2.81724 10.5466 2.8203 10.5466 2.8203C10.5653 2.80894 10.57 2.79147 10.57 2.79147C10.6037 2.78841 10.6686 2.77356 10.681 2.75915C10.6511 2.77138 10.5163 2.7526 10.4881 2.72377C10.57 2.73338 10.6093 2.6932 10.6093 2.6932C10.6093 2.6932 10.5747 2.69494 10.5636 2.67223C10.5517 2.64821 10.5449 2.51019 10.5385 2.44161C10.5312 2.37391 10.556 2.36911 10.556 2.36911C10.6387 2.43026 10.7002 2.42065 10.7002 2.42065C10.6323 2.40449 10.5978 2.35469 10.5978 2.35469C10.5978 2.35469 10.6827 2.38134 10.733 2.35775C10.7834 2.33373 10.777 2.27564 10.777 2.27564C10.7817 2.24244 10.8086 2.23545 10.8086 2.23545C10.7377 2.18566 10.6895 2.26297 10.6323 2.28524C10.5747 2.30621 10.5188 2.27651 10.5188 2.27651C10.5188 2.27651 10.4702 2.23632 10.5141 2.12495C10.5581 2.01357 10.6276 1.9332 10.6276 1.9332C10.4962 1.98168 10.3703 1.97819 10.3703 1.97819C10.6665 1.92839 10.771 1.83056 10.771 1.83056C10.771 1.83056 10.8184 1.99173 10.841 2.12538C10.8623 2.25904 10.867 2.38396 10.867 2.38396C10.8922 2.29616 10.8867 2.16862 10.8687 1.97207C10.85 1.7764 10.7851 1.35403 10.39 1.34748C9.99483 1.3418 9.85146 1.69079 9.87578 1.85021C9.89925 2.00964 9.92997 2.22322 9.92997 2.22322C10.0017 2.28524 9.98971 2.37085 9.98971 2.37085C9.98331 2.26603 9.90607 2.24768 9.90607 2.24768C9.90607 2.24768 9.89413 2.30315 9.91162 2.37653C9.9304 2.44991 9.96027 2.49271 10.0132 2.50538C10.0674 2.51761 10.0793 2.54819 10.0793 2.54819C10.0251 2.38221 10.055 2.28481 10.055 2.12582C10.055 1.96683 10.1386 1.93626 10.1386 1.93626C10.1386 1.93626 10.0857 2.07646 10.1088 2.19964C10.1331 2.3215 10.1868 2.37697 10.1868 2.37697C10.2521 2.36474 10.282 2.38265 10.282 2.38265C10.1749 2.37129 10.1207 2.43812 10.1207 2.43812C10.1804 2.47524 10.2521 2.48791 10.2521 2.48791C10.1804 2.49927 10.145 2.49927 10.145 2.49927C10.1536 2.58488 10.2142 2.67747 10.2142 2.67747L10.0891 2.6089C10.148 2.82991 10.3388 2.93386 10.3388 2.93386C10.1796 2.89106 10.0772 2.70193 10.046 2.63642C10.0311 2.65258 10.0136 2.67442 10.0068 2.69538C9.99483 2.73163 9.97051 2.75085 10.0068 2.80501C10.0217 2.82904 10.0345 2.86048 10.0541 2.89543L10.0546 2.8915ZM10.9233 3.00812C10.9502 2.98409 10.972 2.95002 10.9775 2.89848C10.9775 2.89848 11.1312 3.23393 10.6972 3.52002C10.6972 3.52002 11.1359 3.38462 11.1529 3.01161C11.1529 3.01161 11.1845 3.23874 11.0625 3.4663C10.9404 3.69342 10.0098 3.87163 10.0098 3.87163C10.0098 3.87163 10.6238 3.70391 10.8137 3.21646C10.8137 3.21646 10.6396 3.38418 10.1792 3.2383C10.1792 3.2383 10.4855 3.3309 10.7979 3.15706C10.5956 3.22563 10.4151 3.21602 10.2679 3.08368C10.3947 3.14264 10.5457 3.16841 10.5457 3.16841C10.7608 3.11862 10.9229 3.02166 10.9229 3.02166C10.9229 3.01685 10.9229 3.01205 10.9238 3.00724L10.9233 3.00812ZM8.90373 4.408C8.90373 4.408 9.16189 4.14374 9.53825 4.04765C9.28692 4.07167 9.13842 4.10487 8.85722 4.34597L8.90373 4.408ZM10.3635 2.44729C10.4352 2.3346 10.358 2.30708 10.2991 2.30228C10.3644 2.3215 10.3976 2.3892 10.3635 2.44729ZM11.1051 11.0361C11.1538 11.7044 10.2462 11.9333 9.96112 11.3965C10.3358 11.8599 11.0258 11.6559 11.1051 11.0361Z" fill="white"/>
<path fill-rule="evenodd" clip-rule="evenodd" d="M10.3695 12.9174C8.67503 11.2393 7.30103 9.26721 6.31448 7.10165C6.29698 7.0999 6.27906 7.09859 6.26498 7.09685C6.23042 7.09204 6.1822 7.08462 6.14678 7.08549L6.14038 7.08636C6.11905 7.09291 6.09643 7.09772 6.07339 7.09859C5.96799 7.10252 5.86942 7.08068 5.77042 7.06409C6.78855 9.38033 8.23552 11.4878 10.0362 13.2699C10.297 13.5284 10.7109 13.5284 10.9716 13.2699C11.4085 12.8379 11.825 12.3858 12.2189 11.9167C12.0938 11.8145 12.0315 11.6546 12.0064 11.4904C12.0025 11.4686 12 11.4467 11.997 11.4258C11.5703 11.9447 11.1167 12.4422 10.6379 12.9169C10.5632 12.9912 10.4442 12.9912 10.3695 12.9169V12.9174Z" fill="white"/>
<path fill-rule="evenodd" clip-rule="evenodd" d="M5.80199 5.86587C5.47599 5.00017 5.21057 4.10739 5.00917 3.19496C4.99039 3.11022 5.02496 3.02723 5.09878 2.98225C6.51119 2.12135 8.09556 1.68719 9.71748 1.5317C9.74095 1.48103 9.77039 1.43342 9.8024 1.39149C9.94876 1.2028 10.1621 1.11195 10.3947 1.11588C10.6908 1.12069 10.8743 1.28186 10.9797 1.50593C11.5254 1.54611 12.0678 1.61643 12.6016 1.72345C12.6251 1.70423 12.649 1.68414 12.6724 1.66448C12.7471 1.60333 12.8214 1.55092 12.9054 1.50244C12.9344 1.4854 12.963 1.46924 12.9938 1.45483C13.0701 1.4177 13.1495 1.38713 13.2306 1.36136C12.3503 1.14384 11.4439 1.02766 10.5316 0.987472C10.5129 0.986598 10.4945 0.986598 10.4757 0.987472C8.50563 1.07221 6.5594 1.51947 4.85299 2.55988C4.59782 2.71625 4.47578 3.00714 4.54107 3.30372C4.74888 4.24192 5.02197 5.15916 5.35694 6.04975C5.46319 6.00869 5.57755 5.99079 5.71452 5.99079C5.7414 5.99079 5.76956 5.98904 5.7973 5.98598C5.79431 5.95148 5.79559 5.91653 5.80029 5.88203C5.80029 5.87635 5.80114 5.87155 5.80199 5.86587Z" fill="white"/>
<path fill-rule="evenodd" clip-rule="evenodd" d="M15.9973 3.19597C15.4242 5.78957 14.3361 8.21938 12.8208 10.3496C12.8217 10.3574 12.8238 10.3648 12.8264 10.3736C12.8571 10.3823 12.887 10.3985 12.913 10.4212C12.9617 10.4653 13.0231 10.5282 13.0619 10.5854H13.0666C13.1242 10.5797 13.1904 10.5749 13.2578 10.5684C14.7854 8.40195 15.8838 5.93589 16.4662 3.30517C16.5315 3.00859 16.4095 2.7177 16.1543 2.56133C15.5543 2.19618 14.9245 1.90354 14.2742 1.67467C14.249 1.6917 14.2239 1.70917 14.1987 1.72621C14.124 1.77775 14.0421 1.8271 13.9712 1.88257C13.9136 1.92625 13.8603 1.9826 13.81 2.03501C14.5383 2.26694 15.2428 2.57749 15.9077 2.9837C15.981 3.02869 16.0156 3.11167 15.9973 3.19641V3.19597Z" fill="white"/>
<path fill-rule="evenodd" clip-rule="evenodd" d="M11.5878 4.9244C11.6112 4.95017 11.6232 4.98642 11.6194 5.02442C11.5997 5.19127 11.5485 5.3555 11.4785 5.51056C11.5046 5.54113 11.5148 5.58307 11.5046 5.625C11.4572 5.81762 11.3612 6.00237 11.2502 6.16486C11.2328 6.1915 11.2131 6.21814 11.1926 6.2461C11.2353 6.24916 11.2784 6.2509 11.3202 6.25265C11.38 6.2544 11.4282 6.29851 11.4384 6.35835C11.4487 6.42037 11.4559 6.48895 11.4559 6.55184V6.63876C11.4559 6.69292 11.4243 6.73879 11.3757 6.758C11.3262 6.77722 11.2733 6.76281 11.2387 6.7235C11.22 6.70253 11.1798 6.67371 11.1521 6.67371C11.1094 6.67371 11.0646 6.67764 11.0228 6.68026C10.9567 6.68419 10.8914 6.68681 10.8252 6.68594C10.789 6.68506 10.7519 6.68419 10.7143 6.68026C10.7301 6.69074 10.7433 6.70603 10.7527 6.72306C10.8069 6.7152 10.8607 6.7069 10.9131 6.69729C10.972 6.68681 11.0279 6.71826 11.0501 6.77373C11.0698 6.82221 11.0587 6.87593 11.0232 6.91219C11.1594 6.91612 11.2963 6.91961 11.432 6.9266C11.4841 6.92966 11.5366 6.93141 11.5895 6.93534C11.6211 6.93839 11.662 6.94101 11.6927 6.94975C11.7943 6.97858 11.8984 7.08428 11.9603 7.16989C11.9799 7.19566 11.9872 7.22711 11.9846 7.25768C12.0554 7.30048 12.1207 7.36163 12.1493 7.43501C12.166 7.47432 12.1604 7.51713 12.1399 7.55032C12.1668 7.57041 12.1886 7.59225 12.2014 7.61497C12.2108 7.63287 12.2227 7.64947 12.2368 7.66476C12.2526 7.6783 12.2675 7.6914 12.2808 7.70669C12.3226 7.7543 12.3234 7.82593 12.2825 7.87441C12.2667 7.89363 12.2462 7.90674 12.2249 7.91372L12.2389 7.92814C12.2808 7.89582 12.3388 7.89276 12.3832 7.92421C12.4877 7.99584 12.5602 8.13124 12.576 8.25791C12.5935 8.40073 12.5846 8.58593 12.5722 8.73356C12.576 8.7423 12.5786 8.75059 12.5794 8.7602C12.5935 8.84013 12.6085 8.92138 12.6243 9.00131C12.6409 9.08692 12.6456 9.19218 12.6524 9.27953C12.6588 9.37781 12.6644 9.47783 12.6699 9.57698C13.9338 7.69097 14.8619 5.58045 15.3919 3.33802C14.6934 2.94142 13.9517 2.65052 13.1871 2.44655C13.0996 2.49984 13.0074 2.54264 12.9084 2.57059C12.9037 2.57234 12.8982 2.57365 12.8935 2.57453C12.789 2.66712 12.6691 2.76059 12.5526 2.83179C12.4706 2.88158 12.3832 2.93662 12.3076 2.99689C12.2957 3.0065 12.2825 3.01305 12.2684 3.01786C12.2573 3.04363 12.2377 3.06372 12.2125 3.07682C12.1724 3.09691 12.1229 3.1205 12.0802 3.13404C12.0653 3.13797 12.0512 3.13972 12.0362 3.13884C12.0094 3.16156 11.9821 3.18558 11.959 3.2096C11.93 3.2393 11.8937 3.26988 11.8557 3.29434C11.837 3.34588 11.8118 3.4031 11.7832 3.44896C11.7721 3.52802 11.7563 3.60838 11.7405 3.68657C11.7209 3.78178 11.6996 3.87831 11.6744 3.97266C11.6987 3.99537 11.7145 4.029 11.7154 4.06526C11.7162 4.13601 11.7034 4.22162 11.6902 4.29107C11.6595 4.45792 11.6083 4.62564 11.546 4.78507C11.5844 4.81564 11.6027 4.86718 11.5899 4.91785L11.5882 4.9244H11.5878Z" fill="#243E90"/>
<path fill-rule="evenodd" clip-rule="evenodd" d="M10.9872 8.37157C10.9006 8.30867 10.8084 8.22743 10.7359 8.14925C10.6988 8.10819 10.6651 8.06626 10.6326 8.02258C10.5759 7.94527 10.5255 7.87975 10.4585 7.81074L10.1146 7.4587C10.0894 7.43293 10.0775 7.40061 10.0783 7.36697L10.0532 7.36872C10.0105 7.37353 9.96824 7.38313 9.92642 7.39362C9.85174 7.41284 9.78304 7.42419 9.70922 7.44035C9.66527 7.44996 9.62559 7.467 9.5842 7.48534C9.45021 7.54431 9.30001 7.59585 9.15962 7.64171C9.1242 7.65219 9.08879 7.64826 9.05721 7.62729L9.0235 7.60633C8.95267 7.63865 8.87159 7.66835 8.811 7.66835C8.7662 7.69805 8.71883 7.72644 8.67232 7.75309C8.57716 7.80856 8.4803 7.86097 8.38258 7.9112C8.35655 7.92343 8.32839 7.92736 8.30236 7.92168C8.25372 7.94745 8.20379 7.97322 8.16069 8.00162C8.1065 8.03874 8.05999 8.08635 7.99769 8.1095C7.93539 8.13221 7.87267 8.12784 7.81037 8.10775C7.7741 8.09727 7.74124 8.09159 7.70326 8.08766C7.64352 8.08198 7.59061 8.0763 7.53172 8.06189C7.48052 8.05053 7.43187 8.02739 7.38451 7.99812C8.04506 9.2246 8.83874 10.3755 9.75061 11.4299C9.69557 11.3163 9.66485 11.1897 9.66485 11.0551C9.66485 10.7529 9.82145 10.4755 10.0736 10.3218C10.1287 10.2886 10.1987 10.3026 10.2366 10.355C10.2413 10.3607 10.2452 10.3672 10.2477 10.3742L10.2516 10.3711H10.2533C10.2516 10.3646 10.2503 10.3589 10.2503 10.3519C10.2447 10.286 10.2887 10.227 10.3518 10.2165C10.3992 10.2078 10.4479 10.203 10.4961 10.203C10.9552 10.203 11.3282 10.5843 11.3282 11.0547C11.3282 11.2036 11.2898 11.3434 11.2249 11.4657C11.4856 11.1652 11.7374 10.8564 11.9793 10.5406C11.9785 10.5397 11.9785 10.5376 11.9785 10.5367C11.9541 10.3995 11.9153 10.2676 11.862 10.1392C11.8227 10.0457 11.7762 9.95795 11.7344 9.86667C11.655 9.69108 11.6345 9.32593 11.6187 9.12676C11.6094 9.00184 11.6038 8.87998 11.6038 8.75768C11.5966 8.70046 11.4903 8.59651 11.4502 8.56331C11.3747 8.49954 11.2714 8.45062 11.1827 8.40039L11.0504 8.39384C11.026 8.3921 11.0056 8.38511 10.9859 8.37113L10.9872 8.37157Z" fill="#FF0043"/>
<path fill-rule="evenodd" clip-rule="evenodd" d="M8.61339 6.21693C8.66076 6.11603 8.74567 6.04615 8.84893 6.00989L8.87582 6.00028C8.88776 5.95835 8.91763 5.92603 8.9586 5.89808L8.96244 5.89502C8.97652 5.82819 8.98761 5.78801 9.03882 5.7356C9.0593 5.71463 9.08362 5.69847 9.11136 5.68711C9.18603 5.65567 9.26412 5.67357 9.33666 5.7024C9.34221 5.69192 9.35074 5.68231 9.35885 5.67357C9.37379 5.65916 9.38787 5.64693 9.4028 5.63339C9.37123 5.60019 9.35885 5.55346 9.37208 5.5076C9.40024 5.41325 9.44761 5.33594 9.50905 5.26169C9.52484 5.24247 9.57434 5.19006 9.58928 5.16516C9.58757 5.10489 9.59312 5.03282 9.61274 4.97647C9.61658 4.96512 9.62213 4.95463 9.62853 4.94502C9.63024 4.92231 9.63707 4.89916 9.64901 4.87907C9.66096 4.85898 9.6759 4.84369 9.69382 4.83321C9.66694 4.7904 9.66779 4.73581 9.69553 4.69388V4.68514C9.63579 4.63753 9.58757 4.57944 9.55685 4.50781C9.53636 4.45933 9.4954 4.38201 9.457 4.34576C9.44206 4.33222 9.43097 4.31606 9.42457 4.29903C9.37976 4.32392 9.3324 4.35537 9.29869 4.37721C9.25217 4.40691 9.20652 4.43836 9.16171 4.46981C9.13952 4.48597 9.11051 4.50519 9.09003 4.52309C9.08149 4.52965 9.07424 4.53838 9.06656 4.54712C9.0145 4.60434 8.96201 4.65588 8.87923 4.65588C8.83997 4.65588 8.79901 4.65413 8.76018 4.65194C8.7333 4.6633 8.70727 4.67466 8.68081 4.68732C8.66033 4.69693 8.62875 4.71004 8.60998 4.72358C8.57925 4.74542 8.54853 4.76857 8.51695 4.79128C8.44911 4.83976 8.37827 4.8865 8.30829 4.93236C8.19564 5.00661 8.06806 5.05422 7.94303 5.10008C7.8116 5.14769 7.68146 5.19355 7.55558 5.25732C7.39343 5.33944 7.23128 5.42242 7.07041 5.50541C7.06102 5.51022 7.05163 5.51415 7.04225 5.5159C7.02902 5.53861 7.01707 5.56176 7.00384 5.58665C6.9936 5.60762 6.98251 5.62771 6.97013 5.6478C6.91039 5.74783 6.82932 5.83169 6.73459 5.89677C6.71667 5.909 6.68893 5.94263 6.67485 5.95879C6.66077 5.97583 6.64583 5.99417 6.63218 6.0112C6.69533 6.06362 6.74099 6.1418 6.76446 6.23527C6.77171 6.26978 6.77769 6.30953 6.78025 6.34884C6.89845 6.37854 7.01878 6.41392 7.13228 6.45279C7.2172 6.48162 7.30297 6.51394 7.38276 6.55369C7.50864 6.61658 7.61489 6.71311 7.69383 6.83017C7.7284 6.88083 7.76467 6.9446 7.78515 7.00182L7.81502 7.02017C7.84745 6.99352 7.87945 6.96775 7.90804 6.94373C7.90249 6.89525 7.92468 6.84633 7.96863 6.82056C8.06294 6.76421 8.16791 6.65851 8.23703 6.57378C8.25367 6.55281 8.2733 6.53927 8.29933 6.53185C8.33091 6.52224 8.36249 6.51263 8.39449 6.50127C8.3962 6.45366 8.42436 6.41086 8.47002 6.39077C8.50543 6.37548 8.54085 6.35932 8.57541 6.34141C8.58011 6.29861 8.59504 6.25274 8.61254 6.21649L8.61339 6.21693Z" fill="#E9D936"/>
<path fill-rule="evenodd" clip-rule="evenodd" d="M7.18694 4.70235C7.34354 4.59272 7.49886 4.48134 7.65376 4.36778C7.67808 4.35075 7.70667 4.34288 7.73483 4.34507C7.78134 4.30314 7.82999 4.26295 7.88034 4.2267C7.89442 4.21622 7.9085 4.20661 7.92216 4.197C8.01518 4.13498 8.15599 4.05199 8.27249 4.01574C8.27633 4.01093 8.27974 4.00613 8.28443 4.00132L8.40733 3.88208C8.44658 3.84408 8.50248 3.83535 8.5507 3.86112L8.5891 3.88208C8.60873 3.86592 8.62921 3.84976 8.6497 3.83447C8.65055 3.8087 8.65823 3.78293 8.67402 3.76109C8.65908 3.71523 8.67103 3.66369 8.70773 3.62875C8.77942 3.56105 8.85025 3.48942 8.91724 3.41691C8.9565 3.37323 8.99746 3.32824 9.03288 3.28064C9.06915 3.22997 9.10542 3.18061 9.15321 3.14043C9.23898 3.06967 9.36657 3.03648 9.47751 3.00983C9.48391 2.98887 9.49629 2.96965 9.51293 2.95436C9.58291 2.89234 9.65246 2.83512 9.73909 2.79974C9.76042 2.79013 9.78304 2.78271 9.80437 2.77484C9.81931 2.76917 9.83424 2.74427 9.83979 2.72898C9.84832 2.70234 9.86411 2.6805 9.88545 2.66521L9.89099 2.6508C9.89654 2.63158 9.90593 2.61367 9.91702 2.59664C9.85088 2.55645 9.81248 2.48526 9.792 2.40314C9.77792 2.3468 9.77237 2.27342 9.7856 2.2162C9.78858 2.20266 9.79285 2.19043 9.79968 2.17995C9.79584 2.15331 9.792 2.12579 9.78858 2.09871C8.33052 2.23586 6.90061 2.60712 5.61409 3.33742C5.77325 4.00875 5.96697 4.66872 6.19526 5.31428C6.255 5.24003 6.32114 5.22256 6.42355 5.18936C6.47945 5.17102 6.55114 5.13957 6.59978 5.1055C6.62112 5.09022 6.64459 5.08279 6.66891 5.08148C6.71628 5.03081 6.76108 4.97753 6.82722 4.95176C6.86264 4.93734 6.90744 4.90502 6.93817 4.88231C7.0218 4.82203 7.10416 4.76132 7.18779 4.70192L7.18694 4.70235Z" fill="#E9D936"/>
</svg>
