<svg width="20" height="14" viewBox="0 0 20 14" fill="none" xmlns="http://www.w3.org/2000/svg">
<g clip-path="url(#clip0_676_2118)">
<path d="M1.55921 11.75C0.699277 11.75 0.00314331 11.0708 0.00314331 10.2303V3.26826C0.00314331 2.4278 0.699277 1.75 1.55921 1.75H17.5206C18.3805 1.75 19.0781 2.4278 19.0781 3.26826V10.2303C19.0781 11.0708 18.3805 11.75 17.5206 11.75H1.55921Z" fill="white"/>
<path d="M18.2534 2.55195C18.0575 2.35932 17.7971 2.25372 17.5193 2.25372H13.0587L15.6254 6.43323L15.8594 6.46177L15.9968 6.65155V6.8342L16.1621 6.86274L16.3098 7.06109V7.23232L16.4751 7.26086C16.4751 7.26086 16.6433 7.43066 16.6433 7.44208C16.6433 7.43066 16.6433 7.83163 16.6433 7.83163C16.6433 7.83163 17.0059 8.15698 17.3277 8.28112C17.5529 8.36674 17.5836 8.71919 17.7109 8.91183C17.8849 9.17724 18.1203 9.29282 18.0721 9.44265C17.9551 9.85504 17.5251 10.54 17.1259 10.5799C17.1259 10.5799 16.1255 10.5813 15.5391 10.5813V11.2406H17.5193C18.0911 11.2406 18.5576 10.7868 18.5576 10.226V3.26828C18.5576 2.99716 18.4494 2.74316 18.2534 2.55195Z" fill="#E73137"/>
<path d="M2.66793 9.8122C2.27453 9.8122 1.95425 9.50113 1.95278 9.11586C1.95278 8.73201 2.2716 8.41808 2.665 8.41808C3.05841 8.41808 3.37723 8.73058 3.37723 9.11443C3.37869 9.4997 3.05987 9.8122 2.66793 9.8122ZM11.5392 2.25513H1.55938C1.28297 2.25513 1.02119 2.36072 0.826684 2.55336C0.630714 2.74457 0.522491 2.99856 0.522491 3.26968V10.2317C0.522491 10.5014 0.630714 10.7568 0.826684 10.948C1.02119 11.1407 1.28297 11.2463 1.55938 11.2463H8.03957C7.87723 10.9809 7.69442 10.6798 7.63885 10.5899H6.86521C6.86521 8.71917 7.51893 7.67893 8.28965 7.48058C8.39787 7.46061 8.34815 6.94691 8.21214 6.79422C8.21214 6.79422 7.84067 6.80421 7.76316 6.78281C7.66518 6.75427 7.73245 6.65867 7.73245 6.65867L8.09368 5.89525L8.04249 5.68692H6.7058C6.68679 5.68692 7.80996 4.93207 7.80996 4.93207C7.867 2.94719 9.95101 2.79451 11.2146 3.61357C11.9575 4.09873 12.0175 5.05336 11.9604 5.71974C11.9502 5.75969 11.7645 5.72973 11.7645 5.72973C11.7645 5.72973 11.6358 6.45461 11.9692 6.45461H13.4331C14.0298 6.43464 14.6075 6.82562 14.6075 6.82562L14.7537 6.32904L11.5392 2.25513Z" fill="#004587"/>
<path d="M19.5126 10.8039V10.6598H19.6281C19.6837 10.6598 19.7364 10.6669 19.7364 10.7283C19.7364 10.8125 19.6486 10.8039 19.5887 10.8039H19.5126ZM19.6603 10.8496C19.7364 10.8467 19.7993 10.8153 19.7993 10.7283C19.7993 10.6941 19.7832 10.6555 19.7481 10.637C19.7159 10.6141 19.6793 10.6141 19.6413 10.6141H19.4526V11.0465H19.5126V10.851H19.5945L19.7217 11.0465H19.7905L19.6603 10.851V10.8496ZM19.6091 11.2149C19.8227 11.2149 19.9967 11.0437 19.9967 10.831C19.9967 10.6184 19.8227 10.4458 19.6091 10.4458C19.3956 10.4458 19.2157 10.6156 19.2157 10.831C19.2157 11.0465 19.3912 11.2149 19.6091 11.2149ZM19.6091 11.1535C19.4219 11.1535 19.2801 11.0151 19.2801 10.8325C19.2801 10.6498 19.4219 10.5086 19.6091 10.5086C19.7963 10.5086 19.9323 10.6527 19.9323 10.8325C19.9323 11.0123 19.7919 11.155 19.6091 11.1535Z" fill="#D1D7E7"/>
</g>
<defs>
<clipPath id="clip0_676_2118">
<rect width="20" height="10" fill="white" transform="translate(0 1.75)"/>
</clipPath>
</defs>
</svg>
