<svg width="20" height="14" viewBox="0 0 20 14" fill="none" xmlns="http://www.w3.org/2000/svg">
<g clip-path="url(#clip0_676_2125)">
<path d="M10.3291 0.363281C10.5771 0.714261 10.8741 1.01616 11.21 1.27734C11.757 1.70269 12.3699 1.98864 13.043 2.12988C13.8401 2.29701 14.6102 2.19445 15.3428 1.83789H15.3438C15.3915 1.81463 15.437 1.7873 15.4834 1.76172C15.4834 4.77243 15.4825 7.78325 15.4834 10.7939C15.4836 11.2267 15.3327 11.5894 15.0381 11.8994C14.8012 12.1487 14.5094 12.3221 14.1807 12.458C13.8385 12.5995 13.4806 12.6916 13.1104 12.748C12.6729 12.8149 12.2304 12.906 11.8018 13.0762C11.2245 13.3056 10.7277 13.656 10.3418 14.1621C9.94089 13.636 9.41925 13.2729 8.80273 13.0449C8.42636 12.9057 8.04109 12.8199 7.6543 12.7617C7.14507 12.6851 6.66122 12.5642 6.2168 12.3311C5.93413 12.1828 5.69138 11.9986 5.50488 11.752C5.30438 11.4868 5.20004 11.1938 5.2002 10.8594C5.20147 7.82579 5.20022 4.79228 5.2002 1.75879C5.55121 1.95377 5.92645 2.08338 6.32227 2.15332C7.03371 2.27901 7.71244 2.16364 8.3623 1.90234C9.11613 1.59936 9.75013 1.12642 10.252 0.472656C10.2792 0.437115 10.3036 0.399748 10.3291 0.363281Z" fill="#00306B" stroke="white" stroke-width="0.4"/>
<path d="M10.3437 5.93239C11.8804 5.93239 13.4172 5.9323 14.9539 5.93257C15.0639 5.93257 15.0483 5.91821 15.0483 6.02753C15.0486 7.62955 15.0452 9.23167 15.0511 10.8337C15.0524 11.1691 14.9277 11.433 14.695 11.654C14.488 11.8506 14.242 11.9811 13.981 12.0845C13.6933 12.1985 13.3955 12.2756 13.0914 12.3254C12.6854 12.3919 12.2836 12.4749 11.8943 12.6132C11.4406 12.7743 11.0139 12.9878 10.6343 13.2926C10.5411 13.3673 10.4523 13.447 10.3726 13.5366C10.3496 13.5625 10.3344 13.5679 10.3082 13.5394C10.0147 13.221 9.65661 12.9975 9.2733 12.8138C8.84345 12.6078 8.39174 12.4709 7.92504 12.3858C7.60072 12.3266 7.27465 12.2767 6.95913 12.1753C6.65241 12.0767 6.35832 11.9515 6.10084 11.7496C5.94268 11.6256 5.80937 11.4793 5.72075 11.2941C5.66245 11.1724 5.63213 11.0451 5.63222 10.9087C5.633 9.27687 5.63265 7.64498 5.63291 6.01317C5.63291 5.92178 5.62411 5.93239 5.71151 5.93239C7.25557 5.93221 8.79971 5.9323 10.3438 5.9323L10.3437 5.93239Z" fill="white"/>
<path d="M11.5954 1.93489C11.5863 1.91126 11.5767 1.88825 11.5614 1.86828C11.5403 1.84082 11.5173 1.83386 11.4854 1.85401C11.3029 1.97011 11.1394 2.11001 10.9852 2.26614C11.0475 2.31348 11.1145 2.34719 11.1713 2.4039C11.1254 2.44741 11.0814 2.48932 11.036 2.53238C10.868 2.39141 10.6828 2.29797 10.4796 2.23939C10.4908 2.21433 10.5105 2.20738 10.5262 2.19623C10.6333 2.12017 10.6338 2.11919 10.7579 2.16422C10.7916 2.17644 10.8165 2.17287 10.8449 2.15076C10.9665 2.05615 11.0962 1.97394 11.2309 1.90056C11.2976 1.86427 11.3666 1.83199 11.4384 1.79579C11.4027 1.77207 11.3679 1.77608 11.3342 1.77644C11.0139 1.77965 10.7017 1.83262 10.404 1.95433C9.53059 2.31107 9.02886 2.96572 8.92203 3.92407C8.87741 4.32362 8.92665 4.71781 9.04123 5.10256C9.0604 5.16685 9.08062 5.23167 9.11852 5.2899C9.13656 5.26894 9.1349 5.24522 9.13743 5.2232C9.15033 5.11067 9.16984 4.9994 9.19189 4.88848C9.27354 4.47796 9.39779 4.08153 9.56719 3.7C9.59019 3.64819 9.58871 3.6498 9.53556 3.62849C9.4885 3.60967 9.43552 3.60967 9.3889 3.58185C9.40572 3.54672 9.42036 3.51498 9.43605 3.48386C9.46497 3.42662 9.4655 3.42572 9.52614 3.4407C9.68255 3.47949 9.83191 3.53754 9.96531 3.63054C10.1301 3.74529 10.1221 3.69215 10.0023 3.87681C9.94693 3.8399 9.89098 3.80369 9.83635 3.76571C9.81152 3.74841 9.7967 3.75385 9.78477 3.78024C9.77753 3.7962 9.76795 3.81092 9.75967 3.82643C9.51464 4.28313 9.33444 4.76543 9.21515 5.27162C9.19598 5.35294 9.20522 5.36417 9.28556 5.35944C9.30517 5.3582 9.32477 5.35615 9.34429 5.35276C9.42193 5.33956 9.49966 5.32735 9.57686 5.31192C9.95825 5.23559 10.323 5.11246 10.6585 4.90782C11.0699 4.65709 11.3821 4.3147 11.5743 3.86326C11.6834 3.60709 11.7404 3.33816 11.7598 3.0597C11.7868 2.67192 11.7341 2.29716 11.5955 1.93498L11.5954 1.93489ZM10.3071 3.40227C10.2776 3.43892 10.2537 3.48012 10.2226 3.52648C10.0303 3.36857 9.82215 3.26648 9.58165 3.2169C9.60945 3.15885 9.64247 3.11026 9.67462 3.06104C9.68682 3.04232 9.70364 3.04686 9.72072 3.05105C9.79243 3.06862 9.86258 3.09073 9.93107 3.11855C10.062 3.17169 10.1826 3.24303 10.2949 3.32996C10.3241 3.35261 10.3329 3.36982 10.307 3.40219L10.3071 3.40227ZM10.5716 3.0416C10.5381 3.08164 10.513 3.14361 10.4715 3.15814C10.4303 3.17267 10.3927 3.10972 10.3525 3.08244C10.2015 2.97981 10.0396 2.90358 9.86275 2.86149C9.85352 2.85926 9.84454 2.85569 9.82223 2.84838C9.86127 2.80041 9.89447 2.76029 9.9268 2.71954C9.94117 2.70144 9.95703 2.69921 9.97882 2.70429C10.196 2.7552 10.3903 2.85373 10.5658 2.99301C10.5862 3.00924 10.5883 3.02154 10.5715 3.04151L10.5716 3.0416ZM10.7434 2.83581C10.5616 2.68423 10.3569 2.58222 10.1171 2.52302C10.1706 2.47639 10.2147 2.43796 10.2587 2.39953C10.2736 2.38651 10.2899 2.38981 10.3073 2.39293C10.4684 2.42137 10.752 2.57242 10.8727 2.69707C10.831 2.74174 10.7891 2.78668 10.7434 2.83581Z" fill="white"/>
<path d="M8.40026 5.42177C8.27739 5.33376 8.16098 5.2503 8.04439 5.16685C8.00768 5.14057 7.97024 5.14108 7.93207 5.16836C7.83753 5.2363 7.74334 5.30478 7.64844 5.37219C7.62649 5.3878 7.60653 5.40732 7.57856 5.41606C7.56837 5.38922 7.58536 5.36738 7.5918 5.34517C7.62535 5.22962 7.66169 5.11486 7.69707 4.99975C7.7142 4.94393 7.6991 4.89789 7.65175 4.86163C7.55338 4.7862 7.455 4.71077 7.35662 4.63524C7.34303 4.62481 7.32979 4.61376 7.31619 4.60288C7.32726 4.57845 7.34678 4.58941 7.36124 4.58932C7.48916 4.58843 7.61716 4.58959 7.74508 4.58852C7.83169 4.58781 7.81339 4.60154 7.84162 4.51986C7.88258 4.40145 7.92196 4.28242 7.96335 4.16419C7.9705 4.14377 7.97076 4.11835 7.99673 4.10382C8.04221 4.2365 8.08752 4.36873 8.13275 4.50087C8.13763 4.51514 8.14399 4.52905 8.14686 4.54367C8.15401 4.57978 8.17414 4.59013 8.20978 4.58959C8.34998 4.58745 8.49027 4.5887 8.63047 4.5887C8.63962 4.5887 8.64886 4.5887 8.65896 4.5887C8.66219 4.61589 8.64232 4.62151 8.63038 4.63079C8.52085 4.71621 8.41176 4.80225 8.29996 4.88446C8.26537 4.90996 8.26005 4.93341 8.27286 4.97291C8.31382 5.09926 8.35102 5.22685 8.38997 5.35391C8.39572 5.37282 8.40566 5.39065 8.39999 5.42168L8.40026 5.42177Z" fill="white"/>
<path d="M6.53544 5.40593C6.42251 5.32541 6.31011 5.24409 6.1964 5.16473C6.13584 5.12247 6.15657 5.1189 6.09009 5.16589C5.98692 5.23883 5.8848 5.31328 5.78215 5.38693C5.76655 5.39808 5.75296 5.41333 5.72516 5.41591C5.75688 5.31061 5.78773 5.20807 5.81866 5.10562C5.83312 5.05765 5.84498 5.00852 5.86336 4.96206C5.87713 4.92729 5.8699 4.90838 5.84071 4.88681C5.7371 4.81012 5.63541 4.73077 5.53338 4.65177C5.51229 4.63545 5.4878 4.6227 5.46994 4.59577C5.48867 4.58382 5.50837 4.589 5.52632 4.58891C5.65179 4.58837 5.77736 4.58864 5.90283 4.58855C5.94995 4.58855 5.98163 4.56456 5.9979 4.51659C6.03746 4.40032 6.07658 4.28387 6.11693 4.16787C6.12416 4.14709 6.12547 4.12284 6.14629 4.10492C6.17069 4.13978 6.1774 4.18124 6.19082 4.2195C6.22838 4.32587 6.26628 4.43215 6.29939 4.53996C6.31133 4.57892 6.3298 4.58989 6.36736 4.58944C6.50765 4.58757 6.64794 4.58864 6.78823 4.58882C6.79764 4.58882 6.80705 4.5898 6.82082 4.59051C6.81489 4.61521 6.7952 4.62261 6.78099 4.63367C6.67739 4.71454 6.57326 4.79479 6.46922 4.87522C6.43158 4.90434 6.42013 4.94319 6.43489 4.99175C6.47471 5.12372 6.51444 5.25577 6.55418 5.38782C6.55723 5.40387 6.55 5.40896 6.53544 5.4061V5.40593Z" fill="white"/>
<path d="M6.53627 3.71257C6.4195 3.62884 6.30213 3.54592 6.18641 3.46076C6.15618 3.43847 6.13422 3.43651 6.10259 3.46023C6.00151 3.53611 5.89782 3.60833 5.795 3.68189C5.77496 3.69616 5.75457 3.70989 5.72171 3.73263C5.75186 3.63169 5.77792 3.54396 5.80441 3.45631C5.82323 3.39389 5.83987 3.33058 5.86279 3.26977C5.87717 3.23161 5.86749 3.21146 5.83691 3.18872C5.72546 3.10598 5.61584 3.02047 5.50562 2.93594C5.49385 2.92693 5.4827 2.91722 5.47102 2.90759C5.48165 2.88351 5.50143 2.89457 5.51607 2.89448C5.6514 2.8935 5.78681 2.89243 5.92213 2.89484C5.96047 2.89555 5.97851 2.88208 5.99044 2.84562C6.03331 2.71463 6.07897 2.58454 6.12324 2.454C6.1289 2.43742 6.13204 2.41994 6.14938 2.40363C6.19539 2.53755 6.24061 2.66934 6.28592 2.80112C6.28671 2.80353 6.28688 2.80612 6.28775 2.80843C6.32635 2.91053 6.30082 2.89269 6.40382 2.89359C6.54123 2.89475 6.67865 2.89385 6.82303 2.89385C6.81057 2.92123 6.79062 2.93139 6.77423 2.94405C6.66828 3.026 6.56267 3.10847 6.45514 3.18837C6.42203 3.21298 6.41401 3.23607 6.42734 3.27691C6.47231 3.4152 6.51309 3.55492 6.55544 3.69402C6.55788 3.7098 6.55082 3.71524 6.53627 3.71248V3.71257Z" fill="white"/>
<path d="M8.38306 3.71191C8.26639 3.6289 8.1484 3.54776 8.03399 3.46163C7.99923 3.4355 7.97735 3.43791 7.94442 3.46207C7.82696 3.54821 7.70723 3.63113 7.58838 3.71521C7.57879 3.70309 7.57897 3.69025 7.5862 3.67705C7.62489 3.54758 7.6634 3.41802 7.70226 3.28856C7.72265 3.2207 7.72292 3.22079 7.66889 3.17924C7.55117 3.08865 7.43345 2.99815 7.31468 2.90675C7.33106 2.88473 7.35206 2.89418 7.36949 2.894C7.49976 2.89302 7.63012 2.89151 7.76038 2.89454C7.80421 2.89561 7.8253 2.88161 7.83898 2.83872C7.88011 2.70988 7.92525 2.58237 7.96881 2.45442C7.97439 2.43801 7.97622 2.41973 7.996 2.40475C8.04227 2.53993 8.08793 2.67341 8.13368 2.80689C8.13856 2.82107 8.14544 2.83489 8.14805 2.84951C8.15476 2.88705 8.17681 2.89472 8.2114 2.89427C8.34411 2.8924 8.47691 2.89329 8.60962 2.89382C8.626 2.89382 8.64334 2.88883 8.66373 2.90096C8.65615 2.92022 8.63828 2.92896 8.62408 2.9401C8.5244 3.01776 8.42454 3.09525 8.32433 3.1722C8.24504 3.2331 8.25706 3.21357 8.28355 3.30657C8.32198 3.44139 8.36346 3.5754 8.40362 3.70968C8.39744 3.71619 8.39073 3.71691 8.38332 3.71191H8.38306Z" fill="white"/>
<path d="M12.2707 3.70412C12.3077 3.58241 12.3448 3.4607 12.3815 3.3389C12.3937 3.29842 12.422 3.25588 12.4117 3.21737C12.4012 3.17795 12.3517 3.16146 12.3189 3.13569C12.2179 3.05616 12.1155 2.97831 12.0142 2.90021C12.0254 2.87203 12.0453 2.88335 12.0596 2.88326C12.1949 2.88228 12.3303 2.88121 12.4656 2.88362C12.5044 2.88433 12.5215 2.86989 12.5333 2.83333C12.5725 2.71171 12.6145 2.59098 12.6563 2.47016C12.6642 2.44734 12.6661 2.42103 12.6921 2.39758C12.7103 2.44939 12.7274 2.49718 12.744 2.54506C12.7775 2.64216 12.813 2.73873 12.843 2.8369C12.854 2.87283 12.8705 2.88371 12.9054 2.88326C13.0456 2.88166 13.1859 2.88255 13.3262 2.88264C13.3356 2.88264 13.3449 2.88362 13.3586 2.88433C13.3564 2.91046 13.3366 2.9184 13.3225 2.92927C13.2188 3.00988 13.1143 3.08968 13.0103 3.1702C12.9548 3.21317 12.955 3.21353 12.975 3.27933C13.0129 3.40408 13.0509 3.52891 13.0889 3.65356C13.094 3.67014 13.1036 3.68575 13.0964 3.70519C13.0748 3.70688 13.0624 3.68985 13.0475 3.67924C12.9486 3.60889 12.8501 3.53782 12.7515 3.46712C12.6876 3.42129 12.6878 3.42155 12.6213 3.46952C12.5228 3.5405 12.424 3.61112 12.3254 3.68174C12.3114 3.69172 12.2973 3.70135 12.2832 3.71116C12.279 3.70875 12.2749 3.70643 12.2707 3.70403V3.70412Z" fill="white"/>
<path d="M14.9292 3.69681C14.8143 3.61469 14.6985 3.53381 14.5849 3.44964C14.554 3.42673 14.5332 3.42583 14.5019 3.44946C14.4009 3.52561 14.2975 3.59837 14.1942 3.67122C14.1747 3.68495 14.1585 3.70572 14.1245 3.70911C14.1507 3.62218 14.1757 3.5389 14.2009 3.45579C14.2198 3.39338 14.2365 3.33007 14.259 3.2689C14.2749 3.22575 14.2641 3.20159 14.228 3.1751C14.1259 3.10047 14.027 3.0212 13.927 2.94363C13.9077 2.92865 13.8887 2.91314 13.8702 2.89834C13.8813 2.87114 13.9014 2.88264 13.916 2.88246C14.0392 2.88139 14.1623 2.88273 14.2854 2.88157C14.3855 2.88068 14.3643 2.89825 14.4002 2.79473C14.4414 2.67623 14.4808 2.55719 14.5213 2.43851C14.5261 2.42433 14.5328 2.41087 14.5388 2.39651C14.5642 2.41479 14.5649 2.44511 14.5737 2.47008C14.6154 2.58831 14.6567 2.70681 14.694 2.82656C14.7076 2.87016 14.7287 2.88389 14.7727 2.88291C14.9007 2.87997 15.0288 2.88184 15.1568 2.88184H15.213C15.215 2.91091 15.1944 2.91501 15.182 2.92464C15.0724 3.01015 14.9632 3.09619 14.8518 3.17903C14.8182 3.20399 14.8114 3.22521 14.825 3.26676C14.8698 3.40247 14.9087 3.54023 14.9499 3.67719C14.9519 3.69351 14.9447 3.69957 14.9293 3.69663L14.9292 3.69681Z" fill="white"/>
<path d="M12.6935 4.09411C12.7439 4.24106 12.7948 4.38515 12.8419 4.53048C12.8541 4.5682 12.8712 4.58122 12.9099 4.58051C13.0378 4.57819 13.1657 4.57988 13.2936 4.57997C13.3151 4.57997 13.3367 4.57997 13.3602 4.57997C13.3554 4.60886 13.3344 4.61492 13.3204 4.62598C13.213 4.71015 13.1062 4.79513 12.996 4.87537C12.9606 4.90123 12.9572 4.92522 12.9693 4.96329C13.0112 5.09463 13.0508 5.22668 13.0914 5.35847C13.0957 5.37256 13.1042 5.38611 13.0929 5.40617C13.0585 5.38228 13.0243 5.35901 12.9906 5.33484C12.9059 5.27421 12.8218 5.21313 12.7373 5.1525C12.6885 5.11755 12.6882 5.11764 12.6371 5.15419C12.5384 5.22481 12.44 5.29597 12.3411 5.36623C12.3213 5.38032 12.3037 5.39913 12.2784 5.40457C12.2651 5.38308 12.2814 5.36569 12.2867 5.34804C12.3246 5.22071 12.3622 5.0932 12.4041 4.96713C12.4183 4.92442 12.4117 4.8999 12.3757 4.87323C12.2622 4.78924 12.1511 4.70168 12.0395 4.61501C12.0301 4.60779 12.0174 4.60315 12.0116 4.5797C12.0392 4.5797 12.065 4.5797 12.0908 4.5797C12.2113 4.5797 12.3319 4.5797 12.4524 4.57944C12.515 4.57926 12.5155 4.57908 12.5355 4.52068C12.5794 4.39272 12.6228 4.26451 12.6668 4.13655C12.6715 4.12291 12.6711 4.10615 12.6937 4.09393L12.6935 4.09411Z" fill="white"/>
<path d="M14.9279 5.39083C14.8148 5.3104 14.7004 5.23193 14.5897 5.14856C14.5528 5.12083 14.5283 5.12485 14.4943 5.15053C14.4013 5.2207 14.3061 5.28775 14.2114 5.35561C14.1876 5.37264 14.1628 5.38824 14.1375 5.40509C14.1256 5.37736 14.1387 5.35739 14.145 5.33652C14.1829 5.21178 14.2192 5.08642 14.2598 4.96266C14.273 4.92226 14.2659 4.8989 14.2324 4.87412C14.1289 4.79734 14.0276 4.71754 13.9254 4.63881C13.9064 4.62419 13.8875 4.60921 13.865 4.59155C13.8925 4.5714 13.9177 4.57996 13.9406 4.57978C14.0636 4.5788 14.1866 4.57978 14.3096 4.57951C14.3696 4.57942 14.3697 4.57907 14.3906 4.51835C14.4394 4.37631 14.4881 4.23418 14.5375 4.09009C14.5629 4.11496 14.5669 4.14608 14.5765 4.17399C14.6174 4.2924 14.6579 4.41099 14.6967 4.53021C14.7083 4.56578 14.7258 4.5813 14.7647 4.58049C14.89 4.578 15.0156 4.57907 15.141 4.5796C15.1644 4.57969 15.1891 4.57461 15.2213 4.58968C15.1674 4.63168 15.1196 4.6693 15.0714 4.70657C14.9988 4.76266 14.927 4.81999 14.8528 4.87385C14.8197 4.89774 14.8108 4.91879 14.8248 4.96123C14.8694 5.09685 14.9076 5.23461 14.9484 5.37148C14.951 5.38824 14.9434 5.39386 14.928 5.39091L14.9279 5.39083Z" fill="white"/>
<path d="M8.12731 9.52759C8.14038 9.49192 8.13638 9.46722 8.13646 9.44324C8.13672 8.72537 8.13603 8.00742 8.13794 7.28955C8.13812 7.23454 8.12409 7.20217 8.0746 7.17854C8.01238 7.14885 7.95478 7.10926 7.89344 7.07734C7.85789 7.05879 7.84647 7.03454 7.84717 6.99361C7.8497 6.8299 7.84796 6.6662 7.8483 6.5024C7.84848 6.43508 7.849 6.43473 7.91915 6.43473C8.21959 6.43455 8.52004 6.43473 8.82048 6.43473C8.91895 6.43473 9.0175 6.43428 9.11596 6.4349C9.16929 6.43526 9.1706 6.43606 9.17077 6.48751C9.17138 6.66129 9.17007 6.83517 9.17182 7.00895C9.17217 7.04185 9.15971 7.05906 9.13348 7.07404C9.06917 7.11095 9.00687 7.1517 8.94204 7.18763C8.90736 7.2068 8.89002 7.23052 8.89664 7.27154C8.89899 7.28625 8.89699 7.30168 8.89699 7.31683C8.89699 8.85841 8.89699 10.4 8.89673 11.9416C8.89673 11.9713 8.90187 12.0016 8.88976 12.0374C8.80306 12.0117 8.71653 11.9866 8.63027 11.9603C8.50313 11.9216 8.3767 11.8807 8.24904 11.8438C8.20765 11.8319 8.18387 11.8129 8.16931 11.7686C7.90756 10.9728 7.64397 10.1777 7.38064 9.38243C7.32069 9.20142 7.26083 9.02042 7.20071 8.8395C7.19478 8.82167 7.18746 8.80419 7.17875 8.78101C7.1628 8.81284 7.16838 8.83808 7.16838 8.86233C7.16803 9.47694 7.16873 10.0916 7.16698 10.7062C7.16681 10.7568 7.18093 10.789 7.22171 10.8183C7.3003 10.8744 7.37367 10.9382 7.45131 10.9959C7.48216 11.0188 7.49575 11.0428 7.49514 11.083C7.49279 11.2517 7.49444 11.4205 7.49401 11.5893C7.49383 11.6562 7.49165 11.6579 7.42717 11.6411C7.03916 11.54 6.65122 11.4387 6.26329 11.3374C6.21336 11.3244 6.16378 11.3093 6.11333 11.2985C6.08327 11.2921 6.07316 11.2767 6.07334 11.2466C6.07412 11.0955 6.07456 10.9443 6.07307 10.7932C6.07273 10.7587 6.08815 10.7451 6.11708 10.7343C6.19315 10.7058 6.26817 10.6744 6.34355 10.6441C6.38078 10.6291 6.39957 10.6 6.39992 10.557C6.39992 10.5469 6.39992 10.5368 6.39992 10.5268C6.39992 9.45367 6.39992 8.38066 6.39992 7.30756C6.39992 7.2924 6.39818 7.27707 6.40027 7.26227C6.40594 7.22294 6.38624 7.20351 6.35374 7.1879C6.27366 7.14947 6.1955 7.10694 6.11525 7.06887C6.08074 7.05255 6.06288 7.03507 6.06375 6.99103C6.06706 6.82233 6.0648 6.65354 6.06523 6.48475C6.06541 6.4308 6.06619 6.42955 6.11656 6.42946C6.44166 6.42911 6.76668 6.43053 7.09179 6.42786C7.13962 6.4275 7.14755 6.4539 7.15836 6.48814C7.27155 6.84435 7.38535 7.20039 7.49871 7.55651C7.70043 8.18994 7.90189 8.82336 8.10361 9.4567C8.11015 9.47712 8.11721 9.49736 8.12723 9.52741L8.12731 9.52759Z" fill="#F80202"/>
<path d="M10.8693 12.6969C10.7807 12.6637 10.7027 12.6348 10.625 12.6052C10.2591 12.4658 9.89316 12.3268 9.52771 12.1864C9.45669 12.1591 9.46323 12.1752 9.46314 12.0909C9.46288 11.9574 9.46462 11.8238 9.46218 11.6904C9.46149 11.651 9.47551 11.6321 9.51002 11.6189C9.5813 11.5917 9.65075 11.5593 9.72211 11.5323C9.75897 11.5184 9.7825 11.5006 9.77387 11.4561C9.77152 11.444 9.77352 11.431 9.77352 11.4184C9.77352 10.0481 9.77352 8.67784 9.77352 7.30755C9.77352 7.2899 9.77152 7.27197 9.77396 7.25468C9.77857 7.22142 9.76263 7.20394 9.73544 7.19048C9.66251 7.15419 9.59097 7.11495 9.51743 7.08018C9.47961 7.06235 9.46262 7.04077 9.46349 6.99467C9.46671 6.82347 9.46584 6.6521 9.46401 6.48081C9.46358 6.44203 9.47395 6.42767 9.51324 6.42901C9.59193 6.43168 9.67079 6.42981 9.74965 6.42981C10.4441 6.42981 11.1386 6.42972 11.833 6.4299C11.924 6.4299 11.9143 6.41983 11.9144 6.51577C11.9145 6.87573 11.9145 7.23577 11.9145 7.59573C11.9145 7.6108 11.9139 7.62596 11.9147 7.64103C11.9163 7.67072 11.9013 7.68062 11.8743 7.68053C11.7192 7.68008 11.564 7.67946 11.4089 7.68088C11.3699 7.68124 11.3668 7.652 11.3587 7.62721C11.3184 7.50318 11.2795 7.37862 11.2399 7.25441C11.2214 7.19651 11.1837 7.16759 11.1269 7.16765C10.9669 7.16765 10.8068 7.16729 10.6467 7.16783C10.5911 7.16801 10.5902 7.16899 10.5902 7.22623C10.5899 7.66706 10.5899 8.1079 10.5902 8.54864C10.5902 8.60856 10.5909 8.60909 10.6519 8.60936C10.7702 8.6098 10.8884 8.60758 11.0065 8.61052C11.0466 8.6115 11.0694 8.59688 11.0899 8.56371C11.128 8.502 11.1715 8.44387 11.2094 8.38208C11.2297 8.349 11.2519 8.33313 11.2922 8.33473C11.3808 8.33821 11.4695 8.33544 11.5582 8.33598C11.6166 8.33634 11.6173 8.33687 11.6174 8.39938C11.6177 8.69665 11.6175 8.99384 11.6175 9.29111C11.6175 9.38429 11.6158 9.47756 11.6183 9.57074C11.6194 9.61077 11.6063 9.62308 11.568 9.62218C11.472 9.61995 11.3759 9.61995 11.2799 9.62227C11.2482 9.62308 11.2303 9.60997 11.2139 9.58509C11.1742 9.52446 11.1315 9.46588 11.0929 9.40444C11.0736 9.37359 11.0512 9.36155 11.015 9.36218C10.8919 9.36432 10.7688 9.36316 10.6457 9.36289C10.5921 9.3628 10.5897 9.35879 10.5898 9.42156C10.5902 9.75406 10.59 10.0866 10.59 10.4191C10.59 10.8372 10.5907 11.2553 10.589 11.6735C10.5889 11.7223 10.602 11.7588 10.6332 11.795C10.7047 11.8781 10.7723 11.9649 10.8423 12.0493C10.8588 12.0692 10.8701 12.0883 10.87 12.1161C10.8691 12.3049 10.8695 12.4936 10.8695 12.6967L10.8693 12.6969Z" fill="#F80202"/>
<path d="M13.3273 10.8294C13.4537 10.795 13.5716 10.7629 13.6895 10.7306C13.7536 10.7131 13.8173 10.6939 13.8818 10.678C13.9198 10.6687 13.937 10.651 13.9419 10.6076C13.9734 10.3302 14.0096 10.0534 14.042 9.77613C14.0477 9.72798 14.0426 9.71737 14.1034 9.71763C14.2585 9.71817 14.4136 9.71746 14.5687 9.71799C14.6268 9.71817 14.6275 9.71915 14.6276 9.7829C14.6279 9.96426 14.6277 10.1455 14.6277 10.3269C14.6277 10.6266 14.6277 10.9263 14.6277 11.2259C14.6277 11.2963 14.6275 11.2965 14.56 11.3148C13.7746 11.5298 12.9891 11.7447 12.2037 11.9594C12.1872 11.9639 12.1703 11.9668 12.1553 11.9701C12.1383 11.9615 12.1436 11.9473 12.1436 11.9362C12.1431 11.7575 12.1444 11.5786 12.1424 11.3998C12.142 11.3604 12.1541 11.3351 12.1844 11.3109C12.2718 11.2414 12.3552 11.1666 12.4431 11.0976C12.4822 11.067 12.4954 11.0332 12.4953 10.9832C12.494 9.80956 12.4943 8.63606 12.4943 7.46248C12.4943 7.39952 12.4917 7.3364 12.4953 7.27362C12.4976 7.2327 12.4856 7.20987 12.4482 7.19204C12.377 7.15816 12.3092 7.11687 12.2387 7.08138C12.209 7.0664 12.1955 7.04893 12.1959 7.01291C12.1978 6.83663 12.1978 6.66035 12.1959 6.48407C12.1955 6.44314 12.2108 6.43378 12.2477 6.43387C12.681 6.43485 13.1144 6.4344 13.5477 6.43467C13.6018 6.43467 13.6026 6.43592 13.6028 6.49477C13.6032 6.66605 13.602 6.83725 13.6036 7.00854C13.604 7.0459 13.5935 7.06712 13.5594 7.08424C13.4957 7.11643 13.436 7.157 13.3725 7.19017C13.3367 7.20889 13.3229 7.2327 13.3265 7.27354C13.3301 7.31348 13.3273 7.35405 13.3273 7.39435V10.7337C13.3273 10.7631 13.3273 10.7925 13.3273 10.8292V10.8294Z" fill="#F80202"/>
</g>
<defs>
<clipPath id="clip0_676_2125">
<rect width="20" height="14" fill="white"/>
</clipPath>
</defs>
</svg>
