<svg width="20" height="14" viewBox="0 0 20 14" fill="none" xmlns="http://www.w3.org/2000/svg">
<path d="M4.66229 8.47751C4.66229 7.20615 5.25955 6.72269 5.38143 5.51706C5.21413 6.57237 4.51241 7.43882 4.51241 8.47751C4.51241 8.87712 4.56767 9.24123 4.66759 9.5721C5.1074 11.0346 6.4185 11.8481 7.68646 12.1692C5.73191 11.6759 4.66153 10.0382 4.66153 8.47751" fill="white"/>
<path d="M15.4593 6.81023C15.2223 6.2346 14.9619 5.71488 14.9619 5.07581C14.9619 6.62364 15.703 7.06178 15.703 8.47817C15.703 10.0388 14.6326 11.6766 12.6773 12.1699C14.4404 11.7249 15.8416 10.4362 15.8416 8.47817C15.8416 7.81492 15.6584 7.29293 15.4593 6.81098" fill="white"/>
<path d="M15.196 2.30922C14.7955 2.19138 14.5048 1.88997 14.33 1.41255L13.925 0.305878L13.7373 1.00614C14.1211 2.72696 15.5389 2.84934 15.5389 2.84934L16.115 2.57966" fill="#E4E5E6"/>
<path d="M8.50494 8.57397L7.76309 7.43935L6.93873 8.05652C6.93873 8.05652 7.22714 8.06483 7.22714 8.36623V10.5025L7.80851 10.0667V8.55584L8.47163 9.56885L9.0863 9.1088V6.44598L8.50494 6.88186" fill="#E4E5E6"/>
<path d="M10.863 6.09952L10.2067 6.59129V5.60699L9.32024 6.271C9.32024 6.271 9.60865 6.27931 9.60865 6.58072V8.71701L10.2059 8.26906V7.29533L10.8622 6.80356V7.77728L11.4307 7.35048V4.68842L10.8622 5.11522" fill="#E4E5E6"/>
<path d="M12.5252 5.85227V3.86856L11.6388 4.53257C11.6388 4.53257 11.9272 4.54087 11.9272 4.84228V6.97858L13.5766 5.74198C13.5411 5.31593 13.5766 5.06286 13.5766 5.06286" fill="#E4E5E6"/>
<mask id="mask0_676_2141" style="mask-type:luminance" maskUnits="userSpaceOnUse" x="4" y="2" width="2" height="8">
<path d="M4.98773 5.0797C4.98773 6.59203 4.24512 6.89193 4.24512 8.47829C4.24512 8.96251 4.32764 9.415 4.47525 9.83123C4.52218 9.73605 4.59031 9.64389 4.66828 9.57288C4.56836 9.24201 4.5131 8.87715 4.5131 8.47829C4.5131 7.4396 5.21407 6.5739 5.38212 5.51784C5.39575 5.38036 5.40407 5.23456 5.40407 5.07593C5.40407 3.86954 4.82725 2.85049 4.82725 2.85049L4.25118 2.58081L4.64179 3.46615C4.8386 3.91184 4.98697 4.45951 4.98697 5.0797" fill="white"/>
</mask>
<g mask="url(#mask0_676_2141)">
<path d="M5.40407 2.58081H4.24512V9.83123H5.40407V2.58081Z" fill="url(#paint0_linear_676_2141)"/>
</g>
<mask id="mask1_676_2141" style="mask-type:luminance" maskUnits="userSpaceOnUse" x="14" y="2" width="3" height="5">
<path d="M14.9617 5.07668C14.9617 5.71576 15.2221 6.23624 15.4591 6.8111L15.7687 6.80128C15.5764 6.32084 15.3773 5.86306 15.3773 5.0797C15.3773 4.46027 15.5264 3.91184 15.7232 3.46615L16.1139 2.58081L15.5378 2.85049C15.5378 2.85049 14.961 3.86954 14.961 5.07593" fill="white"/>
</mask>
<g mask="url(#mask1_676_2141)">
<path d="M16.1137 2.58081H14.9615V6.8111H16.1137V2.58081Z" fill="url(#paint1_linear_676_2141)"/>
</g>
<mask id="mask2_676_2141" style="mask-type:luminance" maskUnits="userSpaceOnUse" x="4" y="9" width="7" height="5">
<path d="M9.72967 12.6333C9.25807 12.4634 8.6169 12.4037 7.68732 12.1695C6.41861 11.8485 5.10826 11.0349 4.66845 9.57242C4.59048 9.64343 4.52236 9.73559 4.47542 9.83077C4.97655 11.2419 6.22936 12.2315 7.58361 12.5797C8.45112 12.798 8.8546 12.8199 9.50106 13.0005C9.58509 13.0888 10.1824 13.7332 10.1824 13.7332V13.1153C10.1824 13.1153 9.78948 12.6907 9.72967 12.6341" fill="white"/>
</mask>
<g mask="url(#mask2_676_2141)">
<path d="M10.1824 9.57242H4.47542V13.7332H10.1824V9.57242Z" fill="url(#paint2_linear_676_2141)"/>
</g>
<mask id="mask3_676_2141" style="mask-type:luminance" maskUnits="userSpaceOnUse" x="5" y="1" width="11" height="12">
<path d="M7.79163 11.7607C8.82568 12.0229 9.50091 12.0523 9.95511 12.2714C9.95511 12.2714 10.1194 12.4225 10.1822 12.4912C10.245 12.4225 10.4101 12.2714 10.4101 12.2714C10.8635 12.0531 11.5395 12.0229 12.5735 11.7607C13.8786 11.4299 15.2866 10.2816 15.2866 8.47848C15.2866 7.18824 14.5447 6.71536 14.5447 5.07612C14.5447 3.97171 14.9633 3.12112 14.9633 3.12112C14.9633 3.12112 13.9989 2.92698 13.5493 1.70775C13.5493 1.70775 12.9089 2.30452 12.0255 2.30452C10.9188 2.30452 10.1837 1.52872 10.1837 1.52872C10.1837 1.52872 9.44868 2.30452 8.34196 2.30452C7.45856 2.30452 6.81815 1.70775 6.81815 1.70775C6.3685 2.92698 5.40409 3.12112 5.40409 3.12112C5.40409 3.12112 5.82271 3.97171 5.82271 5.07612C5.82271 6.7146 5.08086 7.18824 5.08086 8.47848C5.08086 10.2824 6.48886 11.4306 7.7939 11.7607M14.8127 8.47773C14.8127 10.0082 13.5917 11.0136 12.457 11.3014C11.6379 11.5092 10.6364 11.6165 10.3344 11.7887C10.2662 11.8385 10.183 11.9269 10.183 11.9269C10.183 11.9269 10.0997 11.8385 10.0316 11.7887C9.72877 11.6165 8.72727 11.5092 7.90897 11.3014C7.87869 11.2931 7.84765 11.2848 7.81661 11.2765L14.2586 6.44719C14.4781 7.21317 14.8135 7.71552 14.8135 8.47773H14.8127ZM14.354 3.37947C14.223 3.77077 14.0708 4.37585 14.0708 5.07612C14.0708 5.36695 14.092 5.62455 14.1276 5.85721L7.21632 11.0386C6.35033 10.5944 5.59258 9.74153 5.55398 8.57064L13.4978 2.61575C13.7749 2.9995 14.0928 3.2367 14.354 3.37947ZM6.29507 5.07612C6.29507 4.37585 6.14216 3.77077 6.01196 3.37947C6.31626 3.21252 6.69854 2.91716 7.00361 2.40952C7.33139 2.59233 7.79542 2.77665 8.34121 2.77665C9.16784 2.77665 9.81355 2.41632 10.183 2.14513C10.5524 2.41632 11.1981 2.77665 12.0247 2.77665C12.1572 2.77665 12.2836 2.76532 12.4055 2.74644L5.638 7.81977C5.83255 7.05605 6.29431 6.42452 6.29431 5.07536L6.29507 5.07612Z" fill="white"/>
</mask>
<g mask="url(#mask3_676_2141)">
<path d="M11.9295 -3.25733L-0.0824623 5.13287L8.4351 17.2764L20.4471 8.88615L11.9295 -3.25733Z" fill="url(#paint3_linear_676_2141)"/>
</g>
<mask id="mask4_676_2141" style="mask-type:luminance" maskUnits="userSpaceOnUse" x="6" y="0" width="5" height="2">
<path d="M8.34157 1.87967C9.45207 1.87967 10.1833 0.936919 10.1833 0.936919V0.3477L9.60196 0.921811C9.30295 1.21718 8.82453 1.45815 8.34157 1.45815C7.98125 1.45815 7.64136 1.29725 7.34462 1.0525L6.44153 0.306152L6.62926 1.00642C6.62926 1.00642 7.47936 1.88043 8.34157 1.88043" fill="white"/>
</mask>
<g mask="url(#mask4_676_2141)">
<path d="M10.1827 0.305969H6.44094V1.88024H10.1827V0.305969Z" fill="url(#paint4_linear_676_2141)"/>
</g>
<mask id="mask5_676_2141" style="mask-type:luminance" maskUnits="userSpaceOnUse" x="10" y="6" width="7" height="8">
<path d="M15.8416 8.47674C15.8416 10.4348 14.4397 11.7235 12.6774 12.1684C11.7486 12.4034 11.1074 12.4623 10.6358 12.6322C10.5753 12.6889 10.1824 13.1134 10.1824 13.1134V13.7314C10.1824 13.7314 10.7797 13.087 10.8644 12.9986C11.5109 12.8181 11.9144 12.7969 12.7819 12.5779C14.5358 12.1269 16.1202 10.6009 16.1202 8.47598C16.1202 7.71151 15.9476 7.24542 15.769 6.79822L15.4594 6.80804C15.6584 7.29074 15.8416 7.81198 15.8416 8.47523" fill="white"/>
</mask>
<g mask="url(#mask5_676_2141)">
<path d="M16.1202 6.79895H10.1824V13.7321H16.1202V6.79895Z" fill="url(#paint5_linear_676_2141)"/>
</g>
<mask id="mask6_676_2141" style="mask-type:luminance" maskUnits="userSpaceOnUse" x="10" y="0" width="4" height="2">
<path d="M12.0246 1.88122C12.8861 1.88122 13.7369 1.00721 13.7369 1.00721L13.9246 0.306946L13.0216 1.05329C12.7248 1.2988 12.3849 1.45894 12.0246 1.45894C11.5416 1.45894 11.0632 1.21797 10.7642 0.922604L10.1829 0.348493V0.937712C10.1829 0.937712 10.9141 1.88046 12.0246 1.88046" fill="white"/>
</mask>
<g mask="url(#mask6_676_2141)">
<path d="M13.9248 0.306946H10.1823V1.88122H13.9248V0.306946Z" fill="url(#paint6_linear_676_2141)"/>
</g>
<mask id="mask7_676_2141" style="mask-type:luminance" maskUnits="userSpaceOnUse" x="4" y="0" width="3" height="3">
<path d="M6.6287 1.00721L6.44097 0.306946L6.03598 1.41362C5.86188 1.89028 5.57044 2.19245 5.16999 2.31029L4.25176 2.58073L4.82783 2.85041C4.82783 2.85041 6.24567 2.72728 6.62946 1.00721" fill="white"/>
</mask>
<g mask="url(#mask7_676_2141)">
<path d="M6.62912 0.306946H4.25142V2.85041H6.62912V0.306946Z" fill="url(#paint7_linear_676_2141)"/>
</g>
<path d="M4.80544 5.07786C4.80544 6.53202 4.06283 6.86214 4.06283 8.47645C4.06283 10.8024 5.86522 12.3245 7.53892 12.7551C8.38447 12.9606 8.64034 12.9749 9.40414 13.1623C9.46697 13.2287 10.1831 14 10.1831 14C10.1831 14 10.8999 13.2295 10.9628 13.1623C11.7266 12.9749 11.9817 12.9606 12.828 12.7551C14.5017 12.3245 16.3041 10.8024 16.3041 8.47645C16.3041 6.86214 15.5615 6.53127 15.5615 5.07786C15.5615 4.55285 15.672 4.03464 15.8915 3.53834L16.3662 2.46339L15.2473 2.13403C14.9059 2.03356 14.6554 1.76992 14.5025 1.34992L14.0081 0L12.9052 0.911024C12.613 1.15275 12.3163 1.27513 12.0248 1.27513C11.6342 1.27513 11.1899 1.08552 10.8931 0.791669L10.1823 0.0898939L9.47302 0.791669C9.17553 1.08477 8.73118 1.27513 8.34133 1.27513C8.04913 1.27513 7.75315 1.15275 7.46095 0.911024L6.35877 0L5.86446 1.34992C5.71079 1.76917 5.46023 2.03356 5.11883 2.13403L4 2.46339L4.47463 3.53834C4.6934 4.03464 4.80544 4.55361 4.80544 5.07786ZM5.1703 2.30853C5.57075 2.19069 5.86143 1.88928 6.0363 1.41186L6.44129 0.305185L7.34437 1.05153C7.64187 1.29704 7.981 1.45718 8.34133 1.45718C8.82428 1.45718 9.3027 1.21621 9.60171 0.920844L10.1831 0.346733L10.7644 0.920844C11.0642 1.21621 11.5419 1.45718 12.0248 1.45718C12.3852 1.45718 12.725 1.29628 13.0218 1.05153L13.9249 0.305185L14.3299 1.41186C14.5047 1.88852 14.7954 2.19069 15.1959 2.30853L16.1141 2.57897L15.7235 3.46431C15.5267 3.91 15.3775 4.45767 15.3775 5.07786C15.3775 5.86122 15.5766 6.319 15.7689 6.79944C15.9475 7.24664 16.1201 7.71197 16.1201 8.4772C16.1201 10.6014 14.5358 12.1281 12.7818 12.5791C11.9151 12.7974 11.5108 12.8193 10.8644 12.9998C10.7803 13.0882 10.1823 13.7326 10.1823 13.7326C10.1823 13.7326 9.58506 13.0882 9.50103 12.9998C8.85456 12.8193 8.45109 12.7981 7.58358 12.5791C6.22933 12.2308 4.97576 11.2412 4.47539 9.83014C4.32778 9.41391 4.24526 8.96142 4.24526 8.4772C4.24526 6.89009 4.98787 6.59019 4.98787 5.07862C4.98787 4.45918 4.83874 3.91075 4.64268 3.46506L4.25208 2.57972L5.1703 2.30929V2.30853Z" fill="#231F20"/>
<path d="M7.81593 11.2753C7.84697 11.2844 7.878 11.2927 7.90828 11.3002C8.72734 11.508 9.72884 11.6152 10.0309 11.7875C10.099 11.8373 10.1823 11.9257 10.1823 11.9257C10.1823 11.9257 10.2655 11.8373 10.3337 11.7875C10.6365 11.6152 11.638 11.508 12.4563 11.3002C13.591 11.0124 14.812 10.0062 14.812 8.47652C14.812 7.71356 14.4767 7.21197 14.2571 6.44598" fill="#231F20"/>
<path d="M5.63813 7.81953L12.4056 2.7462C12.2837 2.76509 12.1566 2.77642 12.0248 2.77642C11.1982 2.77642 10.5525 2.41609 10.1831 2.1449C9.81368 2.41609 9.16796 2.77642 8.34133 2.77642C7.79555 2.77642 7.33151 2.5921 7.00374 2.40929C6.69867 2.91693 6.31639 3.21229 6.01208 3.37924C6.14228 3.77054 6.2952 4.37562 6.2952 5.07589C6.2952 6.42429 5.83343 7.05657 5.63889 7.82029" fill="#231F20"/>
<path d="M7.21648 11.0378L14.1278 5.85645C14.0922 5.62379 14.071 5.36619 14.071 5.07536C14.071 4.37509 14.2224 3.77001 14.3541 3.37871C14.093 3.23594 13.775 2.99874 13.498 2.61499L5.55414 8.56988C5.59199 9.74077 6.34973 10.5936 7.21648 11.0378ZM12.5252 3.86973V5.85343L13.5775 5.06478C13.5775 5.06478 13.5419 5.3186 13.5775 5.7439L11.928 6.9805V4.8442C11.928 4.54204 11.6396 4.53449 11.6396 4.53449L12.526 3.87048L12.5252 3.86973ZM10.2066 5.60792V6.59222L10.8629 6.10045V5.11691L11.4314 4.6901V7.35216L10.8629 7.77897V6.80525L10.2066 7.29702V8.27074L9.60932 8.7187V6.5824C9.60932 6.28024 9.32091 6.27268 9.32091 6.27268L10.2073 5.60868L10.2066 5.60792ZM7.76303 7.44055L8.50488 8.57517V6.88456L9.08624 6.44869V9.11151L8.47157 9.57155L7.80845 8.55855V10.0694L7.22708 10.5052V8.36894C7.22708 8.06753 6.93867 8.05923 6.93867 8.05923L7.76303 7.44206V7.44055Z" fill="#231F20"/>
<path d="M5.38229 5.51697C5.25965 6.72261 4.66315 7.20531 4.66315 8.47742C4.66315 10.0381 5.73353 11.6758 7.68807 12.1691C8.61765 12.404 9.25806 12.463 9.73043 12.6329C9.79098 12.6896 10.1831 13.1141 10.1831 13.1141C10.1831 13.1141 10.576 12.6896 10.6365 12.6329C11.1081 12.463 11.7493 12.4033 12.6781 12.1691C14.6327 11.6758 15.7038 10.0381 15.7038 8.47742C15.7038 7.06103 14.9627 6.62365 14.9627 5.07506C14.9627 3.86867 15.5396 2.84962 15.5396 2.84962C15.5396 2.84962 14.1217 2.72649 13.7379 1.00643C13.7379 1.00643 12.8878 1.88043 12.0256 1.88043C10.9151 1.88043 10.1839 0.937683 10.1839 0.937683C10.1839 0.937683 9.45261 1.88043 8.34211 1.88043C7.48066 1.88043 6.6298 1.00643 6.6298 1.00643C6.24601 2.72725 4.82817 2.84962 4.82817 2.84962C4.82817 2.84962 5.405 3.86867 5.405 5.07506C5.405 5.2337 5.39667 5.37949 5.38304 5.51697M5.40272 3.12006C5.40272 3.12006 6.36713 2.92592 6.81678 1.70669C6.81678 1.70669 7.45719 2.30346 8.34059 2.30346C9.44731 2.30346 10.1823 1.52766 10.1823 1.52766C10.1823 1.52766 10.9174 2.30346 12.0241 2.30346C12.9075 2.30346 13.5479 1.70669 13.5479 1.70669C13.9976 2.92592 14.962 3.12006 14.962 3.12006C14.962 3.12006 14.5434 3.97065 14.5434 5.07506C14.5434 6.71354 15.2852 7.18718 15.2852 8.47742C15.2852 10.2813 13.8772 11.4296 12.5722 11.7597C11.5381 12.0218 10.8621 12.0513 10.4087 12.2703C10.4087 12.2703 10.2437 12.4214 10.1808 12.4902C10.118 12.4214 9.95374 12.2703 9.95374 12.2703C9.49954 12.052 8.82431 12.0218 7.79026 11.7597C6.48522 11.4288 5.07722 10.2806 5.07722 8.47742C5.07722 7.18718 5.81907 6.7143 5.81907 5.07506C5.81907 3.97065 5.40045 3.12006 5.40045 3.12006H5.40272Z" fill="#231F20"/>
<path d="M14.6539 12.641C14.6539 12.9046 14.8674 13.1184 15.1316 13.1184C15.3958 13.1184 15.61 12.9054 15.61 12.641C15.61 12.3766 15.3966 12.1636 15.1316 12.1636C14.8667 12.1636 14.6539 12.3774 14.6539 12.641ZM15.5071 12.641C15.5071 12.8487 15.339 13.0157 15.1316 13.0157C14.9242 13.0157 14.7561 12.8487 14.7561 12.641C14.7561 12.4333 14.9242 12.2663 15.1316 12.2663C15.339 12.2663 15.5071 12.4333 15.5071 12.641Z" fill="#231F20"/>
<path d="M14.9354 12.9133H15.0376V12.692H15.111L15.2147 12.9133H15.3275L15.22 12.6822C15.2828 12.6603 15.3275 12.6006 15.3275 12.5296C15.3275 12.4404 15.2548 12.3679 15.1655 12.3679H14.9354M15.0376 12.4707H15.1655C15.1988 12.4707 15.2253 12.4971 15.2253 12.5303C15.2253 12.5636 15.1988 12.59 15.1655 12.59H15.0376V12.4714V12.4707Z" fill="#231F20"/>
<defs>
<linearGradient id="paint0_linear_676_2141" x1="4.31038" y1="6.26957" x2="5.7956" y2="6.26957" gradientUnits="userSpaceOnUse">
<stop stop-color="white"/>
<stop offset="0.11" stop-color="white"/>
<stop offset="0.22" stop-color="#DFE2E4"/>
<stop offset="0.44" stop-color="#A8AEB3"/>
<stop offset="0.54" stop-color="#939BA1"/>
<stop offset="1" stop-color="#939BA1"/>
</linearGradient>
<linearGradient id="paint1_linear_676_2141" x1="15.5274" y1="6.65267" x2="15.5274" y2="2.42389" gradientUnits="userSpaceOnUse">
<stop stop-color="white"/>
<stop offset="0.35" stop-color="white"/>
<stop offset="0.56" stop-color="#939BA1"/>
<stop offset="1" stop-color="#939BA1"/>
</linearGradient>
<linearGradient id="paint2_linear_676_2141" x1="4.22443" y1="11.6667" x2="9.93363" y2="11.6667" gradientUnits="userSpaceOnUse">
<stop stop-color="white"/>
<stop offset="0.15" stop-color="white"/>
<stop offset="0.21" stop-color="#F9FAFA"/>
<stop offset="0.29" stop-color="#EAECED"/>
<stop offset="0.37" stop-color="#D1D5D7"/>
<stop offset="0.45" stop-color="#AFB5B9"/>
<stop offset="0.51" stop-color="#939BA1"/>
<stop offset="1" stop-color="#939BA1"/>
</linearGradient>
<linearGradient id="paint3_linear_676_2141" x1="13.2292" y1="11.426" x2="6.48166" y2="1.76585" gradientUnits="userSpaceOnUse">
<stop stop-color="#939BA1"/>
<stop offset="0.02" stop-color="#9DA4A9"/>
<stop offset="0.12" stop-color="#C3C7CA"/>
<stop offset="0.2" stop-color="#DBDDDE"/>
<stop offset="0.25" stop-color="#E4E5E6"/>
<stop offset="0.75" stop-color="#E4E5E6"/>
<stop offset="0.8" stop-color="#DCDEDF"/>
<stop offset="0.87" stop-color="#C7CACD"/>
<stop offset="0.96" stop-color="#A5ABB0"/>
<stop offset="1" stop-color="#939BA1"/>
</linearGradient>
<linearGradient id="paint4_linear_676_2141" x1="6.33908" y1="1.11477" x2="10.0816" y2="1.11477" gradientUnits="userSpaceOnUse">
<stop stop-color="white"/>
<stop offset="0.25" stop-color="white"/>
<stop offset="0.34" stop-color="#F9FAFA"/>
<stop offset="0.45" stop-color="#EAECED"/>
<stop offset="0.57" stop-color="#D1D5D7"/>
<stop offset="0.7" stop-color="#AFB5B9"/>
<stop offset="0.79" stop-color="#939BA1"/>
<stop offset="1" stop-color="#939BA1"/>
</linearGradient>
<linearGradient id="paint5_linear_676_2141" x1="10.3888" y1="10.2464" x2="16.3251" y2="10.2464" gradientUnits="userSpaceOnUse">
<stop stop-color="white"/>
<stop offset="0.2" stop-color="white"/>
<stop offset="0.33" stop-color="#FAFAFB"/>
<stop offset="0.47" stop-color="#EDEEEF"/>
<stop offset="0.63" stop-color="#D7DADC"/>
<stop offset="0.78" stop-color="#B8BDC1"/>
<stop offset="0.93" stop-color="#939BA1"/>
<stop offset="1" stop-color="#939BA1"/>
</linearGradient>
<linearGradient id="paint6_linear_676_2141" x1="10.1013" y1="1.12043" x2="13.8438" y2="1.12043" gradientUnits="userSpaceOnUse">
<stop stop-color="white"/>
<stop offset="0.25" stop-color="white"/>
<stop offset="0.34" stop-color="#F9FAFA"/>
<stop offset="0.45" stop-color="#EAECED"/>
<stop offset="0.57" stop-color="#D1D5D7"/>
<stop offset="0.7" stop-color="#AFB5B9"/>
<stop offset="0.79" stop-color="#939BA1"/>
<stop offset="1" stop-color="#939BA1"/>
</linearGradient>
<linearGradient id="paint7_linear_676_2141" x1="4.52309" y1="1.53669" x2="6.89852" y2="1.53669" gradientUnits="userSpaceOnUse">
<stop stop-color="white"/>
<stop offset="0.39" stop-color="white"/>
<stop offset="0.47" stop-color="#F9FAFA"/>
<stop offset="0.57" stop-color="#EAECED"/>
<stop offset="0.67" stop-color="#D1D5D7"/>
<stop offset="0.79" stop-color="#AFB5B9"/>
<stop offset="0.87" stop-color="#939BA1"/>
<stop offset="1" stop-color="#939BA1"/>
</linearGradient>
</defs>
</svg>
