<svg width="20" height="14" viewBox="0 0 20 14" fill="none" xmlns="http://www.w3.org/2000/svg">
<path d="M9.99962 0C13.8533 0 16.9992 3.14375 16.9992 7.0053C17.0098 10.8767 13.8533 14 9.95871 14C6.13612 14 3 10.8456 3 6.9947C3 3.14375 6.13612 0.0106003 9.99962 0ZM6.81274 0.891184C6.75137 0.922228 6.71045 0.932071 6.67939 0.952515C6.05428 1.3417 5.49056 1.80281 5.01927 2.36614C4.15776 3.37999 3.65617 4.55738 3.54327 5.88848C3.46144 6.80995 3.47129 7.74202 3.71754 8.64305C4.82454 12.7598 9.43589 14.7163 13.1668 12.6575C13.2077 12.6371 13.2388 12.6167 13.3002 12.5856C13.2592 12.7802 13.2183 12.9438 13.1774 13.1285C13.2494 13.0975 13.2797 13.0876 13.3206 13.0672C14.4072 12.391 15.2679 11.5006 15.8316 10.3429C16.5795 8.8066 16.6825 7.18853 16.334 5.55987C15.4217 1.35078 10.677 -0.779881 6.89533 1.28945C6.84381 1.3205 6.78243 1.35078 6.7006 1.39167C6.74076 1.20844 6.77182 1.06533 6.81274 0.891184Z" fill="#3B2050"/>
<path d="M12.311 11.9407C12.247 11.7241 12.1961 11.5461 12.1584 11.3926C11.7249 11.5706 11.33 11.775 10.9088 11.9021C10.1436 12.1309 9.39158 12.0801 8.66501 11.7495C8.51235 11.6855 8.47371 11.597 8.49916 11.4312C8.65182 10.692 8.7159 9.96689 8.5246 9.22765C8.51141 9.18904 8.49916 9.13819 8.48596 9.10052C8.48596 9.08734 8.46052 9.0751 8.43508 9.02424C8.05248 9.58456 7.64443 10.1072 7.09692 10.5404C6.66343 9.59774 6.66343 8.62967 6.79065 7.61075C6.52301 7.68702 6.28083 7.7633 6 7.83958C6.10178 6.94779 6.43349 6.19631 6.95556 5.48344C6.7897 5.44483 6.64929 5.4194 6.48438 5.39397C6.81609 4.71877 7.27502 4.17164 7.89887 3.69985C7.79709 4.18388 7.82254 4.59164 8.24283 4.88451C8.2042 4.7442 8.1665 4.60388 8.14106 4.45133C8.12787 4.33644 8.12787 4.22249 8.14106 4.11985C8.21739 3.71209 8.51047 3.54635 8.90626 3.66124C8.98259 3.68666 9.05892 3.71209 9.16164 3.76294C9.04667 3.48231 8.85537 3.36837 8.62638 3.26572C8.62638 3.24029 8.62638 3.22711 8.61318 3.20168C8.98259 3.0868 9.33975 2.94648 9.72235 2.85796C10.0541 2.78168 10.4103 2.78168 10.7552 2.74307C11.0869 2.70446 11.3413 2.83254 11.5581 3.07455C11.6344 3.15083 11.7107 3.22711 11.8003 3.30339C11.8135 3.2902 11.8389 3.2902 11.8512 3.27796C11.8257 3.15083 11.8003 3.03594 11.7748 2.89563C11.8135 2.89563 11.8512 2.89563 11.8898 2.90881C12.2846 3.0237 12.6672 3.17626 12.9858 3.4437C13.0367 3.48231 13.113 3.53316 13.1262 3.59626C13.2025 3.85146 13.2666 4.1189 13.3429 4.36092C12.9735 4.10572 12.5909 3.83828 12.1829 3.55859C12.1188 3.74976 12.0811 3.89007 12.0302 4.04263C11.7371 3.86464 11.4818 3.6989 11.2141 3.55859C11.1123 3.50774 10.9719 3.48231 10.857 3.50774C10.4112 3.58402 9.98998 3.74976 9.60738 4.06805C9.67146 4.1189 9.7346 4.15752 9.83638 4.23379C9.55555 4.37411 9.31336 4.50124 9.12301 4.78187C9.45472 4.73101 9.49241 4.9476 9.59419 5.13877C9.76005 5.47025 10.0531 5.63599 10.4225 5.64823C10.8683 5.66142 11.315 5.64823 11.7739 5.64823C11.6467 5.50792 11.4931 5.36761 11.3536 5.21505C11.2009 5.03707 11.0096 4.97303 10.7797 4.99846C10.4612 5.02388 10.1549 4.9476 9.90046 4.74326C10.2576 4.32325 10.5884 4.31007 11.3027 4.6924C11.4177 4.62837 11.5317 4.57752 11.6467 4.51442C11.6599 4.55303 11.6721 4.56527 11.6721 4.56527C11.5194 4.88357 11.5194 4.88357 11.7739 5.13877C11.9265 5.29133 12.067 5.45707 12.2074 5.60962C12.3987 5.57101 12.59 5.52016 12.7813 5.52016C12.9726 5.50698 13.1639 5.54559 13.3806 5.55877C13.0998 5.25272 12.8199 4.97303 12.5391 4.68016C12.5523 4.65473 12.5777 4.62931 12.59 4.60388C12.6918 4.66792 12.7935 4.71877 12.9085 4.78187C13.0357 4.75644 13.112 4.50124 13.2911 4.68016C13.4183 4.80729 13.4061 4.93536 13.2779 5.10016C13.3797 5.21505 13.4946 5.31675 13.6096 5.45707C13.6351 5.36761 13.6483 5.32994 13.6737 5.27908H13.7123C14.6302 6.57864 14.8978 7.97989 14.3748 9.54595C14.2476 9.40564 14.1326 9.29075 13.9922 9.15137C13.9027 9.7503 13.75 10.272 13.457 10.7438C13.178 11.2278 12.7954 11.6224 12.311 11.9407ZM10.8956 6.70577C11.0483 6.99864 11.2019 7.26608 11.3291 7.53353C11.3932 7.67384 11.4818 7.69927 11.6099 7.66066C12.0557 7.54577 12.4006 7.26608 12.7568 6.98545C12.77 6.97227 12.7954 6.94684 12.7954 6.92142C12.7954 6.73025 12.8209 6.53909 12.7822 6.3611C12.769 6.28483 12.6041 6.24622 12.5146 6.18312C12.4505 6.14451 12.3996 6.09366 12.3365 6.08142C12.247 6.05599 12.1452 6.01738 12.0557 6.04281C11.6222 6.17088 11.2659 6.42608 10.8956 6.70577ZM11.6994 8.23415C11.7503 8.34904 11.8398 8.48936 11.903 8.64191C11.9539 8.7568 12.018 8.78223 12.1197 8.73138C12.311 8.62967 12.5023 8.54021 12.7191 8.4385L12.7954 9.04967C12.8209 9.04967 12.8463 9.04967 12.8595 9.03649C13.1526 8.80765 13.3439 8.5016 13.3693 8.14469C13.3825 7.97895 13.2675 7.73693 13.1271 7.64747C13.0122 7.57119 12.7577 7.60886 12.6173 7.68608C12.311 7.81415 12.018 8.03075 11.6994 8.23415ZM13.5983 6.04375C13.4579 6.13321 13.3561 6.20949 13.2411 6.28577C13.2025 6.31119 13.1648 6.36205 13.1648 6.40066C13.0498 6.89788 13.3429 7.21617 13.6492 7.55989C13.8537 7.04949 13.7896 6.55321 13.5983 6.04375Z" fill="#3B2050"/>
<path d="M11.5336 1C11.559 1.38233 11.5845 1.71287 11.6231 2.08296C11.8399 1.84094 12.018 1.64978 12.2093 1.44637L12.2479 1.48498C12.1716 1.85413 12.0821 2.23646 11.9925 2.61879C10.7175 2.30049 9.49431 2.44081 8.32201 3.06422C8.15615 2.69507 7.97804 2.35135 7.78674 1.9304C8.05438 2.09614 8.28431 2.2487 8.55195 2.41444C8.50106 2.05753 8.45017 1.727 8.38609 1.35691C8.79413 1.63753 9.15129 1.87955 9.53295 2.147C9.66017 1.76466 9.78833 1.40776 9.9278 1.00094C10.1568 1.35785 10.3613 1.67614 10.578 2.03305C10.9088 1.68744 11.2019 1.36915 11.5336 1Z" fill="#3B2050"/>
<path d="M10.8956 6.7058C11.2651 6.42517 11.6222 6.17091 12.0557 6.05602C12.1452 6.03059 12.247 6.0692 12.3365 6.09463C12.4006 6.12006 12.4515 6.15866 12.5146 6.19633C12.6042 6.24719 12.77 6.29804 12.7823 6.37432C12.8209 6.5523 12.7955 6.74346 12.7955 6.93463C12.7955 6.96006 12.77 6.98548 12.7568 6.99867C12.4129 7.27929 12.0689 7.55898 11.61 7.67387C11.4695 7.71248 11.3932 7.67387 11.3291 7.54674C11.2019 7.26611 11.0493 6.99867 10.8956 6.7058ZM11.6995 8.23418C12.018 8.03077 12.3111 7.82642 12.6173 7.66068C12.77 7.58441 13.0122 7.5458 13.1272 7.62207C13.2676 7.71154 13.3826 7.95355 13.3694 8.11929C13.3439 8.4762 13.1526 8.78131 12.8595 9.01109C12.8463 9.02427 12.8209 9.02427 12.7955 9.02427L12.7191 8.41311C12.5024 8.51481 12.3111 8.61651 12.1198 8.70598C12.018 8.75683 11.9539 8.7314 11.903 8.61651C11.839 8.48938 11.7626 8.33683 11.6995 8.23418ZM13.5984 6.04378C13.7897 6.55324 13.866 7.03728 13.6492 7.57216C13.343 7.22844 13.0499 6.89696 13.1649 6.41293C13.1781 6.37432 13.2158 6.32346 13.2412 6.29804C13.343 6.20952 13.4579 6.14548 13.5984 6.04378Z" fill="white"/>
</svg>
