<svg width="20" height="14" viewBox="0 0 20 14" fill="none" xmlns="http://www.w3.org/2000/svg">
<g clip-path="url(#clip0_671_1472)">
<path d="M14.131 9.52C14.2986 9.7 14.4662 9.87 14.6437 10.05C14.6831 9.95 14.7225 9.86 14.7521 9.76C14.8409 9.47 14.8803 9.16 14.8901 8.86C14.9197 8.18 14.8507 7.52 14.6634 6.86C14.5845 6.56 14.4662 6.27 14.2986 6.01C14.2986 6.01 14.2986 6.01 14.2986 5.99C14.338 6.03 14.3676 6.06 14.3972 6.09C14.6732 6.4 14.8704 6.75 14.9986 7.14C15.1465 7.57 15.2056 8.02 15.2155 8.47C15.2254 9.14 15.1268 9.79 14.9394 10.42C14.9 10.55 14.8507 10.68 14.8014 10.81C14.8014 10.81 14.8014 10.82 14.7916 10.84C14.6634 10.71 14.5451 10.58 14.4169 10.45C14.407 10.52 14.3972 10.57 14.3873 10.63C14.2887 11.17 14.0718 11.66 13.7662 12.12C13.3521 12.73 12.8296 13.22 12.2183 13.61C12.2183 13.61 12.2085 13.61 12.1887 13.63C12.1394 13.38 12.0606 13.14 11.9718 12.9C11.9028 12.95 11.8338 13.01 11.7549 13.05C11.469 13.24 11.1535 13.36 10.8282 13.44C10.3451 13.56 9.85212 13.59 9.3493 13.54C8.98451 13.51 8.62958 13.43 8.28451 13.31C8.06761 13.23 7.85071 13.12 7.65353 13C7.63381 12.98 7.62395 12.97 7.62395 12.94C7.67325 12.63 7.7324 12.33 7.7817 12.02C7.84085 11.59 7.87043 11.16 7.83099 10.73C7.82113 10.6 7.79156 10.48 7.77184 10.36H7.75212C7.75212 10.36 7.75212 10.36 7.74226 10.38C7.57465 10.65 7.37747 10.89 7.16057 11.11C6.92395 11.36 6.67747 11.6 6.41127 11.81C6.36198 11.85 6.31268 11.88 6.26339 11.92C6.23381 11.94 6.22395 11.94 6.19437 11.91C6.08592 11.76 6.00705 11.59 5.94789 11.41C5.79015 10.97 5.71127 10.51 5.67184 10.04C5.6324 9.64 5.6324 9.24 5.67184 8.83C5.67184 8.73 5.69156 8.62 5.70141 8.52C5.39578 8.61 5.10001 8.69 4.80423 8.78C4.80423 8.78 4.80423 8.78 4.79437 8.77C4.87325 7.72 5.1986 6.76 5.76057 5.87C5.67184 5.86 5.5831 5.84 5.49437 5.83C5.40564 5.82 5.32677 5.8 5.22818 5.78C5.23803 5.76 5.24789 5.74 5.25775 5.72C5.54367 5.2 5.8986 4.73 6.32254 4.31C6.62818 4.01 6.95353 3.74 7.30846 3.5C7.32818 3.49 7.33803 3.47 7.34789 3.46C7.4662 3.27 7.63381 3.15 7.86057 3.1C7.88029 3.1 7.89015 3.1 7.90987 3.1C7.98874 3.1 8.04789 3.08 8.11691 3.04C8.63944 2.79 9.1817 2.61 9.75353 2.53C10.1578 2.47 10.562 2.46 10.9662 2.5C11.6563 2.57 12.2873 2.8 12.869 3.18C12.9873 3.26 13.0958 3.34 13.2042 3.42C13.2042 3.42 13.224 3.43 13.224 3.44C12.7803 3.2 12.3268 3.02 11.8338 2.91C11.8338 3.05 11.8338 3.2 11.8437 3.34H11.8338C11.8338 3.34 11.8141 3.32 11.8042 3.31C11.7056 3.17 11.5972 3.03 11.469 2.91C11.4 2.85 11.3211 2.81 11.2324 2.8C10.7592 2.75 10.2761 2.75 9.80282 2.83C9.31972 2.9 8.84649 3.04 8.40282 3.24C8.40282 3.24 8.39296 3.24 8.3831 3.25C8.54085 3.39 8.6493 3.55 8.71832 3.74C8.67888 3.71 8.63944 3.68 8.60001 3.65C8.42254 3.54 8.23522 3.47 8.02818 3.51C7.74226 3.56 7.58451 3.75 7.50564 4.02C7.43663 4.26 7.4662 4.49 7.53522 4.72C7.57465 4.84 7.62395 4.96 7.67325 5.09C7.66339 5.09 7.65353 5.08 7.63381 5.07C7.39719 4.93 7.25916 4.72 7.20001 4.45C7.16057 4.3 7.16057 4.16 7.17043 4.01C6.90423 4.14 6.09578 5.11 5.94789 5.46C6.15494 5.49 6.36198 5.52 6.56902 5.54C6.50987 5.61 6.45071 5.67 6.40141 5.73C6.15494 6 5.95775 6.3 5.80001 6.62C5.57325 7.06 5.40564 7.53 5.29719 8.01C5.28733 8.07 5.27747 8.12 5.26761 8.19C5.60282 8.09 5.91832 8 6.24367 7.9C6.24367 7.91 6.24367 7.92 6.24367 7.93C6.1648 8.17 6.12536 8.41 6.10564 8.66C6.08592 8.94 6.07606 9.22 6.07606 9.5C6.07606 9.98 6.12536 10.46 6.25353 10.93C6.2831 11.05 6.3324 11.17 6.3817 11.3C6.43099 11.26 6.46057 11.24 6.50001 11.21C6.71691 11.02 6.90423 10.81 7.0817 10.59C7.37747 10.23 7.64367 9.85 7.89015 9.45C7.90987 9.41 7.92958 9.37 7.95916 9.33C7.96902 9.35 7.98874 9.37 7.9986 9.39C8.09719 9.57 8.14649 9.76 8.18592 9.95C8.27465 10.35 8.30423 10.76 8.30423 11.17C8.30423 11.6 8.28451 12.02 8.22536 12.45C8.2155 12.55 8.19578 12.65 8.17606 12.75C8.17606 12.79 8.17606 12.8 8.20564 12.82C8.42254 12.94 8.6493 13.03 8.89578 13.07C9.8324 13.26 10.7296 13.14 11.5775 12.7C11.8141 12.58 12.031 12.42 12.238 12.25C12.238 12.25 12.2578 12.24 12.2676 12.23C12.2676 12.23 12.2676 12.23 12.2873 12.23C12.3563 12.47 12.4254 12.7 12.4944 12.94C12.5437 12.91 12.593 12.88 12.6324 12.85C12.938 12.63 13.1648 12.35 13.3718 12.03C13.7662 11.42 14.0028 10.76 14.1211 10.04C14.1409 9.89 14.1507 9.74 14.1704 9.58C14.1704 9.58 14.1704 9.56 14.1704 9.54L14.131 9.52Z" fill="white"/>
<path d="M8.61972 4.82C8.73803 4.69 8.8662 4.57 8.99437 4.47C9.1324 4.37 9.27042 4.28 9.43803 4.22C9.36902 4.16 9.3 4.1 9.23099 4.04C9.23099 4.03 9.24085 4.02 9.25071 4.02C9.59578 3.73 9.97042 3.5 10.4042 3.38C10.5521 3.34 10.7 3.32 10.8577 3.32C10.8775 3.32 10.8972 3.32 10.907 3.32C11.2521 3.51 11.5972 3.7 11.9127 3.94C11.9324 3.96 11.9521 3.97 11.9817 4C12.0211 3.91 12.0606 3.83 12.1 3.74C12.1296 3.65 12.1592 3.56 12.1887 3.47C12.5437 3.67 12.8986 3.88 13.2239 4.14C13.4211 4.3 13.5986 4.47 13.7268 4.69C13.8451 4.88 13.9239 5.08 13.9338 5.31C13.9338 5.42 13.9042 5.62 13.8648 5.71C13.7169 5.54 13.5789 5.37 13.431 5.21C13.4704 5.19 13.5 5.17 13.5394 5.15C13.5789 5.13 13.5887 5.1 13.5789 5.05C13.5592 4.91 13.5 4.79 13.4113 4.69C13.3916 4.67 13.3817 4.67 13.362 4.69C13.2535 4.74 13.1451 4.8 13.0662 4.9C13.0662 4.9 13.0563 4.91 13.0465 4.92C12.8789 4.82 12.7211 4.72 12.5535 4.62C12.5535 4.62 12.5535 4.62 12.5437 4.63C12.5437 4.64 12.5634 4.65 12.5732 4.67C12.6817 4.82 12.8 4.97 12.8789 5.15C12.8789 5.17 12.8986 5.18 12.9183 5.19C13.1648 5.39 13.4014 5.6 13.6183 5.84C13.6282 5.86 13.6479 5.87 13.6577 5.9C13.6282 5.89 13.5986 5.87 13.5789 5.86C13.3423 5.76 13.0958 5.74 12.8394 5.76C12.6423 5.77 12.4549 5.82 12.2775 5.9C12.2479 5.91 12.238 5.9 12.2183 5.88C12.0211 5.67 11.8239 5.46 11.6268 5.25C11.5873 5.21 11.5479 5.18 11.5085 5.14C11.4887 5.12 11.469 5.09 11.469 5.06C11.4592 4.9 11.5183 4.76 11.607 4.63C11.607 4.62 11.6268 4.61 11.6268 4.59C11.5873 4.6 11.538 4.62 11.4986 4.63C11.3803 4.67 11.2718 4.72 11.1732 4.8C11.1535 4.82 11.1437 4.8 11.1239 4.8C10.9169 4.69 10.7099 4.57 10.5028 4.46C10.4239 4.42 10.3451 4.42 10.2563 4.44C9.99014 4.52 9.74366 4.65 9.5169 4.82C9.5169 4.82 9.5169 4.82 9.50704 4.83C9.61549 4.92 9.7338 4.99 9.85211 5.05C10.0592 5.15 10.2761 5.18 10.493 5.19C10.6211 5.19 10.7592 5.19 10.8873 5.19C10.907 5.19 10.9268 5.19 10.9465 5.21C11.2225 5.48 11.4887 5.75 11.7648 6.02C11.7648 6.02 11.7746 6.04 11.7944 6.05C11.7549 6.04 11.7254 6.02 11.6958 6.01C11.5085 5.94 11.3113 5.92 11.1239 5.92C10.8775 5.92 10.631 5.93 10.3944 5.93C10.2465 5.93 10.0986 5.92 9.95071 5.89C9.54648 5.82 9.29014 5.58 9.15211 5.19C9.1324 5.12 9.11268 5.05 9.09296 4.97C9.09296 4.94 9.07324 4.93 9.04366 4.93C8.92535 4.92 8.8169 4.9 8.69859 4.89C8.66902 4.89 8.6493 4.87 8.61972 4.86V4.82Z" fill="white"/>
<path d="M7.97888 2.11C7.91972 1.68 7.87043 1.26 7.81127 0.829999C8.25493 1.15 8.68874 1.47 9.1324 1.79C9.28029 1.32 9.43803 0.859999 9.58592 0.389999C9.84226 0.799999 10.0887 1.21 10.3451 1.62C10.7099 1.21 11.0648 0.799999 11.4296 0.399999C11.4296 0.399999 11.4394 0.399999 11.4493 0.399999C11.4789 0.839999 11.4986 1.28 11.5282 1.73C11.7747 1.42 12.031 1.13 12.3366 0.889999C12.169 1.37 12.0606 1.87 12.0113 2.38C12.0014 2.38 11.9916 2.38 11.9718 2.38C11.538 2.26 11.0845 2.2 10.631 2.19C10.069 2.18 9.52677 2.23 8.98451 2.36C8.53099 2.47 8.10705 2.64 7.72254 2.92C7.72254 2.92 7.71268 2.92 7.70282 2.93C7.52536 2.42 7.32817 1.93 7.01268 1.49C7.35775 1.66 7.67324 1.88 7.97888 2.13V2.11Z" fill="white"/>
<path d="M12.8789 7.05C12.8789 7.16 12.8789 7.28 12.8789 7.39C12.8789 7.42 12.869 7.45 12.8493 7.47C12.731 7.62 12.5831 7.73 12.4254 7.83C12.1296 8.02 11.8141 8.17 11.4592 8.24C11.4 8.25 11.3409 8.26 11.2817 8.26C11.262 8.26 11.2423 8.25 11.2324 8.24C11.0549 7.9 10.8775 7.56 10.7 7.21C10.7 7.21 10.7 7.2 10.7 7.19C10.6704 7.11 10.6606 7.13 10.7296 7.08C10.9662 6.88 11.2324 6.71 11.5085 6.57C11.6958 6.47 11.8831 6.38 12.0803 6.33C12.1789 6.3 12.2578 6.31 12.3366 6.38C12.4845 6.51 12.6521 6.6 12.8394 6.66C12.8592 6.66 12.869 6.68 12.869 6.7C12.869 6.82 12.869 6.94 12.869 7.06L12.8789 7.05Z" fill="white"/>
<path d="M11.5775 8.84C11.7254 8.83 11.8634 8.78 11.9916 8.71C12.2479 8.58 12.4747 8.41 12.6718 8.21C12.7211 8.16 12.7704 8.14 12.8394 8.14C12.9775 8.14 13.1254 8.14 13.2634 8.14C13.2831 8.14 13.3028 8.14 13.3127 8.16C13.4014 8.31 13.4901 8.46 13.5493 8.62C13.5789 8.69 13.5789 8.76 13.569 8.84C13.5099 9.1 13.4113 9.34 13.2338 9.53C13.1352 9.64 13.0465 9.74 12.9479 9.85C12.938 9.86 12.9282 9.87 12.9085 9.89C12.8789 9.62 12.8493 9.36 12.8296 9.08C12.6423 9.24 12.4352 9.36 12.2282 9.46C12.1592 9.49 12.0901 9.51 12.0211 9.54C12.0014 9.54 11.9817 9.54 11.9718 9.52C11.8437 9.3 11.7254 9.08 11.5972 8.85C11.5972 8.85 11.5972 8.85 11.5972 8.83L11.5775 8.84Z" fill="white"/>
<path d="M13.8155 6.34C14.1014 6.98 14.062 7.63 13.8944 8.28C13.8944 8.28 13.8944 8.28 13.8845 8.28C13.8747 8.25 13.8549 8.22 13.8451 8.19C13.7169 7.94 13.5789 7.71 13.3718 7.52C13.3225 7.48 13.3127 7.43 13.3127 7.37C13.3127 7.14 13.3127 6.92 13.3127 6.69C13.3127 6.66 13.3127 6.64 13.3521 6.63C13.4901 6.58 13.6183 6.49 13.7366 6.4C13.7662 6.38 13.7958 6.36 13.8254 6.33L13.8155 6.34Z" fill="white"/>
</g>
<defs>
<clipPath id="clip0_671_1472">
<rect width="20" height="14" fill="white"/>
</clipPath>
</defs>
</svg>
