<svg width="20" height="14" viewBox="0 0 20 14" fill="none" xmlns="http://www.w3.org/2000/svg">
<g clip-path="url(#clip0_676_2627)">
<circle cx="10" cy="7" r="6.85" fill="black" stroke="#404040" stroke-width="0.3"/>
<g filter="url(#filter0_d_676_2627)">
<path d="M13.8867 6.74375C14.0787 6.86063 14.0787 7.13938 13.8867 7.25626L8.57137 10.4917C8.37145 10.6134 8.11539 10.4695 8.11539 10.2354V3.76459C8.11539 3.53055 8.37145 3.38664 8.57137 3.50833L13.8867 6.74375Z" fill="#FF0000"/>
<path d="M13.835 6.82941C13.9627 6.90744 13.9628 7.09332 13.835 7.1712L8.51961 10.4066C8.3864 10.4876 8.21509 10.3915 8.21492 10.2357V3.76495C8.21492 3.60893 8.38633 3.51293 8.51961 3.59406L13.835 6.82941Z" stroke="#404040" stroke-width="0.2"/>
</g>
</g>
<defs>
<filter id="filter0_d_676_2627" x="5.11539" y="1.46411" width="11.9153" height="13.0718" filterUnits="userSpaceOnUse" color-interpolation-filters="sRGB">
<feFlood flood-opacity="0" result="BackgroundImageFix"/>
<feColorMatrix in="SourceAlpha" type="matrix" values="0 0 0 0 0 0 0 0 0 0 0 0 0 0 0 0 0 0 127 0" result="hardAlpha"/>
<feOffset dy="1"/>
<feGaussianBlur stdDeviation="1.5"/>
<feComposite in2="hardAlpha" operator="out"/>
<feColorMatrix type="matrix" values="0 0 0 0 0.716346 0 0 0 0 0.716346 0 0 0 0 0.716346 0 0 0 0.25 0"/>
<feBlend mode="normal" in2="BackgroundImageFix" result="effect1_dropShadow_676_2627"/>
<feBlend mode="normal" in="SourceGraphic" in2="effect1_dropShadow_676_2627" result="shape"/>
</filter>
<clipPath id="clip0_676_2627">
<rect width="20" height="14" fill="white"/>
</clipPath>
</defs>
</svg>
