<svg width="20" height="14" viewBox="0 0 20 14" fill="none" xmlns="http://www.w3.org/2000/svg">
<path d="M11.3442 13.9999C10.8298 13.2115 10.525 12.2917 10.4488 11.3415C10.3726 12.2917 10.0678 13.2115 9.55347 13.9999H11.3346H11.3442Z" fill="white"/>
<path d="M10.4579 11.3312C10.5055 12.2106 10.6294 13.1204 11.1532 13.9897H11.3533C10.8389 13.2012 10.5341 12.2814 10.4579 11.3312Z" fill="white"/>
<path d="M10.4572 11.3312C10.4096 12.2106 10.2858 13.1204 9.7619 13.9897H9.56187C10.0762 13.2012 10.381 12.2814 10.4572 11.3312Z" fill="white"/>
<path d="M9.05917 6.1862C9.49732 7.11615 10.3355 8.86487 10.4403 10.4923H10.4593C10.5641 8.88509 11.4023 7.09594 11.8405 6.1862C11.6405 6.29739 10.6784 6.9241 10.4403 8.51108C10.2403 6.9241 9.2592 6.36815 9.05917 6.1862Z" fill="white"/>
<path d="M10.4579 10.4923C10.4579 8.52119 11.2866 7.09594 11.839 6.1862C11.4009 7.11615 10.5627 8.86487 10.4579 10.4923Z" fill="white"/>
<path d="M10.4571 10.4923C10.4571 8.52119 9.62845 7.09594 9.076 6.1862C9.51415 7.11615 10.3524 8.86487 10.4571 10.4923Z" fill="white"/>
<path d="M12.0578 13.9998C11.3625 13.1103 10.991 11.9883 11.01 10.836C11.01 9.25909 11.934 7.25767 12.3721 6.38836C12.8103 5.51906 13.2484 4.64976 13.2484 3.66927C13.2484 2.03174 12.0006 0.697464 10.4481 0.697464C8.89548 0.697464 7.65723 2.03174 7.65723 3.66927C7.65723 4.64976 8.13348 5.45841 8.53353 6.38836C8.93358 7.31832 9.8956 9.24898 9.8956 10.836C9.91465 11.9883 9.54318 13.1103 8.84785 13.9998H7.9906C8.88595 12.9991 9.23838 12.0287 9.23838 10.836C9.23838 9.158 7.8763 6.5501 7.85725 6.50966C7.4572 5.6909 7 4.74073 7 3.66927C7 1.63752 8.54305 0 10.4481 0C12.3531 0 13.9056 1.63752 13.9056 3.65916C13.9056 4.73062 13.4484 5.63025 13.0484 6.49955C13.0103 6.5501 11.6673 9.17822 11.6673 10.8259C11.6673 12.0388 12.0197 12.9688 12.915 13.9897H12.0578V13.9998Z" fill="white"/>
<path d="M12.7043 6.45891C13.1043 5.61993 13.5615 4.7102 13.5615 3.66905C13.6949 1.83947 12.3995 0.242383 10.6754 0.110976C8.95141 -0.030538 7.44646 1.34417 7.32263 3.17375C7.31311 3.33548 7.31311 3.49721 7.32263 3.65895C7.32263 4.70009 7.77983 5.63004 8.17989 6.4488C8.43706 6.95421 9.60864 9.12747 9.60864 10.8256C9.60864 12.0791 9.20859 12.9686 8.40849 13.9895H8.84664C9.54196 13.1 9.91344 11.978 9.89439 10.8256C9.89439 9.24876 8.97046 7.24735 8.53231 6.37804C8.09416 5.50874 7.65601 4.63944 7.65601 3.65895C7.65601 2.03153 8.90379 0.69725 10.4564 0.69725C12.0089 0.69725 13.2567 2.02142 13.2567 3.66905C13.2567 4.64955 12.7805 5.4582 12.3804 6.38815C11.9804 7.3181 11.0183 9.24876 11.0183 10.8357C10.9993 11.9881 11.3708 13.1101 12.0661 13.9996H12.5042C11.7137 13.0494 11.3041 12.0285 11.3041 10.8357C11.3041 9.20833 12.4852 6.90367 12.7233 6.45891H12.7043Z" fill="white"/>
<path d="M10.9433 5.98401C10.8576 6.00423 10.7624 6.01433 10.6766 6.02444C10.7719 6.02444 10.8576 6.00423 10.9433 5.98401Z" fill="white"/>
<path d="M10.315 6.02456C10.1912 6.02456 10.0769 6.00434 9.95309 5.97401C10.0674 6.00434 10.1912 6.01445 10.315 6.02456Z" fill="white"/>
<path d="M11.4776 4.97322L11.1538 4.50825C11.1538 4.50825 11.1538 4.46781 11.1538 4.45771L11.4586 3.49743L11.4967 3.457L11.9824 3.27505L12.0491 3.29527L12.6682 3.78046C12.6682 3.78046 12.6682 3.79057 12.6682 3.80067C12.6682 3.76024 12.6778 3.71981 12.6778 3.67938C12.6778 2.67867 12.0872 1.81947 11.2681 1.47579C11.611 1.62742 11.9253 1.87001 12.1539 2.18337C12.1729 2.19348 12.1729 2.21369 12.1729 2.23391L11.9348 3.00213L11.8967 3.04256L11.3919 3.22451H11.3443L10.5727 2.63823V2.61802C10.5727 2.61802 10.5537 2.58769 10.5537 2.56748V2.01153C10.5537 2.01153 10.5537 1.9711 10.5727 1.96099L11.1919 1.47579H11.23C10.9823 1.37471 10.7156 1.31406 10.4394 1.31406C9.20113 1.31406 8.201 2.37542 8.201 3.68948C8.201 4.79128 8.91538 5.71112 9.86788 5.98404L9.84883 5.96382L9.59166 5.17539C9.59166 5.17539 9.59166 5.13495 9.59166 5.12485L9.91551 4.68009H10.9633L11.2681 5.12485C11.2681 5.12485 11.2871 5.15517 11.2871 5.17539L11.049 5.96382H11.0395C11.5633 5.82231 12.0205 5.46852 12.3158 5.00355H11.4776V4.97322ZM8.7344 2.16315C8.97253 1.8498 9.28685 1.61731 9.63928 1.46569H9.68691L10.2965 1.93066C10.2965 1.93066 10.3156 1.96099 10.3156 1.9812V2.56748C10.3156 2.56748 10.3156 2.60791 10.2965 2.61802L9.52498 3.20429H9.47735L8.99158 3.02235L8.95348 2.98191L8.71535 2.19348C8.71535 2.19348 8.71535 2.15304 8.7344 2.14293V2.16315ZM9.74406 4.50825L9.43925 4.95301H8.582C8.37245 4.60933 8.24863 4.21511 8.22958 3.81078C8.22958 3.79057 8.22958 3.77035 8.24863 3.76024L8.85823 3.29527H8.90585L9.41068 3.47721L9.44878 3.51765L9.75358 4.47792C9.75358 4.47792 9.75358 4.49814 9.75358 4.51835L9.74406 4.50825ZM10.8966 4.29597L10.4775 4.06349H10.4394L10.0203 4.29597L10.087 3.79057C10.087 3.79057 10.087 3.75013 10.0679 3.74003L9.73453 3.39635L10.1251 3.34581C10.1251 3.34581 10.1251 3.34581 10.1346 3.35591H10.2203L10.2584 3.30537L10.4584 2.86061L10.6775 3.30537L10.7156 3.34581L11.1728 3.41656L10.8394 3.76024C10.8394 3.76024 10.8204 3.79057 10.8204 3.81078L10.9061 4.29597H10.8966Z" fill="white"/>
<path d="M12.4582 4.70036C12.4582 4.70036 12.5058 4.59928 12.5249 4.54874C12.5058 4.59928 12.4772 4.64982 12.4582 4.70036Z" fill="white"/>
<path d="M12.618 4.24553C12.6371 4.16466 12.6466 4.0838 12.6561 4.00293C12.6466 4.0838 12.6276 4.16466 12.618 4.24553Z" fill="white"/>
<path d="M10.4569 7.13639C10.6516 7.13639 10.8094 6.96894 10.8094 6.76238C10.8094 6.55583 10.6516 6.38838 10.4569 6.38838C10.2623 6.38838 10.1045 6.55583 10.1045 6.76238C10.1045 6.96894 10.2623 7.13639 10.4569 7.13639Z" fill="white"/>
</svg>
