<svg width="20" height="14" viewBox="0 0 20 14" fill="none" xmlns="http://www.w3.org/2000/svg">
<g clip-path="url(#clip0_676_2432)">
<path d="M12.1056 5.3479C12.9924 4.41934 12.9924 2.91385 12.1056 1.98529C11.2189 1.05673 9.78115 1.05673 8.89439 1.98529C8.00762 2.91385 8.00762 4.41934 8.89439 5.3479C9.78115 6.27646 11.2189 6.27646 12.1056 5.3479Z" fill="url(#paint0_radial_676_2432)"/>
<path d="M11.4049 14C10.887 13.2096 10.5751 12.2915 10.5 11.3362C10.4249 12.2915 10.113 13.2096 9.59511 14H11.4049Z" fill="url(#paint1_linear_676_2432)"/>
<path d="M10.5 11.3362C10.5512 12.2122 10.6708 13.124 11.2 14H11.4049C10.887 13.2096 10.5751 12.2915 10.5 11.3362Z" fill="url(#paint2_linear_676_2432)"/>
<path d="M10.5 11.3362C10.4488 12.2122 10.3292 13.124 9.79996 14H9.59511C10.113 13.2096 10.4249 12.2915 10.5 11.3362Z" fill="url(#paint3_linear_676_2432)"/>
<path d="M9.08298 6.18741C9.52694 7.11702 10.3806 8.86914 10.483 10.4961H10.5002C10.6026 8.88707 11.4563 7.09925 11.9002 6.18741C11.6954 6.29466 10.7221 6.92043 10.4832 8.51151C10.2783 6.92043 9.28799 6.36622 9.08313 6.18741H9.08298Z" fill="url(#paint4_linear_676_2432)"/>
<path d="M10.5 10.4959C10.5 8.52929 11.3366 7.09909 11.9001 6.18726C11.4561 7.11686 10.6024 8.86898 10.5 10.4959Z" fill="url(#paint5_linear_676_2432)"/>
<path d="M10.5 10.4959C10.5 8.52929 9.66346 7.09909 9.09995 6.18726C9.5439 7.11686 10.3976 8.86898 10.5 10.4959Z" fill="url(#paint6_linear_676_2432)"/>
<path d="M12.122 14C11.4208 13.1108 11.0455 11.9886 11.0635 10.8356C11.0635 9.26231 12.0025 7.25998 12.4465 6.384C12.8904 5.50802 13.3342 4.64981 13.3342 3.66658C13.3342 2.02753 12.0653 0.698781 10.5 0.698781C8.93473 0.698781 7.66579 2.02753 7.66579 3.66658C7.66579 4.64981 8.14384 5.4544 8.55355 6.384C8.96326 7.31361 9.93649 9.24454 9.93649 10.8356C9.95454 11.9888 9.57922 13.1108 8.87796 14H8.00716C8.91205 12.9988 9.27055 12.0334 9.27055 10.8356C9.27055 9.15506 7.88761 6.54489 7.87049 6.50919C7.46093 5.68684 7 4.7393 7 3.66658C6.99923 1.64244 8.56558 0.00080795 10.4985 2.98177e-07C12.4315 -0.000807354 13.9992 1.63921 14 3.66335V3.66658C14 4.7393 13.5391 5.63321 13.1292 6.50919C13.0951 6.56282 11.7291 9.19092 11.7291 10.8356C11.7291 12.0513 12.0876 12.9809 12.9925 14H12.1217H12.122Z" fill="url(#paint7_linear_676_2432)"/>
<path d="M12.7878 6.45556C13.1975 5.61528 13.6586 4.70344 13.6586 3.66658C13.7871 1.83499 12.4733 0.241166 10.7241 0.106611C8.97498 -0.0281055 7.4529 1.34765 7.3244 3.17924C7.31299 3.34142 7.31299 3.5044 7.3244 3.66658C7.3244 4.70344 7.78533 5.63321 8.1952 6.45556C8.45127 6.95614 9.64648 9.13729 9.64648 10.8356C9.64648 12.0872 9.23676 12.9809 8.4343 14H8.87826C9.57953 13.1108 9.95484 11.9886 9.93679 10.8356C9.93679 9.26231 8.99781 7.25998 8.55385 6.384C8.10989 5.50803 7.66609 4.64981 7.66609 3.66658C7.66609 2.02753 8.93503 0.698781 10.5003 0.698781C12.0656 0.698781 13.3345 2.02753 13.3345 3.66658C13.3345 4.64981 12.8565 5.4544 12.4468 6.384C12.037 7.31361 11.0638 9.24455 11.0638 10.8356C11.0458 11.9888 11.4211 13.1108 12.1223 14H12.5663C11.7638 13.0525 11.3541 12.0334 11.3541 10.8356C11.3541 9.20869 12.5493 6.90252 12.7883 6.45556H12.7878Z" fill="url(#paint8_linear_676_2432)"/>
<path d="M11.3537 5.1504L11.1146 5.93705L11.0805 5.97275C10.7055 6.075 10.3116 6.075 9.93664 5.97275L9.90255 5.93705L9.64648 5.1504C9.63737 5.13376 9.63737 5.11341 9.64648 5.09677L9.97088 4.64982H11.0294L11.3367 5.09677C11.3517 5.10985 11.3583 5.13053 11.3538 5.1504H11.3537ZM12.0537 3.27325L11.5585 3.45207L11.5244 3.48777L11.2171 4.45323C11.208 4.46987 11.208 4.49022 11.2171 4.50686L11.5416 4.97175H12.4124C12.6243 4.6293 12.7479 4.23501 12.7709 3.82763C12.7753 3.80776 12.7687 3.78708 12.7537 3.774L12.122 3.29135L12.0537 3.27342V3.27325ZM10.6367 2.61179L11.422 3.2017H11.4732L11.9854 3.02288L12.0195 2.98718L12.2586 2.21846C12.263 2.19859 12.2564 2.17792 12.2414 2.16483C11.9977 1.84775 11.6802 1.60158 11.3194 1.44974H11.2682L10.6365 1.93239C10.6216 1.94547 10.6149 1.96615 10.6194 1.98602V2.54023C10.6149 2.5601 10.6216 2.58077 10.6365 2.59386V2.61179H10.6367ZM9.56102 3.21963L10.3464 2.62972C10.3613 2.61663 10.3679 2.59596 10.3635 2.57609V1.98618C10.3679 1.96631 10.3613 1.94564 10.3464 1.93255L9.73178 1.46767H9.68057C9.32176 1.6145 9.00445 1.85437 8.75856 2.16483C8.74359 2.17792 8.73696 2.19859 8.74143 2.21846L8.98054 3.00511L9.01463 3.04081L9.5098 3.21963H9.56102ZM9.783 4.47116L9.47571 3.5057L9.44162 3.47L8.92948 3.29118H8.87826L8.26369 3.75607C8.24873 3.76915 8.24209 3.78983 8.24657 3.8097C8.26955 4.21708 8.39312 4.61137 8.60507 4.95382H9.47586L9.78315 4.50686C9.79225 4.49022 9.79225 4.46987 9.78315 4.45323V4.47116H9.783Z" fill="url(#paint9_radial_676_2432)"/>
<path d="M10.5 2.862L10.2951 3.30895L10.2611 3.34465L9.80013 3.41621L10.1417 3.75591C10.1566 3.76899 10.1633 3.78967 10.1588 3.80954L10.0564 4.29219L10.4832 4.05975H10.5344L10.9441 4.29219L10.8588 3.80954C10.8543 3.78967 10.861 3.76899 10.8759 3.75591L11.2175 3.41621L10.7565 3.34465L10.7224 3.30895L10.5005 2.862H10.5Z" fill="#F4DF98"/>
<path d="M10.5171 4.05991L10.944 4.29236L10.8587 3.8097C10.5682 3.7795 10.3086 3.60714 10.1586 3.34482L9.76588 3.39845L10.1074 3.73814C10.1224 3.75123 10.129 3.7719 10.1245 3.79177L10.0562 4.29236L10.483 4.05991H10.5171Z" fill="#C9933F"/>
<path d="M10.5042 7.14029C10.7022 7.14029 10.8627 6.97222 10.8627 6.76489C10.8627 6.55757 10.7022 6.3895 10.5042 6.3895C10.3062 6.3895 10.1457 6.55757 10.1457 6.76489C10.1457 6.97222 10.3062 7.14029 10.5042 7.14029Z" fill="url(#paint10_radial_676_2432)"/>
</g>
<defs>
<radialGradient id="paint0_radial_676_2432" cx="0" cy="0" r="1" gradientUnits="userSpaceOnUse" gradientTransform="translate(10.7193 3.28777) scale(6.10325 6.39091)">
<stop stop-color="#6B6A69"/>
<stop offset="0.19" stop-color="#6B6A69"/>
<stop offset="0.22" stop-color="#626160"/>
<stop offset="0.26" stop-color="#494949"/>
<stop offset="0.32" stop-color="#212123"/>
<stop offset="0.33" stop-color="#121214"/>
</radialGradient>
<linearGradient id="paint1_linear_676_2432" x1="10.497" y1="13.9567" x2="10.497" y2="11.2896" gradientUnits="userSpaceOnUse">
<stop stop-color="#B8BBBE"/>
<stop offset="0.23" stop-color="#898A8D"/>
<stop offset="0.48" stop-color="#5B5B5D"/>
<stop offset="0.6" stop-color="#49494B"/>
<stop offset="0.69" stop-color="#4C4C4E"/>
<stop offset="0.76" stop-color="#565658"/>
<stop offset="0.83" stop-color="#666769"/>
<stop offset="0.89" stop-color="#7D7E81"/>
<stop offset="0.95" stop-color="#9A9D9F"/>
<stop offset="1" stop-color="#B8BBBE"/>
</linearGradient>
<linearGradient id="paint2_linear_676_2432" x1="10.95" y1="11.2896" x2="10.95" y2="13.9747" gradientUnits="userSpaceOnUse">
<stop offset="0.3" stop-color="#49494B"/>
<stop offset="0.7" stop-color="#C1C2C4"/>
<stop offset="0.75" stop-color="#C1C2C4"/>
<stop offset="1" stop-color="#49494B"/>
</linearGradient>
<linearGradient id="paint3_linear_676_2432" x1="10.171" y1="46.9729" x2="10.171" y2="46.9729" gradientUnits="userSpaceOnUse">
<stop offset="0.3" stop-color="#49494B"/>
<stop offset="0.7" stop-color="#C1C2C4"/>
<stop offset="0.75" stop-color="#C1C2C4"/>
<stop offset="1" stop-color="#49494B"/>
</linearGradient>
<linearGradient id="paint4_linear_676_2432" x1="10.4886" y1="6.02645" x2="10.4886" y2="11.2716" gradientUnits="userSpaceOnUse">
<stop stop-color="#C1C2C4"/>
<stop offset="0.07" stop-color="#B8B9BB"/>
<stop offset="0.18" stop-color="#A0A1A3"/>
<stop offset="0.31" stop-color="#79797B"/>
<stop offset="0.45" stop-color="#49494B"/>
<stop offset="1" stop-color="#C1C2C4"/>
</linearGradient>
<linearGradient id="paint5_linear_676_2432" x1="11.3005" y1="10.4661" x2="11.3005" y2="6.13403" gradientUnits="userSpaceOnUse">
<stop stop-color="#595958"/>
<stop offset="0.45" stop-color="#C1C2C4"/>
<stop offset="0.6" stop-color="#C1C2C4"/>
<stop offset="0.8" stop-color="#49494B"/>
</linearGradient>
<linearGradient id="paint6_linear_676_2432" x1="9.79621" y1="10.4661" x2="9.79621" y2="6.13403" gradientUnits="userSpaceOnUse">
<stop offset="0.3" stop-color="#49494B"/>
<stop offset="0.45" stop-color="#C1C2C4"/>
<stop offset="0.6" stop-color="#C1C2C4"/>
<stop offset="1" stop-color="#49494B"/>
</linearGradient>
<linearGradient id="paint7_linear_676_2432" x1="10.497" y1="13.9567" x2="10.497" y2="-0.061635" gradientUnits="userSpaceOnUse">
<stop stop-color="#3A3B40"/>
<stop offset="0.07" stop-color="#3E3F44"/>
<stop offset="0.14" stop-color="#4B4C50"/>
<stop offset="0.21" stop-color="#5F6065"/>
<stop offset="0.28" stop-color="#7C7D81"/>
<stop offset="0.35" stop-color="#A1A2A5"/>
<stop offset="0.4" stop-color="#C1C2C4"/>
<stop offset="0.46" stop-color="#919295"/>
<stop offset="0.51" stop-color="#6B6C70"/>
<stop offset="0.56" stop-color="#505156"/>
<stop offset="0.6" stop-color="#404146"/>
<stop offset="0.63" stop-color="#3A3B40"/>
<stop offset="0.9" stop-color="#C1C2C4"/>
<stop offset="1" stop-color="#C1C2C4"/>
</linearGradient>
<linearGradient id="paint8_linear_676_2432" x1="10.4886" y1="13.9567" x2="10.4886" y2="0.298223" gradientUnits="userSpaceOnUse">
<stop stop-color="#49494B"/>
<stop offset="0.5" stop-color="#C1C2C4"/>
<stop offset="0.51" stop-color="#C1C2C4"/>
<stop offset="0.55" stop-color="#C1C2C4"/>
<stop offset="0.75" stop-color="#49494B"/>
<stop offset="0.85" stop-color="#7F8082"/>
<stop offset="0.95" stop-color="#AFB0B2"/>
<stop offset="1" stop-color="#C1C2C4"/>
</linearGradient>
<radialGradient id="paint9_radial_676_2432" cx="0" cy="0" r="1" gradientUnits="userSpaceOnUse" gradientTransform="translate(10.5998 3.30571) scale(6.0517 6.33693)">
<stop stop-color="white"/>
<stop offset="0.19" stop-color="white"/>
<stop offset="0.21" stop-color="#F6F6F6"/>
<stop offset="0.24" stop-color="#DDDDDD"/>
<stop offset="0.27" stop-color="#B6B6B5"/>
<stop offset="0.31" stop-color="#7F7F7E"/>
<stop offset="0.33" stop-color="#595958"/>
<stop offset="0.36" stop-color="#666665"/>
<stop offset="0.41" stop-color="#878787"/>
<stop offset="0.47" stop-color="#BEBEBE"/>
<stop offset="0.53" stop-color="white"/>
</radialGradient>
<radialGradient id="paint10_radial_676_2432" cx="0" cy="0" r="1" gradientTransform="matrix(0.894462 -0.936621 -0.894462 -0.936621 10.5029 6.57479)" gradientUnits="userSpaceOnUse">
<stop stop-color="#C1C2C4"/>
<stop offset="0.19" stop-color="#C1C2C4"/>
<stop offset="0.21" stop-color="#B8B9BB"/>
<stop offset="0.25" stop-color="#A0A0A2"/>
<stop offset="0.29" stop-color="#78787A"/>
<stop offset="0.33" stop-color="#49494B"/>
<stop offset="0.37" stop-color="#565658"/>
<stop offset="0.43" stop-color="#77787A"/>
<stop offset="0.51" stop-color="#ADAEB0"/>
<stop offset="0.53" stop-color="#C1C2C4"/>
</radialGradient>
<clipPath id="clip0_676_2432">
<rect width="7" height="14" fill="white" transform="translate(7)"/>
</clipPath>
</defs>
</svg>
