<svg width="20" height="14" viewBox="0 0 20 14" fill="none" xmlns="http://www.w3.org/2000/svg">
<g clip-path="url(#clip0_676_2631)">
<path d="M6.04025 9.15758C5.96782 9.04376 6.00921 8.91959 6.04025 8.83681C6.4645 7.80205 6.8991 6.7673 7.32335 5.73254C7.35439 5.64976 7.38543 5.56698 7.41647 5.4842C7.42682 5.40142 7.39578 5.31864 7.313 5.32899C7.02327 5.34968 6.81632 5.29795 6.47485 5.23586C6.36102 5.16343 6.4438 5.09099 6.47485 5.02891C7.25091 3.52851 8.03733 2.02812 8.81339 0.527725C8.88583 0.382859 8.99965 0.351817 9.14452 0.331122C10.0758 0.248341 11.0071 0.165561 11.9487 0.0724329C12.2074 0.0517377 12.4764 0.0310427 12.7351 0C12.8386 0 12.9007 -7.70953e-09 12.8489 0.124171C12.8282 0.320774 12.7351 0.475987 12.6213 0.631201C11.8452 1.71769 11.0692 2.79384 10.3034 3.88033C10.1586 4.07694 10.2 4.13902 10.4483 4.15972C10.8622 4.08728 11.2761 4.01485 11.69 3.95276C11.7107 4.04589 11.6383 4.08728 11.6279 4.14937C11.6486 4.35632 11.5245 4.51153 11.4106 4.66675C10.8415 5.47385 10.2827 6.30166 9.71363 7.11911C9.63085 7.24329 9.54807 7.36746 9.71363 7.49163C10.0758 7.46058 10.438 7.43989 10.8001 7.3985C10.976 7.3778 10.9967 7.43989 10.9036 7.57441C10.9036 7.72962 10.8312 7.84344 10.738 7.95727C9.66189 9.35419 8.58575 10.7511 7.5096 12.148C7.27161 12.4585 7.04396 12.7585 6.80597 13.0586C6.73354 13.1517 6.6611 13.2449 6.51624 13.2552C6.38172 13.369 6.31963 13.5449 6.10233 13.6795C6.69215 12.148 7.26126 10.6787 7.83038 9.20932C7.88211 9.04376 7.77864 9.02306 7.65447 9.02306C7.28196 9.03341 6.94049 9.03341 6.56797 9.0955C6.37137 9.12654 6.39207 9.13689 6.01955 9.14724L6.04025 9.15758Z" fill="#FFBC00"/>
<path d="M6.53682 13.2653C7.08524 12.541 7.63366 11.827 8.18208 11.1027C9.05128 9.96444 9.93082 8.82621 10.8104 7.69833C10.8414 7.65694 10.8828 7.61555 10.9242 7.57416C11.2346 7.69833 11.2243 7.68798 10.9966 7.99841C10.086 9.18838 9.17545 10.3783 8.25452 11.5683C7.65436 12.3547 7.04385 13.1411 6.43335 13.9276C6.41265 13.9483 6.40231 13.9896 6.37126 14C6.36092 13.731 6.57821 13.5343 6.53682 13.2757V13.2653Z" fill="white"/>
<path d="M10.4586 4.16992C10.3034 4.21131 10.0758 4.33548 9.993 4.22166C9.91022 4.11818 10.1172 3.96297 10.2103 3.82845C11.0588 2.62813 11.9176 1.42782 12.7765 0.227501C12.8075 0.186111 12.8386 0.155068 12.8696 0.113678C12.9007 0.237849 13.118 0.165416 13.0973 0.279239C13.0766 0.393062 12.9731 0.496537 12.9007 0.600013C12.1039 1.71755 11.3071 2.83508 10.5104 3.95262C10.469 4.00436 10.3345 4.0561 10.4586 4.15957V4.16992Z" fill="white"/>
<path d="M9.72395 7.49179C9.72395 7.49179 9.7136 7.49179 9.70325 7.49179C9.59978 7.51249 9.45491 7.58492 9.39283 7.49179C9.33074 7.40901 9.46526 7.30554 9.517 7.2331C10.2206 6.2087 10.9346 5.18429 11.6486 4.15988C11.7314 4.24266 11.8452 4.18058 11.9797 4.22197C11.2243 5.31881 10.4793 6.4053 9.7343 7.49179H9.72395Z" fill="white"/>
</g>
<defs>
<clipPath id="clip0_676_2631">
<rect width="20" height="14" fill="white"/>
</clipPath>
</defs>
</svg>
