<svg width="20" height="14" viewBox="0 0 20 14" fill="none" xmlns="http://www.w3.org/2000/svg">
<g clip-path="url(#clip0_676_2637)">
<path d="M0.995116 12.5547C0.956435 12.1081 0.610242 11.747 0.167348 11.6748V10.9431C0.639253 10.8671 0.998984 10.4642 0.998984 9.97965C0.998984 9.49506 0.637319 9.09218 0.167348 9.01616V8.28452C0.639253 8.20851 0.998984 7.80563 0.998984 7.32103C0.998984 6.83644 0.637319 6.43356 0.167348 6.35755V5.6259C0.639253 5.54989 0.998984 5.14701 0.998984 4.66242C0.998984 4.17782 0.637319 3.77494 0.167348 3.69893V2.96729C0.587034 2.89887 0.917755 2.57391 0.98738 2.16153H19.0165C19.0861 2.57391 19.4168 2.89887 19.8365 2.96729V3.69893C19.3646 3.77494 19.0049 4.17782 19.0049 4.66242C19.0049 5.14701 19.3665 5.54989 19.8365 5.6259V6.35755C19.3646 6.43356 19.0049 6.83644 19.0049 7.32103C19.0049 7.80563 19.3665 8.20851 19.8365 8.28452V9.01616C19.3646 9.09218 19.0049 9.49506 19.0049 9.97965C19.0049 10.4642 19.3665 10.8671 19.8365 10.9431V11.6748C19.3917 11.747 19.0474 12.1081 19.0088 12.5547H0.995116Z" fill="#FECA7A"/>
<path d="M18.8869 2.31736C18.9971 2.68793 19.295 2.98249 19.6741 3.09081V3.56971C19.1944 3.70653 18.8424 4.14362 18.8424 4.66052C18.8424 5.17742 19.1944 5.6126 19.6741 5.75133V6.23022C19.1944 6.36705 18.8424 6.80413 18.8424 7.32104C18.8424 7.83794 19.1944 8.27312 19.6741 8.41185V8.89074C19.1944 9.02757 18.8424 9.46465 18.8424 9.98155C18.8424 10.4985 19.1944 10.9336 19.6741 11.0724V11.5513C19.2718 11.6672 18.9585 11.9921 18.8676 12.3988H1.13437C1.04347 11.9921 0.732087 11.6672 0.327873 11.5513V11.0724C0.807514 10.9355 1.15951 10.4985 1.15951 9.98155C1.15951 9.46465 0.807514 9.02947 0.327873 8.89074V8.41185C0.807514 8.27502 1.15951 7.83794 1.15951 7.32104C1.15951 6.80413 0.807514 6.36895 0.327873 6.23022V5.75133C0.807514 5.6145 1.15951 5.17742 1.15951 4.66052C1.15951 4.14362 0.807514 3.70843 0.327873 3.56971V3.09081C0.70501 2.98249 1.00479 2.68983 1.11503 2.31736H18.8869ZM19.1635 2H0.836525C0.836525 2.45229 0.463255 2.81716 0.00488837 2.81716V3.84146C0.46519 3.84146 0.836525 4.20823 0.836525 4.65862C0.836525 5.109 0.463255 5.47578 0.00488837 5.47578V6.50008C0.46519 6.50008 0.836525 6.86685 0.836525 7.31723C0.836525 7.76762 0.463255 8.13439 0.00488837 8.13439V9.15869C0.46519 9.15869 0.836525 9.52546 0.836525 9.97585C0.836525 10.4262 0.463255 10.793 0.00488837 10.793V11.8173C0.46519 11.8173 0.836525 12.1841 0.836525 12.6345C0.836525 12.6611 0.830723 12.6839 0.828789 12.7105H19.1712C19.1693 12.6858 19.1635 12.6611 19.1635 12.6345C19.1635 12.1822 19.5367 11.8173 19.9951 11.8173V10.793C19.5348 10.793 19.1635 10.4262 19.1635 9.97585C19.1635 9.52546 19.5367 9.15869 19.9951 9.15869V8.13439C19.5348 8.13439 19.1635 7.76762 19.1635 7.31723C19.1635 6.86685 19.5367 6.50008 19.9951 6.50008V5.47578C19.5348 5.47578 19.1635 5.109 19.1635 4.65862C19.1635 4.20823 19.5367 3.84146 19.9951 3.84146V2.81716C19.5348 2.81716 19.1635 2.45039 19.1635 2Z" fill="#EFB970"/>
<path d="M16.8946 11.6629C16.8694 11.7448 16.8546 11.8305 16.8546 11.92H16.9431V11.84H16.6799C16.6314 11.84 16.5914 11.8762 16.5914 11.92C16.5914 11.9638 16.6314 12 16.6799 12H17.0315V11.92C17.0315 11.8457 17.042 11.7734 17.0631 11.7048C17.0757 11.6629 17.0483 11.6191 17.002 11.6077C16.9557 11.5963 16.9073 11.621 16.8946 11.6629Z" fill="#6F5430"/>
<path d="M4.38818 11.84H3.85336C3.80493 11.84 3.76492 11.8762 3.76492 11.92C3.76492 11.9638 3.80493 12 3.85336 12H4.38818C4.43661 12 4.47662 11.9638 4.47662 11.92C4.47662 11.8762 4.43661 11.84 4.38818 11.84ZM5.45574 11.84H4.92091C4.87248 11.84 4.83247 11.8762 4.83247 11.92C4.83247 11.9638 4.87248 12 4.92091 12H5.45574C5.50417 12 5.54417 11.9638 5.54417 11.92C5.54417 11.8762 5.50417 11.84 5.45574 11.84ZM6.5254 11.84H5.99057C5.94214 11.84 5.90213 11.8762 5.90213 11.92C5.90213 11.9638 5.94214 12 5.99057 12H6.5254C6.57383 12 6.61383 11.9638 6.61383 11.92C6.61383 11.8762 6.57383 11.84 6.5254 11.84ZM7.59506 11.84H7.06023C7.0118 11.84 6.97179 11.8762 6.97179 11.92C6.97179 11.9638 7.0118 12 7.06023 12H7.59506C7.64349 12 7.68349 11.9638 7.68349 11.92C7.68349 11.8762 7.64349 11.84 7.59506 11.84ZM8.66261 11.84H8.12778C8.07935 11.84 8.03934 11.8762 8.03934 11.92C8.03934 11.9638 8.07935 12 8.12778 12H8.66261C8.71104 12 8.75105 11.9638 8.75105 11.92C8.75105 11.8762 8.71104 11.84 8.66261 11.84ZM9.73227 11.84H9.19744C9.14901 11.84 9.109 11.8762 9.109 11.92C9.109 11.9638 9.14901 12 9.19744 12H9.73227C9.7807 12 9.82071 11.9638 9.82071 11.92C9.82071 11.8762 9.7807 11.84 9.73227 11.84ZM10.8019 11.84H10.2671C10.2187 11.84 10.1787 11.8762 10.1787 11.92C10.1787 11.9638 10.2187 12 10.2671 12H10.8019C10.8504 12 10.8904 11.9638 10.8904 11.92C10.8904 11.8762 10.8504 11.84 10.8019 11.84ZM11.8716 11.84H11.3368C11.2883 11.84 11.2483 11.8762 11.2483 11.92C11.2483 11.9638 11.2883 12 11.3368 12H11.8716C11.92 12 11.96 11.9638 11.96 11.92C11.96 11.8762 11.92 11.84 11.8716 11.84ZM12.9391 11.84H12.4043C12.3559 11.84 12.3159 11.8762 12.3159 11.92C12.3159 11.9638 12.3559 12 12.4043 12H12.9391C12.9876 12 13.0276 11.9638 13.0276 11.92C13.0276 11.8762 12.9876 11.84 12.9391 11.84ZM14.0088 11.84H13.474C13.4255 11.84 13.3855 11.8762 13.3855 11.92C13.3855 11.9638 13.4255 12 13.474 12H14.0088C14.0572 12 14.0972 11.9638 14.0972 11.92C14.0972 11.8762 14.0572 11.84 14.0088 11.84ZM15.0785 11.84H14.5436C14.4952 11.84 14.4552 11.8762 14.4552 11.92C14.4552 11.9638 14.4952 12 14.5436 12H15.0785C15.1269 12 15.1669 11.9638 15.1669 11.92C15.1669 11.8762 15.1269 11.84 15.0785 11.84ZM16.1481 11.84H15.6133C15.5649 11.84 15.5249 11.8762 15.5249 11.92C15.5249 11.9638 15.5649 12 15.6133 12H16.1481C16.1965 12 16.2366 11.9638 16.2366 11.92C16.2366 11.8762 16.1965 11.84 16.1481 11.84Z" fill="#6F5430"/>
<path d="M3.31767 11.84H3.05447V11.92H3.1429C3.1429 11.8305 3.13027 11.7448 3.105 11.6629C3.09237 11.621 3.04394 11.5963 2.99551 11.6077C2.94919 11.6191 2.92181 11.6629 2.93445 11.7048C2.9555 11.7734 2.96603 11.8457 2.96603 11.92V12H3.31767C3.3661 12 3.40611 11.9638 3.40611 11.92C3.40611 11.8762 3.3661 11.84 3.31767 11.84Z" fill="#6F5430"/>
<path d="M2.94999 11.3718C2.8805 11.2842 2.79628 11.2061 2.69731 11.1432C2.65731 11.1185 2.60256 11.1261 2.57519 11.1623C2.54782 11.1985 2.55624 11.248 2.59624 11.2727C2.67836 11.3242 2.74785 11.3889 2.80681 11.4632C2.83418 11.4994 2.88893 11.507 2.92893 11.4822C2.96894 11.4575 2.97736 11.4079 2.94999 11.3718Z" fill="#6F5430"/>
<path d="M2.3727 11.0021C2.28215 10.9793 2.1874 10.9659 2.08844 10.9678V11.0478H2.17687V10.8098C2.17687 10.766 2.13687 10.7298 2.08844 10.7298C2.04001 10.7298 2 10.766 2 10.8098V11.1278H2.08844C2.17056 11.1278 2.25057 11.1373 2.32637 11.1564C2.3727 11.1678 2.42113 11.143 2.43376 11.1011C2.44639 11.0592 2.41902 11.0154 2.3727 11.0021Z" fill="#6F5430"/>
<path d="M2.17687 5.20927V4.70081C2.17687 4.65701 2.13687 4.62082 2.08844 4.62082C2.04001 4.62082 2 4.65701 2 4.70081V5.20927C2 5.25307 2.04001 5.28925 2.08844 5.28925C2.13687 5.28925 2.17687 5.25307 2.17687 5.20927ZM2.17687 6.2281V5.71964C2.17687 5.67584 2.13687 5.63965 2.08844 5.63965C2.04001 5.63965 2 5.67584 2 5.71964V6.2281C2 6.2719 2.04001 6.30808 2.08844 6.30808C2.13687 6.30808 2.17687 6.2719 2.17687 6.2281ZM2.17687 7.24502V6.73656C2.17687 6.69276 2.13687 6.65658 2.08844 6.65658C2.04001 6.65658 2 6.69276 2 6.73656V7.24502C2 7.28882 2.04001 7.32501 2.08844 7.32501C2.13687 7.32501 2.17687 7.28882 2.17687 7.24502ZM2.17687 8.26385V7.75539C2.17687 7.71159 2.13687 7.67541 2.08844 7.67541C2.04001 7.67541 2 7.71159 2 7.75539V8.26385C2 8.30765 2.04001 8.34384 2.08844 8.34384C2.13687 8.34384 2.17687 8.30765 2.17687 8.26385ZM2.17687 9.28268V8.77422C2.17687 8.73042 2.13687 8.69424 2.08844 8.69424C2.04001 8.69424 2 8.73042 2 8.77422V9.28268C2 9.32648 2.04001 9.36266 2.08844 9.36266C2.13687 9.36266 2.17687 9.32648 2.17687 9.28268ZM2.17687 10.2996V9.79115C2.17687 9.74734 2.13687 9.71116 2.08844 9.71116C2.04001 9.71116 2 9.74734 2 9.79115V10.2996C2 10.3434 2.04001 10.3796 2.08844 10.3796C2.13687 10.3796 2.17687 10.3434 2.17687 10.2996Z" fill="#6F5430"/>
<path d="M2.17687 4.19221V3.95416H2.08844V4.03415C2.1874 4.03415 2.28215 4.02272 2.3727 3.99987C2.41902 3.98844 2.44639 3.94464 2.43376 3.90084C2.42113 3.85894 2.3727 3.83419 2.32637 3.84561C2.25057 3.86466 2.17056 3.87418 2.08844 3.87418H2V4.19221C2 4.23601 2.04001 4.27219 2.08844 4.27219C2.13687 4.27219 2.17687 4.23601 2.17687 4.19221Z" fill="#6F5430"/>
<path d="M2.69731 3.85909C2.79417 3.79625 2.8805 3.72007 2.94999 3.63057C2.97736 3.59439 2.96894 3.54487 2.92893 3.52012C2.88893 3.49536 2.83418 3.50298 2.80681 3.53916C2.74996 3.61343 2.67836 3.67818 2.59624 3.72959C2.55624 3.75435 2.54782 3.80386 2.57519 3.84005C2.60256 3.87623 2.65731 3.88385 2.69731 3.85909Z" fill="#6F5430"/>
<path d="M3.10288 3.33707C3.12814 3.25518 3.14078 3.16949 3.14078 3.07998H3.05234V3.15997H3.31555C3.36397 3.15997 3.40398 3.12378 3.40398 3.07998C3.40398 3.03618 3.36397 3 3.31555 3H2.96391V3.07998C2.96391 3.15425 2.95338 3.22662 2.93232 3.29517C2.91969 3.33707 2.94706 3.38087 2.99338 3.3923C3.03971 3.40372 3.08814 3.37897 3.10288 3.33707Z" fill="#6F5430"/>
<path d="M15.6133 3.15997H16.1481C16.1965 3.15997 16.2366 3.12378 16.2366 3.07998C16.2366 3.03618 16.1965 3 16.1481 3H15.6133C15.5649 3 15.5249 3.03618 15.5249 3.07998C15.5249 3.12378 15.5649 3.15997 15.6133 3.15997ZM14.5436 3.15997H15.0785C15.1269 3.15997 15.1669 3.12378 15.1669 3.07998C15.1669 3.03618 15.1269 3 15.0785 3H14.5436C14.4952 3 14.4552 3.03618 14.4552 3.07998C14.4552 3.12378 14.4952 3.15997 14.5436 3.15997ZM13.474 3.15997H14.0088C14.0572 3.15997 14.0972 3.12378 14.0972 3.07998C14.0972 3.03618 14.0572 3 14.0088 3H13.474C13.4255 3 13.3855 3.03618 13.3855 3.07998C13.3855 3.12378 13.4255 3.15997 13.474 3.15997ZM12.4064 3.15997H12.9412C12.9897 3.15997 13.0297 3.12378 13.0297 3.07998C13.0297 3.03618 12.9897 3 12.9412 3H12.4064C12.358 3 12.318 3.03618 12.318 3.07998C12.318 3.12378 12.358 3.15997 12.4064 3.15997ZM11.3368 3.15997H11.8716C11.92 3.15997 11.96 3.12378 11.96 3.07998C11.96 3.03618 11.92 3 11.8716 3H11.3368C11.2883 3 11.2483 3.03618 11.2483 3.07998C11.2483 3.12378 11.2883 3.15997 11.3368 3.15997ZM10.2671 3.15997H10.8019C10.8504 3.15997 10.8904 3.12378 10.8904 3.07998C10.8904 3.03618 10.8504 3 10.8019 3H10.2671C10.2187 3 10.1787 3.03618 10.1787 3.07998C10.1787 3.12378 10.2187 3.15997 10.2671 3.15997ZM9.19744 3.15997H9.73227C9.7807 3.15997 9.82071 3.12378 9.82071 3.07998C9.82071 3.03618 9.7807 3 9.73227 3H9.19744C9.14901 3 9.109 3.03618 9.109 3.07998C9.109 3.12378 9.14901 3.15997 9.19744 3.15997ZM8.12989 3.15997H8.66472C8.71315 3.15997 8.75315 3.12378 8.75315 3.07998C8.75315 3.03618 8.71315 3 8.66472 3H8.12989C8.08146 3 8.04145 3.03618 8.04145 3.07998C8.04145 3.12378 8.08146 3.15997 8.12989 3.15997ZM7.06023 3.15997H7.59506C7.64349 3.15997 7.68349 3.12378 7.68349 3.07998C7.68349 3.03618 7.64349 3 7.59506 3H7.06023C7.0118 3 6.97179 3.03618 6.97179 3.07998C6.97179 3.12378 7.0118 3.15997 7.06023 3.15997ZM5.99057 3.15997H6.5254C6.57383 3.15997 6.61383 3.12378 6.61383 3.07998C6.61383 3.03618 6.57383 3 6.5254 3H5.99057C5.94214 3 5.90213 3.03618 5.90213 3.07998C5.90213 3.12378 5.94214 3.15997 5.99057 3.15997ZM4.92091 3.15997H5.45574C5.50417 3.15997 5.54417 3.12378 5.54417 3.07998C5.54417 3.03618 5.50417 3 5.45574 3H4.92091C4.87248 3 4.83247 3.03618 4.83247 3.07998C4.83247 3.12378 4.87248 3.15997 4.92091 3.15997ZM3.85336 3.15997H4.38818C4.43661 3.15997 4.47662 3.12378 4.47662 3.07998C4.47662 3.03618 4.43661 3 4.38818 3H3.85336C3.80493 3 3.76492 3.03618 3.76492 3.07998C3.76492 3.12378 3.80493 3.15997 3.85336 3.15997Z" fill="#6F5430"/>
<path d="M16.6799 3.15997H16.9431V3.07998H16.8546C16.8546 3.16949 16.8673 3.25518 16.8946 3.33707C16.9073 3.37897 16.9557 3.40372 17.002 3.3923C17.0483 3.38087 17.0757 3.33707 17.0631 3.29517C17.042 3.22662 17.0315 3.15425 17.0315 3.07998V3H16.6799C16.6314 3 16.5914 3.03618 16.5914 3.07998C16.5914 3.12378 16.6314 3.15997 16.6799 3.15997Z" fill="#6F5430"/>
<path d="M17.0518 3.62861C17.1213 3.71621 17.2055 3.79429 17.3045 3.85713C17.3445 3.88189 17.3992 3.87427 17.4266 3.83809C17.4539 3.80191 17.4455 3.75239 17.4055 3.72764C17.3234 3.67622 17.2539 3.61147 17.195 3.5372C17.1676 3.50102 17.1128 3.4934 17.0728 3.51816C17.0328 3.54292 17.0244 3.59243 17.0518 3.62861Z" fill="#6F5430"/>
<path d="M17.6252 3.99791C17.7157 4.02076 17.8105 4.03409 17.9095 4.03219V3.95221H17.821V4.19025C17.821 4.23405 17.861 4.27023 17.9095 4.27023C17.9579 4.27023 17.9979 4.23405 17.9979 4.19025V3.87222H17.9095C17.8273 3.87222 17.7473 3.8627 17.6715 3.84366C17.6252 3.83223 17.5768 3.85699 17.5641 3.89888C17.5515 3.94078 17.5789 3.98458 17.6252 3.99791Z" fill="#6F5430"/>
<path d="M17.8226 9.79115V10.2996C17.8226 10.3434 17.8626 10.3796 17.911 10.3796C17.9595 10.3796 17.9995 10.3434 17.9995 10.2996V9.79115C17.9995 9.74734 17.9595 9.71116 17.911 9.71116C17.8626 9.71116 17.8226 9.74734 17.8226 9.79115ZM17.8226 8.77231V9.28078C17.8226 9.32458 17.8626 9.36076 17.911 9.36076C17.9595 9.36076 17.9995 9.32458 17.9995 9.28078V8.77231C17.9995 8.72851 17.9595 8.69233 17.911 8.69233C17.8626 8.69233 17.8226 8.72851 17.8226 8.77231ZM17.8226 7.75539V8.26385C17.8226 8.30765 17.8626 8.34384 17.911 8.34384C17.9595 8.34384 17.9995 8.30765 17.9995 8.26385V7.75539C17.9995 7.71159 17.9595 7.67541 17.911 7.67541C17.8626 7.67541 17.8226 7.71159 17.8226 7.75539ZM17.8226 6.73656V7.24502C17.8226 7.28882 17.8626 7.32501 17.911 7.32501C17.9595 7.32501 17.9995 7.28882 17.9995 7.24502V6.73656C17.9995 6.69276 17.9595 6.65658 17.911 6.65658C17.8626 6.65658 17.8226 6.69276 17.8226 6.73656ZM17.8226 5.71773V6.22619C17.8226 6.26999 17.8626 6.30618 17.911 6.30618C17.9595 6.30618 17.9995 6.26999 17.9995 6.22619V5.71773C17.9995 5.67393 17.9595 5.63775 17.911 5.63775C17.8626 5.63775 17.8226 5.67393 17.8226 5.71773ZM17.8226 4.70081V5.20927C17.8226 5.25307 17.8626 5.28925 17.911 5.28925C17.9595 5.28925 17.9995 5.25307 17.9995 5.20927V4.70081C17.9995 4.65701 17.9595 4.62082 17.911 4.62082C17.8626 4.62082 17.8226 4.65701 17.8226 4.70081Z" fill="#6F5430"/>
<path d="M17.821 10.8081V11.0461H17.9095V10.9661C17.8105 10.9661 17.7157 10.9776 17.6252 11.0004C17.5789 11.0118 17.5515 11.0556 17.5641 11.0994C17.5768 11.1413 17.6252 11.1661 17.6736 11.1547C17.7494 11.1356 17.8294 11.1261 17.9116 11.1261H18V10.8081C18 10.7643 17.96 10.7281 17.9116 10.7281C17.8631 10.7281 17.8231 10.7643 17.8231 10.8081H17.821Z" fill="#6F5430"/>
<path d="M17.3045 11.1413C17.2076 11.2041 17.1213 11.2803 17.0518 11.3698C17.0244 11.406 17.0328 11.4555 17.0728 11.4803C17.1128 11.505 17.1676 11.4974 17.195 11.4612C17.2518 11.3869 17.3234 11.3241 17.4055 11.2708C17.4455 11.246 17.4539 11.1965 17.4266 11.1603C17.3992 11.1241 17.3445 11.1165 17.3045 11.1413Z" fill="#6F5430"/>
<path d="M14.3516 6.51934H15V6.04062H13.0784V6.51934H13.7268V8.96228H14.3516V6.51934ZM12.8197 8.48356H11.9261V7.67408H12.7559V7.20406H11.9261V6.51064H12.8197V6.04062H11.2945V8.95938H12.8197V8.48356ZM10.206 7.30561L10.9888 6.04062H10.3169L9.74244 7.05029L9.52407 7.48839V6.04062H8.89586V8.95938H9.52407V7.9294L9.77603 7.7118L10.3303 8.95938H11.0022L10.2128 7.30271L10.206 7.30561ZM8.07951 6.52514C8.15677 6.55996 8.23068 6.59768 8.30123 6.6383L8.50952 6.19729C8.3785 6.12476 8.25756 6.07253 8.1467 6.04352C8.03247 6.01451 7.91489 6 7.79059 6C7.41769 6 7.12206 6.13346 6.91377 6.39749C6.70213 6.66151 6.59798 7.03288 6.59798 7.5058C6.59798 7.97872 6.69877 8.3472 6.90369 8.60832C7.10862 8.86944 7.40089 9 7.78051 9C8.03919 9 8.24748 8.95358 8.41545 8.85783V8.37331C8.2206 8.47195 8.03247 8.52128 7.85442 8.52128C7.44457 8.52128 7.243 8.18182 7.243 7.5058C7.243 7.18085 7.29339 6.92843 7.39754 6.74565C7.50168 6.56286 7.64278 6.47292 7.82419 6.47292C7.91825 6.47292 8.00224 6.49033 8.07951 6.52514ZM5.98656 8.95938V6.04062H5.3953V8.95938H5.98656ZM4.27324 6.51934H4.92161V6.04062H3V6.51934H3.64838V8.96228H4.27324V6.51934Z" fill="#6F5430"/>
<path d="M16 2.38198V2.60242C16 2.64233 16.0348 2.67653 16.0774 2.67653C16.1199 2.67653 16.1547 2.64423 16.1547 2.60242V2.38198C16.1547 2.34207 16.1199 2.30786 16.0774 2.30786C16.0348 2.30786 16 2.34017 16 2.38198Z" fill="#6F5430"/>
<path d="M16 11.2053V11.6576C16 11.6975 16.0348 11.7317 16.0774 11.7317C16.1199 11.7317 16.1547 11.6994 16.1547 11.6576V11.2053C16.1547 11.1654 16.1199 11.1312 16.0774 11.1312C16.0348 11.1312 16 11.1635 16 11.2053ZM16 10.2988V10.7511C16 10.791 16.0348 10.8252 16.0774 10.8252C16.1199 10.8252 16.1547 10.7929 16.1547 10.7511V10.2988C16.1547 10.2589 16.1199 10.2247 16.0774 10.2247C16.0348 10.2247 16 10.257 16 10.2988ZM16 9.39427V9.84656C16 9.88647 16.0348 9.92067 16.0774 9.92067C16.1199 9.92067 16.1547 9.88837 16.1547 9.84656V9.39427C16.1547 9.35436 16.1199 9.32015 16.0774 9.32015C16.0348 9.32015 16 9.35246 16 9.39427ZM16 8.48969V8.94198C16 8.98189 16.0348 9.0161 16.0774 9.0161C16.1199 9.0161 16.1547 8.98379 16.1547 8.94198V8.48969C16.1547 8.44979 16.1199 8.41558 16.0774 8.41558C16.0348 8.41558 16 8.44789 16 8.48969ZM16 7.58322V8.03551C16 8.07541 16.0348 8.10962 16.0774 8.10962C16.1199 8.10962 16.1547 8.07731 16.1547 8.03551V7.58322C16.1547 7.54331 16.1199 7.5091 16.0774 7.5091C16.0348 7.5091 16 7.54141 16 7.58322ZM16 6.67864V7.13093C16 7.17084 16.0348 7.20504 16.0774 7.20504C16.1199 7.20504 16.1547 7.17274 16.1547 7.13093V6.67864C16.1547 6.63873 16.1199 6.60453 16.0774 6.60453C16.0348 6.60453 16 6.63683 16 6.67864ZM16 5.77216V6.22445C16 6.26436 16.0348 6.29857 16.0774 6.29857C16.1199 6.29857 16.1547 6.26626 16.1547 6.22445V5.77216C16.1547 5.73226 16.1199 5.69805 16.0774 5.69805C16.0348 5.69805 16 5.73036 16 5.77216ZM16 4.86759V5.31988C16 5.35978 16.0348 5.39399 16.0774 5.39399C16.1199 5.39399 16.1547 5.36168 16.1547 5.31988V4.86759C16.1547 4.82768 16.1199 4.79347 16.0774 4.79347C16.0348 4.79347 16 4.82578 16 4.86759ZM16 3.96111V4.4134C16 4.45331 16.0348 4.48751 16.0774 4.48751C16.1199 4.48751 16.1547 4.45521 16.1547 4.4134V3.96111C16.1547 3.9212 16.1199 3.887 16.0774 3.887C16.0348 3.887 16 3.9193 16 3.96111ZM16 3.05654V3.50882C16 3.54873 16.0348 3.58294 16.0774 3.58294C16.1199 3.58294 16.1547 3.55063 16.1547 3.50882V3.05654C16.1547 3.01663 16.1199 2.98242 16.0774 2.98242C16.0348 2.98242 16 3.01473 16 3.05654Z" fill="#6F5430"/>
<path d="M16 12.11V12.3304C16 12.3704 16.0348 12.4046 16.0774 12.4046C16.1199 12.4046 16.1547 12.3723 16.1547 12.3304V12.11C16.1547 12.0701 16.1199 12.0359 16.0774 12.0359C16.0348 12.0359 16 12.0682 16 12.11Z" fill="#6F5430"/>
</g>
<defs>
<clipPath id="clip0_676_2637">
<rect width="20" height="10.7143" fill="white" transform="translate(0 2)"/>
</clipPath>
</defs>
</svg>
