<svg width="20" height="14" viewBox="0 0 20 14" fill="none" xmlns="http://www.w3.org/2000/svg">
<path d="M11.7804 7.03393C12.0518 3.78837 13.4089 0.893376 13.5106 0.644588C13.0131 0.384491 12.4703 0.248788 12.278 0.203554C11.5769 3.44911 11.7578 6.52504 11.7804 7.03393ZM9.67704 8.79806C9.46218 7.42973 9.00984 5.82391 9.00984 5.82391C9.58657 9.3748 8.63666 12.2132 8.63666 12.2132H12.2893C10.593 5.99354 11.8822 0.373183 11.9388 0.135703C11.656 0.0678514 11.0793 0.0113086 10.6948 0C10.6609 5.30372 11.6108 8.79806 11.6108 8.79806H11.215C10.3669 5.33764 10.2764 0.995153 10.3103 0C9.6205 0 9.07769 0.113086 9.07769 0.113086L10.8305 8.79806H10.446C10.446 8.79806 8.79497 0.63328 8.7045 0.192246C8.04861 0.350565 7.63019 0.542811 7.42664 0.644588C9.29255 4.04847 10.0615 8.79806 10.0615 8.79806H9.67704ZM8.46703 12.79L8.02599 14H12.9226L12.4816 12.79H8.46703Z" fill="white"/>
<path d="M13.9402 2.08101L13.5897 3.26841C14.9015 4.22964 15.7609 5.79022 15.7609 7.54305C15.7609 9.45419 14.7431 11.1392 13.2165 12.0665L13.6236 13.1973C15.6026 12.0891 16.9483 9.97439 16.9483 7.54305C16.9483 5.24741 15.7496 3.23448 13.9515 2.08101M5.17609 7.53174C5.17609 5.77891 6.03554 4.22964 7.34733 3.2571L6.99677 2.0697C5.19871 3.21187 4 5.2361 4 7.53174C4 9.96308 5.34572 12.0778 7.32472 13.186L7.73182 12.0552C6.20517 11.1279 5.1874 9.44288 5.1874 7.53174" fill="#00BE14"/>
</svg>
