<svg width="20" height="14" viewBox="0 0 20 14" fill="none" xmlns="http://www.w3.org/2000/svg">
<path fill-rule="evenodd" clip-rule="evenodd" d="M3.90205 3.98639V3.945C4.17556 3.56215 4.44906 3.17929 4.72256 2.79644C5.0085 2.39289 5.282 2.01004 5.5555 1.65823L5.64252 1.60649H5.74198C6.37601 1.96865 6.9976 2.36185 7.5819 2.80679V2.84818L7.49487 2.87922C6.6495 2.91026 5.61765 3.3345 4.59824 3.73805C4.39933 3.82083 4.20042 3.90361 4.00151 3.97604H3.91449L3.90205 3.98639Z" fill="url(#paint0_linear_675_1840)"/>
<path fill-rule="evenodd" clip-rule="evenodd" d="M13.2387 4.35844C12.5798 4.35844 11.8712 4.21357 11.0507 3.92385L10.9388 3.85142V3.79968C11.3615 3.48926 11.6723 3.25127 11.9955 2.94085L12.0701 2.92015L12.1695 2.96154C12.7041 3.41683 13.3008 3.82037 14.0095 4.20323V4.25496L13.9349 4.3067C13.7111 4.34809 13.4749 4.36879 13.2262 4.36879L13.2387 4.35844Z" fill="url(#paint1_linear_675_1840)"/>
<path fill-rule="evenodd" clip-rule="evenodd" d="M14.1706 6.52128C13.9344 6.52128 13.7231 6.43851 13.5863 6.28329C13.462 6.14878 13.3874 5.99357 13.375 5.82801L13.4123 5.79697L13.4496 5.76592C13.5117 5.76592 13.5739 5.76592 13.636 5.76592C14.1457 5.76592 14.6182 5.69349 15.0906 5.54863L15.1279 5.56932L15.1652 5.59002C15.1652 5.78662 15.0781 5.98322 14.9165 6.16947C14.7425 6.38677 14.4565 6.52128 14.1582 6.52128H14.1706Z" fill="url(#paint2_linear_675_1840)"/>
<path fill-rule="evenodd" clip-rule="evenodd" d="M13.4126 5.79733L13.3753 5.82837C13.1515 5.81803 12.965 5.80768 12.7413 5.77664L12.6418 5.73525V5.68351C13.1142 5.29031 13.5369 4.83502 13.9472 4.29696L14.0342 4.24522H14.1336C14.7304 4.58669 15.3395 4.88676 15.986 5.16614L16.0233 5.21788L15.899 5.32135C15.6876 5.41448 15.439 5.49726 15.1903 5.58004L15.1531 5.55934L15.1158 5.53865C15.0909 5.31101 14.9541 5.1144 14.7055 4.97989C14.606 4.92815 14.4817 4.89711 14.345 4.89711C14.0839 4.89711 13.8353 5.01093 13.6737 5.19718C13.5369 5.36274 13.4623 5.55934 13.4747 5.75594L13.4374 5.78698L13.4126 5.79733Z" fill="url(#paint3_linear_675_1840)"/>
<path fill-rule="evenodd" clip-rule="evenodd" d="M13.276 7.33933C12.6296 7.33933 12.0453 7.19447 11.262 6.84266L11.1502 6.75988V6.70814C11.635 6.41842 12.095 6.13904 12.555 5.75618L12.642 5.73549L12.7414 5.77688C13.3009 6.31494 13.823 6.74953 14.3327 7.13239V7.18412L14.2333 7.23586C13.8852 7.30829 13.5744 7.33933 13.276 7.33933Z" fill="url(#paint4_linear_675_1840)"/>
<path fill-rule="evenodd" clip-rule="evenodd" d="M12.5548 5.75597C12.3558 5.72493 12.1445 5.68354 11.9207 5.6318L11.871 5.59041L11.8213 5.54902C11.784 5.39381 11.6969 5.2179 11.5726 5.05235C11.3116 4.72123 10.9883 4.51428 10.7273 4.51428C10.6402 4.51428 10.5656 4.53498 10.5035 4.58671C10.3916 4.66949 10.3419 4.8454 10.3916 5.06269L10.3543 5.08339L10.317 5.10408C10.1057 5.0213 9.90676 4.92818 9.72028 4.83505L9.58353 4.73158V4.69019C10.0684 4.40046 10.4662 4.15212 10.8516 3.8624H10.9262L11.0381 3.92448C11.5851 4.59706 12.1072 5.17651 12.6293 5.68354V5.73527L12.5423 5.75597H12.5548Z" fill="url(#paint5_linear_675_1840)"/>
<path d="M11.4855 6.14861C11.1996 6.14861 10.8266 5.92097 10.5656 5.58985C10.4537 5.44499 10.3666 5.26908 10.3293 5.10352L10.3666 5.08283L10.4039 5.06213C10.752 5.207 11.2866 5.4036 11.846 5.54846L11.8958 5.58985L11.9455 5.63124C11.9579 5.83819 11.8709 6.00375 11.7093 6.09687C11.6471 6.12791 11.585 6.14861 11.4979 6.14861H11.4855Z" fill="#2D2C2B"/>
<path fill-rule="evenodd" clip-rule="evenodd" d="M2.04986 5.97214C2.74605 5.43408 3.26818 4.7615 3.80276 4.05787L3.90221 3.98544H3.98924C4.51138 4.23378 5.09568 4.48212 5.79187 4.7615V4.80289L5.67998 4.90636C5.43134 5.04088 5.18271 5.1547 4.9465 5.25817L4.9092 5.23748L4.8719 5.21678C4.8719 4.98914 4.77245 4.82358 4.57354 4.7408C4.49895 4.70976 4.42436 4.69941 4.34976 4.69941C4.07626 4.69941 3.62872 4.89601 3.25576 5.3306C3.13144 5.47547 3.05685 5.66172 3.01955 5.83763L2.96982 5.87901L2.93253 5.9204C2.65903 5.98249 2.41038 6.02388 2.11202 6.06527L2.02499 6.04457L2.04986 5.97214Z" fill="url(#paint6_linear_675_1840)"/>
<path fill-rule="evenodd" clip-rule="evenodd" d="M4.01407 7.27662V7.23523C4.53621 6.60404 4.93403 6.01424 5.28212 5.49687C5.41887 5.28992 5.55562 5.08297 5.69237 4.89672L5.81669 4.79324H5.90371C6.82368 5.1554 7.43284 5.45548 7.94255 5.79694V5.83833L7.81823 5.89007C6.948 6.01424 6.09019 6.41778 5.33185 6.76959C4.90916 6.96619 4.49891 7.15245 4.11352 7.28696H4.02649L4.01407 7.27662Z" fill="url(#paint7_linear_675_1840)"/>
<path fill-rule="evenodd" clip-rule="evenodd" d="M4.01385 10.5774V10.536C4.72246 9.75997 5.25703 8.96322 5.75431 8.18717L5.8662 8.08369H5.95322C6.66184 8.33203 7.33316 8.64245 7.94232 9.00461V9.046L7.83044 9.09774C7.22128 9.23225 6.62454 9.52198 6.00295 9.82205C5.40622 10.1118 4.77219 10.4119 4.10087 10.5878H4.00141L4.01385 10.5774Z" fill="url(#paint8_linear_675_1840)"/>
<path fill-rule="evenodd" clip-rule="evenodd" d="M7.80589 8.35315C7.54482 8.35315 7.32104 8.29107 7.13456 8.1669C6.94808 8.04273 6.84863 7.85648 6.84863 7.63918L6.88593 7.58745L6.92322 7.53571C7.40807 7.3598 7.88048 7.27702 8.34046 7.27702C8.50207 7.27702 8.65125 7.28737 8.81287 7.30807L8.8626 7.34946L8.91232 7.39084C8.94962 7.65988 8.83774 7.90821 8.61396 8.10481C8.41505 8.27037 8.11668 8.3635 7.80589 8.3635V8.35315Z" fill="url(#paint9_linear_675_1840)"/>
<path fill-rule="evenodd" clip-rule="evenodd" d="M5.85348 8.04202C6.41291 7.19354 7.03451 6.51061 7.80529 5.88976L7.9296 5.83803L8.02906 5.85872C8.66309 6.29331 9.19766 6.82103 9.76953 7.57639V7.62813H9.68251C9.4463 7.52465 9.18523 7.42118 8.8993 7.36944L8.84957 7.32805L8.79984 7.28666C8.76255 7.13145 8.70038 6.99694 8.60093 6.89346C8.45175 6.71756 8.22797 6.62443 7.97933 6.62443C7.71826 6.62443 7.44476 6.73825 7.23342 6.9245C7.04694 7.09006 6.93505 7.29701 6.91019 7.5143L6.87289 7.56604L6.8356 7.61778C6.5621 7.72125 6.26373 7.88681 5.95294 8.06272H5.86591L5.85348 8.03167V8.04202Z" fill="url(#paint10_linear_675_1840)"/>
<path fill-rule="evenodd" clip-rule="evenodd" d="M11.5724 9.10844C11.3114 9.10844 10.9508 8.8601 10.6773 8.48759C10.553 8.32204 10.466 8.13578 10.4287 7.95988L10.466 7.93918L10.5033 7.91849C10.9384 8.10474 11.3984 8.30134 11.9081 8.43586L11.9578 8.47725L11.9951 8.51864C11.9951 8.75663 11.9081 8.96357 11.7465 9.04635C11.6968 9.07739 11.6346 9.08774 11.5724 9.08774V9.10844Z" fill="url(#paint11_linear_675_1840)"/>
<path fill-rule="evenodd" clip-rule="evenodd" d="M4.00145 10.5362C3.2804 10.174 2.67124 9.76014 2.09937 9.23243L2.01234 9.20139V10.7845L2.04964 10.8259C2.16153 10.8363 2.27341 10.8466 2.41017 10.8466C2.83285 10.8466 3.34256 10.7742 3.91442 10.6397L4.01388 10.5776V10.5362H4.00145Z" fill="url(#paint12_linear_675_1840)"/>
<path fill-rule="evenodd" clip-rule="evenodd" d="M11.274 9.67673C10.6524 9.37665 9.81943 8.9938 8.80001 8.9938C8.55137 8.9938 8.30273 9.01449 8.04166 9.05588L7.94221 9.03519V8.9938C8.41462 8.54886 8.98649 8.10392 9.68268 7.62794H9.75726L9.86916 7.71072C10.4162 8.43504 10.8761 9.05588 11.361 9.63534V9.67673H11.2864H11.274Z" fill="url(#paint13_linear_675_1840)"/>
<path fill-rule="evenodd" clip-rule="evenodd" d="M15.787 8.10533L15.7 8.17776C15.3643 8.78826 14.9541 9.4091 14.5065 9.97821V10.0299L14.606 10.0403C15.0038 9.95751 15.4762 9.8023 15.8989 9.61605L15.9238 9.57466C15.8119 9.05729 15.7746 8.55027 15.787 8.10533Z" fill="url(#paint14_linear_675_1840)"/>
<path fill-rule="evenodd" clip-rule="evenodd" d="M13.4123 10.163C12.7285 10.163 12.0821 10.0285 11.4729 9.75949L11.3486 9.66636V9.62497C11.8458 9.33524 12.2685 9.00413 12.6788 8.66266L12.7658 8.64197L12.8528 8.68336C13.375 9.19038 13.922 9.60427 14.5063 9.96643V10.0182L14.4317 10.0699C14.0836 10.132 13.7479 10.163 13.4123 10.163Z" fill="url(#paint15_linear_675_1840)"/>
<path fill-rule="evenodd" clip-rule="evenodd" d="M3.96436 13.1543C3.76545 13.1543 3.57897 13.1025 3.41735 13.0094C3.20601 12.8852 3.05683 12.6783 3.01953 12.4507L3.05683 12.4196L3.09412 12.3886C3.76544 12.3472 4.42434 12.2023 5.05836 11.9643L5.09566 11.985L5.13295 12.0057C5.13295 12.2127 5.05837 12.4403 4.89675 12.6679C4.66055 12.9887 4.32488 13.1646 3.96436 13.1646V13.1543Z" fill="url(#paint16_linear_675_1840)"/>
<path fill-rule="evenodd" clip-rule="evenodd" d="M11.6224 5.03112C11.2743 4.59653 10.7895 4.34819 10.4911 4.55514C10.342 4.65862 10.3171 4.85522 10.3668 5.07251C10.8268 5.25876 11.3614 5.45536 11.8835 5.58988C11.8586 5.41397 11.7716 5.21737 11.6224 5.03112Z" fill="url(#paint17_linear_675_1840)"/>
<path fill-rule="evenodd" clip-rule="evenodd" d="M11.958 11.9026C11.6969 11.9026 11.2991 11.7267 11.0505 11.4059C10.9013 11.2197 10.8018 11.0127 10.7521 10.8265L10.7894 10.8058L10.8267 10.7851C11.0877 10.8679 11.3115 10.961 11.5229 11.0438C11.7715 11.1473 12.0201 11.2404 12.2688 11.3128L12.3185 11.3645L12.3682 11.4163C12.3682 11.6232 12.2936 11.7991 12.1569 11.8716C12.1072 11.9026 12.045 11.913 11.9704 11.913L11.958 11.9026Z" fill="url(#paint18_linear_675_1840)"/>
<path fill-rule="evenodd" clip-rule="evenodd" d="M14.2828 9.35627C14.1088 9.35627 13.9348 9.30453 13.798 9.2114C13.6115 9.08723 13.5121 8.91133 13.4996 8.71473L13.5369 8.68369L13.5742 8.65264C14.0839 8.63195 14.5812 8.52848 15.0909 8.35257L15.1282 8.37326L15.1655 8.39396C15.1655 8.60091 15.1034 8.8182 14.9666 9.00445C14.805 9.2321 14.5439 9.35627 14.2704 9.35627H14.2828Z" fill="url(#paint19_linear_675_1840)"/>
<path fill-rule="evenodd" clip-rule="evenodd" d="M11.0755 6.75971C10.976 6.71832 10.889 6.66659 10.7895 6.6252C10.0809 6.28373 9.19824 5.85949 8.26584 5.85949C8.17882 5.85949 8.10422 5.85949 8.02963 5.86984L7.93018 5.84914V5.80775C8.46475 5.39386 9.01175 5.06274 9.53389 4.74197H9.60849L9.74523 4.8351C10.0933 5.249 10.429 5.70428 10.7895 6.19061C10.9138 6.36651 11.0506 6.54242 11.1749 6.71832V6.77006H11.0879L11.0755 6.75971Z" fill="url(#paint20_linear_675_1840)"/>
<path fill-rule="evenodd" clip-rule="evenodd" d="M9.75753 7.62829C9.47159 7.50412 9.17322 7.37995 8.86243 7.33856C8.91215 7.60759 8.81271 7.87663 8.58893 8.06288C8.25327 8.34226 7.59438 8.42504 7.15926 8.13531C6.97278 8.01114 6.87333 7.80419 6.88576 7.57655C6.56253 7.69037 6.21444 7.87663 5.87878 8.08357C6.66199 8.36295 7.34574 8.69407 7.9549 9.04588C8.42731 8.61129 9.01161 8.14566 9.75753 7.62829Z" fill="url(#paint21_linear_675_1840)"/>
<path fill-rule="evenodd" clip-rule="evenodd" d="M2.04964 9.12921C2.84528 8.53941 3.37985 7.9496 3.90199 7.34946L4.01388 7.27702H4.10091C4.69764 7.5771 5.31923 7.83578 5.8538 8.03238V8.07377L5.75434 8.17725C5.48084 8.33246 5.23221 8.46697 4.98357 8.58079L4.94628 8.5601L4.90897 8.5394C4.90897 8.3428 4.80952 8.20829 4.62304 8.11516C4.51116 8.06342 4.39927 8.03238 4.27495 8.03238C3.96415 8.03238 3.61606 8.19794 3.33012 8.48767C3.16851 8.65323 3.05662 8.86017 3.03176 9.06712L2.98203 9.10851L2.94474 9.1499C2.67124 9.19129 2.4226 9.20164 2.09937 9.21199L2.01234 9.18094L2.04964 9.10851V9.12921Z" fill="url(#paint22_linear_675_1840)"/>
<path fill-rule="evenodd" clip-rule="evenodd" d="M2.21125 7.65959C2.21125 7.65959 2.1118 7.65959 2.04964 7.65959L2.01234 7.62855V6.04539L2.09937 6.06609C2.59664 6.45929 3.2804 6.88353 4.00145 7.23534V7.27673L3.90199 7.34917C3.2431 7.55611 2.67123 7.65959 2.21125 7.65959Z" fill="url(#paint23_linear_675_1840)"/>
<path fill-rule="evenodd" clip-rule="evenodd" d="M12.6291 2.9723C12.4799 2.9723 12.3307 2.9723 12.1815 2.95161L12.082 2.91022V2.85848C12.4301 2.50667 12.8528 2.07208 13.2382 1.40985L13.3252 1.35811H13.4123C13.8847 1.64784 14.6306 1.95826 15.2398 2.14451L15.2895 2.19625L15.19 2.29972C15.0035 2.42389 14.7922 2.52736 14.5809 2.62049L14.5436 2.5998L14.4938 2.5791C14.4441 2.36181 14.2701 2.17555 14.009 2.08243C13.9095 2.04104 13.8101 2.03069 13.7106 2.03069C13.4247 2.03069 13.1388 2.19625 13.002 2.44458C12.915 2.59979 12.8777 2.76535 12.915 2.92056L12.8777 2.95161L12.8404 2.98265C12.7658 2.98265 12.7036 2.98265 12.6291 2.98265V2.9723Z" fill="url(#paint24_linear_675_1840)"/>
<path fill-rule="evenodd" clip-rule="evenodd" d="M13.064 11.5196C12.8154 11.4989 12.604 11.4782 12.3554 11.4058L12.3056 11.354L12.2559 11.3023C12.2311 11.1781 12.1565 11.0022 11.9824 10.8056C11.6965 10.4952 11.3608 10.3089 11.1246 10.3089C11.0376 10.3089 10.963 10.3296 10.9008 10.371C10.8138 10.4434 10.7765 10.578 10.8138 10.7746L10.7765 10.7953L10.7392 10.8159C10.5154 10.7435 10.329 10.6814 10.1052 10.6297L9.99331 10.5676V10.5262C10.4409 10.1848 10.8635 9.91573 11.2738 9.66739H11.3484L11.4727 9.75017C12.0321 10.4124 12.5791 10.9712 13.1386 11.4264V11.4678L13.064 11.4885V11.5196Z" fill="url(#paint25_linear_675_1840)"/>
<path fill-rule="evenodd" clip-rule="evenodd" d="M13.3505 8.71512C13.1888 8.71512 13.0148 8.70477 12.8532 8.68407L12.7662 8.64268V8.59095C13.2759 8.17705 13.7483 7.73211 14.2331 7.22509L14.3326 7.17336L14.4196 7.19405C14.8299 7.49412 15.265 7.76316 15.7498 8.03219L15.7871 8.09427L15.7001 8.1667C15.526 8.24948 15.352 8.32192 15.178 8.37365L15.1407 8.35296L15.1034 8.33226C15.0909 8.17705 15.0163 8.04254 14.9044 7.9701C14.7926 7.88732 14.6434 7.83559 14.4942 7.83559C14.2456 7.83559 13.9969 7.94941 13.798 8.15636C13.6613 8.29087 13.5867 8.46678 13.5742 8.63234L13.5369 8.66338L13.4996 8.69442C13.4996 8.69442 13.4002 8.69442 13.3505 8.69442V8.71512Z" fill="url(#paint26_linear_675_1840)"/>
<path fill-rule="evenodd" clip-rule="evenodd" d="M16.0108 5.22849L15.8865 5.33196C15.2649 6.09767 14.78 6.66677 14.3325 7.1324V7.18414L14.4195 7.20484C14.9168 7.09101 15.4389 6.91511 15.874 6.71851L15.9238 6.65642C15.9984 6.20114 16.0232 5.72516 16.0232 5.23883L16.0108 5.22849Z" fill="url(#paint27_linear_675_1840)"/>
<path fill-rule="evenodd" clip-rule="evenodd" d="M3.57908 6.59434C3.44233 6.59434 3.30559 6.5633 3.1937 6.49087C3.01965 6.38739 2.9202 6.1701 2.93263 5.93211L2.96992 5.89072L3.01965 5.84933C3.62882 5.69412 4.23798 5.50786 4.872 5.22849L4.9093 5.24918L4.9466 5.26987C4.93417 5.47682 4.83471 5.70446 4.6731 5.93211C4.3623 6.35635 3.95204 6.61504 3.57908 6.61504V6.59434Z" fill="url(#paint28_linear_675_1840)"/>
<path fill-rule="evenodd" clip-rule="evenodd" d="M7.80602 5.2379C7.50766 5.2379 7.22173 5.14477 7.01038 4.98956C6.81147 4.8447 6.71202 4.6481 6.69958 4.4308L6.73688 4.37906L6.78661 4.32733C7.12227 4.2342 7.43307 4.19281 7.7563 4.19281C8.05466 4.19281 8.35303 4.2342 8.65139 4.30663L8.70112 4.35837L8.75085 4.41011C8.76328 4.63775 8.67625 4.85504 8.50221 5.01025C8.34059 5.15512 8.07952 5.2379 7.79359 5.2379H7.80602Z" fill="url(#paint29_linear_675_1840)"/>
<path fill-rule="evenodd" clip-rule="evenodd" d="M2.02499 4.45203V2.86888L2.11202 2.88958C2.59686 3.25173 3.20603 3.61389 3.88978 3.93466V3.97605L3.80276 4.04848C3.09414 4.31752 2.47255 4.47273 2.0623 4.48307L2.02499 4.45203Z" fill="url(#paint30_linear_675_1840)"/>
<path fill-rule="evenodd" clip-rule="evenodd" d="M12.7662 8.65334L12.6792 8.67403C12.4554 8.64299 12.2317 8.6016 11.9955 8.53952L11.9582 8.49813L11.9084 8.45674C11.8836 8.29118 11.8214 8.13597 11.722 7.9911C11.4236 7.56686 11.0879 7.41165 10.889 7.41165C10.7896 7.41165 10.7026 7.44269 10.6155 7.50478C10.5036 7.58756 10.4663 7.74277 10.4912 7.92902L10.4539 7.94972L10.4166 7.97041C10.3172 7.92902 10.2053 7.87728 10.1058 7.83589C10.0188 7.7945 9.93177 7.75311 9.84475 7.71173L9.73286 7.62895V7.57721C10.1555 7.29783 10.5285 7.07019 10.9015 6.85289C10.9512 6.82185 11.0009 6.79081 11.0506 6.75977H11.1252L11.2371 6.84254C11.6225 7.35991 12.1322 8.00145 12.7414 8.6016V8.65334H12.7662Z" fill="url(#paint31_linear_675_1840)"/>
<path fill-rule="evenodd" clip-rule="evenodd" d="M6.05281 11.4884V11.447C6.50036 10.671 6.97277 9.92598 7.83057 9.09818L7.94246 9.04645L8.04191 9.06714C8.75053 9.49139 9.40942 9.98806 9.99372 10.5468V10.5882H9.91913C9.68293 10.5572 9.39699 10.5261 9.08619 10.5158L9.0489 10.4847L8.99917 10.4537C8.9743 10.2778 8.87485 10.1122 8.72566 9.99841C8.56405 9.88459 8.40244 9.8225 8.21596 9.8225C7.89273 9.8225 7.54464 10.0191 7.296 10.3399C7.15925 10.5158 7.05979 10.7124 7.04736 10.8883L7.01006 10.94L6.97277 10.9918C6.6744 11.1263 6.41334 11.3125 6.13983 11.4781H6.06524L6.05281 11.4884Z" fill="url(#paint32_linear_675_1840)"/>
<path fill-rule="evenodd" clip-rule="evenodd" d="M10.8766 3.86195C10.6404 3.77917 10.4042 3.6757 10.1804 3.58257C9.37231 3.25145 8.52693 2.89964 7.68157 2.87895L7.58211 2.8479V2.80651C8.09182 2.37192 8.72584 2.00977 9.17339 1.76143H9.24799L9.39716 1.8649C9.81985 2.34088 10.1928 2.82721 10.5285 3.2618C10.6777 3.4584 10.8268 3.64465 10.9512 3.81021V3.86195H10.8766Z" fill="url(#paint33_linear_675_1840)"/>
<path fill-rule="evenodd" clip-rule="evenodd" d="M15.2899 2.19667L15.1904 2.30014C14.7802 3.0555 14.3948 3.67635 14.0094 4.20406V4.2558L14.1213 4.26615C14.6559 4.15233 15.2526 4.00746 15.7499 3.75913L15.7747 3.70739C15.6007 3.08655 15.3893 2.57952 15.2899 2.19667Z" fill="url(#paint34_linear_675_1840)"/>
<path fill-rule="evenodd" clip-rule="evenodd" d="M3.54163 3.27245C3.39244 3.27245 3.24327 3.23106 3.11895 3.15863C2.9822 3.07585 2.89517 2.91029 2.89517 2.70334L2.93247 2.66195L2.96976 2.61022C3.41731 2.46535 3.79026 2.28945 4.15079 2.12389C4.3497 2.03076 4.54861 1.93764 4.74752 1.85486L4.78482 1.87555L4.82211 1.89625C4.83454 2.12389 4.75995 2.38258 4.59834 2.62057C4.32484 3.02411 3.91458 3.2828 3.52919 3.2828L3.54163 3.27245Z" fill="url(#paint35_linear_675_1840)"/>
<path fill-rule="evenodd" clip-rule="evenodd" d="M14.8423 12.1296C14.6558 12.1296 14.4693 12.0882 14.3201 11.9951C14.1088 11.8709 13.9845 11.7054 13.9347 11.5088L13.972 11.4674L14.0093 11.426C14.5936 11.3639 15.1158 11.2294 15.5633 11.1052L15.613 11.1259L15.6628 11.1466C15.7374 11.3639 15.7001 11.6123 15.5509 11.8089C15.4141 12.0055 15.1406 12.1193 14.8423 12.1193V12.1296Z" fill="url(#paint36_linear_675_1840)"/>
<path fill-rule="evenodd" clip-rule="evenodd" d="M5.80406 4.79254V4.75115C6.33863 3.99579 6.89806 3.38529 7.48236 2.87827L7.56938 2.84723L7.66884 2.87827C8.40232 3.44738 9.03636 4.03718 9.60823 4.67872V4.72011H9.5212C9.23527 4.58559 9.02392 4.47177 8.75042 4.39934L8.70069 4.3476L8.65096 4.29586C8.61367 4.14065 8.52665 3.98544 8.38989 3.86127C8.17855 3.66467 7.91749 3.55085 7.65642 3.55085C7.42021 3.55085 7.20887 3.63363 7.03482 3.79919C6.88564 3.94405 6.78618 4.1303 6.76132 4.31656L6.71159 4.3683L6.6743 4.42003C6.38836 4.50281 6.15215 4.62698 5.85378 4.78219H5.76676L5.80406 4.79254Z" fill="url(#paint37_linear_675_1840)"/>
<path fill-rule="evenodd" clip-rule="evenodd" d="M13.3751 11.5289C13.3751 11.5289 13.2757 11.5289 13.2384 11.5289L13.1389 11.4979V11.4565C13.574 11.053 14.0091 10.5977 14.4318 10.0803L14.5189 10.0286H14.6059C15.1404 10.3597 15.7247 10.6391 16.3339 10.8564L16.3961 10.9184L16.3339 10.9702C16.1847 11.0116 16.048 11.053 15.8739 11.1047C15.7993 11.1254 15.7247 11.1461 15.6501 11.1668L15.6004 11.1461L15.5507 11.1254C15.4885 10.9702 15.3642 10.846 15.2026 10.7736C15.0659 10.7011 14.9167 10.6701 14.7675 10.6701C14.5188 10.6701 14.2951 10.7736 14.1459 10.9495C14.034 11.0943 13.9718 11.2703 13.9967 11.4462L13.9594 11.4875L13.9221 11.5289C13.7232 11.5496 13.5492 11.5496 13.3627 11.5496L13.3751 11.5289Z" fill="url(#paint38_linear_675_1840)"/>
<path fill-rule="evenodd" clip-rule="evenodd" d="M13.7604 3.61422C13.5739 3.61422 13.375 3.55214 13.1885 3.41762C13.0145 3.3038 12.9026 3.14859 12.8529 2.97268L12.8902 2.94164L12.9275 2.9106C13.4993 2.87956 14.0339 2.77608 14.5063 2.57948L14.556 2.60018L14.5933 2.62087C14.6182 2.77608 14.5933 2.93129 14.5187 3.08651C14.3571 3.42797 14.0836 3.62457 13.7604 3.62457V3.61422Z" fill="url(#paint39_linear_675_1840)"/>
<path fill-rule="evenodd" clip-rule="evenodd" d="M14.9292 7.94942C14.5935 7.71143 14.1211 7.78386 13.773 8.14602C13.6238 8.30123 13.5368 8.48748 13.5493 8.68408C14.0465 8.66339 14.5811 8.57026 15.153 8.37366C15.1405 8.2081 15.0659 8.05289 14.9416 7.95977L14.9292 7.94942Z" fill="url(#paint40_linear_675_1840)"/>
<path fill-rule="evenodd" clip-rule="evenodd" d="M11.7339 9.04554C11.4729 9.1904 11.0253 8.90067 10.7145 8.47643C10.5902 8.31087 10.5032 8.12462 10.4783 7.94871C10.2297 7.84524 9.99345 7.73142 9.75725 7.62794C10.3291 8.3833 10.8388 9.06623 11.3485 9.67673C11.8582 9.37665 12.2809 9.03519 12.7658 8.64199C12.4923 8.61095 12.2188 8.55921 11.9577 8.48678C11.9826 8.73511 11.8955 8.94206 11.7339 9.03519V9.04554Z" fill="url(#paint41_linear_675_1840)"/>
<path fill-rule="evenodd" clip-rule="evenodd" d="M7.02286 3.79974C6.84881 3.96529 6.74936 4.17224 6.73692 4.37919C7.42068 4.18259 8.06714 4.18259 8.7136 4.35849C8.68874 4.18259 8.60171 4.00668 8.4401 3.85147C8.01741 3.45827 7.42068 3.41688 7.02286 3.78939V3.79974Z" fill="url(#paint42_linear_675_1840)"/>
<path fill-rule="evenodd" clip-rule="evenodd" d="M7.86786 11.6435C7.73111 11.6435 7.59436 11.6228 7.47004 11.5711C7.17167 11.4572 6.98519 11.2503 6.96033 11.0019L6.99762 10.9502L7.03493 10.8985C7.69382 10.5984 8.35271 10.4639 8.98673 10.4535L9.03645 10.4846L9.07376 10.5156C9.08619 10.7536 8.99916 10.9916 8.81268 11.1882C8.53918 11.4883 8.19109 11.6538 7.85543 11.6538L7.86786 11.6435Z" fill="url(#paint43_linear_675_1840)"/>
<path fill-rule="evenodd" clip-rule="evenodd" d="M15.2276 10.7223C14.8049 10.5154 14.3574 10.6188 14.1212 10.9189C14.0093 11.0638 13.9347 11.2604 13.9596 11.4673C14.5812 11.4052 15.1282 11.2604 15.6006 11.1259C15.5384 10.9603 15.4141 10.8154 15.2152 10.7223H15.2276Z" fill="url(#paint44_linear_675_1840)"/>
<path fill-rule="evenodd" clip-rule="evenodd" d="M15.1282 12.6469C14.979 12.5848 14.1088 12.2226 13.2386 11.5294L13.1391 11.4983L13.0521 11.519C12.5797 11.9329 12.1321 12.2537 11.6473 12.5124V12.5641C12.6045 13.009 13.7358 13.0608 15.1158 12.6986V12.6572L15.1282 12.6469Z" fill="url(#paint45_linear_675_1840)"/>
<path fill-rule="evenodd" clip-rule="evenodd" d="M8.34027 12.2642C8.00461 12.14 7.65651 12.0055 7.28356 11.871C6.9106 11.7365 6.51278 11.6227 6.12739 11.4778H6.0528L5.94091 11.5916C5.91604 11.6434 5.87875 11.6951 5.85389 11.7468C5.44363 12.4401 5.02095 13.123 4.20044 13.8681V13.9095C6.12739 13.5783 6.76142 12.8851 8.3527 12.3056V12.2642H8.34027Z" fill="url(#paint46_linear_675_1840)"/>
<path fill-rule="evenodd" clip-rule="evenodd" d="M2.6588 12.4403C2.47232 12.4403 2.29827 12.4299 2.11179 12.4092L2.01234 12.3678L2.0372 12.3057C2.84528 11.7573 3.36742 11.2089 3.90199 10.6398L4.00145 10.5777H4.10091C4.63548 10.8468 5.2322 11.1365 6.02785 11.4469V11.4883L5.94082 11.6021C5.69218 11.747 5.41869 11.8815 5.12032 11.9953L5.08302 11.9746L5.04572 11.9539C5.02086 11.7366 4.88411 11.5607 4.67277 11.478C4.54845 11.4262 4.4117 11.4055 4.26252 11.4055C3.87713 11.4055 3.49174 11.5918 3.25554 11.8712C3.13122 12.0264 3.05662 12.2126 3.06905 12.3885L3.03176 12.4196L2.99447 12.4506C2.87015 12.4506 2.75825 12.4403 2.64636 12.4403H2.6588Z" fill="url(#paint47_linear_675_1840)"/>
<path fill-rule="evenodd" clip-rule="evenodd" d="M5.80429 4.79334C5.4935 4.95889 5.19513 5.10376 4.9092 5.22793C4.9092 5.42453 4.80974 5.65217 4.64813 5.89016C4.22544 6.46961 3.62871 6.7076 3.21846 6.44892C3.03198 6.3351 2.94496 6.10745 2.96982 5.86946C2.63416 5.9419 2.36066 5.99363 2.02499 6.02468C2.47254 6.39718 3.18117 6.85247 4.01411 7.26636C4.83461 6.3144 5.31945 5.43487 5.80429 4.78299V4.79334Z" fill="url(#paint48_linear_675_1840)"/>
<path fill-rule="evenodd" clip-rule="evenodd" d="M9.17337 1.76182C8.96203 1.66869 8.72583 1.58591 8.4026 1.51348L8.35287 1.46175L8.30314 1.42036C8.25342 1.26514 8.15396 1.12028 8.02964 0.996113C7.8183 0.799513 7.56966 0.675344 7.33346 0.675344C7.15941 0.675344 6.98536 0.737428 6.83618 0.861597C6.68699 0.985766 6.59997 1.17202 6.59997 1.37897L6.56267 1.42036L6.52538 1.46175C6.27674 1.50313 6.04054 1.54452 5.74217 1.61696H5.64272V1.56522C6.21458 0.840902 6.73672 0.354575 7.234 0.0751953H7.33346L7.47021 0.106237C7.99235 0.458049 8.62637 1.02715 9.27283 1.72043V1.76182H9.18581H9.17337Z" fill="url(#paint49_linear_675_1840)"/>
<path fill-rule="evenodd" clip-rule="evenodd" d="M14.9046 6.1494C14.5814 6.55295 13.9474 6.60469 13.6366 6.26322C13.5123 6.12871 13.4377 5.96315 13.4252 5.79759C13.1393 5.78724 12.9155 5.76655 12.6545 5.73551C13.2139 6.27357 13.7609 6.7599 14.3452 7.18414C14.8549 6.64608 15.4019 6.00454 16.0235 5.22849C15.7376 5.3837 15.4019 5.48717 15.1408 5.56995C15.1408 5.7562 15.0787 5.96315 14.9046 6.1494Z" fill="url(#paint50_linear_675_1840)"/>
<path fill-rule="evenodd" clip-rule="evenodd" d="M10.1056 10.6398L9.99372 10.5777H9.91914C9.28511 11.0951 8.76296 11.6332 8.34028 12.2644V12.3057C9.78238 11.778 11.0629 12.285 11.6472 12.5541V12.5023C11.2493 11.8298 10.7023 11.2089 10.118 10.6295L10.1056 10.6398Z" fill="url(#paint51_linear_675_1840)"/>
<path fill-rule="evenodd" clip-rule="evenodd" d="M3.71572 9.85345C3.51681 9.85345 3.33033 9.80172 3.18114 9.69824C3.01953 9.58442 2.93251 9.39817 2.93251 9.17053L2.9698 9.12914L3.01953 9.08775C3.67842 8.99462 4.28759 8.81871 4.89675 8.54968L4.93405 8.57038L4.97134 8.59107C4.97134 8.82906 4.84703 9.11879 4.63569 9.37747C4.38705 9.67755 4.05138 9.85345 3.69086 9.85345H3.71572Z" fill="url(#paint52_linear_675_1840)"/>
<path fill-rule="evenodd" clip-rule="evenodd" d="M7.22162 6.91404C6.99785 7.11064 6.8984 7.34863 6.88596 7.57627C7.59458 7.30724 8.25347 7.24516 8.86263 7.33828C8.83777 7.19342 8.77561 7.02786 8.65129 6.883C8.29077 6.47945 7.65674 6.52084 7.22162 6.91404Z" fill="url(#paint53_linear_675_1840)"/>
<path fill-rule="evenodd" clip-rule="evenodd" d="M16.4088 10.8979L16.3466 10.9496C16.0855 11.5394 15.6007 12.2224 15.1283 12.6466V12.688C16.3839 12.3569 17.1671 12.3051 17.1671 12.3051C17.1671 12.3051 16.8066 11.6429 16.4088 10.8979Z" fill="url(#paint54_linear_675_1840)"/>
<path fill-rule="evenodd" clip-rule="evenodd" d="M4.20035 13.8784C3.46687 13.4645 2.79555 12.9988 2.11179 12.409L2.01234 12.3676V13.868C2.01234 13.868 2.96959 14.1267 4.20035 13.9198V13.8784Z" fill="url(#paint55_linear_675_1840)"/>
<path d="M4.68531 11.4471C4.1756 11.2401 3.54158 11.4574 3.23078 11.8506C3.0816 12.0369 3.01943 12.2335 3.0443 12.4197C3.82751 12.3783 4.52369 12.2024 5.08313 11.9851C5.0707 11.7471 4.92152 11.5505 4.68531 11.4574V11.4471Z" fill="#2D2C2B"/>
<path fill-rule="evenodd" clip-rule="evenodd" d="M5.08324 11.9745C5.09567 12.1711 5.03352 12.3987 4.85948 12.6367C4.46166 13.1955 3.84006 13.2162 3.42981 12.9782C3.21846 12.854 3.06927 12.6471 3.04441 12.4091C2.70875 12.4298 2.39795 12.4091 2.02499 12.3573C2.64659 12.9058 3.35521 13.4231 4.21301 13.9095C5.17027 13.0506 5.60538 12.2539 6.06536 11.4778C5.80429 11.633 5.46863 11.8193 5.09568 11.9641L5.08324 11.9745Z" fill="url(#paint56_linear_675_1840)"/>
<path fill-rule="evenodd" clip-rule="evenodd" d="M15.5261 11.7981C15.3147 12.1085 14.7429 12.1913 14.3575 11.9637C14.1213 11.8292 14.0094 11.6429 13.9845 11.467C13.711 11.498 13.4499 11.5084 13.1516 11.4877C14.1461 12.3051 15.1407 12.688 15.1407 12.688C15.6131 12.2844 16.1477 11.5601 16.4212 10.8979C16.1849 10.9496 15.9363 11.0324 15.6255 11.1255C15.7125 11.3428 15.6752 11.5912 15.5385 11.7981H15.5261Z" fill="url(#paint57_linear_675_1840)"/>
<path fill-rule="evenodd" clip-rule="evenodd" d="M4.64806 8.09436C4.23781 7.88741 3.71568 8.06331 3.29299 8.47721C3.10651 8.66346 2.99462 8.90145 2.98219 9.11875C3.64108 9.02562 4.27511 8.84972 4.94644 8.55999C4.94644 8.36339 4.85941 8.19783 4.64806 8.08401V8.09436Z" fill="url(#paint58_linear_675_1840)"/>
<path fill-rule="evenodd" clip-rule="evenodd" d="M7.63146 2.2474C7.37039 2.2474 7.09689 2.16462 6.87311 2.00941C6.6742 1.87489 6.53745 1.66795 6.51259 1.4403L6.54988 1.39891L6.58719 1.35752C6.87312 1.31614 7.12176 1.29544 7.37039 1.29544C7.69362 1.29544 7.99199 1.32648 8.29035 1.39891L8.34008 1.45065L8.38981 1.50239C8.4271 1.71968 8.36494 1.91628 8.19089 2.06115C8.05414 2.18532 7.85523 2.2474 7.61903 2.2474H7.63146Z" fill="url(#paint59_linear_675_1840)"/>
<path fill-rule="evenodd" clip-rule="evenodd" d="M8.75058 9.96737C8.26573 9.61556 7.64413 9.81216 7.25874 10.3192C7.09713 10.5261 7.0101 10.7538 6.99767 10.94C7.669 10.6296 8.34032 10.464 9.03651 10.4744C9.01164 10.2881 8.92462 10.1019 8.73814 9.96737H8.75058Z" fill="url(#paint60_linear_675_1840)"/>
<path fill-rule="evenodd" clip-rule="evenodd" d="M11.7591 7.96984C11.4732 7.56629 10.9635 7.18344 10.6029 7.48351C10.4786 7.58699 10.4413 7.76289 10.4786 7.94915C10.9386 8.15609 11.4359 8.35269 11.9704 8.49756C11.958 8.332 11.8958 8.14575 11.7715 7.96984H11.7591Z" fill="url(#paint61_linear_675_1840)"/>
<path fill-rule="evenodd" clip-rule="evenodd" d="M12.306 11.364C12.3309 11.5917 12.2439 11.7676 12.1071 11.84C11.8958 11.9538 11.3736 11.7779 11.0628 11.3951C10.9137 11.1985 10.8142 10.9915 10.7645 10.8053C10.5283 10.7225 10.2796 10.6501 9.98127 10.588C10.7148 11.2916 11.2742 11.9849 11.6223 12.5643C12.1693 12.285 12.6417 11.9228 13.1265 11.4986C12.8033 11.4882 12.5547 11.4365 12.2936 11.364H12.306Z" fill="url(#paint62_linear_675_1840)"/>
<path fill-rule="evenodd" clip-rule="evenodd" d="M3.90205 3.98544C4.58581 4.30621 5.28199 4.58559 5.80413 4.79254C6.36357 4.02683 6.93544 3.38529 7.56946 2.84723C6.51275 2.84723 5.13281 3.49911 3.90205 3.98544Z" fill="url(#paint63_linear_675_1840)"/>
<path fill-rule="evenodd" clip-rule="evenodd" d="M11.1502 6.75977C11.6226 7.39096 12.1447 8.04284 12.7663 8.65334C13.2636 8.23944 13.7857 7.77381 14.3327 7.18401C13.1393 7.44269 12.3063 7.28748 11.1502 6.75977Z" fill="url(#paint64_linear_675_1840)"/>
<path fill-rule="evenodd" clip-rule="evenodd" d="M15.787 3.7063C15.24 3.98568 14.5811 4.14089 14.0341 4.25471C14.6557 4.59617 15.3021 4.91694 16.0232 5.22736C16.0232 4.64791 15.9113 4.14089 15.787 3.7063Z" fill="url(#paint65_linear_675_1840)"/>
<path fill-rule="evenodd" clip-rule="evenodd" d="M16.4085 10.8985C16.1723 10.4536 16.0231 9.9983 15.9237 9.56371C15.5134 9.73961 15.0037 9.92586 14.5189 10.019C15.0783 10.3605 15.6999 10.6605 16.4085 10.9089V10.8985Z" fill="url(#paint66_linear_675_1840)"/>
<path fill-rule="evenodd" clip-rule="evenodd" d="M15.7869 8.10472C15.7869 7.49422 15.8615 6.9872 15.9237 6.65608C15.4264 6.89407 14.8172 7.09067 14.3448 7.19415C14.8048 7.52526 15.2896 7.82534 15.7994 8.11506L15.7869 8.10472Z" fill="url(#paint67_linear_675_1840)"/>
<path fill-rule="evenodd" clip-rule="evenodd" d="M10.9388 3.85224C11.5231 4.56621 12.0825 5.18705 12.6419 5.73546C13.1019 5.35261 13.5619 4.88697 14.0343 4.24544C13.0895 4.44204 12.0576 4.25578 10.9512 3.84189L10.9388 3.85224Z" fill="url(#paint68_linear_675_1840)"/>
<path fill-rule="evenodd" clip-rule="evenodd" d="M9.59592 4.73157C9.28512 4.57636 9.02405 4.45219 8.71325 4.36942C8.75055 4.60741 8.66352 4.83505 8.47704 4.99026C8.16625 5.26964 7.47006 5.29033 7.03495 4.95922C6.8236 4.79366 6.73657 4.58671 6.73657 4.37976C6.41334 4.47289 6.13985 4.60741 5.79176 4.79366C6.63713 5.13512 7.32088 5.44554 7.91761 5.83874C8.47705 5.40415 9.03648 5.06269 9.59592 4.73157Z" fill="url(#paint69_linear_675_1840)"/>
<path fill-rule="evenodd" clip-rule="evenodd" d="M4.01397 10.5776C4.75989 9.77052 5.30689 8.95308 5.86632 8.07355C5.54309 8.2598 5.24473 8.43571 4.94637 8.55987C4.94637 8.80821 4.82204 9.09794 4.62313 9.34628C4.21288 9.86365 3.57885 9.92573 3.2059 9.66704C3.03185 9.54288 2.95726 9.34628 2.96969 9.12898C2.63403 9.17037 2.34809 9.19107 2 9.20141C2.547 9.71878 3.18103 10.1741 3.9891 10.5776H4.01397Z" fill="url(#paint70_linear_675_1840)"/>
<path fill-rule="evenodd" clip-rule="evenodd" d="M2.04964 2.80618C2.53448 2.40263 3.19337 1.57484 3.66578 0.871216L3.76524 0.788437H3.83983C4.42413 0.985037 5.02086 1.24372 5.61759 1.56449V1.60588L5.53057 1.65762C5.29436 1.7197 5.05816 1.80248 4.80952 1.89561L4.77222 1.87491L4.73493 1.85422C4.71006 1.68866 4.63547 1.57484 4.51115 1.51275C4.42413 1.47136 4.32468 1.45067 4.22522 1.45067C3.8647 1.45067 3.4793 1.65762 3.21823 1.99908C3.06905 2.19568 2.96959 2.40263 2.95716 2.59923L2.91987 2.65097L2.88257 2.69236C2.63394 2.76479 2.41016 2.83722 2.09937 2.87861L2.01234 2.85791L2.04964 2.78548V2.80618Z" fill="url(#paint71_linear_675_1840)"/>
<path fill-rule="evenodd" clip-rule="evenodd" d="M11.6596 6.06539C11.3985 6.21025 10.9136 5.97226 10.5904 5.56871C10.4785 5.42385 10.3915 5.24794 10.3542 5.07204C10.0683 4.94787 9.79477 4.83405 9.59586 4.73058C10.118 5.33072 10.6028 6.03435 11.1499 6.75866C11.672 6.44824 12.1568 6.13782 12.6417 5.73427C12.393 5.70323 12.1444 5.65149 11.8833 5.58941C11.9082 5.79636 11.846 5.97226 11.6596 6.07574V6.06539Z" fill="url(#paint72_linear_675_1840)"/>
<path fill-rule="evenodd" clip-rule="evenodd" d="M12.008 2.94084C11.8215 2.92014 11.6599 2.85806 11.461 2.80632L11.4112 2.75459L11.3491 2.70285C11.2869 2.52694 11.1626 2.34069 11.001 2.15444C10.7772 1.89575 10.454 1.62672 10.2054 1.62672C10.1432 1.62672 10.081 1.64742 10.0437 1.67846C9.95672 1.74054 9.95672 1.9061 10.0437 2.11305L10.0064 2.13374L9.96914 2.15444C9.85726 2.09235 9.4843 1.9061 9.39728 1.85436L9.2481 1.74054V1.69915C9.34756 1.64742 9.43458 1.59568 9.5216 1.55429C9.77024 1.41977 9.99401 1.27491 10.2675 1.15074H10.367L10.4913 1.21283C10.8394 1.52325 11.1626 1.86471 11.4237 2.17513C11.6475 2.43382 11.8588 2.67181 12.0701 2.85806V2.9098L11.9956 2.93049L12.008 2.94084Z" fill="url(#paint73_linear_675_1840)"/>
<path fill-rule="evenodd" clip-rule="evenodd" d="M14.9541 8.98382C14.6682 9.38737 14.1336 9.39772 13.8352 9.18042C13.6363 9.04591 13.5493 8.85965 13.5493 8.6734C13.2882 8.68375 13.0271 8.6734 12.7785 8.64236C13.2758 9.13903 13.8601 9.60467 14.5314 10.0186C15.0411 9.37702 15.4638 8.71479 15.7995 8.09395C15.5757 8.19742 15.3643 8.29055 15.153 8.36298C15.1654 8.55958 15.1033 8.78722 14.9665 8.98382H14.9541Z" fill="url(#paint74_linear_675_1840)"/>
<path fill-rule="evenodd" clip-rule="evenodd" d="M11.1997 3.28275C10.9262 3.28275 10.5408 2.96198 10.2797 2.64121C10.1305 2.46531 10.0311 2.29975 9.96893 2.15488L10.0062 2.13419L10.0435 2.11349C10.4786 2.34114 10.9013 2.54809 11.3489 2.69295L11.411 2.74469L11.4608 2.79642C11.4981 2.96198 11.4732 3.0965 11.3986 3.18962C11.3489 3.24136 11.2743 3.2724 11.1997 3.2724V3.28275Z" fill="url(#paint75_linear_675_1840)"/>
<path fill-rule="evenodd" clip-rule="evenodd" d="M12.0079 10.7941C11.5728 10.3285 11.1128 10.1836 10.8642 10.3595C10.7523 10.4423 10.7274 10.6079 10.7771 10.8045C11.3739 11.0114 11.8214 11.2184 12.3063 11.3632C12.2814 11.1873 12.1944 10.9907 12.0079 10.7941Z" fill="url(#paint76_linear_675_1840)"/>
<path fill-rule="evenodd" clip-rule="evenodd" d="M15.128 5.56874C15.128 5.32041 14.9664 5.10311 14.6929 4.95825C14.3945 4.79269 13.8972 4.84443 13.6113 5.18589C13.4621 5.3618 13.3875 5.58944 13.4124 5.79639C13.9345 5.81708 14.5064 5.77569 15.128 5.56874Z" fill="url(#paint77_linear_675_1840)"/>
<path fill-rule="evenodd" clip-rule="evenodd" d="M4.01411 10.5777C3.2309 10.7743 2.52227 10.8468 2.02499 10.7847V12.3678C2.92009 11.7677 3.47953 11.1675 4.01411 10.5777Z" fill="url(#paint78_linear_675_1840)"/>
<path fill-rule="evenodd" clip-rule="evenodd" d="M3.90221 3.98544C3.23089 4.24413 2.49741 4.46142 2.02499 4.46142V6.04457C2.78334 5.47547 3.33035 4.7408 3.90221 3.98544Z" fill="url(#paint79_linear_675_1840)"/>
<path fill-rule="evenodd" clip-rule="evenodd" d="M4.01411 7.27702C3.13144 7.56675 2.48497 7.64953 2.02499 7.61849V9.20164C2.90766 8.54975 3.49197 7.89787 4.01411 7.27702Z" fill="url(#paint80_linear_675_1840)"/>
<path fill-rule="evenodd" clip-rule="evenodd" d="M4.01407 10.5779C4.66053 10.8986 5.36915 11.2194 6.0529 11.4884C6.50045 10.7331 6.98529 9.93632 7.94255 9.04645C6.66206 9.28444 5.44374 10.2261 4.01407 10.5882V10.5779Z" fill="url(#paint81_linear_675_1840)"/>
<path fill-rule="evenodd" clip-rule="evenodd" d="M7.93011 5.83803C6.50044 6.00359 5.14537 6.90381 4.01407 7.27631C4.6481 7.58674 5.30698 7.86612 5.86642 8.07306C6.51288 7.06937 7.20907 6.38644 7.91769 5.83803H7.93011Z" fill="url(#paint82_linear_675_1840)"/>
<path fill-rule="evenodd" clip-rule="evenodd" d="M11.3486 9.67764C11.908 10.3399 12.4923 10.9607 13.1388 11.4884C13.636 11.0435 14.1085 10.5365 14.5187 10.0191C13.5366 10.2157 12.4301 10.1847 11.3486 9.67764Z" fill="url(#paint83_linear_675_1840)"/>
<path fill-rule="evenodd" clip-rule="evenodd" d="M7.93018 5.83867C8.58907 6.28361 9.16094 6.82168 9.75767 7.62877C10.2549 7.28731 10.7149 7.01828 11.15 6.75959C10.3047 6.36639 9.1485 5.70416 7.93018 5.83867Z" fill="url(#paint84_linear_675_1840)"/>
<path fill-rule="evenodd" clip-rule="evenodd" d="M9.59586 4.73058C10.0558 4.4512 10.5034 4.17182 10.9385 3.85106C9.85694 3.44751 8.72563 2.83701 7.56946 2.84736C8.30294 3.40612 8.9867 4.02696 9.59586 4.73058Z" fill="url(#paint85_linear_675_1840)"/>
<path fill-rule="evenodd" clip-rule="evenodd" d="M7.94221 9.04668C8.76271 9.52266 9.43404 10.0607 9.99347 10.5884C10.4659 10.2263 10.9259 9.93655 11.3485 9.68822C10.5405 9.30536 9.4962 8.7673 7.95464 9.05703L7.94221 9.04668Z" fill="url(#paint86_linear_675_1840)"/>
<path fill-rule="evenodd" clip-rule="evenodd" d="M9.99372 10.5775C9.67049 10.5051 9.33483 10.474 9.0489 10.474C9.07376 10.7224 8.98674 10.9604 8.80026 11.157C8.43974 11.5398 7.96732 11.7157 7.48247 11.5295C7.19654 11.4157 6.99763 11.2191 6.99763 10.9293C6.68683 11.0742 6.37604 11.2811 6.05281 11.4777C6.84845 11.7882 7.65652 12.0262 8.34028 12.2952C8.83755 11.5605 9.42185 11.0121 9.98129 10.5672L9.99372 10.5775Z" fill="url(#paint87_linear_675_1840)"/>
<path fill-rule="evenodd" clip-rule="evenodd" d="M4.586 4.71061C4.12602 4.52436 3.52928 4.93826 3.21848 5.31076C3.08173 5.48667 2.99471 5.68327 2.96985 5.87987C3.60388 5.74535 4.2379 5.53841 4.90922 5.23833C4.90922 4.98999 4.80977 4.80374 4.586 4.71061Z" fill="url(#paint88_linear_675_1840)"/>
<path fill-rule="evenodd" clip-rule="evenodd" d="M14.0217 2.04099C13.599 1.87543 13.1515 2.07203 12.965 2.4135C12.8655 2.5894 12.8407 2.76531 12.878 2.93087C13.4498 2.91017 14.0217 2.79635 14.5438 2.5894C14.4941 2.36176 14.3201 2.15481 14.0341 2.04099H14.0217Z" fill="url(#paint89_linear_675_1840)"/>
<path fill-rule="evenodd" clip-rule="evenodd" d="M8.34007 1.46178C8.29034 1.27553 8.17846 1.09962 8.0417 0.965109C7.70604 0.644339 7.20876 0.489129 6.78608 0.830592C6.62446 0.965109 6.53744 1.1824 6.54987 1.41005C7.20876 1.31692 7.78063 1.31692 8.34007 1.46178Z" fill="url(#paint90_linear_675_1840)"/>
<path fill-rule="evenodd" clip-rule="evenodd" d="M11.0377 2.13464C10.7269 1.78283 10.2793 1.44136 10.0183 1.65866C9.91881 1.74144 9.93124 1.92769 10.0183 2.14499C10.4658 2.38298 10.9382 2.61062 11.4106 2.75548C11.3485 2.55888 11.2242 2.34159 11.0377 2.13464Z" fill="url(#paint91_linear_675_1840)"/>
<path fill-rule="evenodd" clip-rule="evenodd" d="M4.54844 1.49232C4.17548 1.31642 3.57875 1.51302 3.19336 1.989C3.01931 2.20629 2.93229 2.45463 2.91985 2.66158C3.65334 2.44428 4.17548 2.13386 4.78464 1.87518C4.77221 1.69927 4.68519 1.55441 4.536 1.49232H4.54844Z" fill="url(#paint92_linear_675_1840)"/>
<path fill-rule="evenodd" clip-rule="evenodd" d="M12.082 2.92034C11.8458 2.89964 11.6345 2.82721 11.3983 2.75478C11.448 2.93068 11.448 3.07555 11.361 3.17902C11.1621 3.41701 10.6399 3.0445 10.3043 2.63061C10.18 2.4754 10.0556 2.30984 9.99349 2.14428C9.70755 1.98907 9.50864 1.8856 9.23514 1.76143C9.93132 2.52714 10.5032 3.32388 10.9259 3.86195C11.361 3.54118 11.7091 3.27215 12.0696 2.93068L12.082 2.92034Z" fill="url(#paint93_linear_675_1840)"/>
<path fill-rule="evenodd" clip-rule="evenodd" d="M9.24788 1.75199C8.96195 1.61747 8.62628 1.52434 8.35278 1.46226C8.40251 1.66921 8.36521 1.8865 8.17874 2.04171C7.86794 2.31075 7.29606 2.25901 6.91068 1.98998C6.6869 1.83477 6.57502 1.62782 6.56258 1.41052C6.26422 1.45191 5.99072 1.514 5.65506 1.59678C6.30152 1.94859 6.9604 2.36248 7.582 2.84881C8.06684 2.43491 8.66357 2.07276 9.26031 1.76233L9.24788 1.75199Z" fill="url(#paint94_linear_675_1840)"/>
<path fill-rule="evenodd" clip-rule="evenodd" d="M14.0341 4.2444C14.4319 3.70634 14.8546 3.03376 15.3021 2.18527C15.0659 2.35083 14.8173 2.475 14.5438 2.58882C14.5811 2.74403 14.5438 2.89924 14.4816 3.0648C14.233 3.58217 13.7357 3.74773 13.2136 3.39592C13.0395 3.27175 12.9276 3.11654 12.8903 2.94063C12.6293 2.95098 12.3558 2.94063 12.0947 2.91994C12.679 3.41661 13.3255 3.8512 14.0465 4.25475L14.0341 4.2444Z" fill="url(#paint95_linear_675_1840)"/>
<path fill-rule="evenodd" clip-rule="evenodd" d="M5.64268 1.59509C5.33189 1.66752 5.05838 1.771 4.79731 1.87447C4.82218 2.09177 4.74759 2.35045 4.58597 2.59879C4.20058 3.15755 3.57898 3.39554 3.14387 3.12651C2.99468 3.03338 2.9201 2.85747 2.93253 2.65053C2.64659 2.74365 2.39795 2.81608 2.02499 2.86782C2.50984 3.22998 3.1563 3.62318 3.90221 3.97499C4.52381 3.15755 5.08325 2.30906 5.64268 1.59509Z" fill="url(#paint96_linear_675_1840)"/>
<path fill-rule="evenodd" clip-rule="evenodd" d="M3.76504 0.778589C4.36177 0.985537 4.9958 1.25457 5.64226 1.59603C6.1644 0.923453 6.72383 0.354346 7.32056 0.0439248C6.20169 -0.0905913 5.09525 0.0646195 3.76504 0.778589Z" fill="url(#paint97_linear_675_1840)"/>
<path fill-rule="evenodd" clip-rule="evenodd" d="M15.066 0.737152C15.066 0.737152 14.1585 1.18209 13.3379 1.36834C13.8104 1.64772 14.6309 1.99953 15.3022 2.19613C15.0908 1.37869 15.066 0.737152 15.066 0.737152Z" fill="url(#paint98_linear_675_1840)"/>
<path fill-rule="evenodd" clip-rule="evenodd" d="M10.367 1.161C11.0632 1.76114 11.5978 2.50616 12.0826 2.92005C12.5301 2.48546 12.9404 2.03018 13.3258 1.36794C12.5053 1.56454 11.5232 1.51281 10.367 1.161Z" fill="url(#paint99_linear_675_1840)"/>
<path fill-rule="evenodd" clip-rule="evenodd" d="M9.24831 1.7507C9.60884 1.5541 9.95693 1.32646 10.3672 1.15055C9.19858 0.788395 8.4651 0.177899 7.32137 0.0330353C7.9181 0.405541 8.62672 1.06777 9.24831 1.74035V1.7507Z" fill="url(#paint100_linear_675_1840)"/>
<path fill-rule="evenodd" clip-rule="evenodd" d="M3.76524 0.778183C2.895 1.25416 2.01234 1.29555 2.01234 1.29555V2.8787C2.55935 2.45446 3.30526 1.46111 3.76524 0.778183Z" fill="url(#paint101_linear_675_1840)"/>
<defs>
<linearGradient id="paint0_linear_675_1840" x1="-11.8683" y1="30.9292" x2="-7.49646" y2="30.2131" gradientUnits="userSpaceOnUse">
<stop stop-color="#E53438"/>
<stop offset="0.5" stop-color="#9F3234"/>
<stop offset="1" stop-color="#E53438"/>
</linearGradient>
<linearGradient id="paint1_linear_675_1840" x1="-3.55778" y1="32.0419" x2="0.0845075" y2="31.4454" gradientUnits="userSpaceOnUse">
<stop stop-color="#E53438"/>
<stop offset="0.5" stop-color="#9F3234"/>
<stop offset="1" stop-color="#E53438"/>
</linearGradient>
<linearGradient id="paint2_linear_675_1840" x1="-0.689072" y1="34.8043" x2="1.4224" y2="34.3793" gradientUnits="userSpaceOnUse">
<stop stop-color="#325092"/>
<stop offset="0.5" stop-color="#3B3F76"/>
<stop offset="1" stop-color="#325092"/>
</linearGradient>
<linearGradient id="paint3_linear_675_1840" x1="-1.58913" y1="33.5816" x2="2.38941" y2="32.9256" gradientUnits="userSpaceOnUse">
<stop stop-color="#4BA5DB"/>
<stop offset="0.5" stop-color="#397CAB"/>
<stop offset="1" stop-color="#4BA5DB"/>
</linearGradient>
<linearGradient id="paint4_linear_675_1840" x1="-3.32243" y1="35.4419" x2="0.449193" y2="34.842" gradientUnits="userSpaceOnUse">
<stop stop-color="#2680C2"/>
<stop offset="0.53" stop-color="#24649B"/>
<stop offset="1" stop-color="#2680C2"/>
</linearGradient>
<linearGradient id="paint5_linear_675_1840" x1="-5.12929" y1="33.4538" x2="-1.52655" y2="32.8525" gradientUnits="userSpaceOnUse">
<stop stop-color="#F29534"/>
<stop offset="0.5" stop-color="#D67F39"/>
<stop offset="1" stop-color="#F29534"/>
</linearGradient>
<linearGradient id="paint6_linear_675_1840" x1="-14.0276" y1="33.5482" x2="-9.60211" y2="32.8233" gradientUnits="userSpaceOnUse">
<stop stop-color="#E53438"/>
<stop offset="0.5" stop-color="#9F3234"/>
<stop offset="1" stop-color="#E53438"/>
</linearGradient>
<linearGradient id="paint7_linear_675_1840" x1="-11.7298" y1="34.7341" x2="-7.08796" y2="33.9964" gradientUnits="userSpaceOnUse">
<stop stop-color="#2680C2"/>
<stop offset="0.5" stop-color="#24649B"/>
<stop offset="1" stop-color="#2680C2"/>
</linearGradient>
<linearGradient id="paint8_linear_675_1840" x1="-11.745" y1="38.6122" x2="-7.06232" y2="37.8004" gradientUnits="userSpaceOnUse">
<stop stop-color="#29A154"/>
<stop offset="0.5" stop-color="#24834B"/>
<stop offset="1" stop-color="#29A154"/>
</linearGradient>
<linearGradient id="paint9_linear_675_1840" x1="-8.35071" y1="36.8606" x2="-5.89724" y2="36.3865" gradientUnits="userSpaceOnUse">
<stop stop-color="#FEFEFE"/>
<stop offset="0.5" stop-color="#D0D1D1"/>
<stop offset="1" stop-color="#FEFEFE"/>
</linearGradient>
<linearGradient id="paint10_linear_675_1840" x1="-9.54221" y1="35.8299" x2="-4.9543" y2="35.0783" gradientUnits="userSpaceOnUse">
<stop stop-color="#E53438"/>
<stop offset="0.5" stop-color="#9F3234"/>
<stop offset="1" stop-color="#E53438"/>
</linearGradient>
<linearGradient id="paint11_linear_675_1840" x1="-4.14822" y1="37.5938" x2="-2.29941" y2="37.2998" gradientUnits="userSpaceOnUse">
<stop stop-color="#2680C2"/>
<stop offset="0.5" stop-color="#24649B"/>
<stop offset="1" stop-color="#2680C2"/>
</linearGradient>
<linearGradient id="paint12_linear_675_1840" x1="-14.0356" y1="39.3201" x2="-11.6629" y2="38.9409" gradientUnits="userSpaceOnUse">
<stop stop-color="#27854F"/>
<stop offset="0.5" stop-color="#276941"/>
<stop offset="1" stop-color="#27854F"/>
</linearGradient>
<linearGradient id="paint13_linear_675_1840" x1="-7.06074" y1="38.0092" x2="-3.04177" y2="37.3671" gradientUnits="userSpaceOnUse">
<stop stop-color="#27854F"/>
<stop offset="0.45" stop-color="#276941"/>
<stop offset="1" stop-color="#27854F"/>
</linearGradient>
<linearGradient id="paint14_linear_675_1840" x1="0.612747" y1="38.2462" x2="2.30929" y2="37.975" gradientUnits="userSpaceOnUse">
<stop stop-color="#27854F"/>
<stop offset="0.5" stop-color="#276941"/>
<stop offset="1" stop-color="#27854F"/>
</linearGradient>
<linearGradient id="paint15_linear_675_1840" x1="-3.09172" y1="38.8213" x2="0.657675" y2="38.1716" gradientUnits="userSpaceOnUse">
<stop stop-color="#29A154"/>
<stop offset="0.5" stop-color="#24834B"/>
<stop offset="1" stop-color="#29A154"/>
</linearGradient>
<linearGradient id="paint16_linear_675_1840" x1="-12.8419" y1="42.4838" x2="-10.3369" y2="41.9995" gradientUnits="userSpaceOnUse">
<stop stop-color="#FEFEFE"/>
<stop offset="0.5" stop-color="#D0D1D1"/>
<stop offset="1" stop-color="#FEFEFE"/>
</linearGradient>
<linearGradient id="paint17_linear_675_1840" x1="-4.26317" y1="33.5783" x2="-2.4246" y2="33.2225" gradientUnits="userSpaceOnUse">
<stop stop-color="#FEFEFE"/>
<stop offset="0.5" stop-color="#D0D1D1"/>
<stop offset="1" stop-color="#FEFEFE"/>
</linearGradient>
<linearGradient id="paint18_linear_675_1840" x1="-3.79182" y1="40.9327" x2="-1.8824" y2="40.5636" gradientUnits="userSpaceOnUse">
<stop stop-color="#FEFEFE"/>
<stop offset="0.5" stop-color="#D0D1D1"/>
<stop offset="1" stop-color="#FEFEFE"/>
</linearGradient>
<linearGradient id="paint19_linear_675_1840" x1="-0.554094" y1="38.0936" x2="1.45159" y2="37.7059" gradientUnits="userSpaceOnUse">
<stop stop-color="#FEFEFE"/>
<stop offset="0.5" stop-color="#D0D1D1"/>
<stop offset="1" stop-color="#FEFEFE"/>
</linearGradient>
<linearGradient id="paint20_linear_675_1840" x1="-7.06147" y1="34.6598" x2="-3.284" y2="33.8996" gradientUnits="userSpaceOnUse">
<stop stop-color="#325092"/>
<stop offset="0.41" stop-color="#3B3F76"/>
<stop offset="1" stop-color="#325092"/>
</linearGradient>
<linearGradient id="paint21_linear_675_1840" x1="-9.50295" y1="37.5219" x2="-4.93284" y2="36.6023" gradientUnits="userSpaceOnUse">
<stop stop-color="#FBDD26"/>
<stop offset="0.5" stop-color="#C89B3C"/>
<stop offset="1" stop-color="#FBDD26"/>
</linearGradient>
<linearGradient id="paint22_linear_675_1840" x1="-14.0341" y1="37.4135" x2="-9.53957" y2="36.509" gradientUnits="userSpaceOnUse">
<stop stop-color="#325092"/>
<stop offset="0.5" stop-color="#3B3F76"/>
<stop offset="1" stop-color="#325092"/>
</linearGradient>
<linearGradient id="paint23_linear_675_1840" x1="-14.0412" y1="35.6006" x2="-11.6884" y2="35.1269" gradientUnits="userSpaceOnUse">
<stop stop-color="#325092"/>
<stop offset="0.5" stop-color="#3B3F76"/>
<stop offset="1" stop-color="#325092"/>
</linearGradient>
<linearGradient id="paint24_linear_675_1840" x1="-2.24325" y1="30.24" x2="1.50952" y2="29.4847" gradientUnits="userSpaceOnUse">
<stop stop-color="#E53438"/>
<stop offset="0.5" stop-color="#9F3234"/>
<stop offset="1" stop-color="#E53438"/>
</linearGradient>
<linearGradient id="paint25_linear_675_1840" x1="-4.67024" y1="40.3089" x2="-0.946979" y2="39.5594" gradientUnits="userSpaceOnUse">
<stop stop-color="#325092"/>
<stop offset="0.5" stop-color="#3B3F76"/>
<stop offset="1" stop-color="#325092"/>
</linearGradient>
<linearGradient id="paint26_linear_675_1840" x1="-1.43021" y1="37.0349" x2="2.09636" y2="36.3256" gradientUnits="userSpaceOnUse">
<stop stop-color="#325092"/>
<stop offset="0.5" stop-color="#3B3F76"/>
<stop offset="1" stop-color="#325092"/>
</linearGradient>
<linearGradient id="paint27_linear_675_1840" x1="0.425523" y1="34.9558" x2="2.40141" y2="34.5582" gradientUnits="userSpaceOnUse">
<stop stop-color="#325092"/>
<stop offset="0.5" stop-color="#3B3F76"/>
<stop offset="1" stop-color="#325092"/>
</linearGradient>
<linearGradient id="paint28_linear_675_1840" x1="-12.9538" y1="34.6656" x2="-10.5644" y2="34.1848" gradientUnits="userSpaceOnUse">
<stop stop-color="#325092"/>
<stop offset="0.5" stop-color="#3B3F76"/>
<stop offset="1" stop-color="#325092"/>
</linearGradient>
<linearGradient id="paint29_linear_675_1840" x1="-8.51621" y1="33.2249" x2="-6.10109" y2="32.7388" gradientUnits="userSpaceOnUse">
<stop stop-color="#325092"/>
<stop offset="0.5" stop-color="#3B3F76"/>
<stop offset="1" stop-color="#325092"/>
</linearGradient>
<linearGradient id="paint30_linear_675_1840" x1="-14.0373" y1="31.8599" x2="-11.8141" y2="31.4531" gradientUnits="userSpaceOnUse">
<stop stop-color="#B13438"/>
<stop offset="0.5" stop-color="#7B2E2E"/>
<stop offset="1" stop-color="#B13438"/>
</linearGradient>
<linearGradient id="paint31_linear_675_1840" x1="-4.9191" y1="36.8856" x2="-1.41312" y2="36.2441" gradientUnits="userSpaceOnUse">
<stop stop-color="#B13438"/>
<stop offset="0.5" stop-color="#7B2E2E"/>
<stop offset="1" stop-color="#B13438"/>
</linearGradient>
<linearGradient id="paint32_linear_675_1840" x1="-9.36237" y1="39.7153" x2="-4.66924" y2="38.8569" gradientUnits="userSpaceOnUse">
<stop stop-color="#B13438"/>
<stop offset="0.4" stop-color="#7B2E2E"/>
<stop offset="1" stop-color="#B13438"/>
</linearGradient>
<linearGradient id="paint33_linear_675_1840" x1="-7.51271" y1="31.1882" x2="-3.50234" y2="30.4544" gradientUnits="userSpaceOnUse">
<stop stop-color="#B13438"/>
<stop offset="0.5" stop-color="#7B2E2E"/>
<stop offset="1" stop-color="#B13438"/>
</linearGradient>
<linearGradient id="paint34_linear_675_1840" x1="0.0407253" y1="31.4216" x2="2.13292" y2="31.0392" gradientUnits="userSpaceOnUse">
<stop stop-color="#B13438"/>
<stop offset="0.5" stop-color="#7B2E2E"/>
<stop offset="1" stop-color="#B13438"/>
</linearGradient>
<linearGradient id="paint35_linear_675_1840" x1="-12.9919" y1="30.7297" x2="-10.673" y2="30.3055" gradientUnits="userSpaceOnUse">
<stop stop-color="#FEFEFE"/>
<stop offset="0.5" stop-color="#D0D1D1"/>
<stop offset="1" stop-color="#FEFEFE"/>
</linearGradient>
<linearGradient id="paint36_linear_675_1840" x1="-0.0282949" y1="41.3375" x2="2.0805" y2="40.952" gradientUnits="userSpaceOnUse">
<stop stop-color="#FEFEFE"/>
<stop offset="0.5" stop-color="#D0D1D1"/>
<stop offset="1" stop-color="#FEFEFE"/>
</linearGradient>
<linearGradient id="paint37_linear_675_1840" x1="-9.61352" y1="32.3444" x2="-5.07529" y2="31.596" gradientUnits="userSpaceOnUse">
<stop stop-color="#4BA5DB"/>
<stop offset="0.5" stop-color="#397CAB"/>
<stop offset="1" stop-color="#4BA5DB"/>
</linearGradient>
<linearGradient id="paint38_linear_675_1840" x1="-1.00563" y1="40.2961" x2="2.84381" y2="39.6614" gradientUnits="userSpaceOnUse">
<stop stop-color="#4BA5DB"/>
<stop offset="0.5" stop-color="#397CAB"/>
<stop offset="1" stop-color="#4BA5DB"/>
</linearGradient>
<linearGradient id="paint39_linear_675_1840" x1="-1.30971" y1="31.3331" x2="0.763725" y2="30.9913" gradientUnits="userSpaceOnUse">
<stop stop-color="#29A154"/>
<stop offset="0.5" stop-color="#24834B"/>
<stop offset="1" stop-color="#29A154"/>
</linearGradient>
<linearGradient id="paint40_linear_675_1840" x1="-0.511366" y1="37.2652" x2="1.3808" y2="36.9532" gradientUnits="userSpaceOnUse">
<stop stop-color="#4BA5DB"/>
<stop offset="0.5" stop-color="#397CAB"/>
<stop offset="1" stop-color="#4BA5DB"/>
</linearGradient>
<linearGradient id="paint41_linear_675_1840" x1="-4.9845" y1="37.7795" x2="-1.40455" y2="37.2147" gradientUnits="userSpaceOnUse">
<stop stop-color="#325092"/>
<stop offset="0.5" stop-color="#3B3F76"/>
<stop offset="1" stop-color="#325092"/>
</linearGradient>
<linearGradient id="paint42_linear_675_1840" x1="-8.461" y1="32.3416" x2="-6.13113" y2="31.9737" gradientUnits="userSpaceOnUse">
<stop stop-color="#FBDD26"/>
<stop offset="0.5" stop-color="#C89B3C"/>
<stop offset="1" stop-color="#FBDD26"/>
</linearGradient>
<linearGradient id="paint43_linear_675_1840" x1="-8.20216" y1="40.6479" x2="-5.69904" y2="40.253" gradientUnits="userSpaceOnUse">
<stop stop-color="#FAC42C"/>
<stop offset="0.45" stop-color="#C78D3B"/>
<stop offset="1" stop-color="#FAC42C"/>
</linearGradient>
<linearGradient id="paint44_linear_675_1840" x1="-0.0290494" y1="40.5257" x2="1.92695" y2="40.217" gradientUnits="userSpaceOnUse">
<stop stop-color="#FBDD26"/>
<stop offset="0.5" stop-color="#C89B3C"/>
<stop offset="1" stop-color="#FBDD26"/>
</linearGradient>
<linearGradient id="paint45_linear_675_1840" x1="-2.74898" y1="42.0753" x2="1.34996" y2="41.4286" gradientUnits="userSpaceOnUse">
<stop stop-color="#FBDD26"/>
<stop offset="0.5" stop-color="#C89B3C"/>
<stop offset="1" stop-color="#FBDD26"/>
</linearGradient>
<linearGradient id="paint46_linear_675_1840" x1="-11.4816" y1="42.5423" x2="-6.61118" y2="41.7738" gradientUnits="userSpaceOnUse">
<stop stop-color="#FBDD26"/>
<stop offset="0.5" stop-color="#C89B3C"/>
<stop offset="1" stop-color="#FBDD26"/>
</linearGradient>
<linearGradient id="paint47_linear_675_1840" x1="-14.0464" y1="41.5407" x2="-9.46239" y2="39.8392" gradientUnits="userSpaceOnUse">
<stop stop-color="#29A154"/>
<stop offset="0.5" stop-color="#24834B"/>
<stop offset="1" stop-color="#29A154"/>
</linearGradient>
<linearGradient id="paint48_linear_675_1840" x1="-13.9426" y1="35.4578" x2="-9.57935" y2="33.8383" gradientUnits="userSpaceOnUse">
<stop stop-color="#29A154"/>
<stop offset="0.5" stop-color="#24834B"/>
<stop offset="1" stop-color="#29A154"/>
</linearGradient>
<linearGradient id="paint49_linear_675_1840" x1="-9.7803" y1="28.9551" x2="-5.49608" y2="28.2126" gradientUnits="userSpaceOnUse">
<stop stop-color="#29A154"/>
<stop offset="0.5" stop-color="#24834B"/>
<stop offset="1" stop-color="#29A154"/>
</linearGradient>
<linearGradient id="paint50_linear_675_1840" x1="-1.55235" y1="35.1582" x2="2.41691" y2="34.4699" gradientUnits="userSpaceOnUse">
<stop stop-color="#29A154"/>
<stop offset="0.5" stop-color="#24834B"/>
<stop offset="1" stop-color="#29A154"/>
</linearGradient>
<linearGradient id="paint51_linear_675_1840" x1="-6.60924" y1="41.4616" x2="-2.68266" y2="40.7399" gradientUnits="userSpaceOnUse">
<stop stop-color="#FAC42C"/>
<stop offset="0.45" stop-color="#C78D3B"/>
<stop offset="1" stop-color="#FAC42C"/>
</linearGradient>
<linearGradient id="paint52_linear_675_1840" x1="-12.9121" y1="38.521" x2="-10.5185" y2="38.081" gradientUnits="userSpaceOnUse">
<stop stop-color="#FAC42C"/>
<stop offset="0.5" stop-color="#C78D3B"/>
<stop offset="1" stop-color="#FAC42C"/>
</linearGradient>
<linearGradient id="paint53_linear_675_1840" x1="-8.30219" y1="35.9043" x2="-5.98824" y2="35.5392" gradientUnits="userSpaceOnUse">
<stop stop-color="#325092"/>
<stop offset="0.5" stop-color="#3B3F76"/>
<stop offset="1" stop-color="#325092"/>
</linearGradient>
<linearGradient id="paint54_linear_675_1840" x1="1.3249" y1="41.4541" x2="3.73661" y2="41.011" gradientUnits="userSpaceOnUse">
<stop stop-color="#FAC42C"/>
<stop offset="0.5" stop-color="#C78D3B"/>
<stop offset="1" stop-color="#FAC42C"/>
</linearGradient>
<linearGradient id="paint55_linear_675_1840" x1="-14.0285" y1="43.1014" x2="-11.4643" y2="42.6303" gradientUnits="userSpaceOnUse">
<stop stop-color="#FAC42C"/>
<stop offset="0.5" stop-color="#C78D3B"/>
<stop offset="1" stop-color="#FAC42C"/>
</linearGradient>
<linearGradient id="paint56_linear_675_1840" x1="-14.0067" y1="42.8472" x2="-9.2413" y2="42.0391" gradientUnits="userSpaceOnUse">
<stop stop-color="#EB594F"/>
<stop offset="0.5" stop-color="#C74840"/>
<stop offset="1" stop-color="#EB594F"/>
</linearGradient>
<linearGradient id="paint57_linear_675_1840" x1="-0.952791" y1="41.7133" x2="2.86526" y2="41.0656" gradientUnits="userSpaceOnUse">
<stop stop-color="#E53438"/>
<stop offset="0.5" stop-color="#9F3234"/>
<stop offset="1" stop-color="#E53438"/>
</linearGradient>
<linearGradient id="paint58_linear_675_1840" x1="-12.8816" y1="37.6623" x2="-10.5499" y2="37.2669" gradientUnits="userSpaceOnUse">
<stop stop-color="#EB594F"/>
<stop offset="0.5" stop-color="#C74840"/>
<stop offset="1" stop-color="#EB594F"/>
</linearGradient>
<linearGradient id="paint59_linear_675_1840" x1="-8.74946" y1="29.745" x2="-6.47843" y2="29.3598" gradientUnits="userSpaceOnUse">
<stop stop-color="#EB594F"/>
<stop offset="0.5" stop-color="#C74840"/>
<stop offset="1" stop-color="#EB594F"/>
</linearGradient>
<linearGradient id="paint60_linear_675_1840" x1="-8.17671" y1="39.7572" x2="-5.74929" y2="39.3454" gradientUnits="userSpaceOnUse">
<stop stop-color="#FEFEFE"/>
<stop offset="0.5" stop-color="#D0D1D1"/>
<stop offset="1" stop-color="#FEFEFE"/>
</linearGradient>
<linearGradient id="paint61_linear_675_1840" x1="-4.11853" y1="36.9586" x2="-2.3315" y2="36.6556" gradientUnits="userSpaceOnUse">
<stop stop-color="#FBDD26"/>
<stop offset="0.5" stop-color="#C89B3C"/>
<stop offset="1" stop-color="#FBDD26"/>
</linearGradient>
<linearGradient id="paint62_linear_675_1840" x1="-4.69409" y1="41.1992" x2="-0.975353" y2="40.6082" gradientUnits="userSpaceOnUse">
<stop stop-color="#2680C2"/>
<stop offset="0.5" stop-color="#24649B"/>
<stop offset="1" stop-color="#2680C2"/>
</linearGradient>
<linearGradient id="paint63_linear_675_1840" x1="-11.79" y1="32.4776" x2="-7.48273" y2="31.5391" gradientUnits="userSpaceOnUse">
<stop stop-color="#FEFEFE"/>
<stop offset="0.5" stop-color="#AAAAA9"/>
<stop offset="1" stop-color="#FEFEFE"/>
</linearGradient>
<linearGradient id="paint64_linear_675_1840" x1="-3.33362" y1="36.7055" x2="0.365674" y2="35.8992" gradientUnits="userSpaceOnUse">
<stop stop-color="#FEFEFE"/>
<stop offset="0.48" stop-color="#AAAAA9"/>
<stop offset="1" stop-color="#FEFEFE"/>
</linearGradient>
<linearGradient id="paint65_linear_675_1840" x1="2.49841" y1="32.7106" x2="0.187746" y2="33.4424" gradientUnits="userSpaceOnUse">
<stop stop-color="#D0D1D1"/>
<stop offset="1" stop-color="#FEFEFE"/>
</linearGradient>
<linearGradient id="paint66_linear_675_1840" x1="2.9362" y1="39.4519" x2="0.721968" y2="40.0966" gradientUnits="userSpaceOnUse">
<stop stop-color="#D0D1D1"/>
<stop offset="1" stop-color="#FEFEFE"/>
</linearGradient>
<linearGradient id="paint67_linear_675_1840" x1="2.41408" y1="36.114" x2="0.577913" y2="36.8704" gradientUnits="userSpaceOnUse">
<stop stop-color="#D0D1D1"/>
<stop offset="1" stop-color="#FEFEFE"/>
</linearGradient>
<linearGradient id="paint68_linear_675_1840" x1="-3.58018" y1="33.3028" x2="0.0205699" y2="32.518" gradientUnits="userSpaceOnUse">
<stop stop-color="#FEFEFE"/>
<stop offset="0.5" stop-color="#AAAAA9"/>
<stop offset="1" stop-color="#FEFEFE"/>
</linearGradient>
<linearGradient id="paint69_linear_675_1840" x1="-9.57158" y1="33.7266" x2="-5.14647" y2="33.0016" gradientUnits="userSpaceOnUse">
<stop stop-color="#E53438"/>
<stop offset="0.5" stop-color="#9F3234"/>
<stop offset="1" stop-color="#E53438"/>
</linearGradient>
<linearGradient id="paint70_linear_675_1840" x1="-14.0214" y1="38.8545" x2="-9.449" y2="38.1056" gradientUnits="userSpaceOnUse">
<stop stop-color="#E53438"/>
<stop offset="0.5" stop-color="#9F3234"/>
<stop offset="1" stop-color="#E53438"/>
</linearGradient>
<linearGradient id="paint71_linear_675_1840" x1="-14.0378" y1="29.8083" x2="-9.77701" y2="29.11" gradientUnits="userSpaceOnUse">
<stop stop-color="#325092"/>
<stop offset="0.5" stop-color="#3B3F76"/>
<stop offset="1" stop-color="#325092"/>
</linearGradient>
<linearGradient id="paint72_linear_675_1840" x1="-5.1685" y1="34.3691" x2="-1.54917" y2="33.7762" gradientUnits="userSpaceOnUse">
<stop stop-color="#E53438"/>
<stop offset="0.5" stop-color="#9F3234"/>
<stop offset="1" stop-color="#E53438"/>
</linearGradient>
<linearGradient id="paint73_linear_675_1840" x1="-5.54448" y1="30.1875" x2="-2.18856" y2="29.6376" gradientUnits="userSpaceOnUse">
<stop stop-color="#E53438"/>
<stop offset="0.5" stop-color="#9F3234"/>
<stop offset="1" stop-color="#E53438"/>
</linearGradient>
<linearGradient id="paint74_linear_675_1840" x1="-1.41985" y1="38.4637" x2="2.15841" y2="37.8774" gradientUnits="userSpaceOnUse">
<stop stop-color="#E53438"/>
<stop offset="0.5" stop-color="#9F3234"/>
<stop offset="1" stop-color="#E53438"/>
</linearGradient>
<linearGradient id="paint75_linear_675_1840" x1="-4.69145" y1="30.7858" x2="-2.89085" y2="30.4907" gradientUnits="userSpaceOnUse">
<stop stop-color="#E53438"/>
<stop offset="0.5" stop-color="#9F3234"/>
<stop offset="1" stop-color="#E53438"/>
</linearGradient>
<linearGradient id="paint76_linear_675_1840" x1="-3.78353" y1="40.3379" x2="-1.92671" y2="40.0334" gradientUnits="userSpaceOnUse">
<stop stop-color="#E53438"/>
<stop offset="0.5" stop-color="#9F3234"/>
<stop offset="1" stop-color="#E53438"/>
</linearGradient>
<linearGradient id="paint77_linear_675_1840" x1="-0.672182" y1="33.8753" x2="1.37074" y2="33.5406" gradientUnits="userSpaceOnUse">
<stop stop-color="#E53438"/>
<stop offset="0.5" stop-color="#9F3234"/>
<stop offset="1" stop-color="#E53438"/>
</linearGradient>
<linearGradient id="paint78_linear_675_1840" x1="-14.0437" y1="41.1049" x2="-11.7141" y2="40.4644" gradientUnits="userSpaceOnUse">
<stop stop-color="#D0D1D1"/>
<stop offset="1" stop-color="#FEFEFE"/>
</linearGradient>
<linearGradient id="paint79_linear_675_1840" x1="-14.0369" y1="33.6171" x2="-11.796" y2="33.0012" gradientUnits="userSpaceOnUse">
<stop stop-color="#D0D1D1"/>
<stop offset="1" stop-color="#FEFEFE"/>
</linearGradient>
<linearGradient id="paint80_linear_675_1840" x1="-14.0291" y1="37.3921" x2="-11.6748" y2="36.7821" gradientUnits="userSpaceOnUse">
<stop stop-color="#D0D1D1"/>
<stop offset="1" stop-color="#FEFEFE"/>
</linearGradient>
<linearGradient id="paint81_linear_675_1840" x1="-11.5802" y1="40.4404" x2="-7.09386" y2="38.7675" gradientUnits="userSpaceOnUse">
<stop stop-color="#D0D1D1"/>
<stop offset="1" stop-color="#FEFEFE"/>
</linearGradient>
<linearGradient id="paint82_linear_675_1840" x1="-11.6127" y1="36.5197" x2="-7.11872" y2="34.8441" gradientUnits="userSpaceOnUse">
<stop stop-color="#D0D1D1"/>
<stop offset="1" stop-color="#FEFEFE"/>
</linearGradient>
<linearGradient id="paint83_linear_675_1840" x1="-3.09621" y1="40.0574" x2="0.622605" y2="39.4515" gradientUnits="userSpaceOnUse">
<stop stop-color="#FEFEFE"/>
<stop offset="0.46" stop-color="#AAAAA9"/>
<stop offset="1" stop-color="#D0D1D1"/>
</linearGradient>
<linearGradient id="paint84_linear_675_1840" x1="-7.09803" y1="35.545" x2="-3.30112" y2="34.9266" gradientUnits="userSpaceOnUse">
<stop stop-color="#FEFEFE"/>
<stop offset="0.49" stop-color="#AAAAA9"/>
<stop offset="1" stop-color="#D0D1D1"/>
</linearGradient>
<linearGradient id="paint85_linear_675_1840" x1="-7.51409" y1="32.1049" x2="-3.56916" y2="31.4626" gradientUnits="userSpaceOnUse">
<stop stop-color="#FEFEFE"/>
<stop offset="0.49" stop-color="#AAAAA9"/>
<stop offset="1" stop-color="#D0D1D1"/>
</linearGradient>
<linearGradient id="paint86_linear_675_1840" x1="-7.04544" y1="39.1549" x2="-3.07795" y2="38.509" gradientUnits="userSpaceOnUse">
<stop stop-color="#FEFEFE"/>
<stop offset="0.46" stop-color="#AAAAA9"/>
<stop offset="1" stop-color="#D0D1D1"/>
</linearGradient>
<linearGradient id="paint87_linear_675_1840" x1="-9.29002" y1="41.3155" x2="-4.63517" y2="40.3787" gradientUnits="userSpaceOnUse">
<stop stop-color="#325092"/>
<stop offset="0.5" stop-color="#3B3F76"/>
<stop offset="1" stop-color="#325092"/>
</linearGradient>
<linearGradient id="paint88_linear_675_1840" x1="-12.8963" y1="33.8095" x2="-10.5986" y2="33.3651" gradientUnits="userSpaceOnUse">
<stop stop-color="#FEFEFE"/>
<stop offset="0.5" stop-color="#D0D1D1"/>
<stop offset="1" stop-color="#FEFEFE"/>
</linearGradient>
<linearGradient id="paint89_linear_675_1840" x1="-1.31538" y1="30.4958" x2="0.662642" y2="30.1134" gradientUnits="userSpaceOnUse">
<stop stop-color="#FEFEFE"/>
<stop offset="0.5" stop-color="#D0D1D1"/>
<stop offset="1" stop-color="#FEFEFE"/>
</linearGradient>
<linearGradient id="paint90_linear_675_1840" x1="-8.68571" y1="28.9622" x2="-6.565" y2="28.5354" gradientUnits="userSpaceOnUse">
<stop stop-color="#325092"/>
<stop offset="0.5" stop-color="#3B3F76"/>
<stop offset="1" stop-color="#325092"/>
</linearGradient>
<linearGradient id="paint91_linear_675_1840" x1="-4.73695" y1="30.1899" x2="-2.9879" y2="29.9137" gradientUnits="userSpaceOnUse">
<stop stop-color="#FBDD26"/>
<stop offset="0.5" stop-color="#C89B3C"/>
<stop offset="1" stop-color="#FBDD26"/>
</linearGradient>
<linearGradient id="paint92_linear_675_1840" x1="-12.9492" y1="30.02" x2="-10.7451" y2="29.6145" gradientUnits="userSpaceOnUse">
<stop stop-color="#FAC42C"/>
<stop offset="0.5" stop-color="#C78D3B"/>
<stop offset="1" stop-color="#FAC42C"/>
</linearGradient>
<linearGradient id="paint93_linear_675_1840" x1="-5.5525" y1="30.96" x2="-2.25002" y2="30.2955" gradientUnits="userSpaceOnUse">
<stop stop-color="#325092"/>
<stop offset="0.5" stop-color="#3B3F76"/>
<stop offset="1" stop-color="#325092"/>
</linearGradient>
<linearGradient id="paint94_linear_675_1840" x1="-9.76246" y1="30.2097" x2="-5.55801" y2="29.5466" gradientUnits="userSpaceOnUse">
<stop stop-color="#FBDD26"/>
<stop offset="0.5" stop-color="#C89B3C"/>
<stop offset="1" stop-color="#FBDD26"/>
</linearGradient>
<linearGradient id="paint95_linear_675_1840" x1="-2.18481" y1="31.6872" x2="1.55972" y2="30.9988" gradientUnits="userSpaceOnUse">
<stop stop-color="#FAC42C"/>
<stop offset="0.5" stop-color="#C78D3B"/>
<stop offset="1" stop-color="#FAC42C"/>
</linearGradient>
<linearGradient id="paint96_linear_675_1840" x1="-14.0194" y1="31.1557" x2="-9.71918" y2="30.4722" gradientUnits="userSpaceOnUse">
<stop stop-color="#29A154"/>
<stop offset="0.5" stop-color="#24834B"/>
<stop offset="1" stop-color="#29A154"/>
</linearGradient>
<linearGradient id="paint97_linear_675_1840" x1="-11.9283" y1="28.8412" x2="-7.80417" y2="27.9425" gradientUnits="userSpaceOnUse">
<stop stop-color="#FEFEFE"/>
<stop offset="1" stop-color="#AAAAA9"/>
</linearGradient>
<linearGradient id="paint98_linear_675_1840" x1="1.7604" y1="29.1035" x2="-0.434978" y2="30.3066" gradientUnits="userSpaceOnUse">
<stop stop-color="#D0D1D1"/>
<stop offset="1" stop-color="#FEFEFE"/>
</linearGradient>
<linearGradient id="paint99_linear_675_1840" x1="-4.24551" y1="30.075" x2="-0.802881" y2="29.3247" gradientUnits="userSpaceOnUse">
<stop stop-color="#FEFEFE"/>
<stop offset="0.5" stop-color="#AAAAA9"/>
<stop offset="1" stop-color="#FEFEFE"/>
</linearGradient>
<linearGradient id="paint100_linear_675_1840" x1="-7.83908" y1="28.7612" x2="-4.24453" y2="27.9782" gradientUnits="userSpaceOnUse">
<stop stop-color="#FEFEFE"/>
<stop offset="0.54" stop-color="#AAAAA9"/>
<stop offset="1" stop-color="#FEFEFE"/>
</linearGradient>
<linearGradient id="paint101_linear_675_1840" x1="-14.0296" y1="29.9453" x2="-11.9946" y2="29.1673" gradientUnits="userSpaceOnUse">
<stop stop-color="#D0D1D1"/>
<stop offset="1" stop-color="#FEFEFE"/>
</linearGradient>
</defs>
</svg>
